<?xml version="1.0" encoding="UTF-8"?>
<svg width="40" height="40" version="1.1" viewBox="0 0 10.583 10.583" xmlns="http://www.w3.org/2000/svg"
     xmlns:xlink="http://www.w3.org/1999/xlink">
    <defs>
        <linearGradient id="linearGradient2395">
            <stop stop-color="#58004c" offset="0"/>
            <stop stop-color="#b50079" offset=".25"/>
            <stop stop-color="#ff0392" offset=".50"/>
            <stop stop-color="#ff0091" offset=".75"/>
            <stop stop-color="#ff62e5" offset="1"/>
        </linearGradient>
        <style>.cls-1{fill:#fff;}.cls-2{fill:#1b1b1b;}.cls-3{fill:#ff0090;}</style>
        <linearGradient id="linearGradient2397" x1="-3.6069" x2="1.1619" y1="9.2354" y2="1.2032"
                        gradientTransform="translate(4.9048 .061071)" gradientUnits="userSpaceOnUse"
                        xlink:href="#linearGradient2395"/>
        <linearGradient id="linearGradient20227" x1="-3.6069" x2="1.1619" y1="9.2354" y2="1.2032"
                        gradientTransform="translate(4.9048 .061072)" gradientUnits="userSpaceOnUse"
                        xlink:href="#linearGradient2395"/>
        <filter id="filter20386" x="-.077075" y="-.059558" width="1.1542" height="1.1191"
                color-interpolation-filters="sRGB">
            <feGaussianBlur result="blur" stdDeviation="0.2 0.2"/>
        </filter>
    </defs>
    <path d="m5.2915 9.3211 1.4653-2.5e-6v-3.297l3.297 3.3e-6v-1.4653l-3.297-2.8e-6v-3.297l-1.4653 2.7e-6v3.297l-3.297 3e-6v1.4653l3.297-2.2e-6z"
          fill="#fff"/>
    <path d="m1.9945 9.3212 4.7624-8.0594h-1.4653l-4.7624 8.0594z" fill="url(#linearGradient20227)"
          filter="url(#filter20386)"/>
    <path d="m5.4363 9.1628 1.1757-2.4e-6v-3.2835l3.2896 2.5e-6v-1.1757l-3.2896-2.2e-6v-3.2834l-1.1757 2.3e-6v3.2834l-3.3095 2e-6v1.1757l3.3095-2e-6z"/>
    <path d="m1.9945 9.3212 4.7624-8.0594h-1.4653l-4.7624 8.0594z" fill="url(#linearGradient2397)"/>
</svg>
