<?xml version="1.0" encoding="UTF-8"?>
<svg width="40" height="40" version="1.1" viewBox="0 0 10.583 10.583" xmlns="http://www.w3.org/2000/svg" xmlns:cc="http://creativecommons.org/ns#" xmlns:dc="http://purl.org/dc/elements/1.1/" xmlns:rdf="http://www.w3.org/1999/02/22-rdf-syntax-ns#">
 <defs>
  <style>.cls-1{fill:#fff;}.cls-2{fill:#1b1b1b;}.cls-3{fill:#ff0090;}</style>
 </defs>
 <metadata>
  <rdf:RDF>
   <cc:Work rdf:about="">
    <dc:format>image/svg+xml</dc:format>
    <dc:type rdf:resource="http://purl.org/dc/dcmitype/StillImage"/>
    <dc:title/>
   </cc:Work>
  </rdf:RDF>
 </metadata>
 <g transform="matrix(.087471 0 0 .087471 .53002 1.1873)" data-name="Layer 2">
  <g data-name="Layer 1">
   <path class="cls-1" d="m54.43 0a5.67 5.67 0 0 0-4.88 2.78l-18.3 31h-10.57a5.67 5.67 0 0 0-5.68 5.64v15a5.7 5.7 0 0 0 1.66 4l-15.86 26.87a5.67 5.67 0 0 0 4.88 8.55h15a5.67 5.67 0 0 0 4.88-2.79l18.3-31h4.9v28.12a5.67 5.67 0 0 0 5.67 5.67h15a5.67 5.67 0 0 0 5.67-5.67v-28.08h28.08a5.67 5.67 0 0 0 5.67-5.67v-15a5.67 5.67 0 0 0-5.67-5.67h-28.08v-28.08a5.67 5.67 0 0 0-5.67-5.67zm3.23 11.34h6.1v28.08a5.67 5.67 0 0 0 5.67 5.67h28.08v3.66h-28.08a5.67 5.67 0 0 0-5.67 5.67v28.08h-3.66v-28.08a5.67 5.67 0 0 0-5.67-5.67h-13.81a5.68 5.68 0 0 0-4.88 2.78l-18.3 31h-1.83l14.89-25.23a5.67 5.67 0 0 0-4.15-8.5v-3.71h8.13a5.66 5.66 0 0 0 4.88-2.79zm-3.17 14.05a5.65 5.65 0 0 0-4.94 2.78l-4.95 8.36a5.67 5.67 0 0 0 4.88 8.56h5a5.67 5.67 0 0 0 5.67-5.67v-8.37a5.67 5.67 0 0 0-5.61-5.66zm-0.06-19.72-20 33.75h-13.75v15h4.94l-19.94 33.75h15l19.94-33.75h13.81v33.75h15v-33.75h33.75v-15h-33.75v-33.75zm0 25.38v8.37h-5z" fill="#fff"/>
   <path class="cls-2" d="m54.42 88.17h15v-33.75h33.75v-15h-33.75v-33.75h-15v33.75h-33.75v15h33.75z" fill="#1b1b1b"/>
   <path class="cls-3" d="m54.42 5.65-48.75 82.5h15l33.75-57.15z" fill="#ff0090"/>
   <path class="cls-3" d="m20.67 88.17 48.75-82.5h-15l-48.75 82.5z" fill="#ff0090"/>
  </g>
 </g>
</svg>
