<?xml version="1.0" encoding="UTF-8"?>
<svg width="78.331mm" height="29.13mm" version="1.1" viewBox="0 0 78.331 29.13" xmlns="http://www.w3.org/2000/svg" xmlns:cc="http://creativecommons.org/ns#" xmlns:dc="http://purl.org/dc/elements/1.1/" xmlns:rdf="http://www.w3.org/1999/02/22-rdf-syntax-ns#">
 <metadata>
  <rdf:RDF>
   <cc:Work rdf:about="">
    <dc:format>image/svg+xml</dc:format>
    <dc:type rdf:resource="http://purl.org/dc/dcmitype/StillImage"/>
    <dc:title/>
   </cc:Work>
  </rdf:RDF>
 </metadata>
 <g transform="translate(49.174 -107.24)">
  <path d="m-31.976 136.34 5.2917-1e-5v-11.906l11.906 1e-5v-5.2916l-11.906-1e-5v-11.906l-5.2917 1e-5v11.906l-11.906 1e-5v5.2916l11.906-1e-5z" fill="#fff"/>
  <path d="m-31.976 107.24-17.198 29.104h5.2917l11.906-20.149z" fill="#ff0090"/>
  <g fill="#fff" stroke-width=".43348" style="font-variant-caps:normal;font-variant-east-asian:normal;font-variant-ligatures:normal;font-variant-numeric:normal" aria-label="Courses">
   <path d="m-16.53 129.36c-0.06943-0.87482-0.24995-1.4303-0.68041-1.9996-0.77762-1.0276-2.0274-1.5969-3.5409-1.5969-2.8605 0-4.6379 2.0412-4.6379 5.3183 0 3.2632 1.7635 5.2906 4.5824 5.2906 2.5273 0 4.1936-1.458 4.3185-3.777h-2.0274c-0.13886 1.2914-0.94425 2.0274-2.2356 2.0274-1.6108 0-2.555-1.3053-2.555-3.5132 0-2.2356 0.98591-3.5687 2.6245-3.5687 1.2081 0 1.8885 0.58322 2.1662 1.8191z" style="font-variant-caps:normal;font-variant-east-asian:normal;font-variant-ligatures:normal;font-variant-numeric:normal"/>
   <path d="m-11.781 128.42c-2.2912 0-3.6937 1.5136-3.6937 3.9714 0 2.4717 1.4025 3.9714 3.7076 3.9714 2.2912 0 3.7076-1.4997 3.7076-3.9158 0-2.5411-1.3747-4.0269-3.7214-4.0269zm0.01389 1.5691c1.0692 0 1.7635 0.95813 1.7635 2.43 0 1.4025-0.72207 2.3745-1.7635 2.3745-1.0553 0-1.7635-0.95813-1.7635-2.4023 0-1.4441 0.70819-2.4023 1.7635-2.4023z" style="font-variant-caps:normal;font-variant-east-asian:normal;font-variant-ligatures:normal;font-variant-numeric:normal"/>
   <path d="m0.035924 136.05v-7.4984h-1.944v4.6935c0 0.8887-0.61098 1.4719-1.5691 1.4719-0.83316 0-1.2497-0.44436-1.2497-1.347v-4.8184h-1.944v5.2211c0 1.6663 0.90259 2.5967 2.5134 2.5967 1.0137 0 1.6941-0.36104 2.2495-1.2081v0.8887z" style="font-variant-caps:normal;font-variant-east-asian:normal;font-variant-ligatures:normal;font-variant-numeric:normal"/>
   <path d="m1.8827 128.55v7.4984h1.944v-3.9853c0-1.1386 0.56933-1.708 1.708-1.708 0.20829 0 0.34715 0.0139 0.61098 0.0555v-1.9718c-0.11109-0.0139-0.15275-0.0139-0.23606-0.0139-0.8887 0-1.6524 0.58321-2.0829 1.5969v-1.4719z" style="font-variant-caps:normal;font-variant-east-asian:normal;font-variant-ligatures:normal;font-variant-numeric:normal"/>
   <path d="m13.45 130.97c-0.02777-1.583-1.2497-2.5411-3.2632-2.5411-1.9024 0-3.0827 0.95813-3.0827 2.4995 0 0.49989 0.15275 0.93036 0.41658 1.222 0.26383 0.26383 0.4999 0.3888 1.222 0.62487l2.319 0.72207c0.48601 0.15274 0.65264 0.30549 0.65264 0.61098 0 0.45824-0.54155 0.73596-1.4441 0.73596-0.51378 0-0.90259-0.0833-1.1525-0.26383-0.20829-0.15275-0.29161-0.3055-0.37492-0.70819h-1.9024c0.055544 1.6524 1.2636 2.4995 3.5409 2.4995 1.0414 0 1.833-0.22218 2.3884-0.66653s0.8887-1.1386 0.8887-1.8746c0-0.97202-0.48601-1.5969-1.4719-1.8885l-2.4578-0.70819c-0.54155-0.16663-0.68041-0.27772-0.68041-0.58321 0-0.41658 0.44435-0.6943 1.1248-0.6943 0.93036 0 1.3886 0.33326 1.4025 1.0137z" style="font-variant-caps:normal;font-variant-east-asian:normal;font-variant-ligatures:normal;font-variant-numeric:normal"/>
   <path d="m21.434 132.91c0.01389-0.16664 0.01389-0.23607 0.01389-0.33327 0-0.74984-0.11109-1.4441-0.29161-1.9718-0.4999-1.3608-1.708-2.1801-3.2216-2.1801-2.1523 0-3.4715 1.5552-3.4715 4.0686 0 2.4023 1.3053 3.8742 3.4298 3.8742 1.6802 0 3.041-0.94425 3.4715-2.43h-1.9163c-0.23606 0.5971-0.77762 0.94425-1.4858 0.94425-0.55544 0-0.99979-0.23606-1.2775-0.65264-0.18052-0.27772-0.24995-0.61099-0.27772-1.3192zm-4.999-1.2914c0.12497-1.1525 0.61098-1.708 1.4719-1.708 0.8887 0 1.4164 0.5971 1.5136 1.708z" style="font-variant-caps:normal;font-variant-east-asian:normal;font-variant-ligatures:normal;font-variant-numeric:normal"/>
   <path d="m28.947 130.97c-0.02777-1.583-1.2497-2.5411-3.2632-2.5411-1.9024 0-3.0827 0.95813-3.0827 2.4995 0 0.49989 0.15275 0.93036 0.41658 1.222 0.26383 0.26383 0.4999 0.3888 1.222 0.62487l2.319 0.72207c0.48601 0.15274 0.65264 0.30549 0.65264 0.61098 0 0.45824-0.54155 0.73596-1.4441 0.73596-0.51378 0-0.90259-0.0833-1.1525-0.26383-0.20829-0.15275-0.29161-0.3055-0.37492-0.70819h-1.9024c0.05554 1.6524 1.2636 2.4995 3.5409 2.4995 1.0414 0 1.833-0.22218 2.3884-0.66653s0.8887-1.1386 0.8887-1.8746c0-0.97202-0.48601-1.5969-1.4719-1.8885l-2.4578-0.70819c-0.54155-0.16663-0.68041-0.27772-0.68041-0.58321 0-0.41658 0.44435-0.6943 1.1248-0.6943 0.93036 0 1.3886 0.33326 1.4025 1.0137z" style="font-variant-caps:normal;font-variant-east-asian:normal;font-variant-ligatures:normal;font-variant-numeric:normal"/>
  </g>
  <path d="m-43.883 136.34 17.198-29.104h-5.2917l-17.198 29.104z" fill="#ff0090"/>
 </g>
</svg>
