<?xml version="1.0" encoding="UTF-8"?>
<svg width="82.345mm" height="33.12mm" version="1.1" viewBox="0 0 82.345 33.12" xmlns="http://www.w3.org/2000/svg" xmlns:cc="http://creativecommons.org/ns#" xmlns:dc="http://purl.org/dc/elements/1.1/" xmlns:rdf="http://www.w3.org/1999/02/22-rdf-syntax-ns#">
 <metadata>
  <rdf:RDF>
   <cc:Work rdf:about="">
    <dc:format>image/svg+xml</dc:format>
    <dc:type rdf:resource="http://purl.org/dc/dcmitype/StillImage"/>
    <dc:title/>
   </cc:Work>
  </rdf:RDF>
 </metadata>
 <g transform="translate(-49 -140.9)">
  <g transform="translate(-69.563 28.513)" fill="#fff" stroke="#fff" stroke-linejoin="round" stroke-width="4" style="font-variant-caps:normal;font-variant-east-asian:normal;font-variant-ligatures:normal;font-variant-numeric:normal" aria-label="Courses">
   <path d="m195.44 133.57c-1.287 0-2.5289 0.32038-3.5137 1.1191-0.98482 0.79876-1.5684 2.0996-1.5684 3.3809 0 0.52144 0.12237 1.0364 0.32421 1.5293-0.39299 0.39128-0.6059 0.92815-0.58789 1.4824 0.0438 1.3013 0.69803 2.6714 1.7852 3.4375 1.0871 0.76609 2.3692 0.99415 3.7559 0.99415 1.3259 0 2.6115-0.2833 3.6367-1.1035 1.0443-0.83543 1.6406-2.0978 1.6406-3.4375 0-0.58265-0.29294-1.16-0.56054-1.7266 0.23593-0.34323 0.35883-0.75154 0.35156-1.168-0.0228-1.2988-0.63924-2.6128-1.6562-3.4062-1.017-0.79346-2.2834-1.1016-3.6074-1.1016zm3.2637 4.5422c-0.0278-1.583-1.2498-2.5412-3.2633-2.5412-1.9024 0-3.0828 0.95816-3.0828 2.4996 0 0.49991 0.15275 0.93039 0.4166 1.222 0.26384 0.26384 0.49991 0.38882 1.222 0.62488l2.319 0.7221c0.48602 0.15275 0.65266 0.3055 0.65266 0.611 0 0.45825-0.54157 0.73598-1.4442 0.73598-0.51379 0-0.90261-0.0833-1.1526-0.26384-0.20829-0.15275-0.29161-0.3055-0.37493-0.70821h-1.9024c0.0556 1.6525 1.2637 2.4996 3.541 2.4996 1.0415 0 1.833-0.22218 2.3885-0.66655 0.55546-0.44436 0.88873-1.1387 0.88873-1.8747 0-0.97205-0.48602-1.5969-1.472-1.8886l-2.4579-0.70821c-0.54157-0.16663-0.68043-0.27772-0.68043-0.58323 0-0.41659 0.44436-0.69432 1.1248-0.69432 0.93039 0 1.3886 0.33328 1.4025 1.0137zm-11.012-4.5422c-1.5579 0-3.085 0.64289-4.0664 1.7949-0.98135 1.152-1.4062 2.6688-1.4062 4.2754 0 1.5634 0.43593 3.0509 1.4219 4.1641s2.4856 1.709 4.0098 1.709c2.4296 0 4.7116-1.5226 5.3926-3.873 0.0884-0.30606 0.1025-0.62882 0.041-0.94141 0.0525-0.15421 0.0859-0.31424 0.0996-0.47656 0.0177-0.2125 0.0215-0.40279 0.0215-0.5 0-0.94739-0.12729-1.8208-0.40039-2.6191-4e-3 -0.0137-9e-3 -0.0274-0.0137-0.041-0.76994-2.096-2.8643-3.4922-5.0996-3.4922zm3.4992 6.4863c0.0139-0.16664 0.0139-0.23607 0.0139-0.33328 0-0.74986-0.11109-1.4442-0.29161-1.9719-0.49991-1.3609-1.708-2.1802-3.2216-2.1802-2.1524 0-3.4716 1.5553-3.4716 4.0687 0 2.4023 1.3053 3.8743 3.4299 3.8743 1.6803 0 3.0411-0.94427 3.4716-2.4301h-1.9163c-0.23607 0.59712-0.77764 0.94428-1.4858 0.94428-0.55546 0-0.99983-0.23607-1.2776-0.65266-0.18053-0.27773-0.24996-0.61101-0.27773-1.3192zm-4.9991-1.2914c0.12498-1.1526 0.611-1.708 1.472-1.708 0.88873 0 1.4164 0.59711 1.5136 1.708zm-6.2482-5.1948c-1.287 0-2.5308 0.32038-3.5156 1.1191s-1.5684 2.0996-1.5684 3.3809c0 0.52117 0.1226 1.0366 0.32422 1.5293-0.39228 0.39161-0.60447 0.92844-0.58594 1.4824 0.0438 1.3013 0.69607 2.6714 1.7832 3.4375 1.0871 0.76609 2.3692 0.99415 3.7559 0.99415 1.3259 0 2.6134-0.2833 3.6387-1.1035 1.0443-0.83543 1.6387-2.0978 1.6387-3.4375 0-0.58265-0.29294-1.16-0.56055-1.7266 0.23593-0.34323 0.35883-0.75154 0.35156-1.168-0.0228-1.2988-0.63923-2.6128-1.6562-3.4062-1.017-0.79346-2.2815-1.1016-3.6055-1.1016zm3.2626 4.5422c-0.0278-1.583-1.2498-2.5412-3.2633-2.5412-1.9024 0-3.0828 0.95816-3.0828 2.4996 0 0.49991 0.15275 0.93039 0.41659 1.222 0.26385 0.26384 0.49991 0.38882 1.222 0.62488l2.319 0.7221c0.48602 0.15275 0.65266 0.3055 0.65266 0.611 0 0.45825-0.54157 0.73598-1.4442 0.73598-0.5138 0-0.90261-0.0833-1.1526-0.26384-0.2083-0.15275-0.29161-0.3055-0.37493-0.70821h-1.9024c0.0556 1.6525 1.2637 2.4996 3.541 2.4996 1.0415 0 1.833-0.22218 2.3885-0.66655 0.55546-0.44436 0.88873-1.1387 0.88873-1.8747 0-0.97205-0.48602-1.5969-1.472-1.8886l-2.4579-0.70821c-0.54157-0.16663-0.68043-0.27772-0.68043-0.58323 0-0.41659 0.44436-0.69432 1.1248-0.69432 0.93039 0 1.3886 0.33328 1.4025 1.0137zm-7.5399-4.5402c-0.67325 0-0.72693 0.25927-1.0996 0.38281-0.30023-0.17004-0.63934-0.25953-0.98438-0.25976h-1.9434c-1.1045 1.1e-4 -1.9999 0.89548-2 2v7.5c1.1e-4 1.1045 0.89548 1.9999 2 2h1.9434c1.1045-1.1e-4 1.9999-0.89548 2-2v-3.6621c5e-3 8.6e-4 2e-3 -9.2e-4 8e-3 0 1.2145 0.19198 2.313-0.74698 2.3125-1.9766v-1.9707c-0.28869-1.3723-0.76792-1.961-2.2363-2.0137zm-4.084 3.5957c2.6e-4 0.17412 0.0232 0.34746 0.0684 0.51563l-0.0117 0.0117h-0.0566zm0.0566-1.4717v7.4986h1.9441v-3.9854c0-1.1387 0.56934-1.708 1.708-1.708 0.20829 0 0.34716 0.0139 0.611 0.0556v-1.9719c-0.11109-0.0139-0.15275-0.0139-0.23607-0.0139-0.88873 0-1.6525 0.58323-2.083 1.5969v-1.472zm-8.5546-2.0009c-1.1045 1.1e-4 -1.9999 0.89548-2 2v5.2226c0 1.1943 0.33146 2.405 1.1961 3.2977 1.9885 1.8085 6.0411 1.2203 7.4902 0.96289 1.003-0.30434 2.0206-0.87872 2.0207-1.9832v-7.5c-1.1e-4 -1.1045-0.89548-1.9999-2-2h-1.9434c-0.52781 6.2e-4 -1.034 0.20982-1.4082 0.58203-0.3747-0.37269-0.88167-0.58193-1.4102-0.58203zm6.7078 9.4996v-7.4986h-1.9441v4.6936c0 0.88873-0.611 1.472-1.5692 1.472-0.83319 0-1.2498-0.44436-1.2498-1.347v-4.8186h-1.9441v5.2213c0 1.6664 0.90261 2.5968 2.5134 2.5968 1.0137 0 1.6941-0.36104 2.2496-1.2081v0.88873zm-11.817-9.6246c-1.586 0-3.1286 0.58023-4.1719 1.7031-1.0433 1.1229-1.5215 2.6602-1.5215 4.2695 0 1.6142 0.47868 3.1546 1.5274 4.2774 1.0487 1.1228 2.5934 1.6934 4.1797 1.6934 1.582 0 3.1168-0.56689 4.166-1.6758 1.0492-1.1089 1.541-2.6413 1.541-4.2402 0-1.6313-0.45897-3.1854-1.5117-4.3242s-2.6135-1.7031-4.209-1.7031zm-1.7e-4 2.001c-2.2913 0-3.6938 1.5136-3.6938 3.9715 0 2.4718 1.4025 3.9715 3.7077 3.9715 2.2913 0 3.7077-1.4997 3.7077-3.916 0-2.5412-1.3748-4.0271-3.7216-4.0271zm0.0139 1.5692c1.0693 0 1.7636 0.95817 1.7636 2.4301 0 1.4025-0.7221 2.3746-1.7636 2.3746-1.0554 0-1.7636-0.95816-1.7636-2.4024 0-1.4442 0.70821-2.4024 1.7636-2.4024zm-8.9845-6.2361c-1.906 0-3.7117 0.75356-4.9004 2.1172-1.1887 1.3636-1.7383 3.201-1.7383 5.2012 0 1.9919 0.54649 3.8211 1.7246 5.1797 1.1781 1.3586 2.9704 2.1113 4.8594 2.1113 1.6483 0 3.2089-0.49197 4.377-1.5137 1.168-1.0217 1.8505-2.5403 1.9375-4.1543 0.0372-0.68721-0.28151-1.3453-0.84375-1.7422 0.55079-0.4105 0.85239-1.0749 0.79882-1.7598-0.0857-1.0809-0.4325-2.1949-1.0781-3.0488-1.1854-1.5664-3.1216-2.3906-5.1367-2.3906zm4.2214 5.5974c-0.0694-0.87484-0.24996-1.4303-0.68043-1.9996-0.77764-1.0276-2.0274-1.5969-3.541-1.5969-2.8606 0-4.638 2.0413-4.638 5.3185 0 3.2633 1.7636 5.2907 4.5825 5.2907 2.5273 0 4.1937-1.4581 4.3187-3.7771h-2.0274c-0.13886 1.2914-0.94427 2.0274-2.2357 2.0274-1.6108 0-2.5551-1.3053-2.5551-3.5133 0-2.2357 0.98593-3.5688 2.6245-3.5688 1.2081 0 1.8886 0.58323 2.1663 1.8191zm-15.458-24.108c-0.70727 0-1.362 0.37352-1.7219 0.98237l-6.4549 10.924h-3.7295c-1.1044 1.8e-4 -1.9997 0.89545-1.9999 1.9999v5.2917c1.7e-4 0.53009 0.21076 1.0384 0.58549 1.4134l-5.5991 9.4754c-0.78743 1.3332 0.17347 3.0171 1.7219 3.0174h5.2917c0.70727 0 1.362-0.37352 1.7219-0.98237l6.4549-10.924h1.7296v9.9064c1.8e-4 1.1044 0.89544 1.9997 1.9999 1.9999h5.2917c1.1044-1.8e-4 1.9997-0.89545 1.9999-1.9999v-9.9064h9.9064c1.1044-1.8e-4 1.9997-0.89545 1.9999-1.9999v-5.2917c-1.8e-4 -1.1044-0.89545-1.9997-1.9999-1.9999h-9.9064v-9.9064c-1.8e-4 -1.1044-0.89545-1.9997-1.9999-1.9999zm1.1415 3.9998h2.1503v9.9064c1.8e-4 1.1044 0.89545 1.9997 1.9999 1.9999h9.9064v1.2919h-9.9064c-1.1044 1.8e-4 -1.9997 0.89545-1.9999 1.9999v9.9064h-1.2919v-9.9064c-1.8e-4 -1.1044-0.89545-1.9997-1.9999-1.9999h-4.8705c-0.70727 0-1.362 0.37352-1.7219 0.98237l-6.4549 10.924h-0.64596l5.2529-8.8889c0.73026-1.2365-0.0418-2.8169-1.4661-3.0008v-1.3084h2.8706c0.70727 0 1.362-0.37351 1.7219-0.98236zm-1.1203 4.9558c-0.71471-8e-3 -1.3792 0.36664-1.743 0.98185l-1.7441 2.9512c-0.78741 1.3332 0.17348 3.0171 1.7219 3.0174h1.7441c1.1044-1.8e-4 1.9997-0.89545 1.9999-1.9999v-2.9512c-3.9e-4 -1.096-0.88274-1.9876-1.9787-1.9994zm-0.0212-6.9556-7.0357 11.906h-4.8705v5.2917h1.7441l-7.0357 11.906h5.2917l7.0358-11.906h4.8705v11.906h5.2917v-11.906h11.906v-5.2917h-11.906v-11.906zm0 8.955v2.9512h-1.7441z" color="#000000" color-rendering="auto" dominant-baseline="auto" fill="#fff" image-rendering="auto" shape-rendering="auto" solid-color="#000000" stop-color="#000000" stroke="none" style="font-feature-settings:normal;font-variant-alternates:normal;font-variant-caps:normal;font-variant-east-asian:normal;font-variant-ligatures:normal;font-variant-numeric:normal;font-variant-position:normal;font-variation-settings:normal;inline-size:0;isolation:auto;mix-blend-mode:normal;shape-margin:0;shape-padding:0;text-decoration-color:#000000;text-decoration-line:none;text-decoration-style:solid;text-indent:0;text-orientation:mixed;text-transform:none;white-space:normal"/>
  </g>
  <path d="m68.201 172.01 5.2917-1e-5v-11.906l11.906 1e-5v-5.2917l-11.906-1e-5v-11.906l-5.2917 1e-5v11.906l-11.906 1e-5v5.2917l11.906-1e-5z" fill="#1b1b1b"/>
  <path d="m68.201 142.9-17.198 29.104h5.2917l11.906-20.149z" fill="#ff0090"/>
  <g fill="#1b1b1b" stroke-width="0" style="font-variant-caps:normal;font-variant-east-asian:normal;font-variant-ligatures:normal;font-variant-numeric:normal" aria-label="Courses">
   <path d="m83.647 165.02c-0.06943-0.87482-0.24995-1.4303-0.68041-1.9996-0.77762-1.0276-2.0274-1.5969-3.5409-1.5969-2.8605 0-4.6379 2.0412-4.6379 5.3183 0 3.2632 1.7635 5.2906 4.5824 5.2906 2.5273 0 4.1936-1.458 4.3185-3.777h-2.0274c-0.13886 1.2914-0.94425 2.0274-2.2356 2.0274-1.6108 0-2.555-1.3053-2.555-3.5132 0-2.2356 0.98591-3.5687 2.6245-3.5687 1.2081 0 1.8885 0.58321 2.1662 1.8191z" style="font-variant-caps:normal;font-variant-east-asian:normal;font-variant-ligatures:normal;font-variant-numeric:normal"/>
   <path d="m88.396 164.09c-2.2912 0-3.6937 1.5136-3.6937 3.9714 0 2.4717 1.4025 3.9714 3.7076 3.9714 2.2912 0 3.7076-1.4997 3.7076-3.9158 0-2.5411-1.3747-4.0269-3.7214-4.0269zm0.01389 1.5691c1.0692 0 1.7635 0.95814 1.7635 2.43 0 1.4025-0.72207 2.3745-1.7635 2.3745-1.0553 0-1.7635-0.95813-1.7635-2.4023 0-1.4441 0.70819-2.4023 1.7635-2.4023z" style="font-variant-caps:normal;font-variant-east-asian:normal;font-variant-ligatures:normal;font-variant-numeric:normal"/>
   <path d="m100.21 171.71v-7.4984h-1.944v4.6935c0 0.8887-0.61098 1.4719-1.5691 1.4719-0.83316 0-1.2497-0.44435-1.2497-1.3469v-4.8184h-1.944v5.2211c0 1.6663 0.90259 2.5967 2.5134 2.5967 1.0137 0 1.6941-0.36104 2.2495-1.2081v0.8887z" style="font-variant-caps:normal;font-variant-east-asian:normal;font-variant-ligatures:normal;font-variant-numeric:normal"/>
   <path d="m102.06 164.22v7.4984h1.944v-3.9853c0-1.1386 0.56932-1.708 1.708-1.708 0.20829 0 0.34715 0.0139 0.61099 0.0555v-1.9718c-0.11109-0.0139-0.15275-0.0139-0.23606-0.0139-0.88871 0-1.6524 0.58321-2.0829 1.5969v-1.4719z" style="font-variant-caps:normal;font-variant-east-asian:normal;font-variant-ligatures:normal;font-variant-numeric:normal"/>
   <path d="m113.63 166.63c-0.0278-1.583-1.2497-2.5411-3.2632-2.5411-1.9024 0-3.0827 0.95813-3.0827 2.4995 0 0.49989 0.15275 0.93036 0.41658 1.222 0.26384 0.26384 0.4999 0.38881 1.222 0.62487l2.319 0.72208c0.48601 0.15274 0.65265 0.30549 0.65265 0.61098 0 0.45824-0.54156 0.73596-1.4442 0.73596-0.51378 0-0.90259-0.0833-1.1525-0.26384-0.20829-0.15274-0.2916-0.30549-0.37492-0.70818h-1.9024c0.0555 1.6524 1.2636 2.4995 3.5409 2.4995 1.0414 0 1.833-0.22218 2.3884-0.66653s0.88871-1.1386 0.88871-1.8746c0-0.97202-0.48601-1.5969-1.4719-1.8885l-2.4578-0.70818c-0.54156-0.16663-0.68042-0.27772-0.68042-0.58321 0-0.41658 0.44436-0.6943 1.1248-0.6943 0.93036 0 1.3886 0.33326 1.4025 1.0137z" style="font-variant-caps:normal;font-variant-east-asian:normal;font-variant-ligatures:normal;font-variant-numeric:normal"/>
   <path d="m121.61 168.58c0.0139-0.16663 0.0139-0.23606 0.0139-0.33326 0-0.74984-0.11109-1.4441-0.2916-1.9718-0.4999-1.3608-1.708-2.1801-3.2216-2.1801-2.1523 0-3.4715 1.5552-3.4715 4.0686 0 2.4023 1.3053 3.8742 3.4298 3.8742 1.6802 0 3.041-0.94425 3.4715-2.43h-1.9163c-0.23606 0.5971-0.77762 0.94425-1.4858 0.94425-0.55544 0-0.9998-0.23607-1.2775-0.65265-0.18051-0.27772-0.24994-0.61098-0.27772-1.3192zm-4.999-1.2914c0.12497-1.1525 0.61098-1.708 1.4719-1.708 0.88871 0 1.4164 0.5971 1.5136 1.708z" style="font-variant-caps:normal;font-variant-east-asian:normal;font-variant-ligatures:normal;font-variant-numeric:normal"/>
   <path d="m129.12 166.63c-0.0278-1.583-1.2497-2.5411-3.2632-2.5411-1.9024 0-3.0827 0.95813-3.0827 2.4995 0 0.49989 0.15275 0.93036 0.41658 1.222 0.26383 0.26384 0.4999 0.38881 1.222 0.62487l2.319 0.72208c0.48601 0.15274 0.65264 0.30549 0.65264 0.61098 0 0.45824-0.54155 0.73596-1.4441 0.73596-0.51378 0-0.90259-0.0833-1.1525-0.26384-0.20829-0.15274-0.29161-0.30549-0.37492-0.70818h-1.9024c0.0555 1.6524 1.2636 2.4995 3.5409 2.4995 1.0414 0 1.833-0.22218 2.3884-0.66653s0.8887-1.1386 0.8887-1.8746c0-0.97202-0.48601-1.5969-1.4719-1.8885l-2.4578-0.70818c-0.54155-0.16663-0.68041-0.27772-0.68041-0.58321 0-0.41658 0.44435-0.6943 1.1248-0.6943 0.93036 0 1.3886 0.33326 1.4025 1.0137z" style="font-variant-caps:normal;font-variant-east-asian:normal;font-variant-ligatures:normal;font-variant-numeric:normal"/>
  </g>
  <path d="m56.295 172.01 17.198-29.104h-5.2917l-17.198 29.104z" fill="#ff0090"/>
 </g>
</svg>
