<?xml version="1.0" encoding="UTF-8" standalone="no"?>
<svg
   xmlns:dc="http://purl.org/dc/elements/1.1/"
   xmlns:cc="http://creativecommons.org/ns#"
   xmlns:rdf="http://www.w3.org/1999/02/22-rdf-syntax-ns#"
   xmlns:svg="http://www.w3.org/2000/svg"
   xmlns="http://www.w3.org/2000/svg"
   xmlns:sodipodi="http://sodipodi.sourceforge.net/DTD/sodipodi-0.dtd"
   xmlns:inkscape="http://www.inkscape.org/namespaces/inkscape"
   width="82.345291mm"
   height="33.119732mm"
   viewBox="0 0 82.345291 33.119732"
   version="1.1"
   id="svg2913"
   inkscape:version="1.0.1 (3bc2e813f5, 2020-09-07, custom)"
   sodipodi:docname="logo_courses_border.svg">
  <defs
     id="defs2907" />
  <sodipodi:namedview
     id="base"
     pagecolor="#ffffff"
     bordercolor="#666666"
     borderopacity="1.0"
     inkscape:pageopacity="0.0"
     inkscape:pageshadow="2"
     inkscape:zoom="0.35"
     inkscape:cx="214.80259"
     inkscape:cy="27.452272"
     inkscape:document-units="mm"
     inkscape:current-layer="layer1"
     inkscape:document-rotation="0"
     showgrid="false"
     inkscape:window-width="1920"
     inkscape:window-height="1030"
     inkscape:window-x="1680"
     inkscape:window-y="50"
     inkscape:window-maximized="1" />
  <metadata
     id="metadata2910">
    <rdf:RDF>
      <cc:Work
         rdf:about="">
        <dc:format>image/svg+xml</dc:format>
        <dc:type
           rdf:resource="http://purl.org/dc/dcmitype/StillImage" />
        <dc:title></dc:title>
      </cc:Work>
    </rdf:RDF>
  </metadata>
  <g
     inkscape:label="Layer 1"
     inkscape:groupmode="layer"
     id="layer1"
     transform="translate(-49.000149,-140.90325)">
    <g
       aria-label="Courses"
       id="text1319-9-9-9"
       style="font-style:normal;font-variant:normal;font-weight:bold;font-stretch:normal;font-size:13.8864px;font-family:'Nimbus Sans';-inkscape-font-specification:'Nimbus Sans, Bold';font-variant-ligatures:normal;font-variant-caps:normal;font-variant-numeric:normal;font-variant-east-asian:normal;fill:#ffffff;fill-opacity:1;stroke:#ffffff;stroke-width:4;stroke-linejoin:round;stroke-miterlimit:4;stroke-dasharray:none;stroke-opacity:1"
       transform="translate(-69.562759,28.513213)">
      <g
         id="g1055"
         style="opacity:1" />
      <g
         id="g1061"
         style="opacity:1" />
      <g
         id="g1067"
         style="opacity:1" />
      <g
         id="g1073"
         style="opacity:1" />
      <g
         id="g1079"
         style="opacity:1" />
      <g
         id="g1085"
         style="opacity:1" />
      <g
         id="g1091"
         style="opacity:1">
        <path
           id="path1095"
           style="color:#000000;font-style:normal;font-variant:normal;font-weight:bold;font-stretch:normal;font-size:13.8864px;line-height:normal;font-family:'Nimbus Sans';-inkscape-font-specification:'Nimbus Sans, Bold';font-variant-ligatures:normal;font-variant-position:normal;font-variant-caps:normal;font-variant-numeric:normal;font-variant-alternates:normal;font-variant-east-asian:normal;font-feature-settings:normal;font-variation-settings:normal;text-indent:0;text-align:start;text-decoration:none;text-decoration-line:none;text-decoration-style:solid;text-decoration-color:#000000;letter-spacing:normal;word-spacing:normal;text-transform:none;writing-mode:lr-tb;direction:ltr;text-orientation:mixed;dominant-baseline:auto;baseline-shift:baseline;text-anchor:start;white-space:normal;shape-padding:0;shape-margin:0;inline-size:0;clip-rule:nonzero;display:inline;overflow:visible;visibility:visible;isolation:auto;mix-blend-mode:normal;color-interpolation:sRGB;color-interpolation-filters:linearRGB;solid-color:#000000;solid-opacity:1;vector-effect:none;fill:#ffffff;fill-opacity:1;fill-rule:nonzero;stroke:none;stroke-width:4;stroke-linecap:butt;stroke-linejoin:round;stroke-miterlimit:4;stroke-dasharray:none;stroke-dashoffset:0;stroke-opacity:1;color-rendering:auto;image-rendering:auto;shape-rendering:auto;text-rendering:auto;enable-background:accumulate;stop-color:#000000;stop-opacity:1"
           d="m 195.43555,133.56641 c -1.28699,0 -2.52886,0.32038 -3.51367,1.11914 -0.98482,0.79876 -1.56836,2.09965 -1.56836,3.38086 0,0.52144 0.12237,1.03638 0.32421,1.52929 -0.39299,0.39128 -0.6059,0.92815 -0.58789,1.48242 0.0438,1.30131 0.69803,2.67142 1.78516,3.4375 1.08713,0.76609 2.36921,0.99415 3.75586,0.99415 1.32592,0 2.61146,-0.2833 3.63672,-1.10352 1.04431,-0.83543 1.64062,-2.09775 1.64062,-3.4375 0,-0.58265 -0.29294,-1.15998 -0.56054,-1.72656 0.23593,-0.34323 0.35883,-0.75154 0.35156,-1.16797 -0.0228,-1.29882 -0.63924,-2.61279 -1.65625,-3.40625 -1.01702,-0.79346 -2.28342,-1.10156 -3.60742,-1.10156 z m 3.26371,4.54216 c -0.0278,-1.58305 -1.24978,-2.54121 -3.26331,-2.54121 -1.90243,0 -3.08278,0.95816 -3.08278,2.49955 0,0.49991 0.15275,0.93039 0.4166,1.22201 0.26384,0.26384 0.49991,0.38882 1.222,0.62488 l 2.31903,0.7221 c 0.48602,0.15275 0.65266,0.3055 0.65266,0.611 0,0.45825 -0.54157,0.73598 -1.44419,0.73598 -0.51379,0 -0.90261,-0.0833 -1.15257,-0.26384 -0.20829,-0.15275 -0.29161,-0.3055 -0.37493,-0.70821 h -1.90244 c 0.0556,1.65248 1.26366,2.49955 3.54103,2.49955 1.04148,0 1.83301,-0.22218 2.38846,-0.66655 0.55546,-0.44436 0.88873,-1.13868 0.88873,-1.87466 0,-0.97205 -0.48602,-1.59694 -1.47195,-1.88855 l -2.4579,-0.70821 c -0.54157,-0.16663 -0.68043,-0.27772 -0.68043,-0.58323 0,-0.41659 0.44436,-0.69432 1.1248,-0.69432 0.93039,0 1.38864,0.33328 1.40252,1.01371 z m -11.01176,-4.54216 c -1.55792,0 -3.08505,0.64289 -4.06641,1.79492 -0.98135,1.15203 -1.40625,2.66876 -1.40625,4.27539 0,1.5634 0.43593,3.05089 1.42188,4.16406 0.98595,1.11317 2.48558,1.70899 4.00976,1.70899 2.42957,0 4.71162,-1.52263 5.39258,-3.87305 0.0884,-0.30606 0.1025,-0.62882 0.041,-0.94141 0.0525,-0.15421 0.0859,-0.31424 0.0996,-0.47656 0.0177,-0.2125 0.0215,-0.40279 0.0215,-0.5 0,-0.94739 -0.12729,-1.82085 -0.40039,-2.61914 -0.004,-0.0137 -0.009,-0.0274 -0.0137,-0.041 -0.76994,-2.09596 -2.86428,-3.49218 -5.09961,-3.49218 z m 3.49923,6.48626 c 0.0139,-0.16664 0.0139,-0.23607 0.0139,-0.33328 0,-0.74986 -0.11109,-1.44418 -0.29161,-1.97186 -0.49991,-1.36087 -1.70803,-2.18017 -3.22165,-2.18017 -2.15239,0 -3.4716,1.55528 -3.4716,4.06872 0,2.40234 1.30532,3.8743 3.42994,3.8743 1.68026,0 3.04112,-0.94427 3.4716,-2.43012 h -1.91632 c -0.23607,0.59712 -0.77764,0.94428 -1.48584,0.94428 -0.55546,0 -0.99983,-0.23607 -1.27755,-0.65266 -0.18053,-0.27773 -0.24996,-0.61101 -0.27773,-1.31921 z m -4.99911,-1.29144 c 0.12498,-1.15257 0.611,-1.70802 1.47196,-1.70802 0.88873,0 1.41641,0.59711 1.51362,1.70802 z m -6.24817,-5.19482 c -1.28698,0 -2.5308,0.32038 -3.51562,1.11914 -0.98482,0.79876 -1.56836,2.09965 -1.56836,3.38086 0,0.52117 0.1226,1.03661 0.32422,1.52929 -0.39228,0.39161 -0.60447,0.92844 -0.58594,1.48242 0.0438,1.30131 0.69607,2.67142 1.7832,3.4375 1.08713,0.76609 2.36921,0.99415 3.75586,0.99415 1.32592,0 2.61342,-0.2833 3.63867,-1.10352 1.04432,-0.83543 1.63868,-2.09775 1.63868,-3.4375 0,-0.58265 -0.29294,-1.15998 -0.56055,-1.72656 0.23593,-0.34323 0.35883,-0.75154 0.35156,-1.16797 -0.0228,-1.29882 -0.63923,-2.61279 -1.65625,-3.40625 -1.01701,-0.79346 -2.28146,-1.10156 -3.60547,-1.10156 z m 3.2626,4.54216 c -0.0278,-1.58305 -1.24978,-2.54121 -3.26331,-2.54121 -1.90243,0 -3.08278,0.95816 -3.08278,2.49955 0,0.49991 0.15275,0.93039 0.41659,1.22201 0.26385,0.26384 0.49991,0.38882 1.22201,0.62488 l 2.31903,0.7221 c 0.48602,0.15275 0.65266,0.3055 0.65266,0.611 0,0.45825 -0.54157,0.73598 -1.44419,0.73598 -0.5138,0 -0.90261,-0.0833 -1.15257,-0.26384 -0.2083,-0.15275 -0.29161,-0.3055 -0.37493,-0.70821 h -1.90244 c 0.0556,1.65248 1.26366,2.49955 3.54103,2.49955 1.04148,0 1.83301,-0.22218 2.38846,-0.66655 0.55546,-0.44436 0.88873,-1.13868 0.88873,-1.87466 0,-0.97205 -0.48602,-1.59694 -1.47196,-1.88855 l -2.45789,-0.70821 c -0.54157,-0.16663 -0.68043,-0.27772 -0.68043,-0.58323 0,-0.41659 0.44436,-0.69432 1.1248,-0.69432 0.93039,0 1.38864,0.33328 1.40252,1.01371 z m -7.53994,-4.54021 c -0.67325,0 -0.72693,0.25927 -1.09961,0.38281 -0.30023,-0.17004 -0.63934,-0.25953 -0.98438,-0.25976 h -1.94335 c -1.10452,1.1e-4 -1.99989,0.89548 -2,2 v 7.5 c 1.1e-4,1.10452 0.89548,1.99989 2,2 h 1.94335 c 1.10452,-1.1e-4 1.99989,-0.89548 2,-2 v -3.66211 c 0.005,8.6e-4 0.002,-9.2e-4 0.008,0 1.21451,0.19198 2.31305,-0.74698 2.3125,-1.97657 v -1.9707 c -0.28869,-1.37229 -0.76792,-1.96097 -2.23633,-2.01367 z m -4.08399,3.5957 c 2.6e-4,0.17412 0.0232,0.34746 0.0684,0.51563 l -0.0117,0.0117 h -0.0566 z m 0.0566,-1.47172 v 7.49865 h 1.9441 v -3.98539 c 0,-1.13869 0.56934,-1.70803 1.70803,-1.70803 0.20829,0 0.34716,0.0139 0.611,0.0556 v -1.97187 c -0.11109,-0.0139 -0.15275,-0.0139 -0.23607,-0.0139 -0.88873,0 -1.65248,0.58323 -2.08296,1.59694 v -1.47196 z m -8.55461,-2.00093 c -1.10452,1.1e-4 -1.99989,0.89548 -2,2 v 5.22265 c 0,1.1943 0.33146,2.40497 1.19607,3.2977 1.98846,1.80853 6.04107,1.22034 7.49023,0.96289 1.00301,-0.30434 2.02062,-0.87872 2.02073,-1.98324 v -7.5 c -1.1e-4,-1.10452 -0.89548,-1.99989 -2,-2 h -1.94336 c -0.52781,6.2e-4 -1.03398,0.20982 -1.4082,0.58203 -0.3747,-0.37269 -0.88167,-0.58193 -1.41016,-0.58203 z m 6.70775,9.49958 v -7.49865 h -1.9441 v 4.6936 c 0,0.88873 -0.611,1.47196 -1.56916,1.47196 -0.83319,0 -1.24978,-0.44436 -1.24978,-1.34698 v -4.81858 h -1.94409 v 5.22128 c 0,1.66637 0.90261,2.59676 2.51343,2.59676 1.01371,0 1.69414,-0.36104 2.2496,-1.20812 v 0.88873 z m -11.81713,-9.62458 c -1.58603,0 -3.12858,0.58023 -4.17187,1.70312 -1.0433,1.12289 -1.52149,2.66017 -1.52149,4.26953 0,1.61417 0.47868,3.15458 1.52735,4.27735 1.04867,1.12276 2.59338,1.69336 4.17969,1.69336 1.58199,0 3.11682,-0.56689 4.16601,-1.67579 1.04919,-1.10889 1.54102,-2.64131 1.54102,-4.24023 0,-1.63126 -0.45897,-3.18541 -1.51172,-4.32422 -1.05275,-1.13881 -2.61349,-1.70312 -4.20899,-1.70312 z m -1.7e-4,2.00095 c -2.29126,0 -3.69379,1.51362 -3.69379,3.97151 0,2.47178 1.40253,3.97151 3.70767,3.97151 2.29126,0 3.70767,-1.49973 3.70767,-3.91596 0,-2.54121 -1.37475,-4.02706 -3.72155,-4.02706 z m 0.0139,1.56916 c 1.06926,0 1.76358,0.95817 1.76358,2.43012 0,1.40253 -0.7221,2.37458 -1.76358,2.37458 -1.05536,0 -1.76357,-0.95816 -1.76357,-2.40235 0,-1.44418 0.70821,-2.40235 1.76357,-2.40235 z M 149,130.90039 c -1.90602,0 -3.71172,0.75356 -4.90039,2.11719 -1.18868,1.36363 -1.73828,3.20099 -1.73828,5.20117 0,1.99194 0.54649,3.82111 1.72461,5.17969 1.17812,1.35857 2.97043,2.11133 4.85937,2.11133 1.64828,0 3.2089,-0.49197 4.37696,-1.51368 1.16805,-1.0217 1.85051,-2.54031 1.9375,-4.15429 0.0372,-0.68721 -0.28151,-1.34529 -0.84375,-1.74219 0.55079,-0.4105 0.85239,-1.07493 0.79882,-1.75977 -0.0857,-1.08092 -0.4325,-2.19492 -1.07812,-3.04882 -1.18536,-1.56637 -3.12157,-2.39063 -5.13672,-2.39063 z m 4.22141,5.59736 c -0.0694,-0.87484 -0.24996,-1.4303 -0.68043,-1.99964 -0.77764,-1.0276 -2.02742,-1.59694 -3.54104,-1.59694 -2.86059,0 -4.63805,2.0413 -4.63805,5.31849 0,3.26331 1.76357,5.29072 4.58251,5.29072 2.52732,0 4.19369,-1.45807 4.31867,-3.7771 h -2.02742 c -0.13886,1.29144 -0.94427,2.02742 -2.23571,2.02742 -1.61082,0 -2.55509,-1.30533 -2.55509,-3.51326 0,-2.23571 0.98593,-3.56881 2.62453,-3.56881 1.20811,0 1.88855,0.58323 2.16627,1.81912 z m -15.45773,-24.10771 c -0.70727,0 -1.36196,0.37352 -1.72186,0.98237 l -6.4549,10.92388 h -3.72949 c -1.10442,1.8e-4 -1.99969,0.89545 -1.99987,1.99987 v 5.29167 c 1.7e-4,0.53009 0.21076,1.03843 0.58549,1.41335 l -5.59914,9.47539 c -0.78743,1.33322 0.17347,3.01709 1.72186,3.01739 h 5.29166 c 0.70727,0 1.36196,-0.37352 1.72186,-0.98237 l 6.4549,-10.92388 h 1.72962 v 9.90637 c 1.8e-4,1.10443 0.89544,1.9997 1.99987,1.99988 h 5.29167 c 1.10443,-1.8e-4 1.9997,-0.89545 1.99988,-1.99988 v -9.90637 h 9.90637 c 1.10443,-1.8e-4 1.9997,-0.89545 1.99988,-1.99988 v -5.29167 c -1.8e-4,-1.10443 -0.89545,-1.99969 -1.99988,-1.99987 h -9.90637 v -9.90638 c -1.8e-4,-1.10443 -0.89545,-1.99969 -1.99988,-1.99987 z m 1.14153,3.99975 h 2.15026 v 9.90637 c 1.8e-4,1.10443 0.89545,1.9997 1.99988,1.99988 h 9.90637 v 1.29191 h -9.90637 c -1.10443,1.8e-4 -1.9997,0.89545 -1.99988,1.99988 v 9.90637 h -1.29191 v -9.90637 c -1.8e-4,-1.10443 -0.89545,-1.9997 -1.99988,-1.99988 h -4.8705 c -0.70727,0 -1.36196,0.37352 -1.72186,0.98237 l -6.4549,10.92388 h -0.64596 l 5.25291,-8.88886 c 0.73026,-1.23654 -0.0418,-2.81689 -1.46606,-3.00085 v -1.30845 h 2.87063 c 0.70727,0 1.36195,-0.37351 1.72186,-0.98236 z m -1.12034,4.95577 c -0.71471,-0.008 -1.37919,0.36664 -1.74305,0.98185 l -1.74408,2.95125 c -0.78741,1.33322 0.17348,3.01708 1.72186,3.01738 h 1.74408 c 1.10443,-1.8e-4 1.9997,-0.89545 1.99988,-1.99988 v -2.95123 c -3.9e-4,-1.09601 -0.88274,-1.98758 -1.97869,-1.99937 z m -0.0212,-6.95565 -7.03574,11.90625 h -4.87051 v 5.29167 h 1.74408 l -7.03574,11.90625 h 5.29166 l 7.03575,-11.90625 h 4.8705 v 11.90625 h 5.29167 v -11.90625 h 11.90625 v -5.29167 h -11.90625 v -11.90625 z m 0,8.95502 v 2.95123 h -1.74408 z"
           sodipodi:nodetypes="sssccssssccsscsscccsscccsssccsscccsssscccscccccscsssccsccccsccsssccssssccsscsscccsscccsssccssccscccccccccccccsccccccccssccscccccsccccccccccccsssccsscccsssssssssssssssssssssssssccccsccsssccsssccsccccccccscccccccccccccccsccccccccccccsccccccsccsccccccsccccccccccccccccccccc" />
      </g>
    </g>
    <path
       style="fill:#1b1b1b;fill-opacity:1;stroke:none;stroke-width:0.264583px;stroke-linecap:butt;stroke-linejoin:miter;stroke-opacity:1"
       d="m 68.200916,172.00731 5.29167,-1e-5 v -11.90627 l 11.906249,1e-5 v -5.29166 l -11.906249,-1e-5 v -11.90624 l -5.29167,1e-5 v 11.90624 l -11.90625,1e-5 v 5.29166 l 11.90625,-10e-6 z"
       id="path1127-6-1-5"
       sodipodi:nodetypes="ccccccccccccc"
       inkscape:export-xdpi="96"
       inkscape:export-ydpi="96" />
    <path
       id="path1129-2-2-62"
       style="fill:#ff0090;fill-opacity:1;stroke:none;stroke-width:0.264583px;stroke-linecap:butt;stroke-linejoin:miter;stroke-opacity:1"
       d="m 68.200816,142.90328 -17.19792,29.10416 h 5.29167 l 11.90625,-20.14915 z"
       inkscape:export-xdpi="96"
       inkscape:export-ydpi="96" />
    <text
       xml:space="preserve"
       style="font-style:normal;font-variant:normal;font-weight:bold;font-stretch:normal;font-size:13.8864px;font-family:'Nimbus Sans';-inkscape-font-specification:'Nimbus Sans, Bold';font-variant-ligatures:normal;font-variant-caps:normal;font-variant-numeric:normal;font-variant-east-asian:normal;fill:#1b1b1b;fill-opacity:1;stroke:#ffffff;stroke-width:0;stroke-miterlimit:4;stroke-dasharray:none;stroke-opacity:1"
       x="74.176941"
       y="171.71347"
       id="text1319-9-9"
       inkscape:export-xdpi="96"
       inkscape:export-ydpi="96"><tspan
         sodipodi:role="line"
         id="tspan1317-1-1"
         x="74.176941"
         y="171.71347"
         style="font-style:normal;font-variant:normal;font-weight:bold;font-stretch:normal;font-size:13.8864px;font-family:'Nimbus Sans';-inkscape-font-specification:'Nimbus Sans, Bold';font-variant-ligatures:normal;font-variant-caps:normal;font-variant-numeric:normal;font-variant-east-asian:normal;fill:#1b1b1b;fill-opacity:1;stroke:#ffffff;stroke-width:0;stroke-miterlimit:4;stroke-dasharray:none;stroke-opacity:1">Courses</tspan></text>
    <path
       style="fill:#ff0090;fill-opacity:1;stroke:none;stroke-width:0.264583px;stroke-linecap:butt;stroke-linejoin:miter;stroke-opacity:1"
       d="m 56.294556,172.00747 17.19792,-29.10417 h -5.29167 l -17.19791,29.10417 z"
       id="path877-2" />
  </g>
</svg>
