<?xml version="1.0" encoding="UTF-8"?>
<svg id="Layer_1" data-name="Layer 1" xmlns="http://www.w3.org/2000/svg" width="648.6" height="917.3" xmlns:xlink="http://www.w3.org/1999/xlink" version="1.1" viewBox="0 0 648.6 917.3">
  <defs>
    <style>
      .cls-1 {
        fill: none;
      }

      .cls-1, .cls-2, .cls-3, .cls-4, .cls-5, .cls-6 {
        stroke-width: 0px;
      }

      .cls-2 {
        fill: #878782;
      }

      .cls-3, .cls-6 {
        fill: #000;
      }

      .cls-4 {
        fill: #fff;
        filter: url(#drop-shadow-1);
      }

      .cls-5 {
        fill: #ff3359;
      }

      .cls-6 {
        fill-rule: evenodd;
      }
    </style>
    <filter id="drop-shadow-1" filterUnits="userSpaceOnUse">
      <feOffset dx="3" dy="3"/>
      <feGaussianBlur result="blur" stdDeviation="5"/>
      <feFlood flood-color="#000" flood-opacity=".5"/>
      <feComposite in2="blur" operator="in"/>
      <feComposite in="SourceGraphic"/>
    </filter>
  </defs>
  <rect class="cls-4" x="28.4" y="37.7" width="595.3" height="841.9"/>
  <path class="cls-6" d="M96.2,93.1l3.6-10.2,3.6,10.2h-7.2ZM85.1,104l10.2-29h8.8l10.2,29h-7.5l-1.7-5h-11.1l-1.7,5h-7.5Z"/>
  <path class="cls-5" d="M122.1,95.1h-3.9l-1.4-10.1v-10.1h7v10.1l-1.7,10.1ZM117.2,104h6.5v-6.6h-6.5v6.6Z"/>
  <path class="cls-3" d="M212.5,77l-.7,2.4c-.1.5-.2.8-.3,1.2v-.2c-.2-.4-.2-.4-.3-.9l-.8-2.4h-1.7l1.7,4.4c.2.5.2.5.2.7,0,.5-.3.7-.8.7h-.5v1.2h.9c1.2,0,1.4-.2,1.9-1.6l1.8-5.3h-1.6ZM208,77h-1v-1.7h-1.5v1.7h-.7v1.1h.7v2.4c0,.8,0,1.1.3,1.3.2.2.6.3,1.2.3h1v-1.2h-.6c-.4,0-.4,0-.4-.9v-2h1v-1.1ZM203.7,75h-1.5v1.3h1.5v-1.3ZM203.7,77h-1.5v5.2h1.5v-5.2ZM201.1,78.6c-.1-1.1-1-1.7-2.3-1.7s-2.3.6-2.3,1.7.4,1.3,1.6,1.5l1,.2c.4,0,.6.2.6.5s-.3.5-.8.5-1-.2-1-.7h-1.5c0,1.2,1,1.8,2.5,1.8s2.4-.7,2.4-1.8-.1-.8-.4-1c-.2-.2-.6-.4-1.2-.5l-1-.2c-.5-.1-.6-.2-.6-.4s.3-.4.7-.4.8.2.9.6h1.5ZM192.3,77v5.2h1.5v-1.5c0-1,0-1.5.2-1.9.2-.4.6-.6,1.2-.6s.2,0,.4,0v-1.4c-1.1,0-1.5.2-1.8,1.1v-.9s-1.5,0-1.5,0ZM187.5,79c.1-.6.5-1,1.1-1s1,.3,1,1h-2.1ZM191.2,80c0-.7,0-1.2-.2-1.6-.4-1-1.2-1.6-2.4-1.6s-2.7,1.1-2.7,2.8,1.1,2.7,2.7,2.7,2.2-.6,2.5-1.7h-1.6c-.2.3-.5.5-.9.5-.7,0-1.1-.4-1.2-1.1h3.7ZM183.5,82.2l1.8-5.2h-1.7l-.5,2c0,.3-.2.9-.3,1.5-.2-.6-.3-1.1-.4-1.5l-.6-2h-1.6l1.9,5.2h1.5ZM179.2,75h-1.6v1.3h1.6v-1.3ZM179.2,77h-1.6v5.2h1.6v-5.2ZM171.4,77v5.2h1.6v-2.9c0-.5,0-.7.2-.9.2-.2.4-.3.7-.3s.5.1.6.3c.1.2.2.4.2.9v2.8h1.5v-3.4c0-1.2-.7-2-1.8-2s-.9.1-1.4.7v-.5h-1.5ZM168.2,75v4.8c0,.5,0,.7-.3.9-.2.2-.6.3-1,.3s-.7-.1-1-.3c-.2-.2-.3-.4-.3-.9v-4.8h-1.6v4.9c0,.9.2,1.5.8,1.9.6.4,1.3.6,2.1.6s1.6-.2,2.1-.6c.5-.4.8-1,.8-1.9v-4.9h-1.6ZM157.5,78.1c.8,0,1.2.6,1.2,1.6s-.5,1.5-1.2,1.5-1.2-.6-1.2-1.5.4-1.5,1.2-1.5M157.5,76.8c-1.6,0-2.8,1.1-2.8,2.7s1.2,2.8,2.8,2.8,2.8-1.1,2.8-2.7-1.1-2.8-2.8-2.8M154,77h-.9v-1.7h-1.6v1.7h-.7v1.1h.7v2.4c0,.8,0,1.1.3,1.3.2.2.6.3,1.2.3h.9v-1.2h-.6c-.4,0-.4,0-.4-.9v-2h.9v-1.1ZM149.8,75h-1.6v7.2h1.6v-7.2ZM145.4,80.5c-.3.4-.6.7-1.1.7s-.8-.2-.8-.5.2-.5.8-.6h.6c.3-.2.4-.2.6-.3v.8ZM143.6,78.6c0-.4.4-.6.9-.6s.8.2.8.5-.1.3-.5.4h-.8c-1.5.4-2.1.9-2.1,1.9s.8,1.6,1.9,1.6,1-.1,1.5-.5c0,.2,0,.2.1.4h1.6c-.2-.3-.2-.3-.2-.9v-2.4c0-.8-.1-1.2-.5-1.5-.4-.4-1-.6-1.8-.6-1.5,0-2.2.6-2.3,1.8h1.4ZM138.9,79.4h-1.7l.9-2.8.8,2.8ZM139.3,80.8l.4,1.4h1.9l-2.3-7.2h-2l-2.5,7.2h1.8l.5-1.4h2.4Z"/>
  <path class="cls-2" d="M221.7,89.9c.1-.6.5-1,1.1-1s1,.3,1,1h-2.1ZM225.5,91c0-.7,0-1.2-.2-1.6-.4-1-1.2-1.6-2.4-1.6s-2.7,1.1-2.7,2.8,1.1,2.7,2.7,2.7,2.2-.6,2.5-1.7h-1.6c-.2.3-.5.5-.9.5-.7,0-1.1-.4-1.2-1.1h3.8ZM219.3,89.8c-.1-1.2-1-2-2.4-2s-2.7,1-2.7,2.8,1,2.7,2.6,2.7,2.3-.7,2.5-2.1h-1.5c-.1.5-.4.8-1,.8s-1.1-.5-1.1-1.5.4-1.5,1.1-1.5.9.3,1,.8h1.5ZM208.2,87.9v5.2h1.6v-2.9c0-.5,0-.7.2-.9.2-.2.4-.3.7-.3s.5.1.6.3c.1.2.2.4.2.9v2.8h1.5v-3.4c0-1.2-.7-2-1.8-2s-.9.1-1.4.7v-.5h-1.5ZM203.3,89.9c.1-.6.5-1,1.1-1s1,.3,1,1h-2.1ZM207,91c0-.7,0-1.2-.2-1.6-.4-1-1.2-1.6-2.4-1.6s-2.7,1.1-2.7,2.8,1.1,2.7,2.7,2.7,2.2-.6,2.5-1.7h-1.6c-.2.3-.5.5-.9.5-.7,0-1.1-.4-1.2-1.1h3.8ZM200.5,85.9h-1.5v1.3h1.5v-1.3ZM200.5,87.9h-1.5v5.2h1.5v-5.2ZM197.8,89.8c-.1-1.2-1-2-2.4-2s-2.7,1-2.7,2.8,1,2.7,2.6,2.7,2.3-.7,2.5-2.1h-1.5c-.1.5-.4.8-1,.8s-1.1-.5-1.1-1.5.4-1.5,1.1-1.5.9.3,1,.8h1.5ZM191.7,88.2c0-.6-.2-1-.4-1.3-.5-.7-1.3-1.1-2.5-1.1-1.8,0-2.9.8-2.9,2.2s.2,1.1.6,1.4c.3.3.8.5,1.6.7l1.3.3c.5.1.8.4.8.7s-.5.8-1.4.8-1.5-.4-1.5-1.2h-1.6c0,1.6,1.1,2.5,3.1,2.5s3.1-.9,3.1-2.4-.2-1-.6-1.4c-.3-.3-.8-.5-1.6-.7l-1.5-.3c-.5-.1-.7-.3-.7-.6,0-.5.5-.7,1.2-.7s1.3.4,1.3.9h0c0,.1,1.6.1,1.6.1ZM182.2,88h-1v-.4c0-.3.2-.5.5-.5h.5v-1.2h-.9c-1.2,0-1.7.6-1.7,1.7v.4h-.7v1.1h.7v4.1h1.6v-4.1h1v-1.1ZM175.5,89c.8,0,1.2.6,1.2,1.6s-.5,1.5-1.2,1.5-1.2-.6-1.2-1.5.4-1.5,1.2-1.5M175.5,87.8c-1.6,0-2.8,1.1-2.8,2.7s1.2,2.8,2.8,2.8,2.8-1.1,2.8-2.7-1.1-2.8-2.8-2.8M169.1,85.9h-1.5v7.2h1.5v-7.2ZM163.5,89c.8,0,1.2.6,1.2,1.6s-.5,1.5-1.2,1.5-1.2-.6-1.2-1.5.4-1.5,1.2-1.5M163.5,87.8c-1.6,0-2.8,1.1-2.8,2.7s1.2,2.8,2.8,2.8,2.8-1.1,2.8-2.7-1.1-2.8-2.8-2.8M157,89c.8,0,1.2.6,1.2,1.6s-.5,1.5-1.2,1.5-1.2-.6-1.2-1.5.4-1.5,1.2-1.5M157,87.8c-1.6,0-2.8,1.1-2.8,2.7s1.2,2.8,2.8,2.8,2.8-1.1,2.8-2.7-1.1-2.8-2.8-2.8M149.7,85.9h-1.6v7.2h1.6v-2.9c0-.6,0-.7.2-.9.2-.2.4-.3.7-.3s.5,0,.6.3c.1.2.2.4.2.9v2.9h1.5v-3.2c0-.8-.1-1.2-.5-1.6-.3-.4-.8-.6-1.4-.6s-1,.2-1.4.6v-2.4ZM147,89.8c-.1-1.2-1-2-2.4-2s-2.7,1-2.7,2.8,1,2.7,2.6,2.7,2.3-.7,2.5-2.1h-1.5c-.1.5-.4.8-1,.8s-1.1-.5-1.1-1.5.4-1.5,1.1-1.5.9.3,1,.8h1.5ZM140.9,88.2c0-.6-.2-1-.4-1.3-.4-.7-1.3-1.1-2.5-1.1-1.8,0-2.9.8-2.9,2.2s.2,1.1.6,1.4c.3.3.8.5,1.6.7l1.3.3c.5.1.8.4.8.7s-.5.8-1.4.8-1.5-.4-1.5-1.2h-1.6c0,1.6,1.2,2.5,3.1,2.5s3-.9,3-2.4-.2-1-.6-1.4c-.3-.3-.8-.5-1.6-.7l-1.5-.3c-.4-.1-.7-.3-.7-.6,0-.5.5-.7,1.2-.7s1.3.4,1.3.9h0c0,.1,1.6.1,1.6.1Z"/>
  <g>
    <path class="cls-3" d="M87.3,189.7l2.8,6.8h0l2.8-6.8h1.2v8.2h-.9v-6.2h0l-2.6,6.2h-.9l-2.6-6.2h0v6.2h-.9v-8.2h1.2Z"/>
    <path class="cls-3" d="M95.7,196.2c0-1.4,1.2-1.7,2.4-1.8,1.1-.1,1.6-.1,1.6-.6h0c0-.8-.4-1.3-1.3-1.3s-1.4.5-1.6.9l-.9-.3c.5-1.1,1.5-1.4,2.5-1.4s2.3.2,2.3,2.2v4h-.9v-.8h0c-.2.4-.8,1-1.8,1s-2.1-.7-2.1-1.9ZM99.6,195.7v-.9c-.2.2-1.2.3-1.6.4-.7,0-1.4.3-1.4,1s.5,1,1.3,1c1.1,0,1.7-.8,1.7-1.5Z"/>
    <path class="cls-3" d="M105.8,193.4c-.2-.4-.5-.9-1.3-.9s-1.3.4-1.3.9.3.7,1.1.9l.9.2c1.1.3,1.6.8,1.6,1.7s-1,1.8-2.4,1.8-2.1-.6-2.3-1.6l.9-.2c.2.7.7,1,1.4,1s1.4-.4,1.4-1-.3-.7-.9-.9l-1-.2c-1.1-.3-1.6-.8-1.6-1.7s1-1.8,2.3-1.8,1.9.6,2.2,1.5l-.8.2Z"/>
    <path class="cls-3" d="M110.8,192.6h-1.3v3.6c0,.8.4.9.8.9s.3,0,.4,0l.2.8c-.1,0-.4.1-.7.1-.8,0-1.7-.5-1.7-1.6v-3.8h-.9v-.8h.9v-1.5h.9v1.5h1.3v.8Z"/>
    <path class="cls-3" d="M111.8,194.9c0-1.9,1.1-3.2,2.8-3.2s2.6.8,2.6,3.1v.4h-4.5c0,1.3.8,2,1.9,2s1.3-.3,1.5-1l.9.3c-.3.9-1.2,1.6-2.4,1.6-1.8,0-2.9-1.3-2.9-3.2ZM116.2,194.3c0-1-.7-1.8-1.7-1.8s-1.8.9-1.8,1.8h3.5Z"/>
    <path class="cls-3" d="M118.6,191.8h.9v.9h0c.2-.6.9-1,1.6-1s.4,0,.5,0v1c0,0-.3,0-.6,0-.9,0-1.6.6-1.6,1.4v3.9h-.9v-6.1Z"/>
    <path class="cls-3" d="M123.6,190.4c0,.7-.4,1.5-1,2l-.5-.4c.3-.5.6-1,.6-1.6v-.7h.9v.7Z"/>
    <path class="cls-3" d="M128.1,193.4c-.2-.4-.5-.9-1.3-.9s-1.3.4-1.3.9.3.7,1.1.9l.9.2c1.1.3,1.6.8,1.6,1.7s-1,1.8-2.4,1.8-2.1-.6-2.3-1.6l.9-.2c.2.7.7,1,1.4,1s1.4-.4,1.4-1-.3-.7-.9-.9l-1-.2c-1.1-.3-1.6-.8-1.6-1.7s1-1.8,2.3-1.8,1.9.6,2.2,1.5l-.8.2Z"/>
    <path class="cls-3" d="M133.6,191.8h.9v1h.1c.2-.3.6-1.1,1.8-1.1s2.6,1.2,2.6,3.2-1.1,3.2-2.6,3.2-1.6-.7-1.8-1.1h0v3.2h-.9v-8.4ZM136.3,197.2c1.2,0,1.8-1,1.8-2.4s-.6-2.3-1.8-2.3-1.8.9-1.8,2.3.6,2.4,1.8,2.4Z"/>
    <path class="cls-3" d="M140.5,191.8h.9v.9h0c.2-.6.9-1,1.6-1s.4,0,.5,0v1c0,0-.3,0-.6,0-.9,0-1.6.6-1.6,1.4v3.9h-.9v-6.1Z"/>
    <path class="cls-3" d="M144.3,194.9c0-1.9,1.1-3.2,2.8-3.2s2.8,1.3,2.8,3.2-1.1,3.2-2.8,3.2-2.8-1.3-2.8-3.2ZM149,194.9c0-1.2-.6-2.3-1.8-2.3s-1.8,1.1-1.8,2.3.6,2.3,1.8,2.3,1.8-1.1,1.8-2.3Z"/>
    <path class="cls-3" d="M151.3,199.1l.8-.5c.3.3.6.9,1.8.9s1.7-.5,1.7-1.5v-1.2h0c-.2.3-.6,1-1.8,1s-2.6-1.1-2.6-3,1.1-3.1,2.6-3.1,1.6.7,1.8,1.1h0v-1h.9v6.3c0,1.6-1.2,2.3-2.7,2.3s-2.1-.6-2.5-1.2ZM155.5,194.8c0-1.3-.6-2.3-1.8-2.3s-1.8,1-1.8,2.3.6,2.2,1.8,2.2,1.8-.8,1.8-2.2Z"/>
    <path class="cls-3" d="M158.2,191.8h.9v.9h0c.2-.6.9-1,1.6-1s.4,0,.5,0v1c0,0-.3,0-.6,0-.9,0-1.6.6-1.6,1.4v3.9h-.9v-6.1Z"/>
    <path class="cls-3" d="M162,196.2c0-1.4,1.2-1.7,2.4-1.8,1.1-.1,1.6-.1,1.6-.6h0c0-.8-.4-1.3-1.3-1.3s-1.4.5-1.6.9l-.9-.3c.5-1.1,1.5-1.4,2.5-1.4s2.3.2,2.3,2.2v4h-.9v-.8h0c-.2.4-.8,1-1.8,1s-2.1-.7-2.1-1.9ZM166,195.7v-.9c-.2.2-1.2.3-1.6.4-.7,0-1.4.3-1.4,1s.5,1,1.3,1c1.1,0,1.7-.8,1.7-1.5Z"/>
    <path class="cls-3" d="M168.6,191.8h.9v1h0c.3-.7.8-1,1.6-1s1.3.4,1.6,1h0c.3-.6,1-1,1.8-1s1.9.7,1.9,2.1v4.1h-.9v-4.1c0-.9-.6-1.3-1.2-1.3s-1.4.6-1.4,1.4v4h-1v-4.2c0-.7-.5-1.2-1.2-1.2s-1.4.6-1.4,1.5v3.8h-.9v-6.1Z"/>
    <path class="cls-3" d="M178.4,191.8h.9v1h0c.3-.7.8-1,1.6-1s1.3.4,1.6,1h0c.3-.6,1-1,1.8-1s1.9.7,1.9,2.1v4.1h-.9v-4.1c0-.9-.6-1.3-1.2-1.3s-1.4.6-1.4,1.4v4h-1v-4.2c0-.7-.5-1.2-1.2-1.2s-1.4.6-1.4,1.5v3.8h-.9v-6.1Z"/>
    <path class="cls-3" d="M187.9,194.9c0-1.9,1.1-3.2,2.8-3.2s2.6.8,2.6,3.1v.4h-4.5c0,1.3.8,2,1.9,2s1.3-.3,1.5-1l.9.3c-.3.9-1.2,1.6-2.4,1.6-1.8,0-2.9-1.3-2.9-3.2ZM192.3,194.3c0-1-.7-1.8-1.7-1.8s-1.8.9-1.8,1.8h3.5Z"/>
    <path class="cls-3" d="M197.7,190.1c0-.4.3-.6.7-.6s.7.3.7.6-.3.6-.7.6-.7-.3-.7-.6ZM197.8,191.8h.9v6.1h-.9v-6.1Z"/>
    <path class="cls-3" d="M201.5,197.9h-.9v-6.1h.9v1h0c.3-.6.9-1,1.8-1s2.1.8,2.1,2.3v3.9h-.9v-3.8c0-1-.5-1.5-1.4-1.5s-1.6.6-1.6,1.7v3.7Z"/>
    <path class="cls-3" d="M215.9,192.3c-.2-1.1-1.2-1.7-2.3-1.7s-2.7,1.2-2.7,3.3,1.2,3.3,2.7,3.3,2.1-.6,2.3-1.7h1c-.3,1.7-1.6,2.7-3.3,2.7s-3.6-1.6-3.6-4.2,1.5-4.2,3.6-4.2,3,1,3.3,2.7h-1Z"/>
    <path class="cls-3" d="M218.1,194.9c0-1.9,1.1-3.2,2.8-3.2s2.8,1.3,2.8,3.2-1.1,3.2-2.8,3.2-2.8-1.3-2.8-3.2ZM222.7,194.9c0-1.2-.6-2.3-1.8-2.3s-1.8,1.1-1.8,2.3.6,2.3,1.8,2.3,1.8-1.1,1.8-2.3Z"/>
    <path class="cls-3" d="M225.1,191.8h.9v1h0c.3-.7.8-1,1.6-1s1.3.4,1.6,1h0c.3-.6,1-1,1.8-1s1.9.7,1.9,2.1v4.1h-.9v-4.1c0-.9-.6-1.3-1.2-1.3s-1.4.6-1.4,1.4v4h-1v-4.2c0-.7-.5-1.2-1.2-1.2s-1.4.6-1.4,1.5v3.8h-.9v-6.1Z"/>
    <path class="cls-3" d="M234.9,191.8h.9v1h.1c.2-.3.6-1.1,1.8-1.1s2.6,1.2,2.6,3.2-1.1,3.2-2.6,3.2-1.6-.7-1.8-1.1h0v3.2h-.9v-8.4ZM237.6,197.2c1.2,0,1.8-1,1.8-2.4s-.6-2.3-1.8-2.3-1.8.9-1.8,2.3.6,2.4,1.8,2.4Z"/>
    <path class="cls-3" d="M245.6,191.8h.9v6.1h-.9v-1h0c-.3.6-.9,1.1-1.8,1.1s-2-.8-2-2.3v-3.9h.9v3.8c0,.9.6,1.5,1.3,1.5s1.6-.5,1.6-1.7v-3.6Z"/>
    <path class="cls-3" d="M250.9,192.6h-1.3v3.6c0,.8.4.9.8.9s.3,0,.4,0l.2.8c-.1,0-.4.1-.7.1-.8,0-1.7-.5-1.7-1.6v-3.8h-.9v-.8h.9v-1.5h.9v1.5h1.3v.8Z"/>
    <path class="cls-3" d="M251.9,194.9c0-1.9,1.1-3.2,2.8-3.2s2.6.8,2.6,3.1v.4h-4.5c0,1.3.8,2,1.9,2s1.3-.3,1.5-1l.9.3c-.3.9-1.2,1.6-2.4,1.6-1.8,0-2.9-1.3-2.9-3.2ZM256.4,194.3c0-1-.7-1.8-1.7-1.8s-1.8.9-1.8,1.8h3.5Z"/>
    <path class="cls-3" d="M258.8,191.8h.9v.9h0c.2-.6.9-1,1.6-1s.4,0,.5,0v1c0,0-.3,0-.6,0-.9,0-1.6.6-1.6,1.4v3.9h-.9v-6.1Z"/>
    <path class="cls-3" d="M263.5,197.2c-.1.9-.5,2.1-.7,2.7h-.7c.1-.5.3-1.6.4-2.7v-.4h1.1v.4Z"/>
    <path class="cls-3" d="M274.1,192.3c-.2-1.1-1.2-1.7-2.3-1.7s-2.7,1.2-2.7,3.3,1.2,3.3,2.7,3.3,2.1-.6,2.3-1.7h1c-.3,1.7-1.6,2.7-3.3,2.7s-3.6-1.6-3.6-4.2,1.5-4.2,3.6-4.2,3,1,3.3,2.7h-1Z"/>
    <path class="cls-3" d="M276.3,194.9c0-1.9,1.1-3.2,2.8-3.2s2.8,1.3,2.8,3.2-1.1,3.2-2.8,3.2-2.8-1.3-2.8-3.2ZM280.9,194.9c0-1.2-.6-2.3-1.8-2.3s-1.8,1.1-1.8,2.3.6,2.3,1.8,2.3,1.8-1.1,1.8-2.3Z"/>
    <path class="cls-3" d="M283.3,191.8h.9v1h0c.3-.7.8-1,1.6-1s1.3.4,1.6,1h0c.3-.6,1-1,1.8-1s1.9.7,1.9,2.1v4.1h-.9v-4.1c0-.9-.6-1.3-1.2-1.3s-1.4.6-1.4,1.4v4h-1v-4.2c0-.7-.5-1.2-1.2-1.2s-1.4.6-1.4,1.5v3.8h-.9v-6.1Z"/>
    <path class="cls-3" d="M293.1,191.8h.9v1h0c.3-.7.8-1,1.6-1s1.3.4,1.6,1h0c.3-.6,1-1,1.8-1s1.9.7,1.9,2.1v4.1h-.9v-4.1c0-.9-.6-1.3-1.2-1.3s-1.4.6-1.4,1.4v4h-1v-4.2c0-.7-.5-1.2-1.2-1.2s-1.4.6-1.4,1.5v3.8h-.9v-6.1Z"/>
    <path class="cls-3" d="M306.7,191.8h.9v6.1h-.9v-1h0c-.3.6-.9,1.1-1.8,1.1s-2-.8-2-2.3v-3.9h.9v3.8c0,.9.6,1.5,1.3,1.5s1.6-.5,1.6-1.7v-3.6Z"/>
    <path class="cls-3" d="M310.3,197.9h-.9v-6.1h.9v1h0c.3-.6.9-1,1.8-1s2.1.8,2.1,2.3v3.9h-.9v-3.8c0-1-.5-1.5-1.4-1.5s-1.6.6-1.6,1.7v3.7Z"/>
    <path class="cls-3" d="M315.7,190.1c0-.4.3-.6.7-.6s.7.3.7.6-.3.6-.7.6-.7-.3-.7-.6ZM315.9,191.8h.9v6.1h-.9v-6.1Z"/>
    <path class="cls-3" d="M318.3,194.9c0-1.9,1.1-3.2,2.8-3.2s2.3.8,2.4,1.9h-.9c-.1-.6-.6-1.1-1.5-1.1s-1.8.9-1.8,2.3.7,2.4,1.8,2.4,1.3-.4,1.5-1.1h.9c-.2,1.1-1.1,1.9-2.4,1.9s-2.8-1.3-2.8-3.2Z"/>
    <path class="cls-3" d="M324.6,196.2c0-1.4,1.2-1.7,2.4-1.8,1.1-.1,1.6-.1,1.6-.6h0c0-.8-.4-1.3-1.3-1.3s-1.4.5-1.6.9l-.9-.3c.5-1.1,1.5-1.4,2.5-1.4s2.3.2,2.3,2.2v4h-.9v-.8h0c-.2.4-.8,1-1.8,1s-2.1-.7-2.1-1.9ZM328.6,195.7v-.9c-.2.2-1.2.3-1.6.4-.7,0-1.4.3-1.4,1s.5,1,1.3,1c1.1,0,1.7-.8,1.7-1.5Z"/>
    <path class="cls-3" d="M333.9,192.6h-1.3v3.6c0,.8.4.9.8.9s.3,0,.4,0l.2.8c-.1,0-.4.1-.7.1-.8,0-1.7-.5-1.7-1.6v-3.8h-.9v-.8h.9v-1.5h.9v1.5h1.3v.8Z"/>
    <path class="cls-3" d="M335.1,190.1c0-.4.3-.6.7-.6s.7.3.7.6-.3.6-.7.6-.7-.3-.7-.6ZM335.3,191.8h.9v6.1h-.9v-6.1Z"/>
    <path class="cls-3" d="M337.7,194.9c0-1.9,1.1-3.2,2.8-3.2s2.8,1.3,2.8,3.2-1.1,3.2-2.8,3.2-2.8-1.3-2.8-3.2ZM342.3,194.9c0-1.2-.6-2.3-1.8-2.3s-1.8,1.1-1.8,2.3.6,2.3,1.8,2.3,1.8-1.1,1.8-2.3Z"/>
    <path class="cls-3" d="M345.6,197.9h-.9v-6.1h.9v1h0c.3-.6.9-1,1.8-1s2.1.8,2.1,2.3v3.9h-.9v-3.8c0-1-.5-1.5-1.4-1.5s-1.6.6-1.6,1.7v3.7Z"/>
    <path class="cls-3" d="M354.1,196.2c0-1.4,1.2-1.7,2.4-1.8,1.1-.1,1.6-.1,1.6-.6h0c0-.8-.4-1.3-1.3-1.3s-1.4.5-1.6.9l-.9-.3c.5-1.1,1.5-1.4,2.5-1.4s2.3.2,2.3,2.2v4h-.9v-.8h0c-.2.4-.8,1-1.8,1s-2.1-.7-2.1-1.9ZM358,195.7v-.9c-.2.2-1.2.3-1.6.4-.7,0-1.4.3-1.4,1s.5,1,1.3,1c1.1,0,1.7-.8,1.7-1.5Z"/>
    <path class="cls-3" d="M361.6,197.9h-.9v-6.1h.9v1h0c.3-.6.9-1,1.8-1s2.1.8,2.1,2.3v3.9h-.9v-3.8c0-1-.5-1.5-1.4-1.5s-1.6.6-1.6,1.7v3.7Z"/>
    <path class="cls-3" d="M367,194.8c0-1.9,1.1-3.2,2.6-3.2s1.6.7,1.8,1.1h0v-3h.9v8.2h-.9v-.9h-.1c-.2.3-.6,1.1-1.8,1.1s-2.6-1.2-2.6-3.2ZM371.5,194.8c0-1.4-.6-2.3-1.8-2.3s-1.8,1-1.8,2.3.6,2.4,1.8,2.4,1.8-1,1.8-2.4Z"/>
    <path class="cls-3" d="M378.5,197.9h-1v-8.2h1v8.2Z"/>
    <path class="cls-3" d="M381.3,197.9h-.9v-6.1h.9v1h0c.3-.6.9-1,1.8-1s2.1.8,2.1,2.3v3.9h-.9v-3.8c0-1-.5-1.5-1.4-1.5s-1.6.6-1.6,1.7v3.7Z"/>
    <path class="cls-3" d="M389.7,192.6h-1.4v5.3h-.9v-5.3h-1v-.8h1v-.8c0-1.1.8-1.6,1.7-1.6s.8,0,.9.2l-.3.8c0,0-.3,0-.5,0-.6,0-.9.3-.9.9v.6h1.4v.8Z"/>
    <path class="cls-3" d="M390.6,194.9c0-1.9,1.1-3.2,2.8-3.2s2.8,1.3,2.8,3.2-1.1,3.2-2.8,3.2-2.8-1.3-2.8-3.2ZM395.2,194.9c0-1.2-.6-2.3-1.8-2.3s-1.8,1.1-1.8,2.3.6,2.3,1.8,2.3,1.8-1.1,1.8-2.3Z"/>
    <path class="cls-3" d="M397.6,191.8h.9v.9h0c.2-.6.9-1,1.6-1s.4,0,.5,0v1c0,0-.3,0-.6,0-.9,0-1.6.6-1.6,1.4v3.9h-.9v-6.1Z"/>
    <path class="cls-3" d="M401.8,191.8h.9v1h0c.3-.7.8-1,1.6-1s1.3.4,1.6,1h0c.3-.6,1-1,1.8-1s1.9.7,1.9,2.1v4.1h-.9v-4.1c0-.9-.6-1.3-1.2-1.3s-1.4.6-1.4,1.4v4h-1v-4.2c0-.7-.5-1.2-1.2-1.2s-1.4.6-1.4,1.5v3.8h-.9v-6.1Z"/>
    <path class="cls-3" d="M411.2,196.2c0-1.4,1.2-1.7,2.4-1.8,1.1-.1,1.6-.1,1.6-.6h0c0-.8-.4-1.3-1.3-1.3s-1.4.5-1.6.9l-.9-.3c.5-1.1,1.5-1.4,2.5-1.4s2.3.2,2.3,2.2v4h-.9v-.8h0c-.2.4-.8,1-1.8,1s-2.1-.7-2.1-1.9ZM415.2,195.7v-.9c-.2.2-1.2.3-1.6.4-.7,0-1.4.3-1.4,1s.5,1,1.3,1c1.1,0,1.7-.8,1.7-1.5Z"/>
    <path class="cls-3" d="M420.5,192.6h-1.3v3.6c0,.8.4.9.8.9s.3,0,.4,0l.2.8c-.1,0-.4.1-.7.1-.8,0-1.7-.5-1.7-1.6v-3.8h-.9v-.8h.9v-1.5h.9v1.5h1.3v.8Z"/>
    <path class="cls-3" d="M421.8,190.1c0-.4.3-.6.7-.6s.7.3.7.6-.3.6-.7.6-.7-.3-.7-.6ZM421.9,191.8h.9v6.1h-.9v-6.1Z"/>
    <path class="cls-3" d="M424.3,194.9c0-1.9,1.1-3.2,2.8-3.2s2.8,1.3,2.8,3.2-1.1,3.2-2.8,3.2-2.8-1.3-2.8-3.2ZM428.9,194.9c0-1.2-.6-2.3-1.8-2.3s-1.8,1.1-1.8,2.3.6,2.3,1.8,2.3,1.8-1.1,1.8-2.3Z"/>
    <path class="cls-3" d="M432.3,197.9h-.9v-6.1h.9v1h0c.3-.6.9-1,1.8-1s2.1.8,2.1,2.3v3.9h-.9v-3.8c0-1-.5-1.5-1.4-1.5s-1.6.6-1.6,1.7v3.7Z"/>
    <path class="cls-3" d="M443.8,190.5c-1.1,0-1.8.6-1.8,1.4s1,1.2,1.6,1.4l.8.2c.8.2,2.3.7,2.3,2.3s-1.1,2.4-3,2.4-2.8-.9-2.9-2.3h1c0,.9.9,1.4,1.9,1.4s2-.6,2-1.5-.8-1.1-1.6-1.4l-1-.3c-1.3-.4-2.1-1-2.1-2.1s1.2-2.3,2.8-2.3,2.7.9,2.8,2.2h-1c0-.8-.8-1.3-1.8-1.3Z"/>
    <path class="cls-3" d="M447.9,194.9c0-1.9,1.1-3.2,2.8-3.2s2.3.8,2.4,1.9h-.9c-.1-.6-.6-1.1-1.5-1.1s-1.8.9-1.8,2.3.7,2.4,1.8,2.4,1.3-.4,1.5-1.1h.9c-.2,1.1-1.1,1.9-2.4,1.9s-2.8-1.3-2.8-3.2Z"/>
    <path class="cls-3" d="M454.3,190.1c0-.4.3-.6.7-.6s.7.3.7.6-.3.6-.7.6-.7-.3-.7-.6ZM454.5,191.8h.9v6.1h-.9v-6.1Z"/>
    <path class="cls-3" d="M456.8,194.9c0-1.9,1.1-3.2,2.8-3.2s2.6.8,2.6,3.1v.4h-4.5c0,1.3.8,2,1.9,2s1.3-.3,1.5-1l.9.3c-.3.9-1.2,1.6-2.4,1.6-1.8,0-2.9-1.3-2.9-3.2ZM461.3,194.3c0-1-.7-1.8-1.7-1.8s-1.8.9-1.8,1.8h3.5Z"/>
    <path class="cls-3" d="M464.6,197.9h-.9v-6.1h.9v1h0c.3-.6.9-1,1.8-1s2.1.8,2.1,2.3v3.9h-.9v-3.8c0-1-.5-1.5-1.4-1.5s-1.6.6-1.6,1.7v3.7Z"/>
    <path class="cls-3" d="M470,194.9c0-1.9,1.1-3.2,2.8-3.2s2.3.8,2.4,1.9h-.9c-.1-.6-.6-1.1-1.5-1.1s-1.8.9-1.8,2.3.7,2.4,1.8,2.4,1.3-.4,1.5-1.1h.9c-.2,1.1-1.1,1.9-2.4,1.9s-2.8-1.3-2.8-3.2Z"/>
    <path class="cls-3" d="M476.2,194.9c0-1.9,1.1-3.2,2.8-3.2s2.6.8,2.6,3.1v.4h-4.5c0,1.3.8,2,1.9,2s1.3-.3,1.5-1l.9.3c-.3.9-1.2,1.6-2.4,1.6-1.8,0-2.9-1.3-2.9-3.2ZM480.7,194.3c0-1-.7-1.8-1.7-1.8s-1.8.9-1.8,1.8h3.5Z"/>
    <path class="cls-3" d="M486.6,193.4c-.2-.4-.5-.9-1.3-.9s-1.3.4-1.3.9.3.7,1.1.9l.9.2c1.1.3,1.6.8,1.6,1.7s-1,1.8-2.4,1.8-2.1-.6-2.3-1.6l.9-.2c.2.7.7,1,1.4,1s1.4-.4,1.4-1-.3-.7-.9-.9l-1-.2c-1.1-.3-1.6-.8-1.6-1.7s1-1.8,2.3-1.8,1.9.6,2.2,1.5l-.8.2Z"/>
  </g>
  <g>
    <path class="cls-3" d="M90.3,230h5.7c4,0,5.8,2.4,5.8,5.4s-1.8,5.4-5.7,5.4h-3.7v6.2h-2.1v-16.9ZM96,238.9c2.7,0,3.8-1.5,3.8-3.6s-1.1-3.5-3.8-3.5h-3.6v7.1h3.6Z"/>
    <path class="cls-3" d="M106.8,246.9h-2v-16.9h2v16.9Z"/>
    <path class="cls-3" d="M118.3,234.2h2v12.7h-2v-2.2h-.1c-.6,1.3-1.9,2.3-3.8,2.3s-4.1-1.6-4.1-4.8v-8.1h2v7.9c0,1.9,1.2,3,2.8,3s3.3-1.1,3.3-3.5v-7.5Z"/>
    <path class="cls-3" d="M123.8,249.4l1.6-1.1c.5.7,1.3,1.9,3.6,1.9s3.5-1,3.5-3.1v-2.6h-.2c-.4.7-1.2,2.1-3.7,2.1s-5.4-2.2-5.4-6.2,2.2-6.5,5.4-6.5,3.3,1.5,3.7,2.2h.2v-2h1.9v13.1c0,3.3-2.4,4.7-5.5,4.7s-4.4-1.2-5.2-2.5ZM132.6,240.5c0-2.7-1.3-4.7-3.6-4.7s-3.7,2.1-3.7,4.7,1.3,4.5,3.7,4.5,3.6-1.7,3.6-4.5Z"/>
    <path class="cls-3" d="M145.3,240.6h-7.4v-1.8h7.4v1.8Z"/>
    <path class="cls-3" d="M148.4,230.8c0-.7.6-1.3,1.4-1.3s1.4.6,1.4,1.3-.6,1.3-1.4,1.3-1.4-.6-1.4-1.3ZM148.8,234.2h2v12.7h-2v-12.7Z"/>
    <path class="cls-3" d="M156.3,246.9h-2v-12.7h1.9v2h.2c.6-1.3,1.8-2.2,3.7-2.2s4.3,1.6,4.3,4.8v8.1h-2v-7.9c0-2-1.1-3.2-2.9-3.2s-3.2,1.3-3.2,3.5v7.6Z"/>
    <path class="cls-3" d="M176.7,246.9h-2.1v-16.9h2.1v16.9Z"/>
    <path class="cls-3" d="M182.5,246.9h-2v-12.7h1.9v2h.2c.6-1.3,1.8-2.2,3.7-2.2s4.3,1.6,4.3,4.8v8.1h-2v-7.9c0-2-1.1-3.2-2.9-3.2s-3.2,1.3-3.2,3.5v7.6Z"/>
    <path class="cls-3" d="M199.7,235.9h-2.7v7.4c0,1.7.8,1.9,1.7,1.9s.7,0,.9,0l.4,1.8c-.3,0-.7.2-1.5.2-1.7,0-3.4-1.1-3.4-3.3v-7.9h-1.9v-1.7h1.9v-3h2v3h2.7v1.7Z"/>
    <path class="cls-3" d="M201.8,240.7c0-3.9,2.3-6.6,5.7-6.6s5.5,1.6,5.5,6.4v.8h-9.2c0,2.7,1.7,4.2,4,4.2s2.7-.7,3.2-2l1.9.5c-.6,1.9-2.5,3.2-5.1,3.2-3.7,0-5.9-2.6-5.9-6.5ZM211,239.6c0-2.2-1.4-3.7-3.5-3.7s-3.6,1.8-3.8,3.7h7.2Z"/>
    <path class="cls-3" d="M215.9,234.2h1.9v1.9h.1c.5-1.3,1.8-2.1,3.3-2.1s.8,0,1,0v2c-.1,0-.7-.1-1.2-.1-1.9,0-3.2,1.3-3.2,3v8h-2v-12.7Z"/>
    <path class="cls-3" d="M223.9,240.7c0-4,2.3-6.6,5.8-6.6s5.8,2.6,5.8,6.6-2.3,6.6-5.8,6.6-5.8-2.6-5.8-6.6ZM233.5,240.7c0-2.5-1.2-4.8-3.8-4.8s-3.8,2.3-3.8,4.8,1.2,4.8,3.8,4.8,3.8-2.2,3.8-4.8Z"/>
    <path class="cls-3" d="M238.4,234.2h1.9v2h.2c.4-.7,1.2-2.2,3.7-2.2s5.4,2.5,5.4,6.6-2.2,6.6-5.4,6.6-3.3-1.5-3.7-2.2h-.2v6.7h-2v-17.5ZM244,245.4c2.4,0,3.7-2.2,3.7-4.9s-1.2-4.8-3.7-4.8-3.6,1.9-3.6,4.8,1.3,4.9,3.6,4.9Z"/>
    <path class="cls-3" d="M252,240.7c0-3.9,2.3-6.6,5.7-6.6s5.5,1.6,5.5,6.4v.8h-9.2c0,2.7,1.7,4.2,4,4.2s2.7-.7,3.2-2l1.9.5c-.6,1.9-2.5,3.2-5.1,3.2-3.7,0-5.9-2.6-5.9-6.5ZM261.2,239.6c0-2.2-1.4-3.7-3.5-3.7s-3.6,1.8-3.8,3.7h7.2Z"/>
    <path class="cls-3" d="M266.2,234.2h1.9v1.9h.1c.5-1.3,1.8-2.1,3.3-2.1s.8,0,1,0v2c-.1,0-.7-.1-1.2-.1-1.9,0-3.2,1.3-3.2,3v8h-2v-12.7Z"/>
    <path class="cls-3" d="M274.1,243.3c0-2.9,2.6-3.4,4.9-3.7,2.3-.3,3.3-.2,3.3-1.2h0c0-1.7-.9-2.6-2.7-2.6s-2.9,1-3.3,1.9l-1.9-.7c1-2.3,3.2-3,5.1-3s4.7.5,4.7,4.5v8.4h-2v-1.7h0c-.4.8-1.6,2-3.8,2s-4.3-1.4-4.3-3.9ZM282.3,242.3v-1.8c-.3.4-2.5.6-3.4.7-1.5.2-2.9.7-2.9,2.2s1.1,2.1,2.7,2.1c2.3,0,3.6-1.6,3.6-3.1Z"/>
    <path class="cls-3" d="M293.4,235.9h-2.7v7.4c0,1.7.8,1.9,1.7,1.9s.7,0,.9,0l.4,1.8c-.3,0-.7.2-1.5.2-1.7,0-3.4-1.1-3.4-3.3v-7.9h-1.9v-1.7h1.9v-3h2v3h2.7v1.7Z"/>
    <path class="cls-3" d="M295.9,230.8c0-.7.6-1.3,1.4-1.3s1.4.6,1.4,1.3-.6,1.3-1.4,1.3-1.4-.6-1.4-1.3ZM296.3,234.2h2v12.7h-2v-12.7Z"/>
    <path class="cls-3" d="M301.3,240.7c0-4,2.3-6.6,5.8-6.6s5.8,2.6,5.8,6.6-2.3,6.6-5.8,6.6-5.8-2.6-5.8-6.6ZM310.8,240.7c0-2.5-1.2-4.8-3.8-4.8s-3.8,2.3-3.8,4.8,1.2,4.8,3.8,4.8,3.8-2.2,3.8-4.8Z"/>
    <path class="cls-3" d="M317.7,246.9h-2v-12.7h1.9v2h.2c.6-1.3,1.8-2.2,3.7-2.2s4.3,1.6,4.3,4.8v8.1h-2v-7.9c0-2-1.1-3.2-2.9-3.2s-3.2,1.3-3.2,3.5v7.6Z"/>
    <path class="cls-3" d="M335.5,230.8c0-.7.6-1.3,1.4-1.3s1.4.6,1.4,1.3-.6,1.3-1.4,1.3-1.4-.6-1.4-1.3ZM335.9,234.2h2v12.7h-2v-12.7Z"/>
    <path class="cls-3" d="M343.3,246.9h-2v-12.7h1.9v2h.2c.6-1.3,1.8-2.2,3.7-2.2s4.3,1.6,4.3,4.8v8.1h-2v-7.9c0-2-1.1-3.2-2.9-3.2s-3.2,1.3-3.2,3.5v7.6Z"/>
    <path class="cls-3" d="M361.7,230h10.2v1.8h-8.2v5.7h7.6v1.8h-7.6v5.8h8.3v1.8h-10.4v-16.9Z"/>
    <path class="cls-3" d="M379.9,239.4l3-5.2h2.2l-4.1,6.4,4.1,6.4h-2.2l-3-4.9-3,4.9h-2.2l4-6.4-4-6.4h2.2l3,5.2Z"/>
    <path class="cls-3" d="M393.5,235.9h-2.7v7.4c0,1.7.8,1.9,1.7,1.9s.7,0,.9,0l.4,1.8c-.3,0-.7.2-1.5.2-1.7,0-3.4-1.1-3.4-3.3v-7.9h-1.9v-1.7h1.9v-3h2v3h2.7v1.7Z"/>
    <path class="cls-3" d="M395.5,240.7c0-3.9,2.3-6.6,5.7-6.6s5.5,1.6,5.5,6.4v.8h-9.2c0,2.7,1.7,4.2,4,4.2s2.7-.7,3.2-2l1.9.5c-.6,1.9-2.5,3.2-5.1,3.2-3.7,0-5.9-2.6-5.9-6.5ZM404.7,239.6c0-2.2-1.4-3.7-3.5-3.7s-3.6,1.8-3.8,3.7h7.2Z"/>
    <path class="cls-3" d="M411.6,246.9h-2v-12.7h1.9v2h.2c.6-1.3,1.8-2.2,3.7-2.2s4.3,1.6,4.3,4.8v8.1h-2v-7.9c0-2-1.1-3.2-2.9-3.2s-3.2,1.3-3.2,3.5v7.6Z"/>
    <path class="cls-3" d="M422.7,240.6c0-4,2.2-6.6,5.4-6.6s3.2,1.5,3.7,2.2h.2v-6.3h2v16.9h-1.9v-2h-.2c-.4.7-1.3,2.2-3.7,2.2s-5.4-2.5-5.4-6.6ZM432,240.6c0-2.8-1.3-4.8-3.6-4.8s-3.7,2.1-3.7,4.8,1.3,4.9,3.7,4.9,3.6-2,3.6-4.9Z"/>
    <path class="cls-3" d="M437.2,243.3c0-2.9,2.6-3.4,4.9-3.7,2.3-.3,3.3-.2,3.3-1.2h0c0-1.7-.9-2.6-2.7-2.6s-2.9,1-3.3,1.9l-1.9-.7c1-2.3,3.2-3,5.1-3s4.7.5,4.7,4.5v8.4h-2v-1.7h0c-.4.8-1.6,2-3.8,2s-4.3-1.4-4.3-3.9ZM445.4,242.3v-1.8c-.3.4-2.5.6-3.4.7-1.5.2-2.9.7-2.9,2.2s1.1,2.1,2.7,2.1c2.3,0,3.6-1.6,3.6-3.1Z"/>
    <path class="cls-3" d="M451.2,230h2v6.3h.2c.4-.7,1.2-2.2,3.7-2.2s5.4,2.5,5.4,6.6-2.2,6.6-5.4,6.6-3.3-1.5-3.7-2.2h-.2v2h-1.9v-16.9ZM456.7,245.4c2.4,0,3.7-2.2,3.7-4.9s-1.2-4.8-3.7-4.8-3.6,1.9-3.6,4.8,1.3,4.9,3.6,4.9Z"/>
    <path class="cls-3" d="M467.3,246.9h-2v-16.9h2v16.9Z"/>
    <path class="cls-3" d="M470.3,240.7c0-3.9,2.3-6.6,5.7-6.6s5.5,1.6,5.5,6.4v.8h-9.2c0,2.7,1.7,4.2,4,4.2s2.7-.7,3.2-2l1.9.5c-.6,1.9-2.5,3.2-5.1,3.2-3.7,0-5.9-2.6-5.9-6.5ZM479.5,239.6c0-2.2-1.4-3.7-3.5-3.7s-3.6,1.8-3.8,3.7h7.2Z"/>
  </g>
  <g>
    <path class="cls-3" d="M90.3,253.3h5.7c4,0,5.8,2.4,5.8,5.4s-1.8,5.4-5.7,5.4h-3.7v6.2h-2.1v-16.9ZM96,262.2c2.7,0,3.8-1.5,3.8-3.6s-1.1-3.5-3.8-3.5h-3.6v7.1h3.6Z"/>
    <path class="cls-3" d="M106.8,270.3h-2v-16.9h2v16.9Z"/>
    <path class="cls-3" d="M109.7,266.6c0-2.9,2.6-3.4,4.9-3.7,2.3-.3,3.3-.2,3.3-1.2h0c0-1.7-.9-2.6-2.7-2.6s-2.9,1-3.3,1.9l-1.9-.7c1-2.3,3.2-3,5.1-3s4.7.5,4.7,4.5v8.4h-2v-1.7h0c-.4.8-1.6,2-3.8,2s-4.3-1.4-4.3-3.9ZM117.9,265.7v-1.8c-.3.4-2.5.6-3.4.7-1.5.2-2.9.7-2.9,2.2s1.1,2.1,2.7,2.1c2.3,0,3.6-1.6,3.6-3.1Z"/>
    <path class="cls-3" d="M129,259.2h-2.7v7.4c0,1.7.8,1.9,1.7,1.9s.7,0,.9,0l.4,1.8c-.3,0-.7.2-1.5.2-1.7,0-3.4-1.1-3.4-3.3v-7.9h-1.9v-1.7h1.9v-3h2v3h2.7v1.7Z"/>
    <path class="cls-3" d="M137.6,259.2h-2.8v11h-2v-11h-2.1v-1.7h2.1v-1.8c0-2.2,1.8-3.3,3.6-3.3s1.6.2,1.9.3l-.6,1.7c-.2,0-.5-.2-1.1-.2-1.3,0-1.8.7-1.8,1.9v1.3h2.8v1.7Z"/>
    <path class="cls-3" d="M139.5,264c0-4,2.3-6.6,5.8-6.6s5.8,2.6,5.8,6.6-2.3,6.6-5.8,6.6-5.8-2.6-5.8-6.6ZM149.1,264c0-2.5-1.2-4.8-3.8-4.8s-3.8,2.3-3.8,4.8,1.2,4.8,3.8,4.8,3.8-2.2,3.8-4.8Z"/>
    <path class="cls-3" d="M154,257.6h1.9v1.9h.1c.5-1.3,1.8-2.1,3.3-2.1s.8,0,1,0v2c-.1,0-.7-.1-1.2-.1-1.9,0-3.2,1.3-3.2,3v8h-2v-12.7Z"/>
    <path class="cls-3" d="M162.7,257.6h1.9v2h.2c.5-1.4,1.8-2.2,3.4-2.2s2.8.8,3.4,2.2h.1c.7-1.3,2-2.2,3.8-2.2s3.9,1.4,3.9,4.4v8.5h-2v-8.5c0-1.9-1.2-2.6-2.6-2.6s-2.8,1.2-2.8,2.8v8.3h-2v-8.7c0-1.4-1-2.4-2.5-2.4s-2.9,1.3-2.9,3.2v7.9h-2v-12.7Z"/>
    <path class="cls-3" d="M190.2,260.9c-.3-.9-1-1.8-2.7-1.8s-2.7.8-2.7,1.9.7,1.5,2.2,1.9l1.9.5c2.3.6,3.4,1.7,3.4,3.4s-2,3.8-5,3.8-4.4-1.1-4.8-3.3l1.9-.5c.3,1.4,1.3,2.1,2.9,2.1s3-.9,3-2-.6-1.5-1.9-1.8l-2.1-.5c-2.3-.5-3.4-1.7-3.4-3.5s2-3.7,4.7-3.7,3.9,1.2,4.5,3l-1.8.5Z"/>
  </g>
  <rect class="cls-3" x="88.2" y="281.7" width="481.9" height="1.5"/>
  <g>
    <path class="cls-3" d="M93.5,312.5c-2.6,0-4.6-1.8-4.6-5s2-5,4.6-5,4.6,1.8,4.6,5-2,5-4.6,5ZM93.5,304.3c-1.5,0-2.5,1.1-2.5,3.2s1,3.2,2.5,3.2,2.5-1.1,2.5-3.2-1-3.2-2.5-3.2Z"/>
    <path class="cls-3" d="M101.6,312.4h-2v-9.8h2v9.8Z"/>
    <path class="cls-3" d="M105.3,312.4h-2v-9.8h2v9.8Z"/>
    <path class="cls-3" d="M106.8,303.1c0-.6.5-1,1.1-1s1.1.5,1.1,1-.5,1-1.1,1-1.1-.5-1.1-1ZM106.9,305h2v7.4h-2v-7.4Z"/>
    <path class="cls-3" d="M114.4,302.6h2.1v4.3h.1l3.5-4.3h2.5l-3.6,4.4,3.7,5.4h-2.5l-2.7-4-1,1.2v2.8h-2.1v-9.8Z"/>
    <path class="cls-3" d="M123.5,303.1c0-.6.5-1,1.1-1s1.1.5,1.1,1-.5,1-1.1,1-1.1-.5-1.1-1ZM123.6,305h2v7.4h-2v-7.4Z"/>
    <path class="cls-3" d="M129.3,312.4h-2v-9.8h2v9.8Z"/>
    <path class="cls-3" d="M133,305v7.7c0,1.7-1.1,2.4-2.8,2.4s-.3,0-.4,0v-1.6c.1,0,.2,0,.3,0,.7,0,.9-.3.9-.8v-7.7h2ZM130.9,303.1c0-.6.5-1,1.1-1s1.1.5,1.1,1-.5,1-1.1,1-1.1-.5-1.1-1Z"/>
    <path class="cls-3" d="M139.3,305h2v7.4h-2v-1.3h0c-.3.9-1.1,1.4-2.2,1.4s-2.5-1-2.5-2.8v-4.7h2v4.3c0,.9.5,1.4,1.3,1.4s1.4-.5,1.4-1.5v-4.2Z"/>
    <path class="cls-3" d="M145.1,312.4h-2v-7.4h1.9v1.3h0c.3-.9,1.1-1.4,2.2-1.4s2.5,1.1,2.5,2.8v4.7h-2v-4.3c0-.9-.5-1.4-1.3-1.4s-1.4.6-1.4,1.5v4.3Z"/>
    <path class="cls-3" d="M151.1,308.8c0-2.3,1.4-3.8,3.6-3.8s3.5,1.2,3.5,3.7v.6h-5c0,1.1.6,1.8,1.7,1.8s1.2-.3,1.4-.9h1.9c-.3,1.5-1.5,2.4-3.3,2.4s-3.7-1.5-3.7-3.8ZM156.2,308c0-.9-.6-1.5-1.5-1.5s-1.5.7-1.6,1.5h3.1Z"/>
    <path class="cls-3" d="M161.5,312.4h-2v-7.4h1.9v1.3h0c.3-.9,1.1-1.4,2.2-1.4s2.5,1.1,2.5,2.8v4.7h-2v-4.3c0-.9-.5-1.4-1.3-1.4s-1.4.6-1.4,1.5v4.3Z"/>
  </g>
  <rect class="cls-3" x="478.9" y="785.8" width="1.5" height="14.4"/>
  <g>
    <path class="cls-3" d="M487.8,787.8l2.8,6.8h0l2.8-6.8h1.2v8.2h-.9v-6.2h0l-2.6,6.2h-.9l-2.6-6.2h0v6.2h-.9v-8.2h1.2Z"/>
    <path class="cls-3" d="M496.2,794.2c0-1.4,1.2-1.7,2.4-1.8,1.1-.1,1.6-.1,1.6-.6h0c0-.8-.4-1.3-1.3-1.3s-1.4.5-1.6.9l-.9-.3c.5-1.1,1.5-1.4,2.5-1.4s2.3.2,2.3,2.2v4h-.9v-.8h0c-.2.4-.8,1-1.8,1s-2.1-.7-2.1-1.9ZM500.2,793.7v-.9c-.2.2-1.2.3-1.6.4-.7,0-1.4.3-1.4,1s.5,1,1.3,1c1.1,0,1.7-.8,1.7-1.5Z"/>
    <path class="cls-3" d="M506.3,791.4c-.2-.4-.5-.9-1.3-.9s-1.3.4-1.3.9.3.7,1.1.9l.9.2c1.1.3,1.6.8,1.6,1.7s-1,1.8-2.4,1.8-2.1-.6-2.3-1.6l.9-.2c.2.7.7,1,1.4,1s1.4-.4,1.4-1-.3-.7-.9-.9l-1-.2c-1.1-.3-1.6-.8-1.6-1.7s1-1.8,2.3-1.8,1.9.6,2.2,1.5l-.8.2Z"/>
    <path class="cls-3" d="M511.3,790.6h-1.3v3.6c0,.8.4.9.8.9s.3,0,.4,0l.2.8c-.1,0-.4.1-.7.1-.8,0-1.7-.5-1.7-1.6v-3.8h-.9v-.8h.9v-1.5h.9v1.5h1.3v.8Z"/>
    <path class="cls-3" d="M512.3,792.9c0-1.9,1.1-3.2,2.8-3.2s2.6.8,2.6,3.1v.4h-4.5c0,1.3.8,2,1.9,2s1.3-.3,1.5-1l.9.3c-.3.9-1.2,1.6-2.4,1.6-1.8,0-2.9-1.3-2.9-3.2ZM516.7,792.4c0-1-.7-1.8-1.7-1.8s-1.8.9-1.8,1.8h3.5Z"/>
    <path class="cls-3" d="M519.1,789.8h.9v.9h0c.2-.6.9-1,1.6-1s.4,0,.5,0v1c0,0-.3,0-.6,0-.9,0-1.6.6-1.6,1.4v3.9h-.9v-6.1Z"/>
    <path class="cls-3" d="M524.2,788.5c0,.7-.4,1.5-1,2l-.5-.4c.3-.5.6-1,.6-1.6v-.7h.9v.7Z"/>
    <path class="cls-3" d="M528.7,791.4c-.2-.4-.5-.9-1.3-.9s-1.3.4-1.3.9.3.7,1.1.9l.9.2c1.1.3,1.6.8,1.6,1.7s-1,1.8-2.4,1.8-2.1-.6-2.3-1.6l.9-.2c.2.7.7,1,1.4,1s1.4-.4,1.4-1-.3-.7-.9-.9l-1-.2c-1.1-.3-1.6-.8-1.6-1.7s1-1.8,2.3-1.8,1.9.6,2.2,1.5l-.8.2Z"/>
    <path class="cls-3" d="M533.8,787.8h6.1v.9h-2.6v7.3h-1v-7.3h-2.6v-.9Z"/>
    <path class="cls-3" d="M542.3,795.9h-.9v-8.2h.9v3h0c.3-.6.8-1,1.8-1s2.1.7,2.1,2.3v3.9h-.9v-3.8c0-1-.5-1.5-1.4-1.5s-1.6.6-1.6,1.7v3.7Z"/>
    <path class="cls-3" d="M547.7,792.9c0-1.9,1.1-3.2,2.8-3.2s2.6.8,2.6,3.1v.4h-4.5c0,1.3.8,2,1.9,2s1.3-.3,1.5-1l.9.3c-.3.9-1.2,1.6-2.4,1.6-1.8,0-2.9-1.3-2.9-3.2ZM552.2,792.4c0-1-.7-1.8-1.7-1.8s-1.8.9-1.8,1.8h3.5Z"/>
    <path class="cls-3" d="M558.1,791.4c-.2-.4-.5-.9-1.3-.9s-1.3.4-1.3.9.3.7,1.1.9l.9.2c1.1.3,1.6.8,1.6,1.7s-1,1.8-2.4,1.8-2.1-.6-2.3-1.6l.9-.2c.2.7.7,1,1.4,1s1.4-.4,1.4-1-.3-.7-.9-.9l-1-.2c-1.1-.3-1.6-.8-1.6-1.7s1-1.8,2.3-1.8,1.9.6,2.2,1.5l-.8.2Z"/>
    <path class="cls-3" d="M560.2,788.1c0-.4.3-.6.7-.6s.7.3.7.6-.3.6-.7.6-.7-.3-.7-.6ZM560.4,789.8h.9v6.1h-.9v-6.1Z"/>
    <path class="cls-3" d="M566.6,791.4c-.2-.4-.5-.9-1.3-.9s-1.3.4-1.3.9.3.7,1.1.9l.9.2c1.1.3,1.6.8,1.6,1.7s-1,1.8-2.4,1.8-2.1-.6-2.3-1.6l.9-.2c.2.7.7,1,1.4,1s1.4-.4,1.4-1-.3-.7-.9-.9l-1-.2c-1.1-.3-1.6-.8-1.6-1.7s1-1.8,2.3-1.8,1.9.6,2.2,1.5l-.8.2Z"/>
  </g>
  <rect class="cls-3" x="478.9" y="800.3" width="1.5" height="14.4"/>
  <g>
    <path class="cls-3" d="M486.5,809.7l2.7-3c.9-1,1.4-1.6,1.4-2.4s-.7-1.4-1.6-1.4-1.6.6-1.6,1.6h-.9c0-1.4,1.1-2.4,2.5-2.4s2.5,1,2.5,2.3-.4,1.6-1.8,3.1l-1.8,2h0c0,0,3.8,0,3.8,0v.9h-5.2v-.7Z"/>
    <path class="cls-3" d="M493.1,806.3c0-2.7,1.1-4.2,2.8-4.2s2.8,1.6,2.8,4.2-1,4.2-2.8,4.2-2.8-1.5-2.8-4.2ZM497.8,806.3c0-2.1-.7-3.3-1.9-3.3s-1.9,1.2-1.9,3.3.7,3.3,1.9,3.3,1.9-1.2,1.9-3.3Z"/>
    <path class="cls-3" d="M500.3,809.7l2.7-3c.9-1,1.4-1.6,1.4-2.4s-.7-1.4-1.6-1.4-1.6.6-1.6,1.6h-.9c0-1.4,1.1-2.4,2.5-2.4s2.5,1,2.5,2.3-.4,1.6-1.8,3.1l-1.8,2h0c0,0,3.8,0,3.8,0v.9h-5.2v-.7Z"/>
    <path class="cls-3" d="M510,810.4h-1v-7.1h0l-2,1.3v-1l2-1.4h1v8.2Z"/>
  </g>
  <rect class="cls-1" x="28.4" y="37.7" width="595.3" height="841.9"/>
</svg>