<?xml version="1.0" encoding="UTF-8"?>
<svg id="Layer_1" data-name="Layer 1" xmlns="http://www.w3.org/2000/svg" width="595.3" height="841.9" version="1.1" viewBox="0 0 595.3 841.9">
  <defs>
    <style>
      .cls-1 {
        fill: none;
      }

      .cls-1, .cls-2, .cls-3, .cls-4, .cls-5, .cls-6 {
        stroke-width: 0px;
      }

      .cls-2 {
        fill: #878782;
      }

      .cls-3, .cls-6 {
        fill: #000;
      }

      .cls-4 {
        fill: #ff3359;
      }

      .cls-5 {
        fill: #fff;
      }

      .cls-6 {
        fill-rule: evenodd;
      }
    </style>
  </defs>
  <rect class="cls-5" width="595.3" height="841.9"/>
  <path class="cls-6" d="M67.7,55.3l3.6-10.2,3.6,10.2h-7.2ZM56.7,66.3l10.2-29h8.8l10.2,29h-7.5l-1.7-5h-11.1l-1.7,5h-7.5Z"/>
  <path class="cls-4" d="M93.7,57.4h-3.9l-1.4-10.1v-10.1h7v10.1l-1.7,10.1ZM88.8,66.3h6.5v-6.6h-6.5v6.6Z"/>
  <path class="cls-3" d="M184.1,39.3l-.7,2.4c-.1.5-.2.8-.3,1.2v-.2c-.2-.4-.2-.4-.3-.9l-.8-2.4h-1.7l1.7,4.4c.2.5.2.5.2.7,0,.5-.3.7-.8.7h-.5v1.2h.9c1.2,0,1.4-.2,1.9-1.6l1.8-5.3h-1.6ZM179.6,39.3h-1v-1.7h-1.5v1.7h-.7v1.1h.7v2.4c0,.8,0,1.1.3,1.3.2.2.6.3,1.2.3h1v-1.2h-.6c-.4,0-.4,0-.4-.9v-2h1v-1.1ZM175.3,37.3h-1.5v1.3h1.5v-1.3ZM175.3,39.3h-1.5v5.2h1.5v-5.2ZM172.6,40.8c-.1-1.1-1-1.7-2.3-1.7s-2.3.6-2.3,1.7.4,1.3,1.6,1.5l1,.2c.4,0,.6.2.6.5s-.3.5-.8.5-1-.2-1-.7h-1.5c0,1.2,1,1.8,2.5,1.8s2.4-.7,2.4-1.8-.1-.8-.4-1c-.2-.2-.6-.4-1.2-.5l-1-.2c-.5-.1-.6-.2-.6-.4s.3-.4.7-.4.8.2.9.6h1.5ZM163.9,39.3v5.2h1.5v-1.5c0-1,0-1.5.2-1.9.2-.4.6-.6,1.2-.6s.2,0,.4,0v-1.4c-1.1,0-1.5.2-1.8,1.1v-.9s-1.5,0-1.5,0ZM159.1,41.2c.1-.6.5-1,1.1-1s1,.3,1,1h-2.1ZM162.8,42.3c0-.7,0-1.2-.2-1.6-.4-1-1.2-1.6-2.4-1.6s-2.7,1.1-2.7,2.8,1.1,2.7,2.7,2.7,2.2-.6,2.5-1.7h-1.6c-.2.3-.5.5-.9.5-.7,0-1.1-.4-1.2-1.1h3.7ZM155.1,44.5l1.8-5.2h-1.7l-.5,2c0,.3-.2.9-.3,1.5-.2-.6-.3-1.1-.4-1.5l-.6-2h-1.6l1.9,5.2h1.5ZM150.8,37.3h-1.6v1.3h1.6v-1.3ZM150.8,39.3h-1.6v5.2h1.6v-5.2ZM143,39.3v5.2h1.6v-2.9c0-.5,0-.7.2-.9.2-.2.4-.3.7-.3s.5.1.6.3c.1.2.2.4.2.9v2.8h1.5v-3.4c0-1.2-.7-2-1.8-2s-.9.1-1.4.7v-.5h-1.5ZM139.8,37.3v4.8c0,.5,0,.7-.3.9-.2.2-.6.3-1,.3s-.7-.1-1-.3c-.2-.2-.3-.4-.3-.9v-4.8h-1.6v4.9c0,.9.2,1.5.8,1.9.6.4,1.3.6,2.1.6s1.6-.2,2.1-.6c.5-.4.8-1,.8-1.9v-4.9h-1.6ZM129.1,40.3c.8,0,1.2.6,1.2,1.6s-.5,1.5-1.2,1.5-1.2-.6-1.2-1.5.4-1.5,1.2-1.5M129.1,39.1c-1.6,0-2.8,1.1-2.8,2.7s1.2,2.8,2.8,2.8,2.8-1.1,2.8-2.7-1.1-2.8-2.8-2.8M125.6,39.3h-.9v-1.7h-1.6v1.7h-.7v1.1h.7v2.4c0,.8,0,1.1.3,1.3.2.2.6.3,1.2.3h.9v-1.2h-.6c-.4,0-.4,0-.4-.9v-2h.9v-1.1ZM121.4,37.3h-1.6v7.2h1.6v-7.2ZM117,42.8c-.3.4-.6.7-1.1.7s-.8-.2-.8-.5.2-.5.8-.6h.6c.3-.2.4-.2.6-.3v.8ZM115.2,40.9c0-.4.4-.6.9-.6s.8.2.8.5-.1.3-.5.4h-.8c-1.5.4-2.1.9-2.1,1.9s.8,1.6,1.9,1.6,1-.1,1.5-.5c0,.2,0,.2.1.4h1.6c-.2-.3-.2-.3-.2-.9v-2.4c0-.8-.1-1.2-.5-1.5-.4-.4-1-.6-1.8-.6-1.5,0-2.2.6-2.3,1.8h1.4ZM110.5,41.7h-1.7l.9-2.8.8,2.8ZM110.9,43l.4,1.4h1.9l-2.3-7.2h-2l-2.5,7.2h1.8l.5-1.4h2.4Z"/>
  <path class="cls-2" d="M193.3,52.2c.1-.6.5-1,1.1-1s1,.3,1,1h-2.1ZM197.1,53.2c0-.7,0-1.2-.2-1.6-.4-1-1.2-1.6-2.4-1.6s-2.7,1.1-2.7,2.8,1.1,2.7,2.7,2.7,2.2-.6,2.5-1.7h-1.6c-.2.3-.5.5-.9.5-.7,0-1.1-.4-1.2-1.1h3.8ZM190.9,52.1c-.1-1.2-1-2-2.4-2s-2.7,1-2.7,2.8,1,2.7,2.6,2.7,2.3-.7,2.5-2.1h-1.5c-.1.5-.4.8-1,.8s-1.1-.5-1.1-1.5.4-1.5,1.1-1.5.9.3,1,.8h1.5ZM179.8,50.2v5.2h1.6v-2.9c0-.5,0-.7.2-.9.2-.2.4-.3.7-.3s.5.1.6.3c.1.2.2.4.2.9v2.8h1.5v-3.4c0-1.2-.7-2-1.8-2s-.9.1-1.4.7v-.5h-1.5ZM174.9,52.2c.1-.6.5-1,1.1-1s1,.3,1,1h-2.1ZM178.6,53.2c0-.7,0-1.2-.2-1.6-.4-1-1.2-1.6-2.4-1.6s-2.7,1.1-2.7,2.8,1.1,2.7,2.7,2.7,2.2-.6,2.5-1.7h-1.6c-.2.3-.5.5-.9.5-.7,0-1.1-.4-1.2-1.1h3.8ZM172.1,48.2h-1.5v1.3h1.5v-1.3ZM172.1,50.2h-1.5v5.2h1.5v-5.2ZM169.4,52.1c-.1-1.2-1-2-2.4-2s-2.7,1-2.7,2.8,1,2.7,2.6,2.7,2.3-.7,2.5-2.1h-1.5c-.1.5-.4.8-1,.8s-1.1-.5-1.1-1.5.4-1.5,1.1-1.5.9.3,1,.8h1.5ZM163.3,50.4c0-.6-.2-1-.4-1.3-.5-.7-1.3-1.1-2.5-1.1-1.8,0-2.9.8-2.9,2.2s.2,1.1.6,1.4c.3.3.8.5,1.6.7l1.3.3c.5.1.8.4.8.7s-.5.8-1.4.8-1.5-.4-1.5-1.2h-1.6c0,1.6,1.1,2.5,3.1,2.5s3.1-.9,3.1-2.4-.2-1-.6-1.4c-.3-.3-.8-.5-1.6-.7l-1.5-.3c-.5-.1-.7-.3-.7-.6,0-.5.5-.7,1.2-.7s1.3.4,1.3.9h0c0,.1,1.6.1,1.6.1ZM153.8,50.2h-1v-.4c0-.3.2-.5.5-.5h.5v-1.2h-.9c-1.2,0-1.7.6-1.7,1.7v.4h-.7v1.1h.7v4.1h1.6v-4.1h1v-1.1ZM147.1,51.3c.8,0,1.2.6,1.2,1.6s-.5,1.5-1.2,1.5-1.2-.6-1.2-1.5.4-1.5,1.2-1.5M147.1,50c-1.6,0-2.8,1.1-2.8,2.7s1.2,2.8,2.8,2.8,2.8-1.1,2.8-2.7-1.1-2.8-2.8-2.8M140.7,48.2h-1.5v7.2h1.5v-7.2ZM135.1,51.3c.8,0,1.2.6,1.2,1.6s-.5,1.5-1.2,1.5-1.2-.6-1.2-1.5.4-1.5,1.2-1.5M135.1,50c-1.6,0-2.8,1.1-2.8,2.7s1.2,2.8,2.8,2.8,2.8-1.1,2.8-2.7-1.1-2.8-2.8-2.8M128.6,51.3c.8,0,1.2.6,1.2,1.6s-.5,1.5-1.2,1.5-1.2-.6-1.2-1.5.4-1.5,1.2-1.5M128.6,50c-1.6,0-2.8,1.1-2.8,2.7s1.2,2.8,2.8,2.8,2.8-1.1,2.8-2.7-1.1-2.8-2.8-2.8M121.3,48.2h-1.6v7.2h1.6v-2.9c0-.6,0-.7.2-.9.2-.2.4-.3.7-.3s.5,0,.6.3c.1.2.2.4.2.9v2.9h1.5v-3.2c0-.8-.1-1.2-.5-1.6-.3-.4-.8-.6-1.4-.6s-1,.2-1.4.6v-2.4ZM118.6,52.1c-.1-1.2-1-2-2.4-2s-2.7,1-2.7,2.8,1,2.7,2.6,2.7,2.3-.7,2.5-2.1h-1.5c-.1.5-.4.8-1,.8s-1.1-.5-1.1-1.5.4-1.5,1.1-1.5.9.3,1,.8h1.5ZM112.5,50.4c0-.6-.2-1-.4-1.3-.4-.7-1.3-1.1-2.5-1.1-1.8,0-2.9.8-2.9,2.2s.2,1.1.6,1.4c.3.3.8.5,1.6.7l1.3.3c.5.1.8.4.8.7s-.5.8-1.4.8-1.5-.4-1.5-1.2h-1.6c0,1.6,1.2,2.5,3.1,2.5s3-.9,3-2.4-.2-1-.6-1.4c-.3-.3-.8-.5-1.6-.7l-1.5-.3c-.4-.1-.7-.3-.7-.6,0-.5.5-.7,1.2-.7s1.3.4,1.3.9h0c0,.1,1.6.1,1.6.1Z"/>
  <g>
    <path class="cls-3" d="M58.9,152l2.8,6.8h0l2.8-6.8h1.2v8.2h-.9v-6.2h0l-2.6,6.2h-.9l-2.6-6.2h0v6.2h-.9v-8.2h1.2Z"/>
    <path class="cls-3" d="M67.3,158.4c0-1.4,1.2-1.7,2.4-1.8,1.1-.1,1.6-.1,1.6-.6h0c0-.8-.4-1.3-1.3-1.3s-1.4.5-1.6.9l-.9-.3c.5-1.1,1.5-1.4,2.5-1.4s2.3.2,2.3,2.2v4h-.9v-.8h0c-.2.4-.8,1-1.8,1s-2.1-.7-2.1-1.9ZM71.2,158v-.9c-.2.2-1.2.3-1.6.4-.7,0-1.4.3-1.4,1s.5,1,1.3,1c1.1,0,1.7-.8,1.7-1.5Z"/>
    <path class="cls-3" d="M77.4,155.6c-.2-.4-.5-.9-1.3-.9s-1.3.4-1.3.9.3.7,1.1.9l.9.2c1.1.3,1.6.8,1.6,1.7s-1,1.8-2.4,1.8-2.1-.6-2.3-1.6l.9-.2c.2.7.7,1,1.4,1s1.4-.4,1.4-1-.3-.7-.9-.9l-1-.2c-1.1-.3-1.6-.8-1.6-1.7s1-1.8,2.3-1.8,1.9.6,2.2,1.5l-.8.2Z"/>
    <path class="cls-3" d="M82.4,154.8h-1.3v3.6c0,.8.4.9.8.9s.3,0,.4,0l.2.8c-.1,0-.4.1-.7.1-.8,0-1.7-.5-1.7-1.6v-3.8h-.9v-.8h.9v-1.5h.9v1.5h1.3v.8Z"/>
    <path class="cls-3" d="M83.4,157.2c0-1.9,1.1-3.2,2.8-3.2s2.6.8,2.6,3.1v.4h-4.5c0,1.3.8,2,1.9,2s1.3-.3,1.5-1l.9.3c-.3.9-1.2,1.6-2.4,1.6-1.8,0-2.9-1.3-2.9-3.2ZM87.8,156.6c0-1-.7-1.8-1.7-1.8s-1.8.9-1.8,1.8h3.5Z"/>
    <path class="cls-3" d="M90.2,154h.9v.9h0c.2-.6.9-1,1.6-1s.4,0,.5,0v1c0,0-.3,0-.6,0-.9,0-1.6.6-1.6,1.4v3.9h-.9v-6.1Z"/>
    <path class="cls-3" d="M95.2,152.7c0,.7-.4,1.5-1,2l-.5-.4c.3-.5.6-1,.6-1.6v-.7h.9v.7Z"/>
    <path class="cls-3" d="M99.7,155.6c-.2-.4-.5-.9-1.3-.9s-1.3.4-1.3.9.3.7,1.1.9l.9.2c1.1.3,1.6.8,1.6,1.7s-1,1.8-2.4,1.8-2.1-.6-2.3-1.6l.9-.2c.2.7.7,1,1.4,1s1.4-.4,1.4-1-.3-.7-.9-.9l-1-.2c-1.1-.3-1.6-.8-1.6-1.7s1-1.8,2.3-1.8,1.9.6,2.2,1.5l-.8.2Z"/>
    <path class="cls-3" d="M105.2,154h.9v1h.1c.2-.3.6-1.1,1.8-1.1s2.6,1.2,2.6,3.2-1.1,3.2-2.6,3.2-1.6-.7-1.8-1.1h0v3.2h-.9v-8.4ZM107.9,159.5c1.2,0,1.8-1,1.8-2.4s-.6-2.3-1.8-2.3-1.8.9-1.8,2.3.6,2.4,1.8,2.4Z"/>
    <path class="cls-3" d="M112.1,154h.9v.9h0c.2-.6.9-1,1.6-1s.4,0,.5,0v1c0,0-.3,0-.6,0-.9,0-1.6.6-1.6,1.4v3.9h-.9v-6.1Z"/>
    <path class="cls-3" d="M115.9,157.1c0-1.9,1.1-3.2,2.8-3.2s2.8,1.3,2.8,3.2-1.1,3.2-2.8,3.2-2.8-1.3-2.8-3.2ZM120.5,157.1c0-1.2-.6-2.3-1.8-2.3s-1.8,1.1-1.8,2.3.6,2.3,1.8,2.3,1.8-1.1,1.8-2.3Z"/>
    <path class="cls-3" d="M122.9,161.4l.8-.5c.3.3.6.9,1.8.9s1.7-.5,1.7-1.5v-1.2h0c-.2.3-.6,1-1.8,1s-2.6-1.1-2.6-3,1.1-3.1,2.6-3.1,1.6.7,1.8,1.1h0v-1h.9v6.3c0,1.6-1.2,2.3-2.7,2.3s-2.1-.6-2.5-1.2ZM127.1,157.1c0-1.3-.6-2.3-1.8-2.3s-1.8,1-1.8,2.3.6,2.2,1.8,2.2,1.8-.8,1.8-2.2Z"/>
    <path class="cls-3" d="M129.8,154h.9v.9h0c.2-.6.9-1,1.6-1s.4,0,.5,0v1c0,0-.3,0-.6,0-.9,0-1.6.6-1.6,1.4v3.9h-.9v-6.1Z"/>
    <path class="cls-3" d="M133.6,158.4c0-1.4,1.2-1.7,2.4-1.8,1.1-.1,1.6-.1,1.6-.6h0c0-.8-.4-1.3-1.3-1.3s-1.4.5-1.6.9l-.9-.3c.5-1.1,1.5-1.4,2.5-1.4s2.3.2,2.3,2.2v4h-.9v-.8h0c-.2.4-.8,1-1.8,1s-2.1-.7-2.1-1.9ZM137.6,158v-.9c-.2.2-1.2.3-1.6.4-.7,0-1.4.3-1.4,1s.5,1,1.3,1c1.1,0,1.7-.8,1.7-1.5Z"/>
    <path class="cls-3" d="M140.2,154h.9v1h0c.3-.7.8-1,1.6-1s1.3.4,1.6,1h0c.3-.6,1-1,1.8-1s1.9.7,1.9,2.1v4.1h-.9v-4.1c0-.9-.6-1.3-1.2-1.3s-1.4.6-1.4,1.4v4h-1v-4.2c0-.7-.5-1.2-1.2-1.2s-1.4.6-1.4,1.5v3.8h-.9v-6.1Z"/>
    <path class="cls-3" d="M150,154h.9v1h0c.3-.7.8-1,1.6-1s1.3.4,1.6,1h0c.3-.6,1-1,1.8-1s1.9.7,1.9,2.1v4.1h-.9v-4.1c0-.9-.6-1.3-1.2-1.3s-1.4.6-1.4,1.4v4h-1v-4.2c0-.7-.5-1.2-1.2-1.2s-1.4.6-1.4,1.5v3.8h-.9v-6.1Z"/>
    <path class="cls-3" d="M159.5,157.2c0-1.9,1.1-3.2,2.8-3.2s2.6.8,2.6,3.1v.4h-4.5c0,1.3.8,2,1.9,2s1.3-.3,1.5-1l.9.3c-.3.9-1.2,1.6-2.4,1.6-1.8,0-2.9-1.3-2.9-3.2ZM163.9,156.6c0-1-.7-1.8-1.7-1.8s-1.8.9-1.8,1.8h3.5Z"/>
    <path class="cls-3" d="M169.2,152.4c0-.4.3-.6.7-.6s.7.3.7.6-.3.6-.7.6-.7-.3-.7-.6ZM169.4,154h.9v6.1h-.9v-6.1Z"/>
    <path class="cls-3" d="M173,160.2h-.9v-6.1h.9v1h0c.3-.6.9-1,1.8-1s2.1.8,2.1,2.3v3.9h-.9v-3.8c0-1-.5-1.5-1.4-1.5s-1.6.6-1.6,1.7v3.7Z"/>
    <path class="cls-3" d="M187.5,154.5c-.2-1.1-1.2-1.7-2.3-1.7s-2.7,1.2-2.7,3.3,1.2,3.3,2.7,3.3,2.1-.6,2.3-1.7h1c-.3,1.7-1.6,2.7-3.3,2.7s-3.6-1.6-3.6-4.2,1.5-4.2,3.6-4.2,3,1,3.3,2.7h-1Z"/>
    <path class="cls-3" d="M189.7,157.1c0-1.9,1.1-3.2,2.8-3.2s2.8,1.3,2.8,3.2-1.1,3.2-2.8,3.2-2.8-1.3-2.8-3.2ZM194.3,157.1c0-1.2-.6-2.3-1.8-2.3s-1.8,1.1-1.8,2.3.6,2.3,1.8,2.3,1.8-1.1,1.8-2.3Z"/>
    <path class="cls-3" d="M196.7,154h.9v1h0c.3-.7.8-1,1.6-1s1.3.4,1.6,1h0c.3-.6,1-1,1.8-1s1.9.7,1.9,2.1v4.1h-.9v-4.1c0-.9-.6-1.3-1.2-1.3s-1.4.6-1.4,1.4v4h-1v-4.2c0-.7-.5-1.2-1.2-1.2s-1.4.6-1.4,1.5v3.8h-.9v-6.1Z"/>
    <path class="cls-3" d="M206.5,154h.9v1h.1c.2-.3.6-1.1,1.8-1.1s2.6,1.2,2.6,3.2-1.1,3.2-2.6,3.2-1.6-.7-1.8-1.1h0v3.2h-.9v-8.4ZM209.2,159.5c1.2,0,1.8-1,1.8-2.4s-.6-2.3-1.8-2.3-1.8.9-1.8,2.3.6,2.4,1.8,2.4Z"/>
    <path class="cls-3" d="M217.2,154h.9v6.1h-.9v-1h0c-.3.6-.9,1.1-1.8,1.1s-2-.8-2-2.3v-3.9h.9v3.8c0,.9.6,1.5,1.3,1.5s1.6-.5,1.6-1.7v-3.6Z"/>
    <path class="cls-3" d="M222.5,154.8h-1.3v3.6c0,.8.4.9.8.9s.3,0,.4,0l.2.8c-.1,0-.4.1-.7.1-.8,0-1.7-.5-1.7-1.6v-3.8h-.9v-.8h.9v-1.5h.9v1.5h1.3v.8Z"/>
    <path class="cls-3" d="M223.5,157.2c0-1.9,1.1-3.2,2.8-3.2s2.6.8,2.6,3.1v.4h-4.5c0,1.3.8,2,1.9,2s1.3-.3,1.5-1l.9.3c-.3.9-1.2,1.6-2.4,1.6-1.8,0-2.9-1.3-2.9-3.2ZM228,156.6c0-1-.7-1.8-1.7-1.8s-1.8.9-1.8,1.8h3.5Z"/>
    <path class="cls-3" d="M230.3,154h.9v.9h0c.2-.6.9-1,1.6-1s.4,0,.5,0v1c0,0-.3,0-.6,0-.9,0-1.6.6-1.6,1.4v3.9h-.9v-6.1Z"/>
    <path class="cls-3" d="M235.1,159.5c-.1.9-.5,2.1-.7,2.7h-.7c.1-.5.3-1.6.4-2.7v-.4h1.1v.4Z"/>
    <path class="cls-3" d="M245.7,154.5c-.2-1.1-1.2-1.7-2.3-1.7s-2.7,1.2-2.7,3.3,1.2,3.3,2.7,3.3,2.1-.6,2.3-1.7h1c-.3,1.7-1.6,2.7-3.3,2.7s-3.6-1.6-3.6-4.2,1.5-4.2,3.6-4.2,3,1,3.3,2.7h-1Z"/>
    <path class="cls-3" d="M247.9,157.1c0-1.9,1.1-3.2,2.8-3.2s2.8,1.3,2.8,3.2-1.1,3.2-2.8,3.2-2.8-1.3-2.8-3.2ZM252.5,157.1c0-1.2-.6-2.3-1.8-2.3s-1.8,1.1-1.8,2.3.6,2.3,1.8,2.3,1.8-1.1,1.8-2.3Z"/>
    <path class="cls-3" d="M254.9,154h.9v1h0c.3-.7.8-1,1.6-1s1.3.4,1.6,1h0c.3-.6,1-1,1.8-1s1.9.7,1.9,2.1v4.1h-.9v-4.1c0-.9-.6-1.3-1.2-1.3s-1.4.6-1.4,1.4v4h-1v-4.2c0-.7-.5-1.2-1.2-1.2s-1.4.6-1.4,1.5v3.8h-.9v-6.1Z"/>
    <path class="cls-3" d="M264.7,154h.9v1h0c.3-.7.8-1,1.6-1s1.3.4,1.6,1h0c.3-.6,1-1,1.8-1s1.9.7,1.9,2.1v4.1h-.9v-4.1c0-.9-.6-1.3-1.2-1.3s-1.4.6-1.4,1.4v4h-1v-4.2c0-.7-.5-1.2-1.2-1.2s-1.4.6-1.4,1.5v3.8h-.9v-6.1Z"/>
    <path class="cls-3" d="M278.3,154h.9v6.1h-.9v-1h0c-.3.6-.9,1.1-1.8,1.1s-2-.8-2-2.3v-3.9h.9v3.8c0,.9.6,1.5,1.3,1.5s1.6-.5,1.6-1.7v-3.6Z"/>
    <path class="cls-3" d="M281.9,160.2h-.9v-6.1h.9v1h0c.3-.6.9-1,1.8-1s2.1.8,2.1,2.3v3.9h-.9v-3.8c0-1-.5-1.5-1.4-1.5s-1.6.6-1.6,1.7v3.7Z"/>
    <path class="cls-3" d="M287.3,152.4c0-.4.3-.6.7-.6s.7.3.7.6-.3.6-.7.6-.7-.3-.7-.6ZM287.5,154h.9v6.1h-.9v-6.1Z"/>
    <path class="cls-3" d="M289.9,157.1c0-1.9,1.1-3.2,2.8-3.2s2.3.8,2.4,1.9h-.9c-.1-.6-.6-1.1-1.5-1.1s-1.8.9-1.8,2.3.7,2.4,1.8,2.4,1.3-.4,1.5-1.1h.9c-.2,1.1-1.1,1.9-2.4,1.9s-2.8-1.3-2.8-3.2Z"/>
    <path class="cls-3" d="M296.2,158.4c0-1.4,1.2-1.7,2.4-1.8,1.1-.1,1.6-.1,1.6-.6h0c0-.8-.4-1.3-1.3-1.3s-1.4.5-1.6.9l-.9-.3c.5-1.1,1.5-1.4,2.5-1.4s2.3.2,2.3,2.2v4h-.9v-.8h0c-.2.4-.8,1-1.8,1s-2.1-.7-2.1-1.9ZM300.1,158v-.9c-.2.2-1.2.3-1.6.4-.7,0-1.4.3-1.4,1s.5,1,1.3,1c1.1,0,1.7-.8,1.7-1.5Z"/>
    <path class="cls-3" d="M305.5,154.8h-1.3v3.6c0,.8.4.9.8.9s.3,0,.4,0l.2.8c-.1,0-.4.1-.7.1-.8,0-1.7-.5-1.7-1.6v-3.8h-.9v-.8h.9v-1.5h.9v1.5h1.3v.8Z"/>
    <path class="cls-3" d="M306.7,152.4c0-.4.3-.6.7-.6s.7.3.7.6-.3.6-.7.6-.7-.3-.7-.6ZM306.9,154h.9v6.1h-.9v-6.1Z"/>
    <path class="cls-3" d="M309.3,157.1c0-1.9,1.1-3.2,2.8-3.2s2.8,1.3,2.8,3.2-1.1,3.2-2.8,3.2-2.8-1.3-2.8-3.2ZM313.9,157.1c0-1.2-.6-2.3-1.8-2.3s-1.8,1.1-1.8,2.3.6,2.3,1.8,2.3,1.8-1.1,1.8-2.3Z"/>
    <path class="cls-3" d="M317.2,160.2h-.9v-6.1h.9v1h0c.3-.6.9-1,1.8-1s2.1.8,2.1,2.3v3.9h-.9v-3.8c0-1-.5-1.5-1.4-1.5s-1.6.6-1.6,1.7v3.7Z"/>
    <path class="cls-3" d="M325.7,158.4c0-1.4,1.2-1.7,2.4-1.8,1.1-.1,1.6-.1,1.6-.6h0c0-.8-.4-1.3-1.3-1.3s-1.4.5-1.6.9l-.9-.3c.5-1.1,1.5-1.4,2.5-1.4s2.3.2,2.3,2.2v4h-.9v-.8h0c-.2.4-.8,1-1.8,1s-2.1-.7-2.1-1.9ZM329.6,158v-.9c-.2.2-1.2.3-1.6.4-.7,0-1.4.3-1.4,1s.5,1,1.3,1c1.1,0,1.7-.8,1.7-1.5Z"/>
    <path class="cls-3" d="M333.2,160.2h-.9v-6.1h.9v1h0c.3-.6.9-1,1.8-1s2.1.8,2.1,2.3v3.9h-.9v-3.8c0-1-.5-1.5-1.4-1.5s-1.6.6-1.6,1.7v3.7Z"/>
    <path class="cls-3" d="M338.6,157.1c0-1.9,1.1-3.2,2.6-3.2s1.6.7,1.8,1.1h0v-3h.9v8.2h-.9v-.9h-.1c-.2.3-.6,1.1-1.8,1.1s-2.6-1.2-2.6-3.2ZM343.1,157.1c0-1.4-.6-2.3-1.8-2.3s-1.8,1-1.8,2.3.6,2.4,1.8,2.4,1.8-1,1.8-2.4Z"/>
    <path class="cls-3" d="M350.1,160.2h-1v-8.2h1v8.2Z"/>
    <path class="cls-3" d="M352.9,160.2h-.9v-6.1h.9v1h0c.3-.6.9-1,1.8-1s2.1.8,2.1,2.3v3.9h-.9v-3.8c0-1-.5-1.5-1.4-1.5s-1.6.6-1.6,1.7v3.7Z"/>
    <path class="cls-3" d="M361.3,154.8h-1.4v5.3h-.9v-5.3h-1v-.8h1v-.8c0-1.1.8-1.6,1.7-1.6s.8,0,.9.2l-.3.8c0,0-.3,0-.5,0-.6,0-.9.3-.9.9v.6h1.4v.8Z"/>
    <path class="cls-3" d="M362.2,157.1c0-1.9,1.1-3.2,2.8-3.2s2.8,1.3,2.8,3.2-1.1,3.2-2.8,3.2-2.8-1.3-2.8-3.2ZM366.8,157.1c0-1.2-.6-2.3-1.8-2.3s-1.8,1.1-1.8,2.3.6,2.3,1.8,2.3,1.8-1.1,1.8-2.3Z"/>
    <path class="cls-3" d="M369.2,154h.9v.9h0c.2-.6.9-1,1.6-1s.4,0,.5,0v1c0,0-.3,0-.6,0-.9,0-1.6.6-1.6,1.4v3.9h-.9v-6.1Z"/>
    <path class="cls-3" d="M373.3,154h.9v1h0c.3-.7.8-1,1.6-1s1.3.4,1.6,1h0c.3-.6,1-1,1.8-1s1.9.7,1.9,2.1v4.1h-.9v-4.1c0-.9-.6-1.3-1.2-1.3s-1.4.6-1.4,1.4v4h-1v-4.2c0-.7-.5-1.2-1.2-1.2s-1.4.6-1.4,1.5v3.8h-.9v-6.1Z"/>
    <path class="cls-3" d="M382.8,158.4c0-1.4,1.2-1.7,2.4-1.8,1.1-.1,1.6-.1,1.6-.6h0c0-.8-.4-1.3-1.3-1.3s-1.4.5-1.6.9l-.9-.3c.5-1.1,1.5-1.4,2.5-1.4s2.3.2,2.3,2.2v4h-.9v-.8h0c-.2.4-.8,1-1.8,1s-2.1-.7-2.1-1.9ZM386.8,158v-.9c-.2.2-1.2.3-1.6.4-.7,0-1.4.3-1.4,1s.5,1,1.3,1c1.1,0,1.7-.8,1.7-1.5Z"/>
    <path class="cls-3" d="M392.1,154.8h-1.3v3.6c0,.8.4.9.8.9s.3,0,.4,0l.2.8c-.1,0-.4.1-.7.1-.8,0-1.7-.5-1.7-1.6v-3.8h-.9v-.8h.9v-1.5h.9v1.5h1.3v.8Z"/>
    <path class="cls-3" d="M393.3,152.4c0-.4.3-.6.7-.6s.7.3.7.6-.3.6-.7.6-.7-.3-.7-.6ZM393.5,154h.9v6.1h-.9v-6.1Z"/>
    <path class="cls-3" d="M395.9,157.1c0-1.9,1.1-3.2,2.8-3.2s2.8,1.3,2.8,3.2-1.1,3.2-2.8,3.2-2.8-1.3-2.8-3.2ZM400.5,157.1c0-1.2-.6-2.3-1.8-2.3s-1.8,1.1-1.8,2.3.6,2.3,1.8,2.3,1.8-1.1,1.8-2.3Z"/>
    <path class="cls-3" d="M403.8,160.2h-.9v-6.1h.9v1h0c.3-.6.9-1,1.8-1s2.1.8,2.1,2.3v3.9h-.9v-3.8c0-1-.5-1.5-1.4-1.5s-1.6.6-1.6,1.7v3.7Z"/>
    <path class="cls-3" d="M415.4,152.8c-1.1,0-1.8.6-1.8,1.4s1,1.2,1.6,1.4l.8.2c.8.2,2.3.7,2.3,2.3s-1.1,2.4-3,2.4-2.8-.9-2.9-2.3h1c0,.9.9,1.4,1.9,1.4s2-.6,2-1.5-.8-1.1-1.6-1.4l-1-.3c-1.3-.4-2.1-1-2.1-2.1s1.2-2.3,2.8-2.3,2.7.9,2.8,2.2h-1c0-.8-.8-1.3-1.8-1.3Z"/>
    <path class="cls-3" d="M419.5,157.1c0-1.9,1.1-3.2,2.8-3.2s2.3.8,2.4,1.9h-.9c-.1-.6-.6-1.1-1.5-1.1s-1.8.9-1.8,2.3.7,2.4,1.8,2.4,1.3-.4,1.5-1.1h.9c-.2,1.1-1.1,1.9-2.4,1.9s-2.8-1.3-2.8-3.2Z"/>
    <path class="cls-3" d="M425.9,152.4c0-.4.3-.6.7-.6s.7.3.7.6-.3.6-.7.6-.7-.3-.7-.6ZM426,154h.9v6.1h-.9v-6.1Z"/>
    <path class="cls-3" d="M428.4,157.2c0-1.9,1.1-3.2,2.8-3.2s2.6.8,2.6,3.1v.4h-4.5c0,1.3.8,2,1.9,2s1.3-.3,1.5-1l.9.3c-.3.9-1.2,1.6-2.4,1.6-1.8,0-2.9-1.3-2.9-3.2ZM432.9,156.6c0-1-.7-1.8-1.7-1.8s-1.8.9-1.8,1.8h3.5Z"/>
    <path class="cls-3" d="M436.2,160.2h-.9v-6.1h.9v1h0c.3-.6.9-1,1.8-1s2.1.8,2.1,2.3v3.9h-.9v-3.8c0-1-.5-1.5-1.4-1.5s-1.6.6-1.6,1.7v3.7Z"/>
    <path class="cls-3" d="M441.5,157.1c0-1.9,1.1-3.2,2.8-3.2s2.3.8,2.4,1.9h-.9c-.1-.6-.6-1.1-1.5-1.1s-1.8.9-1.8,2.3.7,2.4,1.8,2.4,1.3-.4,1.5-1.1h.9c-.2,1.1-1.1,1.9-2.4,1.9s-2.8-1.3-2.8-3.2Z"/>
    <path class="cls-3" d="M447.8,157.2c0-1.9,1.1-3.2,2.8-3.2s2.6.8,2.6,3.1v.4h-4.5c0,1.3.8,2,1.9,2s1.3-.3,1.5-1l.9.3c-.3.9-1.2,1.6-2.4,1.6-1.8,0-2.9-1.3-2.9-3.2ZM452.3,156.6c0-1-.7-1.8-1.7-1.8s-1.8.9-1.8,1.8h3.5Z"/>
    <path class="cls-3" d="M458.2,155.6c-.2-.4-.5-.9-1.3-.9s-1.3.4-1.3.9.3.7,1.1.9l.9.2c1.1.3,1.6.8,1.6,1.7s-1,1.8-2.4,1.8-2.1-.6-2.3-1.6l.9-.2c.2.7.7,1,1.4,1s1.4-.4,1.4-1-.3-.7-.9-.9l-1-.2c-1.1-.3-1.6-.8-1.6-1.7s1-1.8,2.3-1.8,1.9.6,2.2,1.5l-.8.2Z"/>
  </g>
  <g>
    <path class="cls-3" d="M73.4,197.6c-.5-2.3-2.5-3.6-4.8-3.6s-5.5,2.4-5.5,6.8,2.4,6.8,5.5,6.8,4.3-1.3,4.8-3.6h2.1c-.6,3.5-3.4,5.5-6.8,5.5s-7.5-3.3-7.5-8.7,3.1-8.7,7.5-8.7,6.2,2.1,6.8,5.5h-2.1Z"/>
    <path class="cls-3" d="M78.5,196.5h1.9v1.9h.1c.5-1.3,1.8-2.1,3.3-2.1s.8,0,1,0v2c-.1,0-.7-.1-1.2-.1-1.9,0-3.2,1.3-3.2,3v8h-2v-12.7Z"/>
    <path class="cls-3" d="M86.4,203c0-3.9,2.3-6.6,5.7-6.6s5.5,1.6,5.5,6.4v.8h-9.2c0,2.7,1.7,4.2,4,4.2s2.7-.7,3.2-2l1.9.5c-.6,1.9-2.5,3.2-5.1,3.2-3.7,0-5.9-2.6-5.9-6.5ZM95.6,201.8c0-2.2-1.4-3.7-3.5-3.7s-3.6,1.8-3.8,3.7h7.2Z"/>
    <path class="cls-3" d="M100,205.6c0-2.9,2.6-3.4,4.9-3.7,2.3-.3,3.3-.2,3.3-1.2h0c0-1.7-.9-2.6-2.7-2.6s-2.9,1-3.3,1.9l-1.9-.7c1-2.3,3.2-3,5.1-3s4.7.5,4.7,4.5v8.4h-2v-1.7h0c-.4.8-1.6,2-3.8,2s-4.3-1.4-4.3-3.9ZM108.2,204.6v-1.8c-.3.4-2.5.6-3.4.7-1.5.2-2.9.7-2.9,2.2s1.1,2.1,2.7,2.1c2.3,0,3.6-1.6,3.6-3.1Z"/>
    <path class="cls-3" d="M119.2,198.2h-2.7v7.4c0,1.7.8,1.9,1.7,1.9s.7,0,.9,0l.4,1.8c-.3,0-.7.2-1.5.2-1.7,0-3.4-1.1-3.4-3.3v-7.9h-1.9v-1.7h1.9v-3h2v3h2.7v1.7Z"/>
    <path class="cls-3" d="M121.8,193.1c0-.7.6-1.3,1.4-1.3s1.4.6,1.4,1.3-.6,1.3-1.4,1.3-1.4-.6-1.4-1.3ZM122.2,196.5h2v12.7h-2v-12.7Z"/>
    <path class="cls-3" d="M129.6,209.2h-2v-12.7h1.9v2h.2c.6-1.3,1.8-2.2,3.7-2.2s4.3,1.6,4.3,4.8v8.1h-2v-7.9c0-2-1.1-3.2-2.9-3.2s-3.2,1.3-3.2,3.5v7.6Z"/>
    <path class="cls-3" d="M141.3,211.7l1.6-1.1c.5.7,1.3,1.9,3.6,1.9s3.5-1,3.5-3.1v-2.6h-.2c-.4.7-1.2,2.1-3.7,2.1s-5.4-2.2-5.4-6.2,2.2-6.5,5.4-6.5,3.3,1.5,3.7,2.2h.2v-2h1.9v13.1c0,3.3-2.4,4.7-5.5,4.7s-4.4-1.2-5.2-2.5ZM150,202.8c0-2.7-1.3-4.7-3.6-4.7s-3.7,2.1-3.7,4.7,1.3,4.5,3.7,4.5,3.6-1.7,3.6-4.5Z"/>
    <path class="cls-3" d="M161.4,205.6c0-2.9,2.6-3.4,4.9-3.7,2.3-.3,3.3-.2,3.3-1.2h0c0-1.7-.9-2.6-2.7-2.6s-2.9,1-3.3,1.9l-1.9-.7c1-2.3,3.2-3,5.1-3s4.7.5,4.7,4.5v8.4h-2v-1.7h0c-.4.8-1.6,2-3.8,2s-4.3-1.4-4.3-3.9ZM169.6,204.6v-1.8c-.3.4-2.5.6-3.4.7-1.5.2-2.9.7-2.9,2.2s1.1,2.1,2.7,2.1c2.3,0,3.6-1.6,3.6-3.1Z"/>
    <path class="cls-3" d="M177.1,209.2h-2v-12.7h1.9v2h.2c.6-1.3,1.8-2.2,3.7-2.2s4.3,1.6,4.3,4.8v8.1h-2v-7.9c0-2-1.1-3.2-2.9-3.2s-3.2,1.3-3.2,3.5v7.6Z"/>
    <path class="cls-3" d="M194.6,203c0-3.9,2.3-6.6,5.7-6.6s5.5,1.6,5.5,6.4v.8h-9.2c0,2.7,1.7,4.2,4,4.2s2.7-.7,3.2-2l1.9.5c-.6,1.9-2.5,3.2-5.1,3.2-3.7,0-5.9-2.6-5.9-6.5ZM203.8,201.8c0-2.2-1.4-3.7-3.5-3.7s-3.6,1.8-3.8,3.7h7.2Z"/>
    <path class="cls-3" d="M208.2,202.9c0-4,2.2-6.6,5.4-6.6s3.2,1.5,3.7,2.2h.2v-6.3h2v16.9h-1.9v-2h-.2c-.4.7-1.3,2.2-3.7,2.2s-5.4-2.5-5.4-6.6ZM217.5,202.9c0-2.8-1.3-4.8-3.6-4.8s-3.7,2.1-3.7,4.8,1.3,4.9,3.7,4.9,3.6-2,3.6-4.9Z"/>
    <path class="cls-3" d="M231.3,196.5h2v12.7h-2v-2.2h-.1c-.6,1.3-1.9,2.3-3.8,2.3s-4.1-1.6-4.1-4.8v-8.1h2v7.9c0,1.9,1.2,3,2.8,3s3.3-1.1,3.3-3.5v-7.5Z"/>
    <path class="cls-3" d="M236.2,202.9c0-3.9,2.3-6.6,5.7-6.6s4.7,1.6,5,4h-2c-.3-1.2-1.3-2.2-3-2.2s-3.8,1.9-3.8,4.8,1.5,4.9,3.8,4.9,2.7-.8,3-2.2h2c-.3,2.2-2.2,4-5,4s-5.8-2.7-5.8-6.6Z"/>
    <path class="cls-3" d="M249.2,205.6c0-2.9,2.6-3.4,4.9-3.7,2.3-.3,3.3-.2,3.3-1.2h0c0-1.7-.9-2.6-2.7-2.6s-2.9,1-3.3,1.9l-1.9-.7c1-2.3,3.2-3,5.1-3s4.7.5,4.7,4.5v8.4h-2v-1.7h0c-.4.8-1.6,2-3.8,2s-4.3-1.4-4.3-3.9ZM257.4,204.6v-1.8c-.3.4-2.5.6-3.4.7-1.5.2-2.9.7-2.9,2.2s1.1,2.1,2.7,2.1c2.3,0,3.6-1.6,3.6-3.1Z"/>
    <path class="cls-3" d="M268.5,198.2h-2.7v7.4c0,1.7.8,1.9,1.7,1.9s.7,0,.9,0l.4,1.8c-.3,0-.7.2-1.5.2-1.7,0-3.4-1.1-3.4-3.3v-7.9h-1.9v-1.7h1.9v-3h2v3h2.7v1.7Z"/>
    <path class="cls-3" d="M271,193.1c0-.7.6-1.3,1.4-1.3s1.4.6,1.4,1.3-.6,1.3-1.4,1.3-1.4-.6-1.4-1.3ZM271.4,196.5h2v12.7h-2v-12.7Z"/>
    <path class="cls-3" d="M276.3,202.9c0-4,2.3-6.6,5.8-6.6s5.8,2.6,5.8,6.6-2.3,6.6-5.8,6.6-5.8-2.6-5.8-6.6ZM285.9,202.9c0-2.5-1.2-4.8-3.8-4.8s-3.8,2.3-3.8,4.8,1.2,4.8,3.8,4.8,3.8-2.2,3.8-4.8Z"/>
    <path class="cls-3" d="M292.8,209.2h-2v-12.7h1.9v2h.2c.6-1.3,1.8-2.2,3.7-2.2s4.3,1.6,4.3,4.8v8.1h-2v-7.9c0-2-1.1-3.2-2.9-3.2s-3.2,1.3-3.2,3.5v7.6Z"/>
    <path class="cls-3" d="M303.9,205.6c0-2.9,2.6-3.4,4.9-3.7,2.3-.3,3.3-.2,3.3-1.2h0c0-1.7-.9-2.6-2.7-2.6s-2.9,1-3.3,1.9l-1.9-.7c1-2.3,3.2-3,5.1-3s4.7.5,4.7,4.5v8.4h-2v-1.7h0c-.4.8-1.6,2-3.8,2s-4.3-1.4-4.3-3.9ZM312.1,204.6v-1.8c-.3.4-2.5.6-3.4.7-1.5.2-2.9.7-2.9,2.2s1.1,2.1,2.7,2.1c2.3,0,3.6-1.6,3.6-3.1Z"/>
    <path class="cls-3" d="M319.6,209.2h-2v-16.9h2v16.9Z"/>
    <path class="cls-3" d="M329.6,196.5h1.9v2h.2c.4-.7,1.2-2.2,3.7-2.2s5.4,2.5,5.4,6.6-2.2,6.6-5.4,6.6-3.3-1.5-3.7-2.2h-.2v6.7h-2v-17.5ZM335.2,207.7c2.4,0,3.7-2.2,3.7-4.9s-1.2-4.8-3.7-4.8-3.6,1.9-3.6,4.8,1.3,4.9,3.6,4.9Z"/>
    <path class="cls-3" d="M345.8,209.2h-2v-16.9h2v16.9Z"/>
    <path class="cls-3" d="M357.3,196.5h2v12.7h-2v-2.2h-.1c-.6,1.3-1.9,2.3-3.8,2.3s-4.1-1.6-4.1-4.8v-8.1h2v7.9c0,1.9,1.2,3,2.8,3s3.3-1.1,3.3-3.5v-7.5Z"/>
    <path class="cls-3" d="M362.8,211.7l1.6-1.1c.5.7,1.3,1.9,3.6,1.9s3.5-1,3.5-3.1v-2.6h-.2c-.4.7-1.2,2.1-3.7,2.1s-5.4-2.2-5.4-6.2,2.2-6.5,5.4-6.5,3.3,1.5,3.7,2.2h.2v-2h1.9v13.1c0,3.3-2.4,4.7-5.5,4.7s-4.4-1.2-5.2-2.5ZM371.6,202.8c0-2.7-1.3-4.7-3.6-4.7s-3.7,2.1-3.7,4.7,1.3,4.5,3.7,4.5,3.6-1.7,3.6-4.5Z"/>
    <path class="cls-3" d="M376.7,193.1c0-.7.6-1.3,1.4-1.3s1.4.6,1.4,1.3-.6,1.3-1.4,1.3-1.4-.6-1.4-1.3ZM377.1,196.5h2v12.7h-2v-12.7Z"/>
    <path class="cls-3" d="M384.6,209.2h-2v-12.7h1.9v2h.2c.6-1.3,1.8-2.2,3.7-2.2s4.3,1.6,4.3,4.8v8.1h-2v-7.9c0-2-1.1-3.2-2.9-3.2s-3.2,1.3-3.2,3.5v7.6Z"/>
    <path class="cls-3" d="M408.2,198.2h-2.7v7.4c0,1.7.8,1.9,1.7,1.9s.7,0,.9,0l.4,1.8c-.3,0-.7.2-1.5.2-1.7,0-3.4-1.1-3.4-3.3v-7.9h-1.9v-1.7h1.9v-3h2v3h2.7v1.7Z"/>
    <path class="cls-3" d="M410.4,202.9c0-4,2.3-6.6,5.8-6.6s5.8,2.6,5.8,6.6-2.3,6.6-5.8,6.6-5.8-2.6-5.8-6.6ZM419.9,202.9c0-2.5-1.2-4.8-3.8-4.8s-3.8,2.3-3.8,4.8,1.2,4.8,3.8,4.8,3.8-2.2,3.8-4.8Z"/>
    <path class="cls-3" d="M438.6,199.8c-.3-.9-1-1.8-2.7-1.8s-2.7.8-2.7,1.9.7,1.5,2.2,1.9l1.9.5c2.3.6,3.4,1.7,3.4,3.4s-2,3.8-5,3.8-4.4-1.1-4.8-3.3l1.9-.5c.3,1.4,1.3,2.1,2.9,2.1s3-.9,3-2-.6-1.5-1.9-1.8l-2.1-.5c-2.3-.5-3.4-1.7-3.4-3.5s2-3.7,4.7-3.7,3.9,1.2,4.5,3l-1.8.5Z"/>
    <path class="cls-3" d="M451.5,196.5h2v12.7h-2v-2.2h-.1c-.6,1.3-1.9,2.3-3.8,2.3s-4.1-1.6-4.1-4.8v-8.1h2v7.9c0,1.9,1.2,3,2.8,3s3.3-1.1,3.3-3.5v-7.5Z"/>
    <path class="cls-3" d="M457,196.5h1.9v2h.2c.4-.7,1.2-2.2,3.7-2.2s5.4,2.5,5.4,6.6-2.2,6.6-5.4,6.6-3.3-1.5-3.7-2.2h-.2v6.7h-2v-17.5ZM462.6,207.7c2.4,0,3.7-2.2,3.7-4.9s-1.2-4.8-3.7-4.8-3.6,1.9-3.6,4.8,1.3,4.9,3.6,4.9Z"/>
    <path class="cls-3" d="M471.2,196.5h1.9v2h.2c.4-.7,1.2-2.2,3.7-2.2s5.4,2.5,5.4,6.6-2.2,6.6-5.4,6.6-3.3-1.5-3.7-2.2h-.2v6.7h-2v-17.5ZM476.8,207.7c2.4,0,3.7-2.2,3.7-4.9s-1.2-4.8-3.7-4.8-3.6,1.9-3.6,4.8,1.3,4.9,3.6,4.9Z"/>
    <path class="cls-3" d="M484.8,202.9c0-4,2.3-6.6,5.8-6.6s5.8,2.6,5.8,6.6-2.3,6.6-5.8,6.6-5.8-2.6-5.8-6.6ZM494.4,202.9c0-2.5-1.2-4.8-3.8-4.8s-3.8,2.3-3.8,4.8,1.2,4.8,3.8,4.8,3.8-2.2,3.8-4.8Z"/>
    <path class="cls-3" d="M499.3,196.5h1.9v1.9h.1c.5-1.3,1.8-2.1,3.3-2.1s.8,0,1,0v2c-.1,0-.7-.1-1.2-.1-1.9,0-3.2,1.3-3.2,3v8h-2v-12.7Z"/>
    <path class="cls-3" d="M514.2,198.2h-2.7v7.4c0,1.7.8,1.9,1.7,1.9s.7,0,.9,0l.4,1.8c-.3,0-.7.2-1.5.2-1.7,0-3.4-1.1-3.4-3.3v-7.9h-1.9v-1.7h1.9v-3h2v3h2.7v1.7Z"/>
  </g>
  <g>
    <path class="cls-3" d="M61,226.2c0-4,2.3-6.6,5.8-6.6s5.8,2.6,5.8,6.6-2.3,6.6-5.8,6.6-5.8-2.6-5.8-6.6ZM70.6,226.2c0-2.5-1.2-4.8-3.8-4.8s-3.8,2.3-3.8,4.8,1.2,4.8,3.8,4.8,3.8-2.2,3.8-4.8Z"/>
    <path class="cls-3" d="M77.5,232.5h-2v-12.7h1.9v2h.2c.6-1.3,1.8-2.2,3.7-2.2s4.3,1.6,4.3,4.8v8.1h-2v-7.9c0-2-1.1-3.2-2.9-3.2s-3.2,1.3-3.2,3.5v7.6Z"/>
    <path class="cls-3" d="M91.1,232.5h-2v-16.9h2v16.9Z"/>
    <path class="cls-3" d="M94.3,216.4c0-.7.6-1.3,1.4-1.3s1.4.6,1.4,1.3-.6,1.3-1.4,1.3-1.4-.6-1.4-1.3ZM94.7,219.8h2v12.7h-2v-12.7Z"/>
    <path class="cls-3" d="M102.1,232.5h-2v-12.7h1.9v2h.2c.6-1.3,1.8-2.2,3.7-2.2s4.3,1.6,4.3,4.8v8.1h-2v-7.9c0-2-1.1-3.2-2.9-3.2s-3.2,1.3-3.2,3.5v7.6Z"/>
    <path class="cls-3" d="M113.2,226.3c0-3.9,2.3-6.6,5.7-6.6s5.5,1.6,5.5,6.4v.8h-9.2c0,2.7,1.7,4.2,4,4.2s2.7-.7,3.2-2l1.9.5c-.6,1.9-2.5,3.2-5.1,3.2-3.7,0-5.9-2.6-5.9-6.5ZM122.4,225.2c0-2.2-1.4-3.7-3.5-3.7s-3.6,1.8-3.8,3.7h7.2Z"/>
    <path class="cls-3" d="M133.9,219.8h1.9v2h.2c.4-.7,1.2-2.2,3.7-2.2s5.4,2.5,5.4,6.6-2.2,6.6-5.4,6.6-3.3-1.5-3.7-2.2h-.2v6.7h-2v-17.5ZM139.4,231c2.4,0,3.7-2.2,3.7-4.9s-1.2-4.8-3.7-4.8-3.6,1.9-3.6,4.8,1.3,4.9,3.6,4.9Z"/>
    <path class="cls-3" d="M148.1,219.8h1.9v1.9h.1c.5-1.3,1.8-2.1,3.3-2.1s.8,0,1,0v2c-.1,0-.7-.1-1.2-.1-1.9,0-3.2,1.3-3.2,3v8h-2v-12.7Z"/>
    <path class="cls-3" d="M156.1,226.2c0-4,2.3-6.6,5.8-6.6s5.8,2.6,5.8,6.6-2.3,6.6-5.8,6.6-5.8-2.6-5.8-6.6ZM165.6,226.2c0-2.5-1.2-4.8-3.8-4.8s-3.8,2.3-3.8,4.8,1.2,4.8,3.8,4.8,3.8-2.2,3.8-4.8Z"/>
    <path class="cls-3" d="M170.5,235l1.6-1.1c.5.7,1.3,1.9,3.6,1.9s3.5-1,3.5-3.1v-2.6h-.2c-.4.7-1.2,2.1-3.7,2.1s-5.4-2.2-5.4-6.2,2.2-6.5,5.4-6.5,3.3,1.5,3.7,2.2h.2v-2h1.9v13.1c0,3.3-2.4,4.7-5.5,4.7s-4.4-1.2-5.2-2.5ZM179.2,226.1c0-2.7-1.3-4.7-3.6-4.7s-3.7,2.1-3.7,4.7,1.3,4.5,3.7,4.5,3.6-1.7,3.6-4.5Z"/>
    <path class="cls-3" d="M184.7,219.8h1.9v1.9h.1c.5-1.3,1.8-2.1,3.3-2.1s.8,0,1,0v2c-.1,0-.7-.1-1.2-.1-1.9,0-3.2,1.3-3.2,3v8h-2v-12.7Z"/>
    <path class="cls-3" d="M192.7,228.9c0-2.9,2.6-3.4,4.9-3.7,2.3-.3,3.3-.2,3.3-1.2h0c0-1.7-.9-2.6-2.7-2.6s-2.9,1-3.3,1.9l-1.9-.7c1-2.3,3.2-3,5.1-3s4.7.5,4.7,4.5v8.4h-2v-1.7h0c-.4.8-1.6,2-3.8,2s-4.3-1.4-4.3-3.9ZM200.9,227.9v-1.8c-.3.4-2.5.6-3.4.7-1.5.2-2.9.7-2.9,2.2s1.1,2.1,2.7,2.1c2.3,0,3.6-1.6,3.6-3.1Z"/>
    <path class="cls-3" d="M206.4,219.8h1.9v2h.2c.5-1.4,1.8-2.2,3.4-2.2s2.8.8,3.4,2.2h.1c.7-1.3,2-2.2,3.8-2.2s3.9,1.4,3.9,4.4v8.5h-2v-8.5c0-1.9-1.2-2.6-2.6-2.6s-2.8,1.2-2.8,2.8v8.3h-2v-8.7c0-1.4-1-2.4-2.5-2.4s-2.9,1.3-2.9,3.2v7.9h-2v-12.7Z"/>
    <path class="cls-3" d="M226.7,219.8h1.9v2h.2c.5-1.4,1.8-2.2,3.4-2.2s2.8.8,3.4,2.2h.1c.7-1.3,2-2.2,3.8-2.2s3.9,1.4,3.9,4.4v8.5h-2v-8.5c0-1.9-1.2-2.6-2.6-2.6s-2.8,1.2-2.8,2.8v8.3h-2v-8.7c0-1.4-1-2.4-2.5-2.4s-2.9,1.3-2.9,3.2v7.9h-2v-12.7Z"/>
    <path class="cls-3" d="M246.5,216.4c0-.7.6-1.3,1.4-1.3s1.4.6,1.4,1.3-.6,1.3-1.4,1.3-1.4-.6-1.4-1.3ZM246.9,219.8h2v12.7h-2v-12.7Z"/>
    <path class="cls-3" d="M254.4,232.5h-2v-12.7h1.9v2h.2c.6-1.3,1.8-2.2,3.7-2.2s4.3,1.6,4.3,4.8v8.1h-2v-7.9c0-2-1.1-3.2-2.9-3.2s-3.2,1.3-3.2,3.5v7.6Z"/>
    <path class="cls-3" d="M266,235l1.6-1.1c.5.7,1.3,1.9,3.6,1.9s3.5-1,3.5-3.1v-2.6h-.2c-.4.7-1.2,2.1-3.7,2.1s-5.4-2.2-5.4-6.2,2.2-6.5,5.4-6.5,3.3,1.5,3.7,2.2h.2v-2h1.9v13.1c0,3.3-2.4,4.7-5.5,4.7s-4.4-1.2-5.2-2.5ZM274.8,226.1c0-2.7-1.3-4.7-3.6-4.7s-3.7,2.1-3.7,4.7,1.3,4.5,3.7,4.5,3.6-1.7,3.6-4.5Z"/>
    <path class="cls-3" d="M288.7,232.5h-2v-16.9h2v16.9Z"/>
    <path class="cls-3" d="M291.7,226.3c0-3.9,2.3-6.6,5.7-6.6s5.5,1.6,5.5,6.4v.8h-9.2c0,2.7,1.7,4.2,4,4.2s2.7-.7,3.2-2l1.9.5c-.6,1.9-2.5,3.2-5.1,3.2-3.7,0-5.9-2.6-5.9-6.5ZM300.9,225.2c0-2.2-1.4-3.7-3.5-3.7s-3.6,1.8-3.8,3.7h7.2Z"/>
    <path class="cls-3" d="M305.3,228.9c0-2.9,2.6-3.4,4.9-3.7,2.3-.3,3.3-.2,3.3-1.2h0c0-1.7-.9-2.6-2.7-2.6s-2.9,1-3.3,1.9l-1.9-.7c1-2.3,3.2-3,5.1-3s4.7.5,4.7,4.5v8.4h-2v-1.7h0c-.4.8-1.6,2-3.8,2s-4.3-1.4-4.3-3.9ZM313.5,227.9v-1.8c-.3.4-2.5.6-3.4.7-1.5.2-2.9.7-2.9,2.2s1.1,2.1,2.7,2.1c2.3,0,3.6-1.6,3.6-3.1Z"/>
    <path class="cls-3" d="M319,219.8h1.9v1.9h.1c.5-1.3,1.8-2.1,3.3-2.1s.8,0,1,0v2c-.1,0-.7-.1-1.2-.1-1.9,0-3.2,1.3-3.2,3v8h-2v-12.7Z"/>
    <path class="cls-3" d="M329.6,232.5h-2v-12.7h1.9v2h.2c.6-1.3,1.8-2.2,3.7-2.2s4.3,1.6,4.3,4.8v8.1h-2v-7.9c0-2-1.1-3.2-2.9-3.2s-3.2,1.3-3.2,3.5v7.6Z"/>
    <path class="cls-3" d="M340.9,216.4c0-.7.6-1.3,1.4-1.3s1.4.6,1.4,1.3-.6,1.3-1.4,1.3-1.4-.6-1.4-1.3ZM341.3,219.8h2v12.7h-2v-12.7Z"/>
    <path class="cls-3" d="M348.8,232.5h-2v-12.7h1.9v2h.2c.6-1.3,1.8-2.2,3.7-2.2s4.3,1.6,4.3,4.8v8.1h-2v-7.9c0-2-1.1-3.2-2.9-3.2s-3.2,1.3-3.2,3.5v7.6Z"/>
    <path class="cls-3" d="M360.4,235l1.6-1.1c.5.7,1.3,1.9,3.6,1.9s3.5-1,3.5-3.1v-2.6h-.2c-.4.7-1.2,2.1-3.7,2.1s-5.4-2.2-5.4-6.2,2.2-6.5,5.4-6.5,3.3,1.5,3.7,2.2h.2v-2h1.9v13.1c0,3.3-2.4,4.7-5.5,4.7s-4.4-1.2-5.2-2.5ZM369.2,226.1c0-2.7-1.3-4.7-3.6-4.7s-3.7,2.1-3.7,4.7,1.3,4.5,3.7,4.5,3.6-1.7,3.6-4.5Z"/>
  </g>
  <g>
    <path class="cls-3" d="M60.2,272.1l3.6-9.8h1.2l3.6,9.8h-1.2l-1-2.8h-4l-1,2.8h-1.2ZM66,268.3l-1.6-4.4h0l-1.6,4.4h3.2Z"/>
    <path class="cls-3" d="M73.4,268.5c0-2.2,1.3-3.8,3.3-3.8s2.7.9,2.9,2.3h-1.1c-.2-.7-.8-1.3-1.8-1.3s-2.2,1.1-2.2,2.8.9,2.8,2.2,2.8,1.6-.5,1.8-1.3h1.1c-.2,1.3-1.3,2.3-2.9,2.3s-3.3-1.6-3.3-3.8Z"/>
    <path class="cls-3" d="M80.9,270c0-1.7,1.5-2,2.9-2.2,1.3-.2,1.9-.1,1.9-.7h0c0-1-.5-1.5-1.6-1.5s-1.7.6-1.9,1.1l-1.1-.4c.6-1.3,1.8-1.7,3-1.7s2.7.3,2.7,2.6v4.8h-1.1v-1h0c-.2.5-.9,1.2-2.2,1.2s-2.5-.8-2.5-2.3ZM85.7,269.5v-1c-.2.2-1.5.4-2,.4-.9.1-1.7.4-1.7,1.2s.7,1.2,1.6,1.2c1.3,0,2.1-.9,2.1-1.8Z"/>
    <path class="cls-3" d="M93,266.7c-.2-.5-.6-1.1-1.6-1.1s-1.6.5-1.6,1.1.4.9,1.3,1.1l1.1.3c1.3.3,2,1,2,2s-1.2,2.2-2.9,2.2-2.5-.7-2.8-1.9l1.1-.3c.2.8.8,1.2,1.7,1.2s1.7-.5,1.7-1.1-.3-.9-1.1-1l-1.2-.3c-1.4-.3-2-1-2-2s1.1-2.1,2.7-2.1,2.3.7,2.6,1.7l-1,.3Z"/>
    <path class="cls-3" d="M95.6,268.5c0-2.3,1.3-3.8,3.3-3.8s3.2.9,3.2,3.7v.5h-5.3c0,1.6,1,2.4,2.3,2.4s1.6-.4,1.8-1.1l1.1.3c-.3,1.1-1.4,1.9-2.9,1.9-2.1,0-3.4-1.5-3.4-3.8ZM100.9,267.9c0-1.2-.8-2.2-2-2.2s-2.1,1-2.2,2.2h4.2Z"/>
    <path class="cls-3" d="M107.1,268.5c0-2.3,1.3-3.8,3.3-3.8s3.3,1.5,3.3,3.8-1.3,3.8-3.3,3.8-3.3-1.5-3.3-3.8ZM112.7,268.5c0-1.5-.7-2.8-2.2-2.8s-2.2,1.3-2.2,2.8.7,2.8,2.2,2.8,2.2-1.3,2.2-2.8Z"/>
    <path class="cls-3" d="M118.8,265.7h-1.6v6.4h-1.1v-6.4h-1.2v-1h1.2v-1c0-1.3,1-1.9,2.1-1.9s.9.1,1.1.2l-.3,1c-.1,0-.3-.1-.6-.1-.7,0-1.1.4-1.1,1.1v.7h1.6v1Z"/>
    <path class="cls-3" d="M125.5,272.1h-1.2v-9.8h1.2v9.8Z"/>
    <path class="cls-3" d="M128.8,272.1h-1.1v-7.4h1.1v1.1h0c.3-.7,1-1.2,2.1-1.2s2.5.9,2.5,2.8v4.7h-1.1v-4.6c0-1.2-.6-1.8-1.7-1.8s-1.9.7-1.9,2v4.4Z"/>
    <path class="cls-3" d="M138.8,265.7h-1.6v4.3c0,1,.5,1.1,1,1.1s.4,0,.5,0l.2,1c-.2,0-.4.1-.8.1-1,0-2-.6-2-1.9v-4.6h-1.1v-1h1.1v-1.8h1.1v1.8h1.6v1Z"/>
    <path class="cls-3" d="M140,268.5c0-2.3,1.3-3.8,3.3-3.8s3.2.9,3.2,3.7v.5h-5.3c0,1.6,1,2.4,2.3,2.4s1.6-.4,1.8-1.1l1.1.3c-.3,1.1-1.4,1.9-2.9,1.9-2.1,0-3.4-1.5-3.4-3.8ZM145.3,267.9c0-1.2-.8-2.2-2-2.2s-2.1,1-2.2,2.2h4.2Z"/>
    <path class="cls-3" d="M149.3,272.1h-1.1v-9.8h1.1v9.8Z"/>
    <path class="cls-3" d="M152.5,272.1h-1.1v-9.8h1.1v9.8Z"/>
    <path class="cls-3" d="M154.3,262.8c0-.4.4-.8.8-.8s.8.3.8.8-.4.8-.8.8-.8-.3-.8-.8ZM154.6,264.8h1.1v7.4h-1.1v-7.4Z"/>
    <path class="cls-3" d="M162.9,262.3v7c0,1.9-1.1,2.9-2.8,2.9s-2.8-.9-2.8-2.4h1.2c0,.8.7,1.4,1.6,1.4s1.6-.7,1.6-1.9v-7h1.2Z"/>
    <path class="cls-3" d="M170.2,272.1h-1.2v-9.8h1.2v9.8Z"/>
    <path class="cls-3" d="M172.5,272.1v-9.8h3.2c2.9,0,4.5,1.8,4.5,4.9s-1.7,4.9-4.7,4.9h-3ZM175.5,271.1c2.4,0,3.6-1.5,3.6-3.9s-1.2-3.8-3.5-3.8h-1.9v7.7h1.8Z"/>
    <path class="cls-3" d="M182.2,262.3h5.9v1.1h-4.7v3.3h4.4v1.1h-4.4v3.3h4.8v1.1h-6v-9.8Z"/>
    <path class="cls-3" d="M189.5,272.1l3.6-9.8h1.2l3.6,9.8h-1.2l-1-2.8h-4l-1,2.8h-1.2ZM195.3,268.3l-1.6-4.4h0l-1.6,4.4h3.2Z"/>
    <path class="cls-3" d="M203,264.8h1.1v1.2h.1c.2-.4.7-1.3,2.1-1.3s3.1,1.5,3.1,3.8-1.3,3.8-3.1,3.8-1.9-.9-2.1-1.3h0v3.9h-1.1v-10.1ZM206.2,271.3c1.4,0,2.1-1.2,2.1-2.8s-.7-2.8-2.1-2.8-2.1,1.1-2.1,2.8.7,2.8,2.1,2.8Z"/>
    <path class="cls-3" d="M212.4,272.1h-1.1v-9.8h1.1v9.8Z"/>
    <path class="cls-3" d="M219.1,264.8h1.1v7.4h-1.1v-1.2h0c-.3.7-1.1,1.3-2.2,1.3s-2.4-.9-2.4-2.8v-4.7h1.1v4.6c0,1.1.7,1.8,1.6,1.8s1.9-.6,1.9-2v-4.4Z"/>
    <path class="cls-3" d="M222.2,273.6l.9-.6c.3.4.8,1.1,2.1,1.1s2.1-.6,2.1-1.8v-1.5h0c-.2.4-.7,1.2-2.1,1.2s-3.1-1.3-3.1-3.6,1.3-3.7,3.1-3.7,1.9.9,2.1,1.3h.1v-1.2h1.1v7.6c0,1.9-1.4,2.7-3.2,2.7s-2.5-.7-3-1.5ZM227.3,268.4c0-1.6-.7-2.7-2.1-2.7s-2.1,1.2-2.1,2.7.7,2.6,2.1,2.6,2.1-1,2.1-2.6Z"/>
    <path class="cls-3" d="M230.3,262.8c0-.4.4-.8.8-.8s.8.3.8.8-.4.8-.8.8-.8-.3-.8-.8ZM230.5,264.8h1.1v7.4h-1.1v-7.4Z"/>
    <path class="cls-3" d="M234.8,272.1h-1.1v-7.4h1.1v1.1h0c.3-.7,1-1.2,2.1-1.2s2.5.9,2.5,2.8v4.7h-1.1v-4.6c0-1.2-.6-1.8-1.7-1.8s-1.9.7-1.9,2v4.4Z"/>
    <path class="cls-3" d="M248.6,265.7h-1.6v6.4h-1.1v-6.4h-1.2v-1h1.2v-1c0-1.3,1-1.9,2.1-1.9s.9.1,1.1.2l-.3,1c-.1,0-.3-.1-.6-.1-.7,0-1.1.4-1.1,1.1v.7h1.6v1Z"/>
    <path class="cls-3" d="M249.7,268.5c0-2.3,1.3-3.8,3.3-3.8s3.3,1.5,3.3,3.8-1.3,3.8-3.3,3.8-3.3-1.5-3.3-3.8ZM255.2,268.5c0-1.5-.7-2.8-2.2-2.8s-2.2,1.3-2.2,2.8.7,2.8,2.2,2.8,2.2-1.3,2.2-2.8Z"/>
    <path class="cls-3" d="M258.1,264.8h1.1v1.1h0c.3-.7,1-1.2,1.9-1.2s.5,0,.6,0v1.1c0,0-.4,0-.7,0-1.1,0-1.9.7-1.9,1.7v4.7h-1.1v-7.4Z"/>
    <path class="cls-3" d="M266.2,272.1l3.6-9.8h1.2l3.6,9.8h-1.2l-1-2.8h-4l-1,2.8h-1.2ZM272,268.3l-1.6-4.4h0l-1.6,4.4h3.2Z"/>
    <path class="cls-3" d="M278.8,268.8h-2.6v-1.1h2.6v-2.6h1.1v2.6h2.6v1.1h-2.6v2.6h-1.1v-2.6Z"/>
    <path class="cls-3" d="M288.7,262.3h1.2v8.8h4.6v1.1h-5.7v-9.8Z"/>
    <path class="cls-3" d="M295.8,268.5c0-2.3,1.3-3.8,3.3-3.8s3.2.9,3.2,3.7v.5h-5.3c0,1.6,1,2.4,2.3,2.4s1.6-.4,1.8-1.1l1.1.3c-.3,1.1-1.4,1.9-2.9,1.9-2.1,0-3.4-1.5-3.4-3.8ZM301.2,267.9c0-1.2-.8-2.2-2-2.2s-2.1,1-2.2,2.2h4.2Z"/>
    <path class="cls-3" d="M303.7,270c0-1.7,1.5-2,2.9-2.2,1.3-.2,1.9-.1,1.9-.7h0c0-1-.5-1.5-1.6-1.5s-1.7.6-1.9,1.1l-1.1-.4c.6-1.3,1.8-1.7,3-1.7s2.7.3,2.7,2.6v4.8h-1.1v-1h0c-.2.5-.9,1.2-2.2,1.2s-2.5-.8-2.5-2.3ZM308.4,269.5v-1c-.2.2-1.5.4-2,.4-.9.1-1.7.4-1.7,1.2s.7,1.2,1.6,1.2c1.3,0,2.1-.9,2.1-1.8Z"/>
    <path class="cls-3" d="M311.6,264.8h1.1v1.1h0c.3-.7,1-1.2,1.9-1.2s.5,0,.6,0v1.1c0,0-.4,0-.7,0-1.1,0-1.9.7-1.9,1.7v4.7h-1.1v-7.4Z"/>
    <path class="cls-3" d="M317.8,272.1h-1.1v-7.4h1.1v1.1h0c.3-.7,1-1.2,2.1-1.2s2.5.9,2.5,2.8v4.7h-1.1v-4.6c0-1.2-.6-1.8-1.7-1.8s-1.9.7-1.9,2v4.4Z"/>
    <path class="cls-3" d="M324.3,262.8c0-.4.4-.8.8-.8s.8.3.8.8-.4.8-.8.8-.8-.3-.8-.8ZM324.5,264.8h1.1v7.4h-1.1v-7.4Z"/>
    <path class="cls-3" d="M328.9,272.1h-1.1v-7.4h1.1v1.1h0c.3-.7,1-1.2,2.1-1.2s2.5.9,2.5,2.8v4.7h-1.1v-4.6c0-1.2-.6-1.8-1.7-1.8s-1.9.7-1.9,2v4.4Z"/>
    <path class="cls-3" d="M335.6,273.6l.9-.6c.3.4.8,1.1,2.1,1.1s2-.6,2-1.8v-1.5h0c-.2.4-.7,1.2-2.1,1.2s-3.1-1.3-3.1-3.6,1.3-3.7,3.1-3.7,1.9.9,2.1,1.3h.1v-1.2h1.1v7.6c0,1.9-1.4,2.7-3.2,2.7s-2.5-.7-3-1.5ZM340.7,268.4c0-1.6-.7-2.7-2.1-2.7s-2.1,1.2-2.1,2.7.7,2.6,2.1,2.6,2.1-1,2.1-2.6Z"/>
    <path class="cls-3" d="M349.2,262.3l3.3,8.1h.1l3.3-8.1h1.4v9.8h-1.1v-7.5h0l-3.1,7.5h-1.1l-3.1-7.5h0v7.5h-1.1v-9.8h1.4Z"/>
    <path class="cls-3" d="M359.2,270c0-1.7,1.5-2,2.9-2.2,1.3-.2,1.9-.1,1.9-.7h0c0-1-.5-1.5-1.6-1.5s-1.7.6-1.9,1.1l-1.1-.4c.6-1.3,1.8-1.7,3-1.7s2.7.3,2.7,2.6v4.8h-1.1v-1h0c-.2.5-.9,1.2-2.2,1.2s-2.5-.8-2.5-2.3ZM364,269.5v-1c-.2.2-1.5.4-2,.4-.9.1-1.7.4-1.7,1.2s.7,1.2,1.6,1.2c1.3,0,2.1-.9,2.1-1.8Z"/>
    <path class="cls-3" d="M368.3,272.1h-1.1v-7.4h1.1v1.1h0c.3-.7,1-1.2,2.1-1.2s2.5.9,2.5,2.8v4.7h-1.1v-4.6c0-1.2-.6-1.8-1.7-1.8s-1.9.7-1.9,2v4.4Z"/>
    <path class="cls-3" d="M374.7,270c0-1.7,1.5-2,2.9-2.2,1.3-.2,1.9-.1,1.9-.7h0c0-1-.5-1.5-1.6-1.5s-1.7.6-1.9,1.1l-1.1-.4c.6-1.3,1.8-1.7,3-1.7s2.7.3,2.7,2.6v4.8h-1.1v-1h0c-.2.5-.9,1.2-2.2,1.2s-2.5-.8-2.5-2.3ZM379.5,269.5v-1c-.2.2-1.5.4-2,.4-.9.1-1.7.4-1.7,1.2s.7,1.2,1.6,1.2c1.3,0,2.1-.9,2.1-1.8Z"/>
    <path class="cls-3" d="M382.6,273.6l.9-.6c.3.4.8,1.1,2.1,1.1s2.1-.6,2.1-1.8v-1.5h0c-.2.4-.7,1.2-2.1,1.2s-3.1-1.3-3.1-3.6,1.3-3.7,3.1-3.7,1.9.9,2.1,1.3h.1v-1.2h1.1v7.6c0,1.9-1.4,2.7-3.2,2.7s-2.5-.7-3-1.5ZM387.7,268.4c0-1.6-.7-2.7-2.1-2.7s-2.1,1.2-2.1,2.7.7,2.6,2.1,2.6,2.1-1,2.1-2.6Z"/>
    <path class="cls-3" d="M390.5,268.5c0-2.3,1.3-3.8,3.3-3.8s3.2.9,3.2,3.7v.5h-5.3c0,1.6,1,2.4,2.3,2.4s1.6-.4,1.8-1.1l1.1.3c-.3,1.1-1.4,1.9-2.9,1.9-2.1,0-3.4-1.5-3.4-3.8ZM395.9,267.9c0-1.2-.8-2.2-2-2.2s-2.1,1-2.2,2.2h4.2Z"/>
    <path class="cls-3" d="M398.7,264.8h1.1v1.1h0c.3-.8,1-1.2,2-1.2s1.6.5,2,1.2h0c.4-.8,1.1-1.2,2.2-1.2s2.2.8,2.2,2.5v4.9h-1.1v-4.9c0-1.1-.7-1.5-1.5-1.5s-1.6.7-1.6,1.6v4.8h-1.1v-5c0-.8-.6-1.4-1.5-1.4s-1.7.8-1.7,1.8v4.6h-1.1v-7.4Z"/>
    <path class="cls-3" d="M410.1,268.5c0-2.3,1.3-3.8,3.3-3.8s3.2.9,3.2,3.7v.5h-5.3c0,1.6,1,2.4,2.3,2.4s1.6-.4,1.8-1.1l1.1.3c-.3,1.1-1.4,1.9-2.9,1.9-2.1,0-3.4-1.5-3.4-3.8ZM415.4,267.9c0-1.2-.8-2.2-2-2.2s-2.1,1-2.2,2.2h4.2Z"/>
    <path class="cls-3" d="M419.4,272.1h-1.1v-7.4h1.1v1.1h0c.3-.7,1-1.2,2.1-1.2s2.5.9,2.5,2.8v4.7h-1.1v-4.6c0-1.2-.6-1.8-1.7-1.8s-1.9.7-1.9,2v4.4Z"/>
    <path class="cls-3" d="M429.4,265.7h-1.6v4.3c0,1,.5,1.1,1,1.1s.4,0,.5,0l.2,1c-.2,0-.4.1-.8.1-1,0-2-.6-2-1.9v-4.6h-1.1v-1h1.1v-1.8h1.1v1.8h1.6v1Z"/>
    <path class="cls-3" d="M438.2,263.2c-1.3,0-2.2.7-2.2,1.6s1.2,1.4,1.9,1.6l1,.3c1,.3,2.8.9,2.8,2.7s-1.3,2.8-3.5,2.8-3.4-1.1-3.5-2.7h1.2c0,1.1,1.1,1.6,2.3,1.6s2.4-.7,2.4-1.8-.9-1.3-2-1.6l-1.2-.3c-1.5-.4-2.5-1.2-2.5-2.5s1.5-2.7,3.4-2.7,3.3,1.1,3.3,2.6h-1.1c-.1-1-1-1.5-2.2-1.5Z"/>
    <path class="cls-3" d="M443.4,274.8l.3-1c.8.2,1.3.1,1.7-1l.2-.6-2.7-7.4h1.2l2,5.9h0l2-5.9h1.2l-3.1,8.4c-.4,1.1-1.1,1.7-2.2,1.7s-.7,0-.8-.1Z"/>
    <path class="cls-3" d="M455,266.7c-.2-.5-.6-1.1-1.6-1.1s-1.6.5-1.6,1.1.4.9,1.3,1.1l1.1.3c1.3.3,2,1,2,2s-1.2,2.2-2.9,2.2-2.5-.7-2.8-1.9l1.1-.3c.2.8.8,1.2,1.7,1.2s1.7-.5,1.7-1.1-.3-.9-1.1-1l-1.2-.3c-1.4-.3-2-1-2-2s1.1-2.1,2.7-2.1,2.3.7,2.6,1.7l-1,.3Z"/>
    <path class="cls-3" d="M461,265.7h-1.6v4.3c0,1,.5,1.1,1,1.1s.4,0,.5,0l.2,1c-.2,0-.4.1-.8.1-1,0-2-.6-2-1.9v-4.6h-1.1v-1h1.1v-1.8h1.1v1.8h1.6v1Z"/>
    <path class="cls-3" d="M462.2,268.5c0-2.3,1.3-3.8,3.3-3.8s3.2.9,3.2,3.7v.5h-5.3c0,1.6,1,2.4,2.3,2.4s1.6-.4,1.8-1.1l1.1.3c-.3,1.1-1.4,1.9-2.9,1.9-2.1,0-3.4-1.5-3.4-3.8ZM467.5,267.9c0-1.2-.8-2.2-2-2.2s-2.1,1-2.2,2.2h4.2Z"/>
    <path class="cls-3" d="M470.4,264.8h1.1v1.1h0c.3-.8,1-1.2,2-1.2s1.6.5,2,1.2h0c.4-.8,1.1-1.2,2.2-1.2s2.2.8,2.2,2.5v4.9h-1.1v-4.9c0-1.1-.7-1.5-1.5-1.5s-1.6.7-1.6,1.6v4.8h-1.1v-5c0-.8-.6-1.4-1.5-1.4s-1.7.8-1.7,1.8v4.6h-1.1v-7.4Z"/>
  </g>
  <rect class="cls-3" x="59.8" y="286.5" width="481.9" height="1.5"/>
  <g>
    <path class="cls-3" d="M68.9,318.7h-1.8l-4.3-6.2h0v6.2h-2.1v-9.8h1.8l4.2,6.2h0v-6.2h2.1v9.8Z"/>
    <path class="cls-3" d="M70.5,309.3c0-.6.5-1,1.1-1s1.1.5,1.1,1-.5,1-1.1,1-1.1-.5-1.1-1ZM70.5,311.3h2v7.4h-2v-7.4Z"/>
    <path class="cls-3" d="M74.2,308.9h2v5.2h.1l2.4-2.8h2.3l-2.7,3.2,2.9,4.2h-2.4l-2-3-.6.6v2.3h-2v-9.8Z"/>
    <path class="cls-3" d="M81.5,315c0-2.3,1.4-3.8,3.6-3.8s3.6,1.5,3.6,3.8-1.4,3.8-3.6,3.8-3.6-1.5-3.6-3.8ZM86.7,315c0-1.3-.5-2.2-1.5-2.2s-1.6.9-1.6,2.2.5,2.2,1.6,2.2,1.5-.9,1.5-2.2Z"/>
    <path class="cls-3" d="M92.1,318.7h-2v-9.8h2v9.8Z"/>
    <path class="cls-3" d="M93.4,316.6c0-1.6,1.3-2.1,2.8-2.3,1.3-.1,1.8-.2,1.8-.7h0c0-.6-.4-1-1.1-1s-1.2.4-1.3.8l-1.9-.2c.3-1.3,1.4-2.2,3.2-2.2s3.1.7,3.1,2.5v5h-1.9v-1h0c-.4.7-1.1,1.2-2.2,1.2s-2.4-.7-2.4-2.2ZM98,316.1v-.8c-.2.2-1,.3-1.4.3-.7.1-1.2.4-1.2,1s.5.9,1.1.9c.9,0,1.5-.6,1.5-1.4Z"/>
    <path class="cls-3" d="M101.5,309.3c0-.6.5-1,1.1-1s1.1.5,1.1,1-.5,1-1.1,1-1.1-.5-1.1-1ZM101.6,311.3h2v7.4h-2v-7.4Z"/>
    <path class="cls-3" d="M109,318.7v-9.8h3.5c3,0,4.8,1.8,4.8,4.9s-1.8,4.9-4.8,4.9h-3.5ZM112.4,316.9c1.8,0,2.8-.9,2.8-3.1s-1-3.1-2.8-3.1h-1.3v6.3h1.3Z"/>
    <path class="cls-3" d="M118.5,315c0-2.3,1.4-3.8,3.6-3.8s3.5,1.2,3.5,3.7v.6h-5c0,1.1.6,1.8,1.7,1.8s1.2-.3,1.4-.9h1.9c-.3,1.5-1.5,2.4-3.3,2.4s-3.7-1.5-3.7-3.8ZM123.6,314.3c0-.9-.6-1.5-1.5-1.5s-1.5.7-1.6,1.5h3.1Z"/>
    <path class="cls-3" d="M128.9,318.7h-2v-7.4h1.9v1.3h0c.3-.9,1.1-1.4,2.2-1.4s2.5,1.1,2.5,2.8v4.7h-2v-4.3c0-.9-.5-1.4-1.3-1.4s-1.4.6-1.4,1.5v4.3Z"/>
    <path class="cls-3" d="M135.2,309.3c0-.6.5-1,1.1-1s1.1.5,1.1,1-.5,1-1.1,1-1.1-.5-1.1-1ZM135.2,311.3h2v7.4h-2v-7.4Z"/>
    <path class="cls-3" d="M143.2,313.5c-.1-.5-.5-.9-1.2-.9s-1.1.3-1.1.7c0,.4.2.6.9.7l1.3.3c1.4.3,2.1.9,2.1,2,0,1.5-1.4,2.4-3.3,2.4s-3.1-.9-3.3-2.3h2c.1.5.6.8,1.3.8s1.2-.3,1.2-.7c0-.4-.3-.6-.9-.7l-1.3-.3c-1.4-.3-2.1-1-2.1-2.1,0-1.4,1.2-2.3,3.1-2.3s3,.8,3.1,2.2h-1.9Z"/>
    <path class="cls-3" d="M150.7,313.5c-.1-.5-.5-.9-1.2-.9s-1.1.3-1.1.7c0,.4.2.6.9.7l1.3.3c1.4.3,2.1.9,2.1,2,0,1.5-1.4,2.4-3.3,2.4s-3.1-.9-3.3-2.3h2c.1.5.6.8,1.3.8s1.2-.3,1.2-.7c0-.4-.3-.6-.9-.7l-1.3-.3c-1.4-.3-2.1-1-2.1-2.1,0-1.4,1.2-2.3,3.1-2.3s3,.8,3.1,2.2h-1.9Z"/>
    <path class="cls-3" d="M153.8,315c0-2.3,1.4-3.8,3.6-3.8s3.6,1.5,3.6,3.8-1.4,3.8-3.6,3.8-3.6-1.5-3.6-3.8ZM158.9,315c0-1.3-.5-2.2-1.5-2.2s-1.6.9-1.6,2.2.5,2.2,1.6,2.2,1.5-.9,1.5-2.2Z"/>
    <path class="cls-3" d="M166.3,318.7h-2.3l-2.6-7.4h2.2l1.5,5.3h0l1.5-5.3h2.2l-2.6,7.4Z"/>
  </g>
  <rect class="cls-3" x="450.5" y="748.1" width="1.5" height="14.4"/>
  <g>
    <path class="cls-3" d="M459.4,750l2.8,6.8h0l2.8-6.8h1.2v8.2h-.9v-6.2h0l-2.6,6.2h-.9l-2.6-6.2h0v6.2h-.9v-8.2h1.2Z"/>
    <path class="cls-3" d="M467.8,756.5c0-1.4,1.2-1.7,2.4-1.8,1.1-.1,1.6-.1,1.6-.6h0c0-.8-.4-1.3-1.3-1.3s-1.4.5-1.6.9l-.9-.3c.5-1.1,1.5-1.4,2.5-1.4s2.3.2,2.3,2.2v4h-.9v-.8h0c-.2.4-.8,1-1.8,1s-2.1-.7-2.1-1.9ZM471.8,756v-.9c-.2.2-1.2.3-1.6.4-.7,0-1.4.3-1.4,1s.5,1,1.3,1c1.1,0,1.7-.8,1.7-1.5Z"/>
    <path class="cls-3" d="M477.9,753.7c-.2-.4-.5-.9-1.3-.9s-1.3.4-1.3.9.3.7,1.1.9l.9.2c1.1.3,1.6.8,1.6,1.7s-1,1.8-2.4,1.8-2.1-.6-2.3-1.6l.9-.2c.2.7.7,1,1.4,1s1.4-.4,1.4-1-.3-.7-.9-.9l-1-.2c-1.1-.3-1.6-.8-1.6-1.7s1-1.8,2.3-1.8,1.9.6,2.2,1.5l-.8.2Z"/>
    <path class="cls-3" d="M482.9,752.9h-1.3v3.6c0,.8.4.9.8.9s.3,0,.4,0l.2.8c-.1,0-.4.1-.7.1-.8,0-1.7-.5-1.7-1.6v-3.8h-.9v-.8h.9v-1.5h.9v1.5h1.3v.8Z"/>
    <path class="cls-3" d="M483.9,755.2c0-1.9,1.1-3.2,2.8-3.2s2.6.8,2.6,3.1v.4h-4.5c0,1.3.8,2,1.9,2s1.3-.3,1.5-1l.9.3c-.3.9-1.2,1.6-2.4,1.6-1.8,0-2.9-1.3-2.9-3.2ZM488.3,754.7c0-1-.7-1.8-1.7-1.8s-1.8.9-1.8,1.8h3.5Z"/>
    <path class="cls-3" d="M490.7,752.1h.9v.9h0c.2-.6.9-1,1.6-1s.4,0,.5,0v1c0,0-.3,0-.6,0-.9,0-1.6.6-1.6,1.4v3.9h-.9v-6.1Z"/>
    <path class="cls-3" d="M495.7,750.8c0,.7-.4,1.5-1,2l-.5-.4c.3-.5.6-1,.6-1.6v-.7h.9v.7Z"/>
    <path class="cls-3" d="M500.3,753.7c-.2-.4-.5-.9-1.3-.9s-1.3.4-1.3.9.3.7,1.1.9l.9.2c1.1.3,1.6.8,1.6,1.7s-1,1.8-2.4,1.8-2.1-.6-2.3-1.6l.9-.2c.2.7.7,1,1.4,1s1.4-.4,1.4-1-.3-.7-.9-.9l-1-.2c-1.1-.3-1.6-.8-1.6-1.7s1-1.8,2.3-1.8,1.9.6,2.2,1.5l-.8.2Z"/>
    <path class="cls-3" d="M505.4,750h6.1v.9h-2.6v7.3h-1v-7.3h-2.6v-.9Z"/>
    <path class="cls-3" d="M513.9,758.2h-.9v-8.2h.9v3h0c.3-.6.8-1,1.8-1s2.1.7,2.1,2.3v3.9h-.9v-3.8c0-1-.5-1.5-1.4-1.5s-1.6.6-1.6,1.7v3.7Z"/>
    <path class="cls-3" d="M519.3,755.2c0-1.9,1.1-3.2,2.8-3.2s2.6.8,2.6,3.1v.4h-4.5c0,1.3.8,2,1.9,2s1.3-.3,1.5-1l.9.3c-.3.9-1.2,1.6-2.4,1.6-1.8,0-2.9-1.3-2.9-3.2ZM523.8,754.7c0-1-.7-1.8-1.7-1.8s-1.8.9-1.8,1.8h3.5Z"/>
    <path class="cls-3" d="M529.7,753.7c-.2-.4-.5-.9-1.3-.9s-1.3.4-1.3.9.3.7,1.1.9l.9.2c1.1.3,1.6.8,1.6,1.7s-1,1.8-2.4,1.8-2.1-.6-2.3-1.6l.9-.2c.2.7.7,1,1.4,1s1.4-.4,1.4-1-.3-.7-.9-.9l-1-.2c-1.1-.3-1.6-.8-1.6-1.7s1-1.8,2.3-1.8,1.9.6,2.2,1.5l-.8.2Z"/>
    <path class="cls-3" d="M531.8,750.4c0-.4.3-.6.7-.6s.7.3.7.6-.3.6-.7.6-.7-.3-.7-.6ZM532,752.1h.9v6.1h-.9v-6.1Z"/>
    <path class="cls-3" d="M538.2,753.7c-.2-.4-.5-.9-1.3-.9s-1.3.4-1.3.9.3.7,1.1.9l.9.2c1.1.3,1.6.8,1.6,1.7s-1,1.8-2.4,1.8-2.1-.6-2.3-1.6l.9-.2c.2.7.7,1,1.4,1s1.4-.4,1.4-1-.3-.7-.9-.9l-1-.2c-1.1-.3-1.6-.8-1.6-1.7s1-1.8,2.3-1.8,1.9.6,2.2,1.5l-.8.2Z"/>
  </g>
  <rect class="cls-3" x="450.5" y="762.6" width="1.5" height="14.4"/>
  <g>
    <path class="cls-3" d="M458.1,771.9l2.7-3c.9-1,1.4-1.6,1.4-2.4s-.7-1.4-1.6-1.4-1.6.6-1.6,1.6h-.9c0-1.4,1.1-2.4,2.5-2.4s2.5,1,2.5,2.3-.4,1.6-1.8,3.1l-1.8,2h0c0,0,3.8,0,3.8,0v.9h-5.2v-.7Z"/>
    <path class="cls-3" d="M464.7,768.6c0-2.7,1.1-4.2,2.8-4.2s2.8,1.6,2.8,4.2-1,4.2-2.8,4.2-2.8-1.5-2.8-4.2ZM469.4,768.6c0-2.1-.7-3.3-1.9-3.3s-1.9,1.2-1.9,3.3.7,3.3,1.9,3.3,1.9-1.2,1.9-3.3Z"/>
    <path class="cls-3" d="M471.9,771.9l2.7-3c.9-1,1.4-1.6,1.4-2.4s-.7-1.4-1.6-1.4-1.6.6-1.6,1.6h-.9c0-1.4,1.1-2.4,2.5-2.4s2.5,1,2.5,2.3-.4,1.6-1.8,3.1l-1.8,2h0c0,0,3.8,0,3.8,0v.9h-5.2v-.7Z"/>
    <path class="cls-3" d="M481.6,772.7h-1v-7.1h0l-2,1.3v-1l2-1.4h1v8.2Z"/>
  </g>
  <rect class="cls-1" width="595.3" height="841.9"/>
</svg>