<?xml version="1.0" encoding="UTF-8"?>
<svg id="Layer_1" data-name="Layer 1" xmlns="http://www.w3.org/2000/svg" width="648.6" height="917.3" xmlns:xlink="http://www.w3.org/1999/xlink" version="1.1" viewBox="0 0 648.6 917.3">
  <defs>
    <style>
      .cls-1 {
        fill: none;
      }

      .cls-1, .cls-2, .cls-3, .cls-4, .cls-5, .cls-6 {
        stroke-width: 0px;
      }

      .cls-2 {
        fill: #878782;
      }

      .cls-3, .cls-6 {
        fill: #000;
      }

      .cls-4 {
        fill: #fff;
        filter: url(#drop-shadow-1);
      }

      .cls-5 {
        fill: #ff3359;
      }

      .cls-6 {
        fill-rule: evenodd;
      }
    </style>
    <filter id="drop-shadow-1" filterUnits="userSpaceOnUse">
      <feOffset dx="3" dy="3"/>
      <feGaussianBlur result="blur" stdDeviation="5"/>
      <feFlood flood-color="#000" flood-opacity=".5"/>
      <feComposite in2="blur" operator="in"/>
      <feComposite in="SourceGraphic"/>
    </filter>
  </defs>
  <rect class="cls-4" x="26.7" y="37.7" width="595.3" height="841.9"/>
  <path class="cls-6" d="M94.4,93.1l3.6-10.2,3.6,10.2h-7.2ZM83.4,104l10.2-29h8.8l10.2,29h-7.5l-1.7-5h-11.1l-1.7,5h-7.5Z"/>
  <path class="cls-5" d="M120.4,95.1h-3.9l-1.4-10.1v-10.1h7v10.1l-1.7,10.1ZM115.4,104h6.5v-6.6h-6.5v6.6Z"/>
  <path class="cls-3" d="M210.8,77l-.7,2.4c-.1.5-.2.8-.3,1.2v-.2c-.2-.4-.2-.4-.3-.9l-.8-2.4h-1.7l1.7,4.4c.2.5.2.5.2.7,0,.5-.3.7-.8.7h-.5v1.2h.9c1.2,0,1.4-.2,1.9-1.6l1.8-5.3h-1.6ZM206.3,77h-1v-1.7h-1.5v1.7h-.7v1.1h.7v2.4c0,.8,0,1.1.3,1.3.2.2.6.3,1.2.3h1v-1.2h-.6c-.4,0-.4,0-.4-.9v-2h1v-1.1ZM202,75h-1.5v1.3h1.5v-1.3ZM202,77h-1.5v5.2h1.5v-5.2ZM199.3,78.6c-.1-1.1-1-1.7-2.3-1.7s-2.3.6-2.3,1.7.4,1.3,1.6,1.5l1,.2c.4,0,.6.2.6.5s-.3.5-.8.5-1-.2-1-.7h-1.5c0,1.2,1,1.8,2.5,1.8s2.4-.7,2.4-1.8-.1-.8-.4-1c-.2-.2-.6-.4-1.2-.5l-1-.2c-.5-.1-.6-.2-.6-.4s.3-.4.7-.4.8.2.9.6h1.5ZM190.6,77v5.2h1.5v-1.5c0-1,0-1.5.2-1.9.2-.4.6-.6,1.2-.6s.2,0,.4,0v-1.4c-1.1,0-1.5.2-1.8,1.1v-.9s-1.5,0-1.5,0ZM185.8,79c.1-.6.5-1,1.1-1s1,.3,1,1h-2.1ZM189.5,80c0-.7,0-1.2-.2-1.6-.4-1-1.2-1.6-2.4-1.6s-2.7,1.1-2.7,2.8,1.1,2.7,2.7,2.7,2.2-.6,2.5-1.7h-1.6c-.2.3-.5.5-.9.5-.7,0-1.1-.4-1.2-1.1h3.7ZM181.8,82.2l1.8-5.2h-1.7l-.5,2c0,.3-.2.9-.3,1.5-.2-.6-.3-1.1-.4-1.5l-.6-2h-1.6l1.9,5.2h1.5ZM177.5,75h-1.6v1.3h1.6v-1.3ZM177.5,77h-1.6v5.2h1.6v-5.2ZM169.6,77v5.2h1.6v-2.9c0-.5,0-.7.2-.9.2-.2.4-.3.7-.3s.5.1.6.3c.1.2.2.4.2.9v2.8h1.5v-3.4c0-1.2-.7-2-1.8-2s-.9.1-1.4.7v-.5h-1.5ZM166.5,75v4.8c0,.5,0,.7-.3.9-.2.2-.6.3-1,.3s-.7-.1-1-.3c-.2-.2-.3-.4-.3-.9v-4.8h-1.6v4.9c0,.9.2,1.5.8,1.9.6.4,1.3.6,2.1.6s1.6-.2,2.1-.6c.5-.4.8-1,.8-1.9v-4.9h-1.6ZM155.8,78.1c.8,0,1.2.6,1.2,1.6s-.5,1.5-1.2,1.5-1.2-.6-1.2-1.5.4-1.5,1.2-1.5M155.8,76.8c-1.6,0-2.8,1.1-2.8,2.7s1.2,2.8,2.8,2.8,2.8-1.1,2.8-2.7-1.1-2.8-2.8-2.8M152.3,77h-.9v-1.7h-1.6v1.7h-.7v1.1h.7v2.4c0,.8,0,1.1.3,1.3.2.2.6.3,1.2.3h.9v-1.2h-.6c-.4,0-.4,0-.4-.9v-2h.9v-1.1ZM148.1,75h-1.6v7.2h1.6v-7.2ZM143.7,80.5c-.3.4-.6.7-1.1.7s-.8-.2-.8-.5.2-.5.8-.6h.6c.3-.2.4-.2.6-.3v.8ZM141.9,78.6c0-.4.4-.6.9-.6s.8.2.8.5-.1.3-.5.4h-.8c-1.5.4-2.1.9-2.1,1.9s.8,1.6,1.9,1.6,1-.1,1.5-.5c0,.2,0,.2.1.4h1.6c-.2-.3-.2-.3-.2-.9v-2.4c0-.8-.1-1.2-.5-1.5-.4-.4-1-.6-1.8-.6-1.5,0-2.2.6-2.3,1.8h1.4ZM137.2,79.4h-1.7l.9-2.8.8,2.8ZM137.5,80.8l.4,1.4h1.9l-2.3-7.2h-2l-2.5,7.2h1.8l.5-1.4h2.4Z"/>
  <path class="cls-2" d="M220,89.9c.1-.6.5-1,1.1-1s1,.3,1,1h-2.1ZM223.8,91c0-.7,0-1.2-.2-1.6-.4-1-1.2-1.6-2.4-1.6s-2.7,1.1-2.7,2.8,1.1,2.7,2.7,2.7,2.2-.6,2.5-1.7h-1.6c-.2.3-.5.5-.9.5-.7,0-1.1-.4-1.2-1.1h3.8ZM217.6,89.8c-.1-1.2-1-2-2.4-2s-2.7,1-2.7,2.8,1,2.7,2.6,2.7,2.3-.7,2.5-2.1h-1.5c-.1.5-.4.8-1,.8s-1.1-.5-1.1-1.5.4-1.5,1.1-1.5.9.3,1,.8h1.5ZM206.5,87.9v5.2h1.6v-2.9c0-.5,0-.7.2-.9.2-.2.4-.3.7-.3s.5.1.6.3c.1.2.2.4.2.9v2.8h1.5v-3.4c0-1.2-.7-2-1.8-2s-.9.1-1.4.7v-.5h-1.5ZM201.6,89.9c.1-.6.5-1,1.1-1s1,.3,1,1h-2.1ZM205.3,91c0-.7,0-1.2-.2-1.6-.4-1-1.2-1.6-2.4-1.6s-2.7,1.1-2.7,2.8,1.1,2.7,2.7,2.7,2.2-.6,2.5-1.7h-1.6c-.2.3-.5.5-.9.5-.7,0-1.1-.4-1.2-1.1h3.8ZM198.8,85.9h-1.5v1.3h1.5v-1.3ZM198.8,87.9h-1.5v5.2h1.5v-5.2ZM196.1,89.8c-.1-1.2-1-2-2.4-2s-2.7,1-2.7,2.8,1,2.7,2.6,2.7,2.3-.7,2.5-2.1h-1.5c-.1.5-.4.8-1,.8s-1.1-.5-1.1-1.5.4-1.5,1.1-1.5.9.3,1,.8h1.5ZM190,88.2c0-.6-.2-1-.4-1.3-.5-.7-1.3-1.1-2.5-1.1-1.8,0-2.9.8-2.9,2.2s.2,1.1.6,1.4c.3.3.8.5,1.6.7l1.3.3c.5.1.8.4.8.7s-.5.8-1.4.8-1.5-.4-1.5-1.2h-1.6c0,1.6,1.1,2.5,3.1,2.5s3.1-.9,3.1-2.4-.2-1-.6-1.4c-.3-.3-.8-.5-1.6-.7l-1.5-.3c-.5-.1-.7-.3-.7-.6,0-.5.5-.7,1.2-.7s1.3.4,1.3.9h0c0,.1,1.6.1,1.6.1ZM180.5,88h-1v-.4c0-.3.2-.5.5-.5h.5v-1.2h-.9c-1.2,0-1.7.6-1.7,1.7v.4h-.7v1.1h.7v4.1h1.6v-4.1h1v-1.1ZM173.7,89c.8,0,1.2.6,1.2,1.6s-.5,1.5-1.2,1.5-1.2-.6-1.2-1.5.4-1.5,1.2-1.5M173.7,87.8c-1.6,0-2.8,1.1-2.8,2.7s1.2,2.8,2.8,2.8,2.8-1.1,2.8-2.7-1.1-2.8-2.8-2.8M167.4,85.9h-1.5v7.2h1.5v-7.2ZM161.8,89c.8,0,1.2.6,1.2,1.6s-.5,1.5-1.2,1.5-1.2-.6-1.2-1.5.4-1.5,1.2-1.5M161.8,87.8c-1.6,0-2.8,1.1-2.8,2.7s1.2,2.8,2.8,2.8,2.8-1.1,2.8-2.7-1.1-2.8-2.8-2.8M155.2,89c.8,0,1.2.6,1.2,1.6s-.5,1.5-1.2,1.5-1.2-.6-1.2-1.5.4-1.5,1.2-1.5M155.2,87.8c-1.6,0-2.8,1.1-2.8,2.7s1.2,2.8,2.8,2.8,2.8-1.1,2.8-2.7-1.1-2.8-2.8-2.8M148,85.9h-1.6v7.2h1.6v-2.9c0-.6,0-.7.2-.9.2-.2.4-.3.7-.3s.5,0,.6.3c.1.2.2.4.2.9v2.9h1.5v-3.2c0-.8-.1-1.2-.5-1.6-.3-.4-.8-.6-1.4-.6s-1,.2-1.4.6v-2.4ZM145.3,89.8c-.1-1.2-1-2-2.4-2s-2.7,1-2.7,2.8,1,2.7,2.6,2.7,2.3-.7,2.5-2.1h-1.5c-.1.5-.4.8-1,.8s-1.1-.5-1.1-1.5.4-1.5,1.1-1.5.9.3,1,.8h1.5ZM139.2,88.2c0-.6-.2-1-.4-1.3-.4-.7-1.3-1.1-2.5-1.1-1.8,0-2.9.8-2.9,2.2s.2,1.1.6,1.4c.3.3.8.5,1.6.7l1.3.3c.5.1.8.4.8.7s-.5.8-1.4.8-1.5-.4-1.5-1.2h-1.6c0,1.6,1.2,2.5,3.1,2.5s3-.9,3-2.4-.2-1-.6-1.4c-.3-.3-.8-.5-1.6-.7l-1.5-.3c-.4-.1-.7-.3-.7-.6,0-.5.5-.7,1.2-.7s1.3.4,1.3.9h0c0,.1,1.6.1,1.6.1Z"/>
  <g>
    <path class="cls-3" d="M85.5,189.7l2.8,6.8h0l2.8-6.8h1.2v8.2h-.9v-6.2h0l-2.6,6.2h-.9l-2.6-6.2h0v6.2h-.9v-8.2h1.2Z"/>
    <path class="cls-3" d="M93.9,196.2c0-1.4,1.2-1.7,2.4-1.8,1.1-.1,1.6-.1,1.6-.6h0c0-.8-.4-1.3-1.3-1.3s-1.4.5-1.6.9l-.9-.3c.5-1.1,1.5-1.4,2.5-1.4s2.3.2,2.3,2.2v4h-.9v-.8h0c-.2.4-.8,1-1.8,1s-2.1-.7-2.1-1.9ZM97.9,195.7v-.9c-.2.2-1.2.3-1.6.4-.7,0-1.4.3-1.4,1s.5,1,1.3,1c1.1,0,1.7-.8,1.7-1.5Z"/>
    <path class="cls-3" d="M104.1,193.4c-.2-.4-.5-.9-1.3-.9s-1.3.4-1.3.9.3.7,1.1.9l.9.2c1.1.3,1.6.8,1.6,1.7s-1,1.8-2.4,1.8-2.1-.6-2.3-1.6l.9-.2c.2.7.7,1,1.4,1s1.4-.4,1.4-1-.3-.7-.9-.9l-1-.2c-1.1-.3-1.6-.8-1.6-1.7s1-1.8,2.3-1.8,1.9.6,2.2,1.5l-.8.2Z"/>
    <path class="cls-3" d="M109.1,192.6h-1.3v3.6c0,.8.4.9.8.9s.3,0,.4,0l.2.8c-.1,0-.4.1-.7.1-.8,0-1.7-.5-1.7-1.6v-3.8h-.9v-.8h.9v-1.5h.9v1.5h1.3v.8Z"/>
    <path class="cls-3" d="M110,194.9c0-1.9,1.1-3.2,2.8-3.2s2.6.8,2.6,3.1v.4h-4.5c0,1.3.8,2,1.9,2s1.3-.3,1.5-1l.9.3c-.3.9-1.2,1.6-2.4,1.6-1.8,0-2.9-1.3-2.9-3.2ZM114.5,194.3c0-1-.7-1.8-1.7-1.8s-1.8.9-1.8,1.8h3.5Z"/>
    <path class="cls-3" d="M116.9,191.8h.9v.9h0c.2-.6.9-1,1.6-1s.4,0,.5,0v1c0,0-.3,0-.6,0-.9,0-1.6.6-1.6,1.4v3.9h-.9v-6.1Z"/>
    <path class="cls-3" d="M121.9,190.4c0,.7-.4,1.5-1,2l-.5-.4c.3-.5.6-1,.6-1.6v-.7h.9v.7Z"/>
    <path class="cls-3" d="M126.4,193.4c-.2-.4-.5-.9-1.3-.9s-1.3.4-1.3.9.3.7,1.1.9l.9.2c1.1.3,1.6.8,1.6,1.7s-1,1.8-2.4,1.8-2.1-.6-2.3-1.6l.9-.2c.2.7.7,1,1.4,1s1.4-.4,1.4-1-.3-.7-.9-.9l-1-.2c-1.1-.3-1.6-.8-1.6-1.7s1-1.8,2.3-1.8,1.9.6,2.2,1.5l-.8.2Z"/>
    <path class="cls-3" d="M131.9,191.8h.9v1h.1c.2-.3.6-1.1,1.8-1.1s2.6,1.2,2.6,3.2-1.1,3.2-2.6,3.2-1.6-.7-1.8-1.1h0v3.2h-.9v-8.4ZM134.6,197.2c1.2,0,1.8-1,1.8-2.4s-.6-2.3-1.8-2.3-1.8.9-1.8,2.3.6,2.4,1.8,2.4Z"/>
    <path class="cls-3" d="M138.8,191.8h.9v.9h0c.2-.6.9-1,1.6-1s.4,0,.5,0v1c0,0-.3,0-.6,0-.9,0-1.6.6-1.6,1.4v3.9h-.9v-6.1Z"/>
    <path class="cls-3" d="M142.6,194.9c0-1.9,1.1-3.2,2.8-3.2s2.8,1.3,2.8,3.2-1.1,3.2-2.8,3.2-2.8-1.3-2.8-3.2ZM147.2,194.9c0-1.2-.6-2.3-1.8-2.3s-1.8,1.1-1.8,2.3.6,2.3,1.8,2.3,1.8-1.1,1.8-2.3Z"/>
    <path class="cls-3" d="M149.6,199.1l.8-.5c.3.3.6.9,1.8.9s1.7-.5,1.7-1.5v-1.2h0c-.2.3-.6,1-1.8,1s-2.6-1.1-2.6-3,1.1-3.1,2.6-3.1,1.6.7,1.8,1.1h0v-1h.9v6.3c0,1.6-1.2,2.3-2.7,2.3s-2.1-.6-2.5-1.2ZM153.8,194.8c0-1.3-.6-2.3-1.8-2.3s-1.8,1-1.8,2.3.6,2.2,1.8,2.2,1.8-.8,1.8-2.2Z"/>
    <path class="cls-3" d="M156.4,191.8h.9v.9h0c.2-.6.9-1,1.6-1s.4,0,.5,0v1c0,0-.3,0-.6,0-.9,0-1.6.6-1.6,1.4v3.9h-.9v-6.1Z"/>
    <path class="cls-3" d="M160.3,196.2c0-1.4,1.2-1.7,2.4-1.8,1.1-.1,1.6-.1,1.6-.6h0c0-.8-.4-1.3-1.3-1.3s-1.4.5-1.6.9l-.9-.3c.5-1.1,1.5-1.4,2.5-1.4s2.3.2,2.3,2.2v4h-.9v-.8h0c-.2.4-.8,1-1.8,1s-2.1-.7-2.1-1.9ZM164.2,195.7v-.9c-.2.2-1.2.3-1.6.4-.7,0-1.4.3-1.4,1s.5,1,1.3,1c1.1,0,1.7-.8,1.7-1.5Z"/>
    <path class="cls-3" d="M166.9,191.8h.9v1h0c.3-.7.8-1,1.6-1s1.3.4,1.6,1h0c.3-.6,1-1,1.8-1s1.9.7,1.9,2.1v4.1h-.9v-4.1c0-.9-.6-1.3-1.2-1.3s-1.4.6-1.4,1.4v4h-1v-4.2c0-.7-.5-1.2-1.2-1.2s-1.4.6-1.4,1.5v3.8h-.9v-6.1Z"/>
    <path class="cls-3" d="M176.7,191.8h.9v1h0c.3-.7.8-1,1.6-1s1.3.4,1.6,1h0c.3-.6,1-1,1.8-1s1.9.7,1.9,2.1v4.1h-.9v-4.1c0-.9-.6-1.3-1.2-1.3s-1.4.6-1.4,1.4v4h-1v-4.2c0-.7-.5-1.2-1.2-1.2s-1.4.6-1.4,1.5v3.8h-.9v-6.1Z"/>
    <path class="cls-3" d="M186.2,194.9c0-1.9,1.1-3.2,2.8-3.2s2.6.8,2.6,3.1v.4h-4.5c0,1.3.8,2,1.9,2s1.3-.3,1.5-1l.9.3c-.3.9-1.2,1.6-2.4,1.6-1.8,0-2.9-1.3-2.9-3.2ZM190.6,194.3c0-1-.7-1.8-1.7-1.8s-1.8.9-1.8,1.8h3.5Z"/>
    <path class="cls-3" d="M195.9,190.1c0-.4.3-.6.7-.6s.7.3.7.6-.3.6-.7.6-.7-.3-.7-.6ZM196.1,191.8h.9v6.1h-.9v-6.1Z"/>
    <path class="cls-3" d="M199.7,197.9h-.9v-6.1h.9v1h0c.3-.6.9-1,1.8-1s2.1.8,2.1,2.3v3.9h-.9v-3.8c0-1-.5-1.5-1.4-1.5s-1.6.6-1.6,1.7v3.7Z"/>
    <path class="cls-3" d="M214.2,192.3c-.2-1.1-1.2-1.7-2.3-1.7s-2.7,1.2-2.7,3.3,1.2,3.3,2.7,3.3,2.1-.6,2.3-1.7h1c-.3,1.7-1.6,2.7-3.3,2.7s-3.6-1.6-3.6-4.2,1.5-4.2,3.6-4.2,3,1,3.3,2.7h-1Z"/>
    <path class="cls-3" d="M216.4,194.9c0-1.9,1.1-3.2,2.8-3.2s2.8,1.3,2.8,3.2-1.1,3.2-2.8,3.2-2.8-1.3-2.8-3.2ZM221,194.9c0-1.2-.6-2.3-1.8-2.3s-1.8,1.1-1.8,2.3.6,2.3,1.8,2.3,1.8-1.1,1.8-2.3Z"/>
    <path class="cls-3" d="M223.4,191.8h.9v1h0c.3-.7.8-1,1.6-1s1.3.4,1.6,1h0c.3-.6,1-1,1.8-1s1.9.7,1.9,2.1v4.1h-.9v-4.1c0-.9-.6-1.3-1.2-1.3s-1.4.6-1.4,1.4v4h-1v-4.2c0-.7-.5-1.2-1.2-1.2s-1.4.6-1.4,1.5v3.8h-.9v-6.1Z"/>
    <path class="cls-3" d="M233.2,191.8h.9v1h.1c.2-.3.6-1.1,1.8-1.1s2.6,1.2,2.6,3.2-1.1,3.2-2.6,3.2-1.6-.7-1.8-1.1h0v3.2h-.9v-8.4ZM235.9,197.2c1.2,0,1.8-1,1.8-2.4s-.6-2.3-1.8-2.3-1.8.9-1.8,2.3.6,2.4,1.8,2.4Z"/>
    <path class="cls-3" d="M243.9,191.8h.9v6.1h-.9v-1h0c-.3.6-.9,1.1-1.8,1.1s-2-.8-2-2.3v-3.9h.9v3.8c0,.9.6,1.5,1.3,1.5s1.6-.5,1.6-1.7v-3.6Z"/>
    <path class="cls-3" d="M249.2,192.6h-1.3v3.6c0,.8.4.9.8.9s.3,0,.4,0l.2.8c-.1,0-.4.1-.7.1-.8,0-1.7-.5-1.7-1.6v-3.8h-.9v-.8h.9v-1.5h.9v1.5h1.3v.8Z"/>
    <path class="cls-3" d="M250.2,194.9c0-1.9,1.1-3.2,2.8-3.2s2.6.8,2.6,3.1v.4h-4.5c0,1.3.8,2,1.9,2s1.3-.3,1.5-1l.9.3c-.3.9-1.2,1.6-2.4,1.6-1.8,0-2.9-1.3-2.9-3.2ZM254.6,194.3c0-1-.7-1.8-1.7-1.8s-1.8.9-1.8,1.8h3.5Z"/>
    <path class="cls-3" d="M257,191.8h.9v.9h0c.2-.6.9-1,1.6-1s.4,0,.5,0v1c0,0-.3,0-.6,0-.9,0-1.6.6-1.6,1.4v3.9h-.9v-6.1Z"/>
    <path class="cls-3" d="M261.8,197.2c-.1.9-.5,2.1-.7,2.7h-.7c.1-.5.3-1.6.4-2.7v-.4h1.1v.4Z"/>
    <path class="cls-3" d="M272.4,192.3c-.2-1.1-1.2-1.7-2.3-1.7s-2.7,1.2-2.7,3.3,1.2,3.3,2.7,3.3,2.1-.6,2.3-1.7h1c-.3,1.7-1.6,2.7-3.3,2.7s-3.6-1.6-3.6-4.2,1.5-4.2,3.6-4.2,3,1,3.3,2.7h-1Z"/>
    <path class="cls-3" d="M274.6,194.9c0-1.9,1.1-3.2,2.8-3.2s2.8,1.3,2.8,3.2-1.1,3.2-2.8,3.2-2.8-1.3-2.8-3.2ZM279.2,194.9c0-1.2-.6-2.3-1.8-2.3s-1.8,1.1-1.8,2.3.6,2.3,1.8,2.3,1.8-1.1,1.8-2.3Z"/>
    <path class="cls-3" d="M281.6,191.8h.9v1h0c.3-.7.8-1,1.6-1s1.3.4,1.6,1h0c.3-.6,1-1,1.8-1s1.9.7,1.9,2.1v4.1h-.9v-4.1c0-.9-.6-1.3-1.2-1.3s-1.4.6-1.4,1.4v4h-1v-4.2c0-.7-.5-1.2-1.2-1.2s-1.4.6-1.4,1.5v3.8h-.9v-6.1Z"/>
    <path class="cls-3" d="M291.3,191.8h.9v1h0c.3-.7.8-1,1.6-1s1.3.4,1.6,1h0c.3-.6,1-1,1.8-1s1.9.7,1.9,2.1v4.1h-.9v-4.1c0-.9-.6-1.3-1.2-1.3s-1.4.6-1.4,1.4v4h-1v-4.2c0-.7-.5-1.2-1.2-1.2s-1.4.6-1.4,1.5v3.8h-.9v-6.1Z"/>
    <path class="cls-3" d="M305,191.8h.9v6.1h-.9v-1h0c-.3.6-.9,1.1-1.8,1.1s-2-.8-2-2.3v-3.9h.9v3.8c0,.9.6,1.5,1.3,1.5s1.6-.5,1.6-1.7v-3.6Z"/>
    <path class="cls-3" d="M308.6,197.9h-.9v-6.1h.9v1h0c.3-.6.9-1,1.8-1s2.1.8,2.1,2.3v3.9h-.9v-3.8c0-1-.5-1.5-1.4-1.5s-1.6.6-1.6,1.7v3.7Z"/>
    <path class="cls-3" d="M314,190.1c0-.4.3-.6.7-.6s.7.3.7.6-.3.6-.7.6-.7-.3-.7-.6ZM314.2,191.8h.9v6.1h-.9v-6.1Z"/>
    <path class="cls-3" d="M316.6,194.9c0-1.9,1.1-3.2,2.8-3.2s2.3.8,2.4,1.9h-.9c-.1-.6-.6-1.1-1.5-1.1s-1.8.9-1.8,2.3.7,2.4,1.8,2.4,1.3-.4,1.5-1.1h.9c-.2,1.1-1.1,1.9-2.4,1.9s-2.8-1.3-2.8-3.2Z"/>
    <path class="cls-3" d="M322.9,196.2c0-1.4,1.2-1.7,2.4-1.8,1.1-.1,1.6-.1,1.6-.6h0c0-.8-.4-1.3-1.3-1.3s-1.4.5-1.6.9l-.9-.3c.5-1.1,1.5-1.4,2.5-1.4s2.3.2,2.3,2.2v4h-.9v-.8h0c-.2.4-.8,1-1.8,1s-2.1-.7-2.1-1.9ZM326.8,195.7v-.9c-.2.2-1.2.3-1.6.4-.7,0-1.4.3-1.4,1s.5,1,1.3,1c1.1,0,1.7-.8,1.7-1.5Z"/>
    <path class="cls-3" d="M332.1,192.6h-1.3v3.6c0,.8.4.9.8.9s.3,0,.4,0l.2.8c-.1,0-.4.1-.7.1-.8,0-1.7-.5-1.7-1.6v-3.8h-.9v-.8h.9v-1.5h.9v1.5h1.3v.8Z"/>
    <path class="cls-3" d="M333.4,190.1c0-.4.3-.6.7-.6s.7.3.7.6-.3.6-.7.6-.7-.3-.7-.6ZM333.6,191.8h.9v6.1h-.9v-6.1Z"/>
    <path class="cls-3" d="M335.9,194.9c0-1.9,1.1-3.2,2.8-3.2s2.8,1.3,2.8,3.2-1.1,3.2-2.8,3.2-2.8-1.3-2.8-3.2ZM340.6,194.9c0-1.2-.6-2.3-1.8-2.3s-1.8,1.1-1.8,2.3.6,2.3,1.8,2.3,1.8-1.1,1.8-2.3Z"/>
    <path class="cls-3" d="M343.9,197.9h-.9v-6.1h.9v1h0c.3-.6.9-1,1.8-1s2.1.8,2.1,2.3v3.9h-.9v-3.8c0-1-.5-1.5-1.4-1.5s-1.6.6-1.6,1.7v3.7Z"/>
    <path class="cls-3" d="M352.3,196.2c0-1.4,1.2-1.7,2.4-1.8,1.1-.1,1.6-.1,1.6-.6h0c0-.8-.4-1.3-1.3-1.3s-1.4.5-1.6.9l-.9-.3c.5-1.1,1.5-1.4,2.5-1.4s2.3.2,2.3,2.2v4h-.9v-.8h0c-.2.4-.8,1-1.8,1s-2.1-.7-2.1-1.9ZM356.3,195.7v-.9c-.2.2-1.2.3-1.6.4-.7,0-1.4.3-1.4,1s.5,1,1.3,1c1.1,0,1.7-.8,1.7-1.5Z"/>
    <path class="cls-3" d="M359.9,197.9h-.9v-6.1h.9v1h0c.3-.6.9-1,1.8-1s2.1.8,2.1,2.3v3.9h-.9v-3.8c0-1-.5-1.5-1.4-1.5s-1.6.6-1.6,1.7v3.7Z"/>
    <path class="cls-3" d="M365.3,194.8c0-1.9,1.1-3.2,2.6-3.2s1.6.7,1.8,1.1h0v-3h.9v8.2h-.9v-.9h-.1c-.2.3-.6,1.1-1.8,1.1s-2.6-1.2-2.6-3.2ZM369.8,194.8c0-1.4-.6-2.3-1.8-2.3s-1.8,1-1.8,2.3.6,2.4,1.8,2.4,1.8-1,1.8-2.4Z"/>
    <path class="cls-3" d="M376.8,197.9h-1v-8.2h1v8.2Z"/>
    <path class="cls-3" d="M379.6,197.9h-.9v-6.1h.9v1h0c.3-.6.9-1,1.8-1s2.1.8,2.1,2.3v3.9h-.9v-3.8c0-1-.5-1.5-1.4-1.5s-1.6.6-1.6,1.7v3.7Z"/>
    <path class="cls-3" d="M387.9,192.6h-1.4v5.3h-.9v-5.3h-1v-.8h1v-.8c0-1.1.8-1.6,1.7-1.6s.8,0,.9.2l-.3.8c0,0-.3,0-.5,0-.6,0-.9.3-.9.9v.6h1.4v.8Z"/>
    <path class="cls-3" d="M388.8,194.9c0-1.9,1.1-3.2,2.8-3.2s2.8,1.3,2.8,3.2-1.1,3.2-2.8,3.2-2.8-1.3-2.8-3.2ZM393.5,194.9c0-1.2-.6-2.3-1.8-2.3s-1.8,1.1-1.8,2.3.6,2.3,1.8,2.3,1.8-1.1,1.8-2.3Z"/>
    <path class="cls-3" d="M395.8,191.8h.9v.9h0c.2-.6.9-1,1.6-1s.4,0,.5,0v1c0,0-.3,0-.6,0-.9,0-1.6.6-1.6,1.4v3.9h-.9v-6.1Z"/>
    <path class="cls-3" d="M400,191.8h.9v1h0c.3-.7.8-1,1.6-1s1.3.4,1.6,1h0c.3-.6,1-1,1.8-1s1.9.7,1.9,2.1v4.1h-.9v-4.1c0-.9-.6-1.3-1.2-1.3s-1.4.6-1.4,1.4v4h-1v-4.2c0-.7-.5-1.2-1.2-1.2s-1.4.6-1.4,1.5v3.8h-.9v-6.1Z"/>
    <path class="cls-3" d="M409.5,196.2c0-1.4,1.2-1.7,2.4-1.8,1.1-.1,1.6-.1,1.6-.6h0c0-.8-.4-1.3-1.3-1.3s-1.4.5-1.6.9l-.9-.3c.5-1.1,1.5-1.4,2.5-1.4s2.3.2,2.3,2.2v4h-.9v-.8h0c-.2.4-.8,1-1.8,1s-2.1-.7-2.1-1.9ZM413.5,195.7v-.9c-.2.2-1.2.3-1.6.4-.7,0-1.4.3-1.4,1s.5,1,1.3,1c1.1,0,1.7-.8,1.7-1.5Z"/>
    <path class="cls-3" d="M418.8,192.6h-1.3v3.6c0,.8.4.9.8.9s.3,0,.4,0l.2.8c-.1,0-.4.1-.7.1-.8,0-1.7-.5-1.7-1.6v-3.8h-.9v-.8h.9v-1.5h.9v1.5h1.3v.8Z"/>
    <path class="cls-3" d="M420,190.1c0-.4.3-.6.7-.6s.7.3.7.6-.3.6-.7.6-.7-.3-.7-.6ZM420.2,191.8h.9v6.1h-.9v-6.1Z"/>
    <path class="cls-3" d="M422.6,194.9c0-1.9,1.1-3.2,2.8-3.2s2.8,1.3,2.8,3.2-1.1,3.2-2.8,3.2-2.8-1.3-2.8-3.2ZM427.2,194.9c0-1.2-.6-2.3-1.8-2.3s-1.8,1.1-1.8,2.3.6,2.3,1.8,2.3,1.8-1.1,1.8-2.3Z"/>
    <path class="cls-3" d="M430.5,197.9h-.9v-6.1h.9v1h0c.3-.6.9-1,1.8-1s2.1.8,2.1,2.3v3.9h-.9v-3.8c0-1-.5-1.5-1.4-1.5s-1.6.6-1.6,1.7v3.7Z"/>
    <path class="cls-3" d="M442.1,190.5c-1.1,0-1.8.6-1.8,1.4s1,1.2,1.6,1.4l.8.2c.8.2,2.3.7,2.3,2.3s-1.1,2.4-3,2.4-2.8-.9-2.9-2.3h1c0,.9.9,1.4,1.9,1.4s2-.6,2-1.5-.8-1.1-1.6-1.4l-1-.3c-1.3-.4-2.1-1-2.1-2.1s1.2-2.3,2.8-2.3,2.7.9,2.8,2.2h-1c0-.8-.8-1.3-1.8-1.3Z"/>
    <path class="cls-3" d="M446.2,194.9c0-1.9,1.1-3.2,2.8-3.2s2.3.8,2.4,1.9h-.9c-.1-.6-.6-1.1-1.5-1.1s-1.8.9-1.8,2.3.7,2.4,1.8,2.4,1.3-.4,1.5-1.1h.9c-.2,1.1-1.1,1.9-2.4,1.9s-2.8-1.3-2.8-3.2Z"/>
    <path class="cls-3" d="M452.5,190.1c0-.4.3-.6.7-.6s.7.3.7.6-.3.6-.7.6-.7-.3-.7-.6ZM452.7,191.8h.9v6.1h-.9v-6.1Z"/>
    <path class="cls-3" d="M455.1,194.9c0-1.9,1.1-3.2,2.8-3.2s2.6.8,2.6,3.1v.4h-4.5c0,1.3.8,2,1.9,2s1.3-.3,1.5-1l.9.3c-.3.9-1.2,1.6-2.4,1.6-1.8,0-2.9-1.3-2.9-3.2ZM459.5,194.3c0-1-.7-1.8-1.7-1.8s-1.8.9-1.8,1.8h3.5Z"/>
    <path class="cls-3" d="M462.9,197.9h-.9v-6.1h.9v1h0c.3-.6.9-1,1.8-1s2.1.8,2.1,2.3v3.9h-.9v-3.8c0-1-.5-1.5-1.4-1.5s-1.6.6-1.6,1.7v3.7Z"/>
    <path class="cls-3" d="M468.2,194.9c0-1.9,1.1-3.2,2.8-3.2s2.3.8,2.4,1.9h-.9c-.1-.6-.6-1.1-1.5-1.1s-1.8.9-1.8,2.3.7,2.4,1.8,2.4,1.3-.4,1.5-1.1h.9c-.2,1.1-1.1,1.9-2.4,1.9s-2.8-1.3-2.8-3.2Z"/>
    <path class="cls-3" d="M474.5,194.9c0-1.9,1.1-3.2,2.8-3.2s2.6.8,2.6,3.1v.4h-4.5c0,1.3.8,2,1.9,2s1.3-.3,1.5-1l.9.3c-.3.9-1.2,1.6-2.4,1.6-1.8,0-2.9-1.3-2.9-3.2ZM478.9,194.3c0-1-.7-1.8-1.7-1.8s-1.8.9-1.8,1.8h3.5Z"/>
    <path class="cls-3" d="M484.8,193.4c-.2-.4-.5-.9-1.3-.9s-1.3.4-1.3.9.3.7,1.1.9l.9.2c1.1.3,1.6.8,1.6,1.7s-1,1.8-2.4,1.8-2.1-.6-2.3-1.6l.9-.2c.2.7.7,1,1.4,1s1.4-.4,1.4-1-.3-.7-.9-.9l-1-.2c-1.1-.3-1.6-.8-1.6-1.7s1-1.8,2.3-1.8,1.9.6,2.2,1.5l-.8.2Z"/>
  </g>
  <g>
    <path class="cls-3" d="M100.1,235.3c-.5-2.3-2.5-3.6-4.8-3.6s-5.5,2.4-5.5,6.8,2.4,6.8,5.5,6.8,4.3-1.3,4.8-3.6h2.1c-.6,3.5-3.4,5.5-6.8,5.5s-7.5-3.3-7.5-8.7,3.1-8.7,7.5-8.7,6.2,2.1,6.8,5.5h-2.1Z"/>
    <path class="cls-3" d="M105.2,234.2h1.9v1.9h.1c.5-1.3,1.8-2.1,3.3-2.1s.8,0,1,0v2c-.1,0-.7-.1-1.2-.1-1.9,0-3.2,1.3-3.2,3v8h-2v-12.7Z"/>
    <path class="cls-3" d="M113.1,240.7c0-3.9,2.3-6.6,5.7-6.6s5.5,1.6,5.5,6.4v.8h-9.2c0,2.7,1.7,4.2,4,4.2s2.7-.7,3.2-2l1.9.5c-.6,1.9-2.5,3.2-5.1,3.2-3.7,0-5.9-2.6-5.9-6.5ZM122.3,239.6c0-2.2-1.4-3.7-3.5-3.7s-3.6,1.8-3.8,3.7h7.2Z"/>
    <path class="cls-3" d="M126.6,243.3c0-2.9,2.6-3.4,4.9-3.7,2.3-.3,3.3-.2,3.3-1.2h0c0-1.7-.9-2.6-2.7-2.6s-2.9,1-3.3,1.9l-1.9-.7c1-2.3,3.2-3,5.1-3s4.7.5,4.7,4.5v8.4h-2v-1.7h0c-.4.8-1.6,2-3.8,2s-4.3-1.4-4.3-3.9ZM134.8,242.3v-1.8c-.3.4-2.5.6-3.4.7-1.5.2-2.9.7-2.9,2.2s1.1,2.1,2.7,2.1c2.3,0,3.6-1.6,3.6-3.1Z"/>
    <path class="cls-3" d="M145.9,235.9h-2.7v7.4c0,1.7.8,1.9,1.7,1.9s.7,0,.9,0l.4,1.8c-.3,0-.7.2-1.5.2-1.7,0-3.4-1.1-3.4-3.3v-7.9h-1.9v-1.7h1.9v-3h2v3h2.7v1.7Z"/>
    <path class="cls-3" d="M148.4,230.8c0-.7.6-1.3,1.4-1.3s1.4.6,1.4,1.3-.6,1.3-1.4,1.3-1.4-.6-1.4-1.3ZM148.8,234.2h2v12.7h-2v-12.7Z"/>
    <path class="cls-3" d="M156.3,246.9h-2v-12.7h1.9v2h.2c.6-1.3,1.8-2.2,3.7-2.2s4.3,1.6,4.3,4.8v8.1h-2v-7.9c0-2-1.1-3.2-2.9-3.2s-3.2,1.3-3.2,3.5v7.6Z"/>
    <path class="cls-3" d="M167.9,249.4l1.6-1.1c.5.7,1.3,1.9,3.6,1.9s3.5-1,3.5-3.1v-2.6h-.2c-.4.7-1.2,2.1-3.7,2.1s-5.4-2.2-5.4-6.2,2.2-6.5,5.4-6.5,3.3,1.5,3.7,2.2h.2v-2h1.9v13.1c0,3.3-2.4,4.7-5.5,4.7s-4.4-1.2-5.2-2.5ZM176.7,240.5c0-2.7-1.3-4.7-3.6-4.7s-3.7,2.1-3.7,4.7,1.3,4.5,3.7,4.5,3.6-1.7,3.6-4.5Z"/>
    <path class="cls-3" d="M188.1,243.3c0-2.9,2.6-3.4,4.9-3.7,2.3-.3,3.3-.2,3.3-1.2h0c0-1.7-.9-2.6-2.7-2.6s-2.9,1-3.3,1.9l-1.9-.7c1-2.3,3.2-3,5.1-3s4.7.5,4.7,4.5v8.4h-2v-1.7h0c-.4.8-1.6,2-3.8,2s-4.3-1.4-4.3-3.9ZM196.3,242.3v-1.8c-.3.4-2.5.6-3.4.7-1.5.2-2.9.7-2.9,2.2s1.1,2.1,2.7,2.1c2.3,0,3.6-1.6,3.6-3.1Z"/>
    <path class="cls-3" d="M203.8,246.9h-2v-12.7h1.9v2h.2c.6-1.3,1.8-2.2,3.7-2.2s4.3,1.6,4.3,4.8v8.1h-2v-7.9c0-2-1.1-3.2-2.9-3.2s-3.2,1.3-3.2,3.5v7.6Z"/>
    <path class="cls-3" d="M221.3,240.7c0-3.9,2.3-6.6,5.7-6.6s5.5,1.6,5.5,6.4v.8h-9.2c0,2.7,1.7,4.2,4,4.2s2.7-.7,3.2-2l1.9.5c-.6,1.9-2.5,3.2-5.1,3.2-3.7,0-5.9-2.6-5.9-6.5ZM230.5,239.6c0-2.2-1.4-3.7-3.5-3.7s-3.6,1.8-3.8,3.7h7.2Z"/>
    <path class="cls-3" d="M234.9,240.6c0-4,2.2-6.6,5.4-6.6s3.2,1.5,3.7,2.2h.2v-6.3h2v16.9h-1.9v-2h-.2c-.4.7-1.3,2.2-3.7,2.2s-5.4-2.5-5.4-6.6ZM244.2,240.6c0-2.8-1.3-4.8-3.6-4.8s-3.7,2.1-3.7,4.8,1.3,4.9,3.7,4.9,3.6-2,3.6-4.9Z"/>
    <path class="cls-3" d="M257.9,234.2h2v12.7h-2v-2.2h-.1c-.6,1.3-1.9,2.3-3.8,2.3s-4.1-1.6-4.1-4.8v-8.1h2v7.9c0,1.9,1.2,3,2.8,3s3.3-1.1,3.3-3.5v-7.5Z"/>
    <path class="cls-3" d="M262.9,240.7c0-3.9,2.3-6.6,5.7-6.6s4.7,1.6,5,4h-2c-.3-1.2-1.3-2.2-3-2.2s-3.8,1.9-3.8,4.8,1.5,4.9,3.8,4.9,2.7-.8,3-2.2h2c-.3,2.2-2.2,4-5,4s-5.8-2.7-5.8-6.6Z"/>
    <path class="cls-3" d="M275.9,243.3c0-2.9,2.6-3.4,4.9-3.7,2.3-.3,3.3-.2,3.3-1.2h0c0-1.7-.9-2.6-2.7-2.6s-2.9,1-3.3,1.9l-1.9-.7c1-2.3,3.2-3,5.1-3s4.7.5,4.7,4.5v8.4h-2v-1.7h0c-.4.8-1.6,2-3.8,2s-4.3-1.4-4.3-3.9ZM284.1,242.3v-1.8c-.3.4-2.5.6-3.4.7-1.5.2-2.9.7-2.9,2.2s1.1,2.1,2.7,2.1c2.3,0,3.6-1.6,3.6-3.1Z"/>
    <path class="cls-3" d="M295.1,235.9h-2.7v7.4c0,1.7.8,1.9,1.7,1.9s.7,0,.9,0l.4,1.8c-.3,0-.7.2-1.5.2-1.7,0-3.4-1.1-3.4-3.3v-7.9h-1.9v-1.7h1.9v-3h2v3h2.7v1.7Z"/>
    <path class="cls-3" d="M297.7,230.8c0-.7.6-1.3,1.4-1.3s1.4.6,1.4,1.3-.6,1.3-1.4,1.3-1.4-.6-1.4-1.3ZM298.1,234.2h2v12.7h-2v-12.7Z"/>
    <path class="cls-3" d="M303,240.7c0-4,2.3-6.6,5.8-6.6s5.8,2.6,5.8,6.6-2.3,6.6-5.8,6.6-5.8-2.6-5.8-6.6ZM312.6,240.7c0-2.5-1.2-4.8-3.8-4.8s-3.8,2.3-3.8,4.8,1.2,4.8,3.8,4.8,3.8-2.2,3.8-4.8Z"/>
    <path class="cls-3" d="M319.5,246.9h-2v-12.7h1.9v2h.2c.6-1.3,1.8-2.2,3.7-2.2s4.3,1.6,4.3,4.8v8.1h-2v-7.9c0-2-1.1-3.2-2.9-3.2s-3.2,1.3-3.2,3.5v7.6Z"/>
    <path class="cls-3" d="M330.6,243.3c0-2.9,2.6-3.4,4.9-3.7,2.3-.3,3.3-.2,3.3-1.2h0c0-1.7-.9-2.6-2.7-2.6s-2.9,1-3.3,1.9l-1.9-.7c1-2.3,3.2-3,5.1-3s4.7.5,4.7,4.5v8.4h-2v-1.7h0c-.4.8-1.6,2-3.8,2s-4.3-1.4-4.3-3.9ZM338.8,242.3v-1.8c-.3.4-2.5.6-3.4.7-1.5.2-2.9.7-2.9,2.2s1.1,2.1,2.7,2.1c2.3,0,3.6-1.6,3.6-3.1Z"/>
    <path class="cls-3" d="M346.2,246.9h-2v-16.9h2v16.9Z"/>
    <path class="cls-3" d="M356.3,234.2h1.9v2h.2c.4-.7,1.2-2.2,3.7-2.2s5.4,2.5,5.4,6.6-2.2,6.6-5.4,6.6-3.3-1.5-3.7-2.2h-.2v6.7h-2v-17.5ZM361.9,245.4c2.4,0,3.7-2.2,3.7-4.9s-1.2-4.8-3.7-4.8-3.6,1.9-3.6,4.8,1.3,4.9,3.6,4.9Z"/>
    <path class="cls-3" d="M372.4,246.9h-2v-16.9h2v16.9Z"/>
    <path class="cls-3" d="M384,234.2h2v12.7h-2v-2.2h-.1c-.6,1.3-1.9,2.3-3.8,2.3s-4.1-1.6-4.1-4.8v-8.1h2v7.9c0,1.9,1.2,3,2.8,3s3.3-1.1,3.3-3.5v-7.5Z"/>
    <path class="cls-3" d="M389.5,249.4l1.6-1.1c.5.7,1.3,1.9,3.6,1.9s3.5-1,3.5-3.1v-2.6h-.2c-.4.7-1.2,2.1-3.7,2.1s-5.4-2.2-5.4-6.2,2.2-6.5,5.4-6.5,3.3,1.5,3.7,2.2h.2v-2h1.9v13.1c0,3.3-2.4,4.7-5.5,4.7s-4.4-1.2-5.2-2.5ZM398.3,240.5c0-2.7-1.3-4.7-3.6-4.7s-3.7,2.1-3.7,4.7,1.3,4.5,3.7,4.5,3.6-1.7,3.6-4.5Z"/>
    <path class="cls-3" d="M403.4,230.8c0-.7.6-1.3,1.4-1.3s1.4.6,1.4,1.3-.6,1.3-1.4,1.3-1.4-.6-1.4-1.3ZM403.8,234.2h2v12.7h-2v-12.7Z"/>
    <path class="cls-3" d="M411.2,246.9h-2v-12.7h1.9v2h.2c.6-1.3,1.8-2.2,3.7-2.2s4.3,1.6,4.3,4.8v8.1h-2v-7.9c0-2-1.1-3.2-2.9-3.2s-3.2,1.3-3.2,3.5v7.6Z"/>
    <path class="cls-3" d="M434.9,235.9h-2.7v7.4c0,1.7.8,1.9,1.7,1.9s.7,0,.9,0l.4,1.8c-.3,0-.7.2-1.5.2-1.7,0-3.4-1.1-3.4-3.3v-7.9h-1.9v-1.7h1.9v-3h2v3h2.7v1.7Z"/>
    <path class="cls-3" d="M437,240.7c0-4,2.3-6.6,5.8-6.6s5.8,2.6,5.8,6.6-2.3,6.6-5.8,6.6-5.8-2.6-5.8-6.6ZM446.6,240.7c0-2.5-1.2-4.8-3.8-4.8s-3.8,2.3-3.8,4.8,1.2,4.8,3.8,4.8,3.8-2.2,3.8-4.8Z"/>
    <path class="cls-3" d="M465.3,237.6c-.3-.9-1-1.8-2.7-1.8s-2.7.8-2.7,1.9.7,1.5,2.2,1.9l1.9.5c2.3.6,3.4,1.7,3.4,3.4s-2,3.8-5,3.8-4.4-1.1-4.8-3.3l1.9-.5c.3,1.4,1.3,2.1,2.9,2.1s3-.9,3-2-.6-1.5-1.9-1.8l-2.1-.5c-2.3-.5-3.4-1.7-3.4-3.5s2-3.7,4.7-3.7,3.9,1.2,4.5,3l-1.8.5Z"/>
    <path class="cls-3" d="M478.2,234.2h2v12.7h-2v-2.2h-.1c-.6,1.3-1.9,2.3-3.8,2.3s-4.1-1.6-4.1-4.8v-8.1h2v7.9c0,1.9,1.2,3,2.8,3s3.3-1.1,3.3-3.5v-7.5Z"/>
    <path class="cls-3" d="M483.7,234.2h1.9v2h.2c.4-.7,1.2-2.2,3.7-2.2s5.4,2.5,5.4,6.6-2.2,6.6-5.4,6.6-3.3-1.5-3.7-2.2h-.2v6.7h-2v-17.5ZM489.3,245.4c2.4,0,3.7-2.2,3.7-4.9s-1.2-4.8-3.7-4.8-3.6,1.9-3.6,4.8,1.3,4.9,3.6,4.9Z"/>
    <path class="cls-3" d="M497.9,234.2h1.9v2h.2c.4-.7,1.2-2.2,3.7-2.2s5.4,2.5,5.4,6.6-2.2,6.6-5.4,6.6-3.3-1.5-3.7-2.2h-.2v6.7h-2v-17.5ZM503.5,245.4c2.4,0,3.7-2.2,3.7-4.9s-1.2-4.8-3.7-4.8-3.6,1.9-3.6,4.8,1.3,4.9,3.6,4.9Z"/>
    <path class="cls-3" d="M511.5,240.7c0-4,2.3-6.6,5.8-6.6s5.8,2.6,5.8,6.6-2.3,6.6-5.8,6.6-5.8-2.6-5.8-6.6ZM521.1,240.7c0-2.5-1.2-4.8-3.8-4.8s-3.8,2.3-3.8,4.8,1.2,4.8,3.8,4.8,3.8-2.2,3.8-4.8Z"/>
    <path class="cls-3" d="M526,234.2h1.9v1.9h.1c.5-1.3,1.8-2.1,3.3-2.1s.8,0,1,0v2c-.1,0-.7-.1-1.2-.1-1.9,0-3.2,1.3-3.2,3v8h-2v-12.7Z"/>
    <path class="cls-3" d="M540.9,235.9h-2.7v7.4c0,1.7.8,1.9,1.7,1.9s.7,0,.9,0l.4,1.8c-.3,0-.7.2-1.5.2-1.7,0-3.4-1.1-3.4-3.3v-7.9h-1.9v-1.7h1.9v-3h2v3h2.7v1.7Z"/>
  </g>
  <g>
    <path class="cls-3" d="M87.7,264c0-4,2.3-6.6,5.8-6.6s5.8,2.6,5.8,6.6-2.3,6.6-5.8,6.6-5.8-2.6-5.8-6.6ZM97.2,264c0-2.5-1.2-4.8-3.8-4.8s-3.8,2.3-3.8,4.8,1.2,4.8,3.8,4.8,3.8-2.2,3.8-4.8Z"/>
    <path class="cls-3" d="M104.1,270.3h-2v-12.7h1.9v2h.2c.6-1.3,1.8-2.2,3.7-2.2s4.3,1.6,4.3,4.8v8.1h-2v-7.9c0-2-1.1-3.2-2.9-3.2s-3.2,1.3-3.2,3.5v7.6Z"/>
    <path class="cls-3" d="M117.8,270.3h-2v-16.9h2v16.9Z"/>
    <path class="cls-3" d="M120.9,254.1c0-.7.6-1.3,1.4-1.3s1.4.6,1.4,1.3-.6,1.3-1.4,1.3-1.4-.6-1.4-1.3ZM121.3,257.6h2v12.7h-2v-12.7Z"/>
    <path class="cls-3" d="M128.8,270.3h-2v-12.7h1.9v2h.2c.6-1.3,1.8-2.2,3.7-2.2s4.3,1.6,4.3,4.8v8.1h-2v-7.9c0-2-1.1-3.2-2.9-3.2s-3.2,1.3-3.2,3.5v7.6Z"/>
    <path class="cls-3" d="M139.9,264c0-3.9,2.3-6.6,5.7-6.6s5.5,1.6,5.5,6.4v.8h-9.2c0,2.7,1.7,4.2,4,4.2s2.7-.7,3.2-2l1.9.5c-.6,1.9-2.5,3.2-5.1,3.2-3.7,0-5.9-2.6-5.9-6.5ZM149.1,262.9c0-2.2-1.4-3.7-3.5-3.7s-3.6,1.8-3.8,3.7h7.2Z"/>
    <path class="cls-3" d="M160.5,257.6h1.9v2h.2c.4-.7,1.2-2.2,3.7-2.2s5.4,2.5,5.4,6.6-2.2,6.6-5.4,6.6-3.3-1.5-3.7-2.2h-.2v6.7h-2v-17.5ZM166.1,268.8c2.4,0,3.7-2.2,3.7-4.9s-1.2-4.8-3.7-4.8-3.6,1.9-3.6,4.8,1.3,4.9,3.6,4.9Z"/>
    <path class="cls-3" d="M174.7,257.6h1.9v1.9h.1c.5-1.3,1.8-2.1,3.3-2.1s.8,0,1,0v2c-.1,0-.7-.1-1.2-.1-1.9,0-3.2,1.3-3.2,3v8h-2v-12.7Z"/>
    <path class="cls-3" d="M182.7,264c0-4,2.3-6.6,5.8-6.6s5.8,2.6,5.8,6.6-2.3,6.6-5.8,6.6-5.8-2.6-5.8-6.6ZM192.3,264c0-2.5-1.2-4.8-3.8-4.8s-3.8,2.3-3.8,4.8,1.2,4.8,3.8,4.8,3.8-2.2,3.8-4.8Z"/>
    <path class="cls-3" d="M197.2,272.7l1.6-1.1c.5.7,1.3,1.9,3.6,1.9s3.5-1,3.5-3.1v-2.6h-.2c-.4.7-1.2,2.1-3.7,2.1s-5.4-2.2-5.4-6.2,2.2-6.5,5.4-6.5,3.3,1.5,3.7,2.2h.2v-2h1.9v13.1c0,3.3-2.4,4.7-5.5,4.7s-4.4-1.2-5.2-2.5ZM205.9,263.8c0-2.7-1.3-4.7-3.6-4.7s-3.7,2.1-3.7,4.7,1.3,4.5,3.7,4.5,3.6-1.7,3.6-4.5Z"/>
    <path class="cls-3" d="M211.4,257.6h1.9v1.9h.1c.5-1.3,1.8-2.1,3.3-2.1s.8,0,1,0v2c-.1,0-.7-.1-1.2-.1-1.9,0-3.2,1.3-3.2,3v8h-2v-12.7Z"/>
    <path class="cls-3" d="M219.4,266.6c0-2.9,2.6-3.4,4.9-3.7,2.3-.3,3.3-.2,3.3-1.2h0c0-1.7-.9-2.6-2.7-2.6s-2.9,1-3.3,1.9l-1.9-.7c1-2.3,3.2-3,5.1-3s4.7.5,4.7,4.5v8.4h-2v-1.7h0c-.4.8-1.6,2-3.8,2s-4.3-1.4-4.3-3.9ZM227.6,265.7v-1.8c-.3.4-2.5.6-3.4.7-1.5.2-2.9.7-2.9,2.2s1.1,2.1,2.7,2.1c2.3,0,3.6-1.6,3.6-3.1Z"/>
    <path class="cls-3" d="M233.1,257.6h1.9v2h.2c.5-1.4,1.8-2.2,3.4-2.2s2.8.8,3.4,2.2h.1c.7-1.3,2-2.2,3.8-2.2s3.9,1.4,3.9,4.4v8.5h-2v-8.5c0-1.9-1.2-2.6-2.6-2.6s-2.8,1.2-2.8,2.8v8.3h-2v-8.7c0-1.4-1-2.4-2.5-2.4s-2.9,1.3-2.9,3.2v7.9h-2v-12.7Z"/>
    <path class="cls-3" d="M253.4,257.6h1.9v2h.2c.5-1.4,1.8-2.2,3.4-2.2s2.8.8,3.4,2.2h.1c.7-1.3,2-2.2,3.8-2.2s3.9,1.4,3.9,4.4v8.5h-2v-8.5c0-1.9-1.2-2.6-2.6-2.6s-2.8,1.2-2.8,2.8v8.3h-2v-8.7c0-1.4-1-2.4-2.5-2.4s-2.9,1.3-2.9,3.2v7.9h-2v-12.7Z"/>
    <path class="cls-3" d="M273.2,254.1c0-.7.6-1.3,1.4-1.3s1.4.6,1.4,1.3-.6,1.3-1.4,1.3-1.4-.6-1.4-1.3ZM273.6,257.6h2v12.7h-2v-12.7Z"/>
    <path class="cls-3" d="M281.1,270.3h-2v-12.7h1.9v2h.2c.6-1.3,1.8-2.2,3.7-2.2s4.3,1.6,4.3,4.8v8.1h-2v-7.9c0-2-1.1-3.2-2.9-3.2s-3.2,1.3-3.2,3.5v7.6Z"/>
    <path class="cls-3" d="M292.7,272.7l1.6-1.1c.5.7,1.3,1.9,3.6,1.9s3.5-1,3.5-3.1v-2.6h-.2c-.4.7-1.2,2.1-3.7,2.1s-5.4-2.2-5.4-6.2,2.2-6.5,5.4-6.5,3.3,1.5,3.7,2.2h.2v-2h1.9v13.1c0,3.3-2.4,4.7-5.5,4.7s-4.4-1.2-5.2-2.5ZM301.5,263.8c0-2.7-1.3-4.7-3.6-4.7s-3.7,2.1-3.7,4.7,1.3,4.5,3.7,4.5,3.6-1.7,3.6-4.5Z"/>
    <path class="cls-3" d="M315.4,270.3h-2v-16.9h2v16.9Z"/>
    <path class="cls-3" d="M318.4,264c0-3.9,2.3-6.6,5.7-6.6s5.5,1.6,5.5,6.4v.8h-9.2c0,2.7,1.7,4.2,4,4.2s2.7-.7,3.2-2l1.9.5c-.6,1.9-2.5,3.2-5.1,3.2-3.7,0-5.9-2.6-5.9-6.5ZM327.6,262.9c0-2.2-1.4-3.7-3.5-3.7s-3.6,1.8-3.8,3.7h7.2Z"/>
    <path class="cls-3" d="M332,266.6c0-2.9,2.6-3.4,4.9-3.7,2.3-.3,3.3-.2,3.3-1.2h0c0-1.7-.9-2.6-2.7-2.6s-2.9,1-3.3,1.9l-1.9-.7c1-2.3,3.2-3,5.1-3s4.7.5,4.7,4.5v8.4h-2v-1.7h0c-.4.8-1.6,2-3.8,2s-4.3-1.4-4.3-3.9ZM340.2,265.7v-1.8c-.3.4-2.5.6-3.4.7-1.5.2-2.9.7-2.9,2.2s1.1,2.1,2.7,2.1c2.3,0,3.6-1.6,3.6-3.1Z"/>
    <path class="cls-3" d="M345.7,257.6h1.9v1.9h.1c.5-1.3,1.8-2.1,3.3-2.1s.8,0,1,0v2c-.1,0-.7-.1-1.2-.1-1.9,0-3.2,1.3-3.2,3v8h-2v-12.7Z"/>
    <path class="cls-3" d="M356.3,270.3h-2v-12.7h1.9v2h.2c.6-1.3,1.8-2.2,3.7-2.2s4.3,1.6,4.3,4.8v8.1h-2v-7.9c0-2-1.1-3.2-2.9-3.2s-3.2,1.3-3.2,3.5v7.6Z"/>
    <path class="cls-3" d="M367.6,254.1c0-.7.6-1.3,1.4-1.3s1.4.6,1.4,1.3-.6,1.3-1.4,1.3-1.4-.6-1.4-1.3ZM368,257.6h2v12.7h-2v-12.7Z"/>
    <path class="cls-3" d="M375.5,270.3h-2v-12.7h1.9v2h.2c.6-1.3,1.8-2.2,3.7-2.2s4.3,1.6,4.3,4.8v8.1h-2v-7.9c0-2-1.1-3.2-2.9-3.2s-3.2,1.3-3.2,3.5v7.6Z"/>
    <path class="cls-3" d="M387.1,272.7l1.6-1.1c.5.7,1.3,1.9,3.6,1.9s3.5-1,3.5-3.1v-2.6h-.2c-.4.7-1.2,2.1-3.7,2.1s-5.4-2.2-5.4-6.2,2.2-6.5,5.4-6.5,3.3,1.5,3.7,2.2h.2v-2h1.9v13.1c0,3.3-2.4,4.7-5.5,4.7s-4.4-1.2-5.2-2.5ZM395.9,263.8c0-2.7-1.3-4.7-3.6-4.7s-3.7,2.1-3.7,4.7,1.3,4.5,3.7,4.5,3.6-1.7,3.6-4.5Z"/>
  </g>
  <g>
    <path class="cls-3" d="M86.8,309.9l3.6-9.8h1.2l3.6,9.8h-1.2l-1-2.8h-4l-1,2.8h-1.2ZM92.7,306l-1.6-4.4h0l-1.6,4.4h3.2Z"/>
    <path class="cls-3" d="M100,306.2c0-2.2,1.3-3.8,3.3-3.8s2.7.9,2.9,2.3h-1.1c-.2-.7-.8-1.3-1.8-1.3s-2.2,1.1-2.2,2.8.9,2.8,2.2,2.8,1.6-.5,1.8-1.3h1.1c-.2,1.3-1.3,2.3-2.9,2.3s-3.3-1.6-3.3-3.8Z"/>
    <path class="cls-3" d="M107.6,307.8c0-1.7,1.5-2,2.9-2.2,1.3-.2,1.9-.1,1.9-.7h0c0-1-.5-1.5-1.6-1.5s-1.7.6-1.9,1.1l-1.1-.4c.6-1.3,1.8-1.7,3-1.7s2.7.3,2.7,2.6v4.8h-1.1v-1h0c-.2.5-.9,1.2-2.2,1.2s-2.5-.8-2.5-2.3ZM112.3,307.2v-1c-.2.2-1.5.4-2,.4-.9.1-1.7.4-1.7,1.2s.7,1.2,1.6,1.2c1.3,0,2.1-.9,2.1-1.8Z"/>
    <path class="cls-3" d="M119.7,304.4c-.2-.5-.6-1.1-1.6-1.1s-1.6.5-1.6,1.1.4.9,1.3,1.1l1.1.3c1.3.3,2,1,2,2s-1.2,2.2-2.9,2.2-2.5-.7-2.8-1.9l1.1-.3c.2.8.8,1.2,1.7,1.2s1.7-.5,1.7-1.1-.3-.9-1.1-1l-1.2-.3c-1.4-.3-2-1-2-2s1.1-2.1,2.7-2.1,2.3.7,2.6,1.7l-1,.3Z"/>
    <path class="cls-3" d="M122.2,306.2c0-2.3,1.3-3.8,3.3-3.8s3.2.9,3.2,3.7v.5h-5.3c0,1.6,1,2.4,2.3,2.4s1.6-.4,1.8-1.1l1.1.3c-.3,1.1-1.4,1.9-2.9,1.9-2.1,0-3.4-1.5-3.4-3.8ZM127.6,305.6c0-1.2-.8-2.2-2-2.2s-2.1,1-2.2,2.2h4.2Z"/>
    <path class="cls-3" d="M133.8,306.2c0-2.3,1.3-3.8,3.3-3.8s3.3,1.5,3.3,3.8-1.3,3.8-3.3,3.8-3.3-1.5-3.3-3.8ZM139.4,306.2c0-1.5-.7-2.8-2.2-2.8s-2.2,1.3-2.2,2.8.7,2.8,2.2,2.8,2.2-1.3,2.2-2.8Z"/>
    <path class="cls-3" d="M145.5,303.5h-1.6v6.4h-1.1v-6.4h-1.2v-1h1.2v-1c0-1.3,1-1.9,2.1-1.9s.9.1,1.1.2l-.3,1c-.1,0-.3-.1-.6-.1-.7,0-1.1.4-1.1,1.1v.7h1.6v1Z"/>
    <path class="cls-3" d="M152.2,309.9h-1.2v-9.8h1.2v9.8Z"/>
    <path class="cls-3" d="M155.5,309.9h-1.1v-7.4h1.1v1.1h0c.3-.7,1-1.2,2.1-1.2s2.5.9,2.5,2.8v4.7h-1.1v-4.6c0-1.2-.6-1.8-1.7-1.8s-1.9.7-1.9,2v4.4Z"/>
    <path class="cls-3" d="M165.5,303.5h-1.6v4.3c0,1,.5,1.1,1,1.1s.4,0,.5,0l.2,1c-.2,0-.4.1-.8.1-1,0-2-.6-2-1.9v-4.6h-1.1v-1h1.1v-1.8h1.1v1.8h1.6v1Z"/>
    <path class="cls-3" d="M166.6,306.2c0-2.3,1.3-3.8,3.3-3.8s3.2.9,3.2,3.7v.5h-5.3c0,1.6,1,2.4,2.3,2.4s1.6-.4,1.8-1.1l1.1.3c-.3,1.1-1.4,1.9-2.9,1.9-2.1,0-3.4-1.5-3.4-3.8ZM172,305.6c0-1.2-.8-2.2-2-2.2s-2.1,1-2.2,2.2h4.2Z"/>
    <path class="cls-3" d="M176,309.9h-1.1v-9.8h1.1v9.8Z"/>
    <path class="cls-3" d="M179.2,309.9h-1.1v-9.8h1.1v9.8Z"/>
    <path class="cls-3" d="M181,300.5c0-.4.4-.8.8-.8s.8.3.8.8-.4.8-.8.8-.8-.3-.8-.8ZM181.2,302.5h1.1v7.4h-1.1v-7.4Z"/>
    <path class="cls-3" d="M189.5,300v7c0,1.9-1.1,2.9-2.8,2.9s-2.8-.9-2.8-2.4h1.2c0,.8.7,1.4,1.6,1.4s1.6-.7,1.6-1.9v-7h1.2Z"/>
    <path class="cls-3" d="M196.9,309.9h-1.2v-9.8h1.2v9.8Z"/>
    <path class="cls-3" d="M199.2,309.9v-9.8h3.2c2.9,0,4.5,1.8,4.5,4.9s-1.7,4.9-4.7,4.9h-3ZM202.2,308.8c2.4,0,3.6-1.5,3.6-3.9s-1.2-3.8-3.5-3.8h-1.9v7.7h1.8Z"/>
    <path class="cls-3" d="M208.9,300h5.9v1.1h-4.7v3.3h4.4v1.1h-4.4v3.3h4.8v1.1h-6v-9.8Z"/>
    <path class="cls-3" d="M216.1,309.9l3.6-9.8h1.2l3.6,9.8h-1.2l-1-2.8h-4l-1,2.8h-1.2ZM222,306l-1.6-4.4h0l-1.6,4.4h3.2Z"/>
    <path class="cls-3" d="M229.7,302.5h1.1v1.2h.1c.2-.4.7-1.3,2.1-1.3s3.1,1.5,3.1,3.8-1.3,3.8-3.1,3.8-1.9-.9-2.1-1.3h0v3.9h-1.1v-10.1ZM232.9,309c1.4,0,2.1-1.2,2.1-2.8s-.7-2.8-2.1-2.8-2.1,1.1-2.1,2.8.7,2.8,2.1,2.8Z"/>
    <path class="cls-3" d="M239,309.9h-1.1v-9.8h1.1v9.8Z"/>
    <path class="cls-3" d="M245.7,302.5h1.1v7.4h-1.1v-1.2h0c-.3.7-1.1,1.3-2.2,1.3s-2.4-.9-2.4-2.8v-4.7h1.1v4.6c0,1.1.7,1.8,1.6,1.8s1.9-.6,1.9-2v-4.4Z"/>
    <path class="cls-3" d="M248.9,311.3l.9-.6c.3.4.8,1.1,2.1,1.1s2.1-.6,2.1-1.8v-1.5h0c-.2.4-.7,1.2-2.1,1.2s-3.1-1.3-3.1-3.6,1.3-3.7,3.1-3.7,1.9.9,2.1,1.3h.1v-1.2h1.1v7.6c0,1.9-1.4,2.7-3.2,2.7s-2.5-.7-3-1.5ZM254,306.1c0-1.6-.7-2.7-2.1-2.7s-2.1,1.2-2.1,2.7.7,2.6,2.1,2.6,2.1-1,2.1-2.6Z"/>
    <path class="cls-3" d="M256.9,300.5c0-.4.4-.8.8-.8s.8.3.8.8-.4.8-.8.8-.8-.3-.8-.8ZM257.2,302.5h1.1v7.4h-1.1v-7.4Z"/>
    <path class="cls-3" d="M261.5,309.9h-1.1v-7.4h1.1v1.1h0c.3-.7,1-1.2,2.1-1.2s2.5.9,2.5,2.8v4.7h-1.1v-4.6c0-1.2-.6-1.8-1.7-1.8s-1.9.7-1.9,2v4.4Z"/>
    <path class="cls-3" d="M275.3,303.5h-1.6v6.4h-1.1v-6.4h-1.2v-1h1.2v-1c0-1.3,1-1.9,2.1-1.9s.9.1,1.1.2l-.3,1c-.1,0-.3-.1-.6-.1-.7,0-1.1.4-1.1,1.1v.7h1.6v1Z"/>
    <path class="cls-3" d="M276.4,306.2c0-2.3,1.3-3.8,3.3-3.8s3.3,1.5,3.3,3.8-1.3,3.8-3.3,3.8-3.3-1.5-3.3-3.8ZM281.9,306.2c0-1.5-.7-2.8-2.2-2.8s-2.2,1.3-2.2,2.8.7,2.8,2.2,2.8,2.2-1.3,2.2-2.8Z"/>
    <path class="cls-3" d="M284.8,302.5h1.1v1.1h0c.3-.7,1-1.2,1.9-1.2s.5,0,.6,0v1.1c0,0-.4,0-.7,0-1.1,0-1.9.7-1.9,1.7v4.7h-1.1v-7.4Z"/>
    <path class="cls-3" d="M292.8,309.9l3.6-9.8h1.2l3.6,9.8h-1.2l-1-2.8h-4l-1,2.8h-1.2ZM298.7,306l-1.6-4.4h0l-1.6,4.4h3.2Z"/>
    <path class="cls-3" d="M305.5,306.6h-2.6v-1.1h2.6v-2.6h1.1v2.6h2.6v1.1h-2.6v2.6h-1.1v-2.6Z"/>
    <path class="cls-3" d="M315.4,300h1.2v8.8h4.6v1.1h-5.7v-9.8Z"/>
    <path class="cls-3" d="M322.5,306.2c0-2.3,1.3-3.8,3.3-3.8s3.2.9,3.2,3.7v.5h-5.3c0,1.6,1,2.4,2.3,2.4s1.6-.4,1.8-1.1l1.1.3c-.3,1.1-1.4,1.9-2.9,1.9-2.1,0-3.4-1.5-3.4-3.8ZM327.8,305.6c0-1.2-.8-2.2-2-2.2s-2.1,1-2.2,2.2h4.2Z"/>
    <path class="cls-3" d="M330.4,307.8c0-1.7,1.5-2,2.9-2.2,1.3-.2,1.9-.1,1.9-.7h0c0-1-.5-1.5-1.6-1.5s-1.7.6-1.9,1.1l-1.1-.4c.6-1.3,1.8-1.7,3-1.7s2.7.3,2.7,2.6v4.8h-1.1v-1h0c-.2.5-.9,1.2-2.2,1.2s-2.5-.8-2.5-2.3ZM335.1,307.2v-1c-.2.2-1.5.4-2,.4-.9.1-1.7.4-1.7,1.2s.7,1.2,1.6,1.2c1.3,0,2.1-.9,2.1-1.8Z"/>
    <path class="cls-3" d="M338.3,302.5h1.1v1.1h0c.3-.7,1-1.2,1.9-1.2s.5,0,.6,0v1.1c0,0-.4,0-.7,0-1.1,0-1.9.7-1.9,1.7v4.7h-1.1v-7.4Z"/>
    <path class="cls-3" d="M344.5,309.9h-1.1v-7.4h1.1v1.1h0c.3-.7,1-1.2,2.1-1.2s2.5.9,2.5,2.8v4.7h-1.1v-4.6c0-1.2-.6-1.8-1.7-1.8s-1.9.7-1.9,2v4.4Z"/>
    <path class="cls-3" d="M351,300.5c0-.4.4-.8.8-.8s.8.3.8.8-.4.8-.8.8-.8-.3-.8-.8ZM351.2,302.5h1.1v7.4h-1.1v-7.4Z"/>
    <path class="cls-3" d="M355.5,309.9h-1.1v-7.4h1.1v1.1h0c.3-.7,1-1.2,2.1-1.2s2.5.9,2.5,2.8v4.7h-1.1v-4.6c0-1.2-.6-1.8-1.7-1.8s-1.9.7-1.9,2v4.4Z"/>
    <path class="cls-3" d="M362.3,311.3l.9-.6c.3.4.8,1.1,2.1,1.1s2-.6,2-1.8v-1.5h0c-.2.4-.7,1.2-2.1,1.2s-3.1-1.3-3.1-3.6,1.3-3.7,3.1-3.7,1.9.9,2.1,1.3h.1v-1.2h1.1v7.6c0,1.9-1.4,2.7-3.2,2.7s-2.5-.7-3-1.5ZM367.3,306.1c0-1.6-.7-2.7-2.1-2.7s-2.1,1.2-2.1,2.7.7,2.6,2.1,2.6,2.1-1,2.1-2.6Z"/>
    <path class="cls-3" d="M375.8,300l3.3,8.1h.1l3.3-8.1h1.4v9.8h-1.1v-7.5h0l-3.1,7.5h-1.1l-3.1-7.5h0v7.5h-1.1v-9.8h1.4Z"/>
    <path class="cls-3" d="M385.9,307.8c0-1.7,1.5-2,2.9-2.2,1.3-.2,1.9-.1,1.9-.7h0c0-1-.5-1.5-1.6-1.5s-1.7.6-1.9,1.1l-1.1-.4c.6-1.3,1.8-1.7,3-1.7s2.7.3,2.7,2.6v4.8h-1.1v-1h0c-.2.5-.9,1.2-2.2,1.2s-2.5-.8-2.5-2.3ZM390.7,307.2v-1c-.2.2-1.5.4-2,.4-.9.1-1.7.4-1.7,1.2s.7,1.2,1.6,1.2c1.3,0,2.1-.9,2.1-1.8Z"/>
    <path class="cls-3" d="M395,309.9h-1.1v-7.4h1.1v1.1h0c.3-.7,1-1.2,2.1-1.2s2.5.9,2.5,2.8v4.7h-1.1v-4.6c0-1.2-.6-1.8-1.7-1.8s-1.9.7-1.9,2v4.4Z"/>
    <path class="cls-3" d="M401.4,307.8c0-1.7,1.5-2,2.9-2.2,1.3-.2,1.9-.1,1.9-.7h0c0-1-.5-1.5-1.6-1.5s-1.7.6-1.9,1.1l-1.1-.4c.6-1.3,1.8-1.7,3-1.7s2.7.3,2.7,2.6v4.8h-1.1v-1h0c-.2.5-.9,1.2-2.2,1.2s-2.5-.8-2.5-2.3ZM406.1,307.2v-1c-.2.2-1.5.4-2,.4-.9.1-1.7.4-1.7,1.2s.7,1.2,1.6,1.2c1.3,0,2.1-.9,2.1-1.8Z"/>
    <path class="cls-3" d="M409.3,311.3l.9-.6c.3.4.8,1.1,2.1,1.1s2.1-.6,2.1-1.8v-1.5h0c-.2.4-.7,1.2-2.1,1.2s-3.1-1.3-3.1-3.6,1.3-3.7,3.1-3.7,1.9.9,2.1,1.3h.1v-1.2h1.1v7.6c0,1.9-1.4,2.7-3.2,2.7s-2.5-.7-3-1.5ZM414.4,306.1c0-1.6-.7-2.7-2.1-2.7s-2.1,1.2-2.1,2.7.7,2.6,2.1,2.6,2.1-1,2.1-2.6Z"/>
    <path class="cls-3" d="M417.2,306.2c0-2.3,1.3-3.8,3.3-3.8s3.2.9,3.2,3.7v.5h-5.3c0,1.6,1,2.4,2.3,2.4s1.6-.4,1.8-1.1l1.1.3c-.3,1.1-1.4,1.9-2.9,1.9-2.1,0-3.4-1.5-3.4-3.8ZM422.5,305.6c0-1.2-.8-2.2-2-2.2s-2.1,1-2.2,2.2h4.2Z"/>
    <path class="cls-3" d="M425.4,302.5h1.1v1.1h0c.3-.8,1-1.2,2-1.2s1.6.5,2,1.2h0c.4-.8,1.1-1.2,2.2-1.2s2.2.8,2.2,2.5v4.9h-1.1v-4.9c0-1.1-.7-1.5-1.5-1.5s-1.6.7-1.6,1.6v4.8h-1.1v-5c0-.8-.6-1.4-1.5-1.4s-1.7.8-1.7,1.8v4.6h-1.1v-7.4Z"/>
    <path class="cls-3" d="M436.8,306.2c0-2.3,1.3-3.8,3.3-3.8s3.2.9,3.2,3.7v.5h-5.3c0,1.6,1,2.4,2.3,2.4s1.6-.4,1.8-1.1l1.1.3c-.3,1.1-1.4,1.9-2.9,1.9-2.1,0-3.4-1.5-3.4-3.8ZM442.1,305.6c0-1.2-.8-2.2-2-2.2s-2.1,1-2.2,2.2h4.2Z"/>
    <path class="cls-3" d="M446.1,309.9h-1.1v-7.4h1.1v1.1h0c.3-.7,1-1.2,2.1-1.2s2.5.9,2.5,2.8v4.7h-1.1v-4.6c0-1.2-.6-1.8-1.7-1.8s-1.9.7-1.9,2v4.4Z"/>
    <path class="cls-3" d="M456.1,303.5h-1.6v4.3c0,1,.5,1.1,1,1.1s.4,0,.5,0l.2,1c-.2,0-.4.1-.8.1-1,0-2-.6-2-1.9v-4.6h-1.1v-1h1.1v-1.8h1.1v1.8h1.6v1Z"/>
    <path class="cls-3" d="M464.8,301c-1.3,0-2.2.7-2.2,1.6s1.2,1.4,1.9,1.6l1,.3c1,.3,2.8.9,2.8,2.7s-1.3,2.8-3.5,2.8-3.4-1.1-3.5-2.7h1.2c0,1.1,1.1,1.6,2.3,1.6s2.4-.7,2.4-1.8-.9-1.3-2-1.6l-1.2-.3c-1.5-.4-2.5-1.2-2.5-2.5s1.5-2.7,3.4-2.7,3.3,1.1,3.3,2.6h-1.1c-.1-1-1-1.5-2.2-1.5Z"/>
    <path class="cls-3" d="M470,312.5l.3-1c.8.2,1.3.1,1.7-1l.2-.6-2.7-7.4h1.2l2,5.9h0l2-5.9h1.2l-3.1,8.4c-.4,1.1-1.1,1.7-2.2,1.7s-.7,0-.8-.1Z"/>
    <path class="cls-3" d="M481.7,304.4c-.2-.5-.6-1.1-1.6-1.1s-1.6.5-1.6,1.1.4.9,1.3,1.1l1.1.3c1.3.3,2,1,2,2s-1.2,2.2-2.9,2.2-2.5-.7-2.8-1.9l1.1-.3c.2.8.8,1.2,1.7,1.2s1.7-.5,1.7-1.1-.3-.9-1.1-1l-1.2-.3c-1.4-.3-2-1-2-2s1.1-2.1,2.7-2.1,2.3.7,2.6,1.7l-1,.3Z"/>
    <path class="cls-3" d="M487.7,303.5h-1.6v4.3c0,1,.5,1.1,1,1.1s.4,0,.5,0l.2,1c-.2,0-.4.1-.8.1-1,0-2-.6-2-1.9v-4.6h-1.1v-1h1.1v-1.8h1.1v1.8h1.6v1Z"/>
    <path class="cls-3" d="M488.9,306.2c0-2.3,1.3-3.8,3.3-3.8s3.2.9,3.2,3.7v.5h-5.3c0,1.6,1,2.4,2.3,2.4s1.6-.4,1.8-1.1l1.1.3c-.3,1.1-1.4,1.9-2.9,1.9-2.1,0-3.4-1.5-3.4-3.8ZM494.2,305.6c0-1.2-.8-2.2-2-2.2s-2.1,1-2.2,2.2h4.2Z"/>
    <path class="cls-3" d="M497.1,302.5h1.1v1.1h0c.3-.8,1-1.2,2-1.2s1.6.5,2,1.2h0c.4-.8,1.1-1.2,2.2-1.2s2.2.8,2.2,2.5v4.9h-1.1v-4.9c0-1.1-.7-1.5-1.5-1.5s-1.6.7-1.6,1.6v4.8h-1.1v-5c0-.8-.6-1.4-1.5-1.4s-1.7.8-1.7,1.8v4.6h-1.1v-7.4Z"/>
  </g>
  <rect class="cls-3" x="86.5" y="324.2" width="481.9" height="1.5"/>
  <g>
    <path class="cls-3" d="M95.6,356.4h-1.8l-4.3-6.2h0v6.2h-2.1v-9.8h1.8l4.2,6.2h0v-6.2h2.1v9.8Z"/>
    <path class="cls-3" d="M97.1,347.1c0-.6.5-1,1.1-1s1.1.5,1.1,1-.5,1-1.1,1-1.1-.5-1.1-1ZM97.2,349.1h2v7.4h-2v-7.4Z"/>
    <path class="cls-3" d="M100.9,346.6h2v5.2h.1l2.4-2.8h2.3l-2.7,3.2,2.9,4.2h-2.4l-2-3-.6.6v2.3h-2v-9.8Z"/>
    <path class="cls-3" d="M108.2,352.8c0-2.3,1.4-3.8,3.6-3.8s3.6,1.5,3.6,3.8-1.4,3.8-3.6,3.8-3.6-1.5-3.6-3.8ZM113.3,352.7c0-1.3-.5-2.2-1.5-2.2s-1.6.9-1.6,2.2.5,2.2,1.6,2.2,1.5-.9,1.5-2.2Z"/>
    <path class="cls-3" d="M118.8,356.4h-2v-9.8h2v9.8Z"/>
    <path class="cls-3" d="M120.1,354.4c0-1.6,1.3-2.1,2.8-2.3,1.3-.1,1.8-.2,1.8-.7h0c0-.6-.4-1-1.1-1s-1.2.4-1.3.8l-1.9-.2c.3-1.3,1.4-2.2,3.2-2.2s3.1.7,3.1,2.5v5h-1.9v-1h0c-.4.7-1.1,1.2-2.2,1.2s-2.4-.7-2.4-2.2ZM124.6,353.8v-.8c-.2.2-1,.3-1.4.3-.7.1-1.2.4-1.2,1s.5.9,1.1.9c.9,0,1.5-.6,1.5-1.4Z"/>
    <path class="cls-3" d="M128.2,347.1c0-.6.5-1,1.1-1s1.1.5,1.1,1-.5,1-1.1,1-1.1-.5-1.1-1ZM128.2,349.1h2v7.4h-2v-7.4Z"/>
    <path class="cls-3" d="M135.7,356.4v-9.8h3.5c3,0,4.8,1.8,4.8,4.9s-1.8,4.9-4.8,4.9h-3.5ZM139.1,354.6c1.8,0,2.8-.9,2.8-3.1s-1-3.1-2.8-3.1h-1.3v6.3h1.3Z"/>
    <path class="cls-3" d="M145.2,352.8c0-2.3,1.4-3.8,3.6-3.8s3.5,1.2,3.5,3.7v.6h-5c0,1.1.6,1.8,1.7,1.8s1.2-.3,1.4-.9h1.9c-.3,1.5-1.5,2.4-3.3,2.4s-3.7-1.5-3.7-3.8ZM150.3,352c0-.9-.6-1.5-1.5-1.5s-1.5.7-1.6,1.5h3.1Z"/>
    <path class="cls-3" d="M155.6,356.4h-2v-7.4h1.9v1.3h0c.3-.9,1.1-1.4,2.2-1.4s2.5,1.1,2.5,2.8v4.7h-2v-4.3c0-.9-.5-1.4-1.3-1.4s-1.4.6-1.4,1.5v4.3Z"/>
    <path class="cls-3" d="M161.8,347.1c0-.6.5-1,1.1-1s1.1.5,1.1,1-.5,1-1.1,1-1.1-.5-1.1-1ZM161.9,349.1h2v7.4h-2v-7.4Z"/>
    <path class="cls-3" d="M169.8,351.3c-.1-.5-.5-.9-1.2-.9s-1.1.3-1.1.7c0,.4.2.6.9.7l1.3.3c1.4.3,2.1.9,2.1,2,0,1.5-1.4,2.4-3.3,2.4s-3.1-.9-3.3-2.3h2c.1.5.6.8,1.3.8s1.2-.3,1.2-.7c0-.4-.3-.6-.9-.7l-1.3-.3c-1.4-.3-2.1-1-2.1-2.1,0-1.4,1.2-2.3,3.1-2.3s3,.8,3.1,2.2h-1.9Z"/>
    <path class="cls-3" d="M177.4,351.3c-.1-.5-.5-.9-1.2-.9s-1.1.3-1.1.7c0,.4.2.6.9.7l1.3.3c1.4.3,2.1.9,2.1,2,0,1.5-1.4,2.4-3.3,2.4s-3.1-.9-3.3-2.3h2c.1.5.6.8,1.3.8s1.2-.3,1.2-.7c0-.4-.3-.6-.9-.7l-1.3-.3c-1.4-.3-2.1-1-2.1-2.1,0-1.4,1.2-2.3,3.1-2.3s3,.8,3.1,2.2h-1.9Z"/>
    <path class="cls-3" d="M180.4,352.8c0-2.3,1.4-3.8,3.6-3.8s3.6,1.5,3.6,3.8-1.4,3.8-3.6,3.8-3.6-1.5-3.6-3.8ZM185.6,352.7c0-1.3-.5-2.2-1.5-2.2s-1.6.9-1.6,2.2.5,2.2,1.6,2.2,1.5-.9,1.5-2.2Z"/>
    <path class="cls-3" d="M193,356.4h-2.3l-2.6-7.4h2.2l1.5,5.3h0l1.5-5.3h2.2l-2.6,7.4Z"/>
  </g>
  <rect class="cls-3" x="477.2" y="785.8" width="1.5" height="14.4"/>
  <g>
    <path class="cls-3" d="M486.1,787.8l2.8,6.8h0l2.8-6.8h1.2v8.2h-.9v-6.2h0l-2.6,6.2h-.9l-2.6-6.2h0v6.2h-.9v-8.2h1.2Z"/>
    <path class="cls-3" d="M494.5,794.2c0-1.4,1.2-1.7,2.4-1.8,1.1-.1,1.6-.1,1.6-.6h0c0-.8-.4-1.3-1.3-1.3s-1.4.5-1.6.9l-.9-.3c.5-1.1,1.5-1.4,2.5-1.4s2.3.2,2.3,2.2v4h-.9v-.8h0c-.2.4-.8,1-1.8,1s-2.1-.7-2.1-1.9ZM498.4,793.7v-.9c-.2.2-1.2.3-1.6.4-.7,0-1.4.3-1.4,1s.5,1,1.3,1c1.1,0,1.7-.8,1.7-1.5Z"/>
    <path class="cls-3" d="M504.6,791.4c-.2-.4-.5-.9-1.3-.9s-1.3.4-1.3.9.3.7,1.1.9l.9.2c1.1.3,1.6.8,1.6,1.7s-1,1.8-2.4,1.8-2.1-.6-2.3-1.6l.9-.2c.2.7.7,1,1.4,1s1.4-.4,1.4-1-.3-.7-.9-.9l-1-.2c-1.1-.3-1.6-.8-1.6-1.7s1-1.8,2.3-1.8,1.9.6,2.2,1.5l-.8.2Z"/>
    <path class="cls-3" d="M509.6,790.6h-1.3v3.6c0,.8.4.9.8.9s.3,0,.4,0l.2.8c-.1,0-.4.1-.7.1-.8,0-1.7-.5-1.7-1.6v-3.8h-.9v-.8h.9v-1.5h.9v1.5h1.3v.8Z"/>
    <path class="cls-3" d="M510.6,792.9c0-1.9,1.1-3.2,2.8-3.2s2.6.8,2.6,3.1v.4h-4.5c0,1.3.8,2,1.9,2s1.3-.3,1.5-1l.9.3c-.3.9-1.2,1.6-2.4,1.6-1.8,0-2.9-1.3-2.9-3.2ZM515,792.4c0-1-.7-1.8-1.7-1.8s-1.8.9-1.8,1.8h3.5Z"/>
    <path class="cls-3" d="M517.4,789.8h.9v.9h0c.2-.6.9-1,1.6-1s.4,0,.5,0v1c0,0-.3,0-.6,0-.9,0-1.6.6-1.6,1.4v3.9h-.9v-6.1Z"/>
    <path class="cls-3" d="M522.4,788.5c0,.7-.4,1.5-1,2l-.5-.4c.3-.5.6-1,.6-1.6v-.7h.9v.7Z"/>
    <path class="cls-3" d="M526.9,791.4c-.2-.4-.5-.9-1.3-.9s-1.3.4-1.3.9.3.7,1.1.9l.9.2c1.1.3,1.6.8,1.6,1.7s-1,1.8-2.4,1.8-2.1-.6-2.3-1.6l.9-.2c.2.7.7,1,1.4,1s1.4-.4,1.4-1-.3-.7-.9-.9l-1-.2c-1.1-.3-1.6-.8-1.6-1.7s1-1.8,2.3-1.8,1.9.6,2.2,1.5l-.8.2Z"/>
    <path class="cls-3" d="M532.1,787.8h6.1v.9h-2.6v7.3h-1v-7.3h-2.6v-.9Z"/>
    <path class="cls-3" d="M540.6,795.9h-.9v-8.2h.9v3h0c.3-.6.8-1,1.8-1s2.1.7,2.1,2.3v3.9h-.9v-3.8c0-1-.5-1.5-1.4-1.5s-1.6.6-1.6,1.7v3.7Z"/>
    <path class="cls-3" d="M546,792.9c0-1.9,1.1-3.2,2.8-3.2s2.6.8,2.6,3.1v.4h-4.5c0,1.3.8,2,1.9,2s1.3-.3,1.5-1l.9.3c-.3.9-1.2,1.6-2.4,1.6-1.8,0-2.9-1.3-2.9-3.2ZM550.4,792.4c0-1-.7-1.8-1.7-1.8s-1.8.9-1.8,1.8h3.5Z"/>
    <path class="cls-3" d="M556.3,791.4c-.2-.4-.5-.9-1.3-.9s-1.3.4-1.3.9.3.7,1.1.9l.9.2c1.1.3,1.6.8,1.6,1.7s-1,1.8-2.4,1.8-2.1-.6-2.3-1.6l.9-.2c.2.7.7,1,1.4,1s1.4-.4,1.4-1-.3-.7-.9-.9l-1-.2c-1.1-.3-1.6-.8-1.6-1.7s1-1.8,2.3-1.8,1.9.6,2.2,1.5l-.8.2Z"/>
    <path class="cls-3" d="M558.5,788.1c0-.4.3-.6.7-.6s.7.3.7.6-.3.6-.7.6-.7-.3-.7-.6ZM558.7,789.8h.9v6.1h-.9v-6.1Z"/>
    <path class="cls-3" d="M564.9,791.4c-.2-.4-.5-.9-1.3-.9s-1.3.4-1.3.9.3.7,1.1.9l.9.2c1.1.3,1.6.8,1.6,1.7s-1,1.8-2.4,1.8-2.1-.6-2.3-1.6l.9-.2c.2.7.7,1,1.4,1s1.4-.4,1.4-1-.3-.7-.9-.9l-1-.2c-1.1-.3-1.6-.8-1.6-1.7s1-1.8,2.3-1.8,1.9.6,2.2,1.5l-.8.2Z"/>
  </g>
  <rect class="cls-3" x="477.2" y="800.3" width="1.5" height="14.4"/>
  <g>
    <path class="cls-3" d="M484.8,809.7l2.7-3c.9-1,1.4-1.6,1.4-2.4s-.7-1.4-1.6-1.4-1.6.6-1.6,1.6h-.9c0-1.4,1.1-2.4,2.5-2.4s2.5,1,2.5,2.3-.4,1.6-1.8,3.1l-1.8,2h0c0,0,3.8,0,3.8,0v.9h-5.2v-.7Z"/>
    <path class="cls-3" d="M491.4,806.3c0-2.7,1.1-4.2,2.8-4.2s2.8,1.6,2.8,4.2-1,4.2-2.8,4.2-2.8-1.5-2.8-4.2ZM496.1,806.3c0-2.1-.7-3.3-1.9-3.3s-1.9,1.2-1.9,3.3.7,3.3,1.9,3.3,1.9-1.2,1.9-3.3Z"/>
    <path class="cls-3" d="M498.6,809.7l2.7-3c.9-1,1.4-1.6,1.4-2.4s-.7-1.4-1.6-1.4-1.6.6-1.6,1.6h-.9c0-1.4,1.1-2.4,2.5-2.4s2.5,1,2.5,2.3-.4,1.6-1.8,3.1l-1.8,2h0c0,0,3.8,0,3.8,0v.9h-5.2v-.7Z"/>
    <path class="cls-3" d="M508.3,810.4h-1v-7.1h0l-2,1.3v-1l2-1.4h1v8.2Z"/>
  </g>
  <rect class="cls-1" x="26.7" y="37.7" width="595.3" height="841.9"/>
</svg>