<svg xmlns="http://www.w3.org/2000/svg" viewBox="0 0 13 13">
  <path fill="#CED0D6"
    d="M7,2H6v3.563C6,5.804,5.804,6,5.563,6H2v1h3.563C5.804,7,6,7.196,6,7.437V11h1V7.437
  C7,7.196,7.196,7,7.437,7H11V6H7.437C7.196,6,7,5.804,7,5.563V2z M8,1.437v3.127C8,4.804,8.196,5,8.437,5h3.127
  C11.804,5,12,5.196,12,5.437v2.127C12,7.804,11.804,8,11.563,8H8.437C8.196,8,8,8.196,8,8.437v3.127C8,11.804,7.804,12,7.563,12
  H5.437C5.196,12,5,11.804,5,11.563V8.437C5,8.196,4.804,8,4.563,8H1.437C1.196,8,1,7.804,1,7.563V5.437C1,5.196,1.196,5,1.437,5
  h3.127C4.804,5,5,4.804,5,4.563V1.437C5,1.196,5.196,1,5.437,1h2.127C7.804,1,8,1.196,8,1.437z" />
  <path fill="#CED0D6"
    d="M5.222,1h2.039c0.304,0,0.507,0.313,0.383,0.59L3.12,11.751C3.052,11.902,2.902,12,2.737,12H0.697
  c-0.304,0-0.507-0.313-0.383-0.59L4.839,1.249C4.907,1.098,5.057,1,5.222,1z" />
  <path fill="#CED0D6" d="M8,8" />
</svg>