<svg xmlns="http://www.w3.org/2000/svg" viewBox="0 0 16 16">
  <path fill="#63344F"
    d="M7,14.5c-0.3,0-0.5-0.2-0.5-0.5v-3.1l-1.7,3.4c-0.1,0.2-0.3,0.3-0.4,0.3H1.6c-0.2,0-0.3-0.1-0.4-0.2
  s-0.1-0.3,0-0.5l1.7-3.3c-0.2-0.1-0.3-0.3-0.3-0.5V7c0-0.3,0.2-0.5,0.5-0.5h1.8l1.9-3.7c0.1-0.2,0.3-0.3,0.4-0.3H10
  c0.3,0,0.5,0.2,0.5,0.5v3.5H14c0.3,0,0.5,0.2,0.5,0.5v3c0,0.3-0.2,0.5-0.5,0.5h-3.5V14c0,0.3-0.2,0.5-0.5,0.5H7z" />
  <path fill="#FF0090"
    d="M10,3v4h4v3h-4v4H7v-4H6.4l-2.1,4H1.6l2-4H3V7h2.1l2-4H10 M10,2H7.1C6.7,2,6.4,2.2,6.2,2.6L4.5,6H3
  C2.4,6,2,6.4,2,7v3c0,0.2,0.1,0.4,0.2,0.6l-1.5,3c-0.2,0.3-0.1,0.7,0,1C0.9,14.8,1.2,15,1.6,15h2.7c0.4,0,0.7-0.2,0.9-0.5L6,12.9
  V14c0,0.6,0.4,1,1,1h3c0.6,0,1-0.4,1-1v-3h3c0.6,0,1-0.4,1-1V7c0-0.6-0.4-1-1-1h-3V3C11,2.4,10.6,2,10,2L10,2z" />
</svg>