<svg xmlns="http://www.w3.org/2000/svg" viewBox="0 0 16 16">
<path fill="none" stroke="#FF0090" d="M4,3.5h6c0.83,0,1.5,0.67,1.5,1.5v7c0,0.83-0.67,1.5-1.5,1.5H4c-0.83,0-1.5-0.67-1.5-1.5V5
	C2.5,4.17,3.17,3.5,4,3.5z"/>
<path fill="#FF0090" d="M5.5,6h3C8.78,6,9,6.22,9,6.5l0,0C9,6.78,8.78,7,8.5,7h-3C5.22,7,5,6.78,5,6.5l0,0C5,6.22,5.22,6,5.5,6z"/>
<path fill="#FF0090" d="M5.5,8h3C8.78,8,9,8.22,9,8.5l0,0C9,8.78,8.78,9,8.5,9h-3C5.22,9,5,8.78,5,8.5l0,0C5,8.22,5.22,8,5.5,8z"/>
<path fill="#FF0090" d="M5.5,10h3C8.78,10,9,10.22,9,10.5l0,0C9,10.78,8.78,11,8.5,11h-3C5.22,11,5,10.78,5,10.5l0,0
	C5,10.22,5.22,10,5.5,10z"/>
<path fill-rule="evenodd" fill="#FF0090" d="M11,2h0.6C12.37,2,13,2.63,13,3.4v0.51c0,0.03,0,0.06,0,0.09v7.55
	c0.6-0.44,1-1.15,1-1.95V3.4C14,2.07,12.93,1,11.6,1H6.4C5.6,1,4.89,1.39,4.45,2H6.4H11z"/>
</svg>
