<svg xmlns="http://www.w3.org/2000/svg" viewBox="0 0 16 16">
  <path fill-rule="evenodd" fill="#FF0090"
    d="M10.85,8.35c0.2-0.2,0.2-0.51,0-0.71c-0.2-0.2-0.51-0.2-0.71,0L8.5,9.29V2.5
  C8.5,2.22,8.28,2,8,2C7.72,2,7.5,2.22,7.5,2.5v6.79L5.85,7.65c-0.2-0.2-0.51-0.2-0.71,0c-0.2,0.2-0.2,0.51,0,0.71l2.5,2.5
  c0.2,0.2,0.51,0.2,0.71,0L10.85,8.35z" />
  <path fill="#CED0D6"
    d="M2.5,14h11c0.28,0,0.5-0.22,0.5-0.5l0,0c0-0.28-0.22-0.5-0.5-0.5h-11C2.22,13,2,13.22,2,13.5l0,0
  C2,13.78,2.22,14,2.5,14z" />
  <path fill="#CED0D6"
    d="M2.5,10L2.5,10C2.78,10,3,10.22,3,10.5v3C3,13.78,2.78,14,2.5,14l0,0C2.22,14,2,13.78,2,13.5v-3
  C2,10.22,2.22,10,2.5,10z" />
  <path fill="#CED0D6"
    d="M13.5,10L13.5,10c0.28,0,0.5,0.22,0.5,0.5v3c0,0.28-0.22,0.5-0.5,0.5l0,0c-0.28,0-0.5-0.22-0.5-0.5v-3
  C13,10.22,13.22,10,13.5,10z" />
</svg>