<svg xmlns="http://www.w3.org/2000/svg" viewBox="0 0 16 16">
  <path fill-rule="evenodd" fill="#FF0090"
    d="M14.59,2.81C13.44,2.29,10.14,1.1,8,3.2C5.86,1.1,2.56,2.29,1.41,2.81
  C1.15,2.93,1,3.19,1,3.47v9.39c0,0.47,0.6,0.76,1,0.52c1.29-0.76,3.59-1.58,5.61,0.52c0.1,0.11,0.25,0.16,0.39,0.15
  c0.14,0.01,0.29-0.04,0.39-0.15c2.02-2.1,4.32-1.28,5.61-0.52c0.4,0.24,1-0.05,1-0.52V3.47C15,3.19,14.85,2.93,14.59,2.81z
   M7.5,12.49c-0.98-0.71-2.02-0.96-3.01-0.92C3.53,11.61,2.67,11.91,2,12.24v-8.6C2.61,3.39,3.62,3.04,4.67,3
  C5.72,2.97,6.73,3.23,7.5,4.13V12.49z M14,12.24c-0.67-0.33-1.53-0.63-2.49-0.67c-0.99-0.04-2.03,0.21-3.01,0.92V4.13
  c0.77-0.9,1.78-1.16,2.83-1.13c1.05,0.04,2.06,0.39,2.67,0.64V12.24z" />
  <path fill-rule="evenodd" fill="#FFE0F2"
    d="M14,3.64v8.6c-0.67-0.33-1.53-0.63-2.49-0.67c-0.99-0.04-2.03,0.21-3.01,0.92V4.13
  c0.77-0.9,1.78-1.16,2.83-1.13C12.38,3.04,13.39,3.39,14,3.64z" />
  <path fill-rule="evenodd" fill="#FFE0F2"
    d="M7.5,4.13v8.36c-0.98-0.71-2.02-0.96-3.01-0.92C3.53,11.61,2.67,11.91,2,12.24v-8.6
  C2.61,3.39,3.62,3.04,4.67,3C5.72,2.97,6.73,3.23,7.5,4.13z" />
</svg>