<svg xmlns="http://www.w3.org/2000/svg" viewBox="0 0 16 16">
  <path fill="#6C707E"
    d="M15,6v3.1c-0.2-0.2-0.5-0.2-0.8-0.3c0-0.2-0.1-0.5-0.2-0.7V6c0-0.5-0.5-1-1-1H8L6.1,3H2.6
  C2.4,3,2,3.3,2,3.9v8.3C2,12.7,2.4,13,2.6,13h4l0,0.1c-0.1,0.3-0.2,0.6-0.2,0.9H2.6C1.8,14,1,13.3,1,12.1V3.9C1,2.7,1.8,2,2.6,2
  h3.5c0.3,0,0.5,0.1,0.7,0.3L8.5,4H13C14.1,4,15,4.9,15,6z" />
  <path fill="#EBECF0"
    d="M14,6v2.2C13.7,7.5,13,7,12.2,7h-1.3c-0.8,0-1.5,0.4-1.8,1.1L8.7,8.8c-1,0.1-1.7,1-1.7,2v1.4L6.6,13h-4
  C2.4,13,2,12.7,2,12.1V3.9C2,3.3,2.4,3,2.6,3h3.5L8,5h5C13.5,5,14,5.4,14,6z" />
  <path fill="#FFE0F2"
    d="M10.8,14.5c-0.3,0-0.5-0.2-0.5-0.5v-0.3l-0.3,0.5c-0.1,0.2-0.3,0.3-0.4,0.3H8.4c-0.2,0-0.3-0.1-0.4-0.2
  s-0.1-0.3,0-0.5l0.7-1.3c0-0.1-0.1-0.2-0.1-0.3v-1.4c0-0.3,0.2-0.5,0.5-0.5h0.6l0.8-1.5c0.1-0.2,0.3-0.3,0.4-0.3h1.3
  c0.3,0,0.5,0.2,0.5,0.5v1.3H14c0.3,0,0.5,0.2,0.5,0.5v1.4c0,0.3-0.2,0.5-0.5,0.5h-1.3V14c0,0.3-0.2,0.5-0.5,0.5H10.8z" />
  <path fill="#FF0090"
    d="M12.2,9v1.8H14v1.4h-1.8V14h-1.4v-1.8h-0.3L9.6,14H8.4l0.9-1.8H9v-1.4h1L10.9,9H12.2 M12.2,8h-1.3
  c-0.4,0-0.7,0.2-0.9,0.6L9.3,9.8H9c-0.6,0-1,0.4-1,1v1.4c0,0.1,0,0.2,0,0.2l-0.6,1.1c-0.2,0.3-0.1,0.7,0,1C7.7,14.8,8,15,8.4,15
  h1.2c0.2,0,0.4-0.1,0.6-0.2c0.2,0.1,0.4,0.2,0.6,0.2h1.4c0.6,0,1-0.4,1-1v-0.8H14c0.6,0,1-0.4,1-1v-1.4c0-0.6-0.4-1-1-1h-0.8V9
  C13.2,8.4,12.7,8,12.2,8L12.2,8z" />
</svg>