<svg width="45" height="20" viewBox="0 0 34 15" fill="none" xmlns="http://www.w3.org/2000/svg">
      <rect width="34" height="15" rx="7.5" fill="#FF0090" />
      <path
            d="M20.9707 11L19.4863 5.54544H21.0169L21.862 9.21021H21.9118L22.7924 5.54544H24.2946L25.1895 9.18891H25.2356L26.0666 5.54544H27.5936L26.1127 11H24.5112L23.5737 7.56959H23.5062L22.5687 11H20.9707Z"
            fill="white" />
      <path
            d="M16.443 11.1065C15.8819 11.1065 15.399 10.9929 14.9942 10.7656C14.5917 10.536 14.2816 10.2116 14.0638 9.79261C13.846 9.37121 13.7371 8.87286 13.7371 8.29758C13.7371 7.7365 13.846 7.24408 14.0638 6.82031C14.2816 6.39654 14.5881 6.06628 14.9835 5.82954C15.3812 5.5928 15.8476 5.47443 16.3827 5.47443C16.7425 5.47443 17.0775 5.53243 17.3876 5.64843C17.7001 5.76207 17.9724 5.93371 18.2044 6.16335C18.4388 6.39299 18.6211 6.68181 18.7513 7.02982C18.8815 7.37547 18.9466 7.7803 18.9466 8.24431V8.6598H14.3408V7.7223H17.5226C17.5226 7.50449 17.4752 7.31155 17.3805 7.14346C17.2858 6.97537 17.1544 6.84398 16.9864 6.74928C16.8206 6.65222 16.6277 6.60369 16.4075 6.60369C16.1779 6.60369 15.9743 6.65695 15.7967 6.76349C15.6215 6.86765 15.4842 7.00852 15.3848 7.18607C15.2854 7.36126 15.2345 7.55658 15.2321 7.77201V8.66335C15.2321 8.93323 15.2818 9.16642 15.3812 9.36292C15.483 9.55942 15.6263 9.71093 15.8109 9.81747C15.9956 9.924 16.2146 9.97727 16.4679 9.97727C16.636 9.97727 16.7899 9.95359 16.9295 9.90624C17.0692 9.8589 17.1888 9.78787 17.2882 9.69318C17.3876 9.59848 17.4634 9.48247 17.5155 9.34516L18.9146 9.43749C18.8436 9.77367 18.698 10.0672 18.4778 10.3182C18.26 10.5668 17.9783 10.7609 17.6327 10.9006C17.2894 11.0379 16.8928 11.1065 16.443 11.1065Z"
            fill="white" />
      <path
            d="M12.7152 3.72726V11H11.3871L8.22299 6.42258H8.16972V11H6.63208V3.72726H7.98151L11.1207 8.30113H11.1846V3.72726H12.7152Z"
            fill="white" />
</svg>