<svg xmlns="http://www.w3.org/2000/svg" viewBox="0 0 16 16">
  <circle fill="#4682FA" cx="8" cy="8" r="7" />
  <path fill="#FFFFFF"
    d="M7.964,11.922c-0.196,0-0.364-0.069-0.505-0.208c-0.141-0.141-0.211-0.31-0.211-0.508
  c0-0.196,0.07-0.363,0.211-0.501c0.141-0.141,0.309-0.211,0.505-0.211c0.193,0,0.36,0.07,0.501,0.211
  c0.143,0.138,0.215,0.305,0.215,0.501c0,0.131-0.033,0.252-0.1,0.362c-0.064,0.107-0.15,0.193-0.258,0.258
  C8.215,11.89,8.096,11.922,7.964,11.922z" />
  <path fill="#FFFFFF"
    d="M7.908,9.4c-0.267,0-0.484-0.216-0.484-0.484l0,0c0.005-0.424,0.049-0.573,0.132-0.824
  c0.086-0.251,0.208-0.454,0.365-0.609C8.08,7.328,8.269,7.187,8.491,7.059c0.143-0.087,0.272-0.184,0.387-0.291
  c0.115-0.107,0.205-0.23,0.272-0.369c0.067-0.139,0.1-0.296,0.1-0.465c0-0.203-0.05-0.379-0.15-0.527
  c-0.1-0.148-0.234-0.262-0.401-0.342C8.534,4.983,8.35,4.942,8.147,4.942c-0.184,0-0.359,0.036-0.526,0.109
  C7.454,5.125,7.316,5.239,7.206,5.394C7.184,5.424,7.163,5.457,7.145,5.491C7.009,5.747,6.791,5.985,6.502,5.985l0,0
  c-0.313,0-0.574-0.266-0.481-0.565c0.054-0.175,0.132-0.333,0.233-0.475c0.2-0.285,0.465-0.501,0.795-0.647
  C7.38,4.153,7.746,4.08,8.147,4.08c0.439,0,0.823,0.079,1.153,0.236c0.329,0.155,0.585,0.373,0.766,0.653
  c0.184,0.278,0.276,0.603,0.276,0.975c0,0.255-0.041,0.489-0.125,0.694c-0.084,0.203-0.203,0.384-0.358,0.544
  c-0.153,0.16-0.337,0.301-0.551,0.424C9.105,7.727,8.94,7.853,8.813,7.983c-0.124,0.13-0.215,0.245-0.273,0.423
  C8.484,8.583,8.453,8.654,8.448,8.916l0,0c0,0.267-0.216,0.484-0.484,0.484H7.908z" />
</svg>