<svg xmlns="http://www.w3.org/2000/svg" viewBox="0 0 16 16">
<path fill="#FF0090" d="M15.24,5.95l-7-3.89c-0.15-0.08-0.33-0.08-0.48,0l-7,3.89C0.6,6.04,0.5,6.21,0.5,6.39s0.1,0.35,0.26,0.44
	L3.5,8.35v3.4c0,0.19,0.11,0.36,0.28,0.45l4,2c0.14,0.07,0.3,0.07,0.44,0l4-2c0.17-0.09,0.28-0.26,0.28-0.45v-3.4l2-1.11v3.04
	c0,0.27,0.22,0.5,0.5,0.5s0.5-0.23,0.5-0.5V6.39C15.5,6.21,15.4,6.04,15.24,5.95z M11.5,11.44L8,13.19l-3.5-1.75V8.91l3.26,1.81
	c0.15,0.08,0.33,0.08,0.48,0l3.26-1.81V11.44z M8,9.71L2.03,6.39L8,3.07l5.97,3.32L8,9.71z"/>
<path fill="#FFE0F2" d="M11.5,8.91v2.53L8,13.19l-3.5-1.75V8.91l3.26,1.81c0.15,0.08,0.33,0.08,0.48,0L11.5,8.91z"/>
<polygon fill="#FFE0F2" points="13.97,6.39 8,9.71 2.03,6.39 8,3.07 "/>
</svg>
