<svg xmlns="http://www.w3.org/2000/svg" viewBox="0 0 16 16">
    <path fill="#FF0090"
        d="M10.9,4.6c0.2,0.2,0.2,0.5,0,0.7c-0.2,0.2-0.5,0.2-0.7,0L8.5,3.7v6.8
    C8.5,10.8,8.3,11,8,11c-0.3,0-0.5-0.2-0.5-0.5V3.7L5.9,5.4c-0.2,0.2-0.5,0.2-0.7,0S5,4.8,5.1,4.6l2.5-2.5C7.8,2,8.2,2,8.4,2.1
    L10.9,4.6z" />
    <path fill="#CED0D6"
        d="M2.5,14h11c0.3,0,0.5-0.2,0.5-0.5l0,0c0-0.3-0.2-0.5-0.5-0.5h-11C2.2,13,2,13.2,2,13.5l0,0
    C2,13.8,2.2,14,2.5,14z" />
    <path fill="#CED0D6"
        d="M2.5,10L2.5,10C2.8,10,3,10.2,3,10.5v3C3,13.8,2.8,14,2.5,14l0,0C2.2,14,2,13.8,2,13.5v-3
    C2,10.2,2.2,10,2.5,10z" />
    <path fill="#CED0D6"
        d="M13.5,10L13.5,10c0.3,0,0.5,0.2,0.5,0.5v3c0,0.3-0.2,0.5-0.5,0.5l0,0c-0.3,0-0.5-0.2-0.5-0.5v-3
    C13,10.2,13.2,10,13.5,10z" />
</svg>