<svg xmlns="http://www.w3.org/2000/svg" viewBox="0 0 16 16">
<circle fill="none" stroke="#FF0090" cx="8" cy="8" r="6.5"/>
<path fill="none" stroke="#FF0090" d="M10.5,8c0,1.9-0.3,3.6-0.8,4.8c-0.3,0.6-0.5,1-0.8,1.3c-0.3,0.3-0.6,0.4-0.8,0.4
	c-0.2,0-0.5-0.1-0.8-0.4c-0.3-0.3-0.6-0.7-0.8-1.3C5.8,11.6,5.5,9.9,5.5,8s0.3-3.6,0.8-4.8c0.3-0.6,0.5-1,0.8-1.3
	C7.5,1.6,7.8,1.5,8,1.5c0.2,0,0.5,0.1,0.8,0.4c0.3,0.3,0.6,0.7,0.8,1.3C10.2,4.4,10.5,6.1,10.5,8z"/>
<path fill="none" stroke="#FF0090" d="M14.2,5.5H1.8"/>
<path fill="none" stroke="#FF0090" d="M14.2,10.5H1.8"/>
</svg>
