<?xml version="1.0" encoding="UTF-8" standalone="no"?>
<svg
  xmlns:osb="http://www.openswatchbook.org/uri/2009/osb"
  xmlns:dc="http://purl.org/dc/elements/1.1/"
  xmlns:cc="http://creativecommons.org/ns#"
  xmlns:rdf="http://www.w3.org/1999/02/22-rdf-syntax-ns#"
  xmlns="http://www.w3.org/2000/svg"
  xmlns:sodipodi="http://sodipodi.sourceforge.net/DTD/sodipodi-0.dtd"
  xmlns:inkscape="http://www.inkscape.org/namespaces/inkscape"
  sodipodi:docname="aPlusLogo.svg"
  inkscape:version="0.92.3 (2405546, 2018-03-11)"
  id="svg1054"
  version="1.1"
  viewBox="0 0 4.2333337 4.2408009"
  height="16.028223"
  width="16.000002"
  inkscape:export-filename="/Users/oseppala/Downloads/logo3d-smaller.png"
  inkscape:export-xdpi="96"
  inkscape:export-ydpi="96">
  <defs
     id="defs1048">
    <linearGradient
       osb:paint="gradient"
       id="linearGradient1741">
      <stop
         id="stop1737"
         offset="0"
         style="stop-color:#00ff00;stop-opacity:1;" />
      <stop
         id="stop1739"
         offset="1"
         style="stop-color:#00ff00;stop-opacity:0;" />
    </linearGradient>
  </defs>
  <sodipodi:namedview
     inkscape:snap-object-midpoints="true"
     inkscape:bbox-nodes="true"
     inkscape:snap-bbox="true"
     inkscape:snap-global="true"
     inkscape:window-maximized="1"
     inkscape:window-y="34"
     inkscape:window-x="67"
     inkscape:window-height="1018"
     inkscape:window-width="1853"
     showgrid="true"
     inkscape:document-rotation="0"
     inkscape:current-layer="layer1"
     inkscape:document-units="px"
     inkscape:cy="8.889496"
     inkscape:cx="8.8702028"
     inkscape:zoom="63.107102"
     inkscape:pageshadow="2"
     inkscape:pageopacity="0.0"
     borderopacity="1.0"
     bordercolor="#666666"
     pagecolor="#ffffff"
     id="base"
     units="px"
     inkscape:object-nodes="false"
     fit-margin-top="0"
     fit-margin-left="0"
     fit-margin-right="0"
     fit-margin-bottom="0">
    <inkscape:grid
       type="xygrid"
       id="grid2030"
       empspacing="4"
       originx="-3.1835794"
       originy="-3.1680759" />
  </sodipodi:namedview>
  <metadata
     id="metadata1051">
    <rdf:RDF>
      <cc:Work
         rdf:about="">
        <dc:format>image/svg+xml</dc:format>
        <dc:type
           rdf:resource="http://purl.org/dc/dcmitype/StillImage" />
        <dc:title />
      </cc:Work>
    </rdf:RDF>
  </metadata>
  <g
     id="layer1"
     inkscape:groupmode="layer"
     inkscape:label="Layer 1"
     transform="translate(-3.1835796,-3.1744574)">
    <g
       id="g2036"
       transform="matrix(0.03859666,0.00147497,-0.0013739,0.03736516,1.5495124,1.080686)"
       style="fill:#6e6e6e;fill-opacity:0.39215687">
      <path
         style="fill:#6e6e6e;fill-opacity:0.39215687;stroke:#000000;stroke-width:3.07195997;stroke-linecap:butt;stroke-linejoin:miter;stroke-miterlimit:4;stroke-dasharray:none;stroke-opacity:1"
         d="m 64.281024,60.644785 c 16.340419,-8.219008 46.886796,-9.224859 63.962516,-2.556831 l 3.77121,22.573319 c 6.88867,0.573217 11.13529,1.641508 18.7375,5.710198 3.93123,15.626869 5.20304,23.372239 0.83448,40.781429 l -11.15382,6.13333 9.1447,28.70891 -85.117377,3.45279 2.030449,-28.71807 C 62.202246,135.5264 52.361384,132.76031 50.758316,130.89055 48.238349,117.96761 46.197773,108.3248 49.365336,92.964348 55.62599,88.050876 69.074179,86.711709 69.074179,86.711709 l 1.701395,-4.300202 -5.984843,-4.843671 z"
         id="path1124"
         sodipodi:nodetypes="ccccccccccccccc"
         inkscape:connector-curvature="0" />
      <path
         sodipodi:nodetypes="cccccccccccccccccccccccc"
         d="m 73.414046,66.888317 0.295561,7.132376 6.142952,5.694385 -3.031133,13.45729 c -7.580257,0.90339 -11.580806,1.424906 -19.305126,5.740044 -1.296916,11.937988 -1.047118,14.513878 1.016149,25.535158 6.789269,3.23132 9.513754,5.03398 16.869242,6.00042 l -1.743412,24.98644 24.854113,-0.97565 2.101918,-22.15458 5.79938,-0.22893 3.83265,21.9414 27.78499,-0.93292 -7.24623,-25.39733 c 7.44581,-1.11504 13.7442,-7.21015 13.7442,-7.21015 0,0 1.11736,-10.32563 -0.70417,-24.850928 -8.0001,-4.014295 -9.41394,-4.727682 -17.89961,-5.08915 L 119.32624,65.23429 C 106.32123,60.874939 89.924423,61.832824 73.414046,66.888317 Z m 31.855264,30.160845 c 0,0 0.47547,13.068878 0.63619,16.359858 l -6.447015,0.2545 -0.626259,-16.324574 c 2.662664,-1.120185 6.437084,-0.289784 6.437084,-0.289784 z"
         style="fill:#6e6e6e;fill-opacity:0.39215687;fill-rule:evenodd;stroke:#000000;stroke-width:3.10163999;stroke-linecap:butt;stroke-linejoin:miter;stroke-miterlimit:4;stroke-dasharray:none;stroke-opacity:1"
         id="path1716-2"
         inkscape:connector-curvature="0" />
    </g>
  </g>
</svg>
