<?xml version="1.0" encoding="UTF-8" standalone="no"?>
<svg
   xmlns:dc="http://purl.org/dc/elements/1.1/"
   xmlns:cc="http://creativecommons.org/ns#"
   xmlns:rdf="http://www.w3.org/1999/02/22-rdf-syntax-ns#"
   xmlns:svg="http://www.w3.org/2000/svg"
   xmlns="http://www.w3.org/2000/svg"
   xmlns:sodipodi="http://sodipodi.sourceforge.net/DTD/sodipodi-0.dtd"
   xmlns:inkscape="http://www.inkscape.org/namespaces/inkscape"
   width="16"
   height="16"
   viewBox="0 0 16 16"
   version="1.1"
   id="svg8"
   sodipodi:docname="exercise.svg"
   inkscape:version="0.92.3 (2405546, 2018-03-11)">
  <metadata
     id="metadata14">
    <rdf:RDF>
      <cc:Work
         rdf:about="">
        <dc:format>image/svg+xml</dc:format>
        <dc:type
           rdf:resource="http://purl.org/dc/dcmitype/StillImage" />
      </cc:Work>
    </rdf:RDF>
  </metadata>
  <defs
     id="defs12" />
  <sodipodi:namedview
     pagecolor="#ffffff"
     bordercolor="#666666"
     borderopacity="1"
     objecttolerance="10"
     gridtolerance="10"
     guidetolerance="10"
     inkscape:pageopacity="0"
     inkscape:pageshadow="2"
     inkscape:window-width="1853"
     inkscape:window-height="1018"
     id="namedview10"
     showgrid="false"
     inkscape:zoom="14.75"
     inkscape:cx="8"
     inkscape:cy="8"
     inkscape:window-x="67"
     inkscape:window-y="34"
     inkscape:window-maximized="1"
     inkscape:current-layer="svg8" />
  <g
     fill="none"
     fill-rule="evenodd"
     id="g6">
    <polygon
       fill="#62B543"
       fill-opacity=".7"
       points="1 1.5 7 4 7 14 1 12"
       id="polygon2" />
    <polygon
       fill="#9AA7B0"
       fill-opacity=".8"
       points="8 1.5 14 4 14 14 8 12"
       transform="matrix(-1 0 0 1 22 0)"
       id="polygon4" />
  </g>
  <path
     style="opacity:1;fill:#afb1b3;fill-opacity:1;stroke-width:0.06779661"
     d="M 3.9661017,13.022899 0.98305085,12.022601 0.96568405,6.7490471 C 0.9485947,1.5597425 0.95041746,1.4760418 1.0797781,1.5098704 c 0.072304,0.018908 1.444646,0.5792948 3.04965,1.2453045 L 7.0476172,3.9661017 7.0492321,9 c 8.881e-4,2.768644 -0.021266,5.03149 -0.049232,5.028547 -0.027966,-0.0029 -1.3932203,-0.455485 -3.0338984,-1.005648 z"
     id="path821"
     inkscape:connector-curvature="0" />
  <path
     style="opacity:1;fill:#ff0090;fill-opacity:1;stroke-width:0.06779661"
     d="M 8,9.0065783 V 3.964751 l 2.969797,-1.2366128 c 1.633389,-0.680137 2.991016,-1.2366128 3.016949,-1.2366128 0.02593,0 0.04715,2.3722999 0.04715,5.2717774 V 12.03508 l -2.932203,0.975346 C 9.4889831,13.546866 8.1313559,13.999864 8.0847458,14.017089 8.0174281,14.041965 8,13.011544 8,9.0065783 Z"
     id="path823"
     inkscape:connector-curvature="0" />
</svg>
