<?xml version="1.0" encoding="UTF-8"?>
<svg width="16" height="16" version="1.1" viewBox="0 0 16 16" xmlns="http://www.w3.org/2000/svg" xmlns:cc="http://creativecommons.org/ns#" xmlns:dc="http://purl.org/dc/elements/1.1/" xmlns:rdf="http://www.w3.org/1999/02/22-rdf-syntax-ns#">
 <metadata>
  <rdf:RDF>
   <cc:Work rdf:about="">
    <dc:format>image/svg+xml</dc:format>
    <dc:type rdf:resource="http://purl.org/dc/dcmitype/StillImage"/>
   </cc:Work>
  </rdf:RDF>
 </metadata>
 <defs>
  <clipPath id="clipPath3494">
   <g display="none">
    <rect x="4" y="5" width="7.9232" height="1" d="m 4,5 h 7.923182 V 6 H 4 Z" fill="#fff" style="paint-order:stroke fill markers"/>
    <rect x="4" y="7" width="7.9232" height="1" d="m 4,7 h 7.923182 V 8 H 4 Z" fill="#fff" style="paint-order:stroke fill markers"/>
    <rect x="4" y="9" width="7.9232" height="1" d="m 4,9 h 7.923182 v 1 H 4 Z" fill="#fff" style="paint-order:stroke fill markers"/>
   </g>
   <path class="powerclip" d="m-4.0399-3.0299h24.04v23.03h-24.04zm8.0399 8.0299v1h7.9232v-1zm0 2v1h7.9232v-1zm0 2v1h7.9232v-1z"/>
  </clipPath>
 </defs>
 <rect id="frame" width="16" height="16" fill="none"/>
 <path d="m1 15-0.039907-11.03c-0.007236-2 2-2 2-2h10c2 0 2 2 2 2l0.039907 7.0299c0.01135 2-2 2-2 2h-10c0 2-2 2-2 2z" clip-path="url(#clipPath3494)" fill="#ff0090"/>
</svg>
