<?xml version="1.0" encoding="UTF-8" standalone="no"?>
<svg
   xmlns:dc="http://purl.org/dc/elements/1.1/"
   xmlns:cc="http://creativecommons.org/ns#"
   xmlns:rdf="http://www.w3.org/1999/02/22-rdf-syntax-ns#"
   xmlns:svg="http://www.w3.org/2000/svg"
   xmlns="http://www.w3.org/2000/svg"
   xmlns:sodipodi="http://sodipodi.sourceforge.net/DTD/sodipodi-0.dtd"
   xmlns:inkscape="http://www.inkscape.org/namespaces/inkscape"
   width="16"
   height="16"
   viewBox="0 0 16 16"
   version="1.1"
   id="svg9"
   sodipodi:docname="fullPointsNMS.svg"
   inkscape:version="0.92.3 (2405546, 2018-03-11)">
  <metadata
     id="metadata15">
    <rdf:RDF>
      <cc:Work
         rdf:about="">
        <dc:format>image/svg+xml</dc:format>
        <dc:type
           rdf:resource="http://purl.org/dc/dcmitype/StillImage" />
      </cc:Work>
    </rdf:RDF>
  </metadata>
  <defs
     id="defs13" />
  <sodipodi:namedview
     pagecolor="#ffffff"
     bordercolor="#666666"
     borderopacity="1"
     objecttolerance="10"
     gridtolerance="10"
     guidetolerance="10"
     inkscape:pageopacity="0"
     inkscape:pageshadow="2"
     inkscape:window-width="1853"
     inkscape:window-height="1018"
     id="namedview11"
     showgrid="false"
     inkscape:zoom="14.75"
     inkscape:cx="-5.9661017"
     inkscape:cy="8"
     inkscape:window-x="67"
     inkscape:window-y="34"
     inkscape:window-maximized="1"
     inkscape:current-layer="svg9" />
  <rect
     id="frame"
     width="16"
     height="16"
     fill="none" />
  <g
     fill="none"
     fill-rule="evenodd"
     id="g7">
    <circle
       cx="8"
       cy="8"
       r="7"
       fill="#62B543"
       id="circle3" />
    <path
       fill="#FFF"
       d="M4.5 6.5L7 9l4.5-4.5L13 6l-6 6-4-4z"
       id="path5" />
  </g>
  <path
     style="opacity:1;fill:#ffffff;fill-opacity:1;stroke-width:0.06779661"
     d="M 4.9830287,9.9660796 3.0177817,7.9999558 3.7460323,7.2717052 4.4742831,6.5434544 5.7288209,7.7966176 6.9833588,9.0497806 9.2382079,6.7956851 11.493057,4.5415895 12.220696,5.2714921 12.948336,6.0013946 9.9823566,8.9667991 C 8.3510683,10.597771 7.0010548,11.932203 6.9823268,11.932203 c -0.018728,0 -0.9184122,-0.884755 -1.9992981,-1.9661234 z"
     id="path825"
     inkscape:connector-curvature="0" />
  <path
     style="opacity:1;fill:#5cb85c;fill-opacity:1;stroke-width:0.06779661"
     d="M 7.1327739,14.982839 C 6.4335937,14.884515 5.6283184,14.650957 5.042791,14.376671 1.5203017,12.726582 -0.00624997,8.5499227 1.6286054,5.0354267 2.8809812,2.3431578 5.7994685,0.68045506 8.6961383,1.008955 9.6283207,1.1146702 10.273153,1.3002813 11.084746,1.6965018 15.344292,3.776016 16.358542,9.36912 13.102083,12.821139 12.106904,13.876081 10.848625,14.585607 9.4466725,14.882374 8.8496407,15.008755 7.6786136,15.059599 7.1327739,14.982839 Z M 10.016279,9.0006725 13.016175,6.0013453 12.254591,5.2375944 11.493006,4.4738434 9.2544373,6.7116643 7.0158686,8.9494854 5.7967763,7.7289797 C 5.1262755,7.057702 4.5463373,6.5084746 4.5080247,6.5084746 c -0.038313,0 -0.4043747,0.3357567 -0.8134716,0.7461259 L 2.9507407,8.0007268 4.9495157,10.000363 C 6.0488419,11.100163 6.9636117,12 6.9823374,12 7.0010631,12 8.3663369,10.650302 10.016279,9.0006725 Z"
     id="path846"
     inkscape:connector-curvature="0" />
  <path
     style="opacity:1;fill:#000000;fill-opacity:1;stroke-width:0.06779661"
     d="M 4.9830287,9.9660796 3.0177817,7.9999558 3.7460323,7.2717052 4.4742831,6.5434544 5.7288209,7.7966176 6.9833588,9.0497806 9.2382079,6.7956851 11.493057,4.5415895 12.220696,5.2714921 12.948336,6.0013946 9.9823566,8.9667991 C 8.3510683,10.597771 7.0010548,11.932203 6.9823268,11.932203 c -0.018728,0 -0.9184122,-0.884755 -1.9992981,-1.9661234 z"
     id="path817"
     inkscape:connector-curvature="0" />
</svg>
