<?xml version="1.0" encoding="UTF-8" standalone="no"?>
<svg
        xmlns:dc="http://purl.org/dc/elements/1.1/"
        xmlns:cc="http://creativecommons.org/ns#"
        xmlns:rdf="http://www.w3.org/1999/02/22-rdf-syntax-ns#"
        xmlns="http://www.w3.org/2000/svg"
        xmlns:sodipodi="http://sodipodi.sourceforge.net/DTD/sodipodi-0.dtd"
        xmlns:inkscape="http://www.inkscape.org/namespaces/inkscape"
        width="16"
        height="16"
        viewBox="0 0 16 16"
        version="1.1"
        id="svg5"
        sodipodi:docname="questionDialog.svg"
        inkscape:version="0.92.3 (2405546, 2018-03-11)">
    <metadata
            id="metadata11">
        <rdf:RDF>
            <cc:Work
                    rdf:about="">
                <dc:format>image/svg+xml</dc:format>
                <dc:type
                        rdf:resource="http://purl.org/dc/dcmitype/StillImage"/>
                <dc:title></dc:title>
            </cc:Work>
        </rdf:RDF>
    </metadata>
    <defs
            id="defs9"/>
    <sodipodi:namedview
            pagecolor="#ffffff"
            bordercolor="#666666"
            borderopacity="1"
            objecttolerance="10"
            gridtolerance="10"
            guidetolerance="10"
            inkscape:pageopacity="0"
            inkscape:pageshadow="2"
            inkscape:window-width="1853"
            inkscape:window-height="1018"
            id="namedview7"
            showgrid="false"
            fit-margin-top="0"
            fit-margin-left="0"
            fit-margin-right="0"
            fit-margin-bottom="0"
            inkscape:zoom="7.375"
            inkscape:cx="8"
            inkscape:cy="8"
            inkscape:window-x="67"
            inkscape:window-y="34"
            inkscape:window-maximized="1"
            inkscape:current-layer="svg5"/>
    <rect
            id="frame"
            width="16"
            height="16"
            x="0"
            y="0"
            style="fill:none;stroke-width:0.5"/>
    <path
            d="m 8,15 c 3.866,0 7,-3.134 7,-7 C 15,4.134 11.866,1 8,1 4.134,1 1,4.134 1,8 c 0,3.866 3.134,7 7,7 z M 7,13 H 9 V 11 H 7 Z M 8,3 C 6,3 4.5,4.1585 4.5,6 h 2 C 6.5,5.0835 6.969,4.5 8,4.5 9.0315,4.5 9.5,5.0835 9.5,6 9.5,7.6665 7,7.2915 7,10 H 9 C 9,8.125 11.5,8.0835 11.5,6 11.5,4.1585 10,3 8,3 Z"
            id="path3"
            inkscape:connector-curvature="0"
            style="fill:#389fd6;fill-rule:evenodd;stroke-width:0.5"/>
    <path
            style="opacity:1;fill:#5bc0de;fill-opacity:1;stroke-width:0.13559322"
            d="M 6.779661,14.966005 C 5.3061935,14.679706 4.1519452,14.057001 3.047472,12.952528 0.82320168,10.728258 0.32330111,7.6130271 1.7305336,4.7457627 2.2069289,3.7750978 3.7721544,2.2135405 4.7496843,1.7336876 6.4963784,0.87626512 8.5931874,0.73241644 10.361936,1.3486669 c 3.96556,1.3816429 5.811953,6.0059365 3.932159,9.8480981 -0.716144,1.463743 -2.358222,2.909888 -3.921214,3.45333 -0.8014768,0.278668 -2.8554859,0.459254 -3.59322,0.31591 z M 8.9491525,12 V 11.118644 H 8 7.0508475 V 12 12.881356 H 8 8.9491525 Z M 9.0227866,9.4649475 C 9.0870972,9.1721433 9.4241855,8.7433608 10.062106,8.1429136 10.581383,7.6541417 11.092552,7.0894708 11.198038,6.8880895 11.625081,6.0728301 11.319374,4.6864594 10.555569,3.9745177 c -1.2335676,-1.1498065 -3.8775704,-1.1498065 -5.1111375,0 -0.4185194,0.3901013 -0.834262,1.214047 -0.834262,1.6533944 0,0.3463793 0.010967,0.3500997 0.9152542,0.3104865 0.8831524,-0.038687 0.9167427,-0.053001 0.957689,-0.4081045 0.067772,-0.5877443 0.7366762,-1.0557178 1.5090049,-1.0557178 0.7842097,0 1.2977803,0.3493814 1.4791553,1.0062676 0.2430212,0.8801504 0.045585,1.24103 -1.2591458,2.3015085 -0.6190101,0.503128 -1.1518856,1.3674057 -1.1583017,1.8786645 -0.00255,0.2034173 0.1309678,0.2372882 0.935401,0.2372882 h 0.9383789 z"
            id="path818"
            inkscape:connector-curvature="0"/>
</svg>
