<?xml version="1.0" encoding="UTF-8" standalone="no"?>
<svg
   xmlns:dc="http://purl.org/dc/elements/1.1/"
   xmlns:cc="http://creativecommons.org/ns#"
   xmlns:rdf="http://www.w3.org/1999/02/22-rdf-syntax-ns#"
   xmlns:svg="http://www.w3.org/2000/svg"
   xmlns="http://www.w3.org/2000/svg"
   xmlns:sodipodi="http://sodipodi.sourceforge.net/DTD/sodipodi-0.dtd"
   xmlns:inkscape="http://www.inkscape.org/namespaces/inkscape"
   width="16"
   height="16"
   viewBox="0 0 8 8"
   version="1.1"
   id="svg5"
   sodipodi:docname="questionDialog.svg"
   inkscape:version="0.92.3 (2405546, 2018-03-11)">
  <metadata
     id="metadata11">
    <rdf:RDF>
      <cc:Work
         rdf:about="">
        <dc:format>image/svg+xml</dc:format>
        <dc:type
           rdf:resource="http://purl.org/dc/dcmitype/StillImage" />
        <dc:title></dc:title>
      </cc:Work>
    </rdf:RDF>
  </metadata>
  <defs
     id="defs9" />
  <sodipodi:namedview
     pagecolor="#ffffff"
     bordercolor="#666666"
     borderopacity="1"
     objecttolerance="10"
     gridtolerance="10"
     guidetolerance="10"
     inkscape:pageopacity="0"
     inkscape:pageshadow="2"
     inkscape:window-width="1853"
     inkscape:window-height="1018"
     id="namedview7"
     showgrid="false"
     inkscape:zoom="8"
     inkscape:cx="-2.4800349"
     inkscape:cy="37.500762"
     inkscape:window-x="67"
     inkscape:window-y="34"
     inkscape:window-maximized="1"
     inkscape:current-layer="svg5"
     inkscape:snap-center="true"
     fit-margin-top="0"
     fit-margin-left="0"
     fit-margin-right="0"
     fit-margin-bottom="0" />
  <rect
     id="frame"
     width="8"
     height="8"
     x="0"
     y="0"
     style="fill:none;stroke-width:0.25" />
  <path
     d="M 4,7.5 C 5.933,7.5 7.5,5.933 7.5,4 7.5,2.067 5.933,0.5 4,0.5 2.067,0.5 0.5,2.067 0.5,4 0.5,5.933 2.067,7.5 4,7.5 Z m -0.5,-1 h 1 v -1 h -1 z M 4,1.5 C 3,1.5 2.25,2.07925 2.25,3 h 1 C 3.25,2.54175 3.4845,2.25 4,2.25 4.51575,2.25 4.75,2.54175 4.75,3 4.75,3.83325 3.5,3.64575 3.5,5 h 1 C 4.5,4.0625 5.75,4.04175 5.75,3 5.75,2.07925 5,1.5 4,1.5 Z"
     id="path3"
     inkscape:connector-curvature="0"
     style="fill:#389fd6;fill-rule:evenodd;stroke-width:0.25" />
  <path
     style="opacity:1;fill:#ffffff;fill-opacity:1;stroke-width:0.0338983"
     d="M 3.5376055,4.774098 C 3.5622955,4.537883 3.671239,4.275613 3.815579,4.104912 3.86926,4.041422 4.028054,3.905737 4.1684545,3.803379 4.680709,3.429925 4.7588755,3.320352 4.7569045,2.978498 4.7539545,2.469171 4.4683215,2.212678 3.937583,2.242797 3.536779,2.265537 3.329504,2.434053 3.2538035,2.798701 l -0.03827,0.18435 h -0.472173 -0.472173 v -0.09812 c 0,-0.287771 0.2106965,-0.703241 0.483494,-0.9533945 C 3.258632,1.4694155 4.3794985,1.3889405 5.0116215,1.769495 5.4949505,2.060472 5.75555,2.535891 5.7216105,3.064746 5.6958155,3.466721 5.6051825,3.597374 4.9690555,4.149629 4.6710955,4.408304 4.555199,4.571548 4.507961,4.799093 L 4.469771,4.983055 H 3.992769 3.515767 Z"
     id="path818"
     inkscape:connector-curvature="0" />
  <path
     style="opacity:1;fill:#ffffff;fill-opacity:1;stroke-width:0.0338983"
     d="M 3.53427,4.781648 C 3.554765,4.555609 3.6702565,4.27677 3.8135745,4.107294 3.8661535,4.045124 4.057876,3.881633 4.239626,3.743993 4.6976435,3.397132 4.7288135,3.347408 4.7288135,2.963618 c 0,-0.271925 -0.00975,-0.321802 -0.084163,-0.430397 C 4.503069,2.326598 4.3355785,2.254189 4,2.254531 3.5157155,2.255023 3.338089,2.403151 3.2381835,2.889831 l -0.019135,0.09322 H 2.745117 2.2711865 v -0.09812 c 0,-0.168178 0.128595,-0.524167 0.252093,-0.69787 C 2.6524515,2.005379 2.8594365,1.8272545 3.0620655,1.723402 3.393749,1.553405 4.0124005,1.478105 4.4287165,1.5570575 5.246405,1.712129 5.7746765,2.333783 5.7214095,3.078259 5.6933945,3.469771 5.5980875,3.60362 4.9299855,4.189705 4.6834945,4.405936 4.533202,4.635641 4.4940795,4.855936 L 4.4715045,4.983055 H 3.993756 3.5160075 Z"
     id="path820"
     inkscape:connector-curvature="0" />
  <path
     style="opacity:1;fill:#ffffff;fill-opacity:1;stroke-width:0.0338983"
     d="M 3.525424,6 V 5.525423 H 4 4.474576 V 6 6.474576 H 4 3.525424 Z"
     id="path822"
     inkscape:connector-curvature="0" />
  <path
     style="opacity:1;fill:#ffffff;fill-opacity:1;stroke-width:0.0338983"
     d="M 3.525424,6 V 5.525423 H 4 4.474576 V 6 6.474576 H 4 3.525424 Z"
     id="path824"
     inkscape:connector-curvature="0" />
  <path
     style="opacity:1;fill:#ffffff;fill-opacity:1;stroke-width:0.0338983"
     d="M 3.53427,4.781648 C 3.554615,4.557292 3.670069,4.276982 3.8105405,4.110899 3.8614505,4.050709 4.0603695,3.880055 4.2525825,3.731672 4.659243,3.417742 4.745763,3.28434 4.745763,2.97126 4.745763,2.474221 4.410383,2.193607 3.8870975,2.25281 3.495127,2.29715 3.336309,2.453426 3.2396865,2.889831 l -0.02064,0.09322 h -0.478672 -0.478673 l 0.01878,-0.177966 C 2.3351115,2.287401 2.7115615,1.8455695 3.275279,1.637512 3.589194,1.521652 4.182898,1.4904105 4.508474,1.57262 c 0.515352,0.130129 0.8874775,0.411391 1.090892,0.824525 0.1047165,0.212679 0.112498,0.251983 0.112498,0.568211 0,0.313845 -0.00773,0.353679 -0.10139,0.522808 C 5.547325,3.602192 5.4066865,3.761914 5.2375925,3.911643 4.6728705,4.411695 4.565284,4.553079 4.49323,4.889832 L 4.473285,4.983052 H 3.9946455 3.516007 Z"
     id="path826"
     inkscape:connector-curvature="0" />
  <path
     style="opacity:1;fill:#ffffff;fill-opacity:0;stroke-width:0.0338983"
     d="M 3.566387,7.489127 C 2.75249,7.383419 2.0191655,7.010804 1.457723,6.417679 0.43734295,5.339719 0.19593375,3.775776 0.84645165,2.457627 1.598687,0.9333678 3.273481,0.1767762 4.9322035,0.6118803 5.894771,0.8643742 6.7525475,1.590412 7.188198,2.521396 7.791697,3.811071 7.539644,5.362599 6.557494,6.40373 5.7802905,7.227606 4.666021,7.631946 3.566387,7.489127 Z M 4.474576,6 V 5.525423 H 4 3.525424 V 6 6.474576 H 4 4.474576 Z M 4.508806,4.906779 C 4.509706,4.70349 4.6765665,4.468412 5.1323725,4.028372 5.6959655,3.484272 5.740385,3.400883 5.7233645,2.918887 5.7135645,2.641312 5.6971695,2.563186 5.6123405,2.389831 5.42391,2.004751 5.030897,1.696854 4.5718325,1.57467 4.3531545,1.5164665 3.73682,1.510093 3.4847195,1.56343 2.811552,1.7058465 2.3329715,2.204394 2.2602495,2.838986 l -0.01651,0.144068 H 2.7435945 3.243449 L 3.285944,2.793166 C 3.365509,2.43763 3.60135,2.270367 4.020882,2.271933 4.27329,2.272883 4.469162,2.359763 4.5971555,2.527571 4.6817345,2.638459 4.6965275,2.691199 4.706873,2.918753 4.723398,3.282147 4.666608,3.372897 4.172077,3.773387 3.685684,4.167287 3.5846805,4.330209 3.5114585,4.838986 l -0.020735,0.144067 h 0.508875 c 0.505025,0 0.5088775,-5.5e-4 0.509206,-0.07627 z"
     id="path828"
     inkscape:connector-curvature="0" />
  <path
     style="opacity:1;fill:#ffffff;fill-opacity:1;stroke-width:0.00423729"
     d="m 3.514813,4.967179 c 0.0012,-0.0087 0.00606,-0.05976 0.01077,-0.113365 C 3.535813,4.737379 3.546468,4.669977 3.565808,4.599408 3.625748,4.380705 3.731425,4.182589 3.851635,4.06356 3.917529,3.99831 4.061262,3.877848 4.243646,3.735008 4.4268445,3.59153 4.474496,3.551491 4.5381375,3.487565 4.6124605,3.412915 4.649787,3.363588 4.684251,3.294491 4.724636,3.213521 4.730136,3.167037 4.727856,2.925848 L 4.726256,2.756356 4.712416,2.712086 C 4.635218,2.465153 4.4610075,2.312007 4.2055065,2.266471 4.1642215,2.259071 4.1318545,2.256971 4.033428,2.255321 3.863615,2.252421 3.7858265,2.261121 3.6836785,2.294591 3.557075,2.336078 3.4617085,2.402805 3.39013,2.5 3.359495,2.54159 3.311836,2.636736 3.292715,2.694461 3.28118,2.729281 3.24515,2.873032 3.227814,2.95339 L 3.221874,2.98093 2.73998,2.98203 2.258086,2.98313 2.260336,2.96934 C 2.265186,2.94001 2.271166,2.87203 2.271166,2.846607 2.2711675,2.792997 2.299731,2.654092 2.33068,2.55719 2.394776,2.356504 2.5012775,2.184998 2.669719,2.011217 2.7699445,1.9078135 2.846357,1.8472115 2.9721635,1.7713505 3.0676045,1.7138005 3.135124,1.6832545 3.266908,1.6380095 3.41309,1.5878215 3.5446695,1.5606075 3.737267,1.5407255 c 0.219359,-0.022645 0.492937,-0.019445 0.661864,0.00774 0.116083,0.01868 0.272604,0.063705 0.405932,0.1167715 0.254836,0.101434 0.494219,0.284554 0.656936,0.502541 0.063334,0.08485 0.109143,0.163277 0.167095,0.286087 0.051369,0.10886 0.069447,0.170777 0.078395,0.268496 0.00255,0.02789 0.00648,0.06366 0.00873,0.07951 0.018125,0.127791 0.01244,0.298203 -0.01551,0.464931 C 5.685719,3.356212 5.635471,3.469291 5.5698965,3.561188 5.4861865,3.678499 5.3314975,3.835891 5.0741335,4.065611 4.84135,4.27339 4.757333,4.35772 4.678709,4.462505 4.579945,4.59413 4.541727,4.684642 4.4937795,4.900477 l -0.017885,0.08051 -0.4816565,0.0011 -0.481656,0.0011 z"
     id="path830"
     inkscape:connector-curvature="0" />
  <path
     style="opacity:1;fill:#ffffff;fill-opacity:1;stroke-width:0.00423729"
     d="m 3.5105565,4.977754 c 0.001,-0.0029 0.00572,-0.04724 0.0105,-0.09852 C 3.5404415,4.671143 3.5590215,4.586139 3.6173905,4.438557 3.6828505,4.273041 3.761909,4.148703 3.865539,4.048285 3.944235,3.972025 4.128704,3.819207 4.3153835,3.675615 4.4354625,3.583255 4.479092,3.546544 4.5340655,3.491628 4.6148515,3.410928 4.664618,3.342726 4.6954985,3.270397 4.7246435,3.202127 4.7303685,3.139423 4.7277235,2.91737 4.7258235,2.757524 4.7257235,2.756091 4.7145485,2.720336 4.6785385,2.605112 4.6331705,2.524767 4.562209,2.45054 4.511728,2.39774 4.462749,2.36138 4.400424,2.330446 4.277039,2.269206 4.1710095,2.251156 3.959746,2.255396 c -0.085872,0.0018 -0.121336,0.0042 -0.160804,0.01119 -0.1065665,0.0189 -0.19838,0.05444 -0.2776905,0.107491 -0.04266,0.02854 -0.1166035,0.102968 -0.144035,0.144987 -0.04575,0.07008 -0.087073,0.169311 -0.1058725,0.254237 -0.00516,0.02331 -0.017795,0.07867 -0.028075,0.123025 -0.01028,0.04436 -0.018695,0.08202 -0.018695,0.08369 0,0.0017 -0.2180415,0.0031 -0.484537,0.0031 H 2.255499 l 0.00355,-0.02224 c 0.00195,-0.01224 0.00557,-0.0518 0.00806,-0.08792 C 2.283894,2.629484 2.369499,2.391942 2.51203,2.193329 2.579762,2.098949 2.711077,1.958599 2.794503,1.8914275 2.9053765,1.802096 3.043935,1.720333 3.1652655,1.672582 3.3765685,1.589421 3.585314,1.5460755 3.855397,1.529277 c 0.1053235,-0.00655 0.3804105,-0.00275 0.4624105,0.0064 0.164195,0.01831 0.356829,0.070742 0.525424,0.1430145 C 5.126119,1.79996 5.386444,2.024043 5.5389535,2.277556 c 0.074942,0.124575 0.137354,0.264455 0.156253,0.350196 0.011895,0.05395 0.029355,0.215499 0.032225,0.29811 0.004,0.115748 -0.01114,0.289281 -0.03313,0.379238 C 5.6699515,3.4047 5.6130505,3.513445 5.533584,3.612239 5.4318445,3.738723 5.2149765,3.949343 4.947043,4.18188 4.8273165,4.28579 4.7004925,4.424794 4.6369505,4.521755 c -0.034725,0.05299 -0.07745,0.141951 -0.096395,0.200717 -0.01137,0.03527 -0.061733,0.246187 -0.061733,0.258534 0,0.0011 -0.2182665,0.0021 -0.485036,0.0021 -0.386173,0 -0.4846665,-0.0011 -0.483221,-0.0053 z"
     id="path832"
     inkscape:connector-curvature="0" />
  <path
     style="opacity:1;fill:#ffffff;fill-opacity:1;stroke-width:0.00423729"
     d="m 3.5085135,4.979873 c 1.57e-4,-0.01287 0.02245,-0.215924 0.027795,-0.253178 0.013605,-0.09484 0.035285,-0.176854 0.071402,-0.270153 0.066575,-0.171985 0.144343,-0.298346 0.2458405,-0.399453 0.08472,-0.08439 0.300405,-0.263183 0.4727205,-0.391856 0.201874,-0.150744 0.298654,-0.252004 0.358392,-0.374978 0.026215,-0.05396 0.03357,-0.08226 0.03966,-0.152543 0.00535,-0.06176 0.0057,-0.302912 5e-4,-0.356439 C 4.71718,2.70211 4.66648,2.582351 4.6074595,2.504 4.497635,2.358207 4.336395,2.27546 4.129372,2.258649 4.059823,2.253049 3.940323,2.253049 3.870319,2.258645 3.6724405,2.274595 3.508674,2.353925 3.4033765,2.484814 3.3424395,2.560564 3.2902845,2.67903 3.267041,2.794494 3.262341,2.817804 3.251351,2.869754 3.242606,2.90995 l -0.01591,0.07308 -0.48671,1e-5 -0.48671,1e-5 0.0026,-0.01801 C 2.257276,2.95514 2.261396,2.91366 2.264996,2.87288 2.280176,2.700874 2.316343,2.558196 2.380901,2.415667 2.454477,2.253229 2.548397,2.124792 2.7082395,1.968024 c 0.26784,-0.2626875 0.626099,-0.403352 1.117391,-0.4387255 0.081363,-0.00586 0.439693,-0.00265 0.496426,0.00445 0.194004,0.024245 0.4067365,0.086521 0.579154,0.169548 C 5.129114,1.813042 5.342969,1.992078 5.4859345,2.192818 5.5866655,2.334255 5.6806465,2.533357 5.700947,2.648327 5.735472,2.843854 5.736997,3.082371 5.704897,3.264852 5.683472,3.386618 5.614268,3.521627 5.510506,3.64409 5.425565,3.74434 5.1461515,4.014459 5.002152,4.135535 4.8403415,4.271585 4.719603,4.399414 4.6378695,4.521208 c -0.055387,0.08253 -0.1016025,0.1963 -0.123074,0.302966 -0.0061,0.03029 -0.015725,0.0748 -0.0214,0.09889 -0.00567,0.0241 -0.01031,0.04746 -0.01031,0.05191 0,0.0079 -0.01036,0.0081 -0.487288,0.0081 -0.2680085,0 -0.487271,-0.0014 -0.4872495,-0.0032 z"
     id="path834"
     inkscape:connector-curvature="0" />
  <path
     style="opacity:1;fill:#ffffff;fill-opacity:1;stroke-width:0.00423729"
     d="m 3.5084745,4.965947 c 0,-0.03225 0.02549,-0.243474 0.036115,-0.299305 0.03591,-0.188636 0.132543,-0.403504 0.242798,-0.539879 0.02913,-0.03603 0.103798,-0.110536 0.1598765,-0.159529 0.102515,-0.08956 0.275493,-0.228426 0.36033,-0.289268 0.196285,-0.140767 0.3154225,-0.262552 0.3749025,-0.383234 0.011555,-0.02343 0.024705,-0.05735 0.029225,-0.07536 0.011605,-0.04622 0.017065,-0.131155 0.016975,-0.26386 C 4.728581,2.79666 4.7247465,2.753651 4.7055865,2.696388 4.6489325,2.527058 4.5438985,2.402426 4.3961865,2.329259 4.2931105,2.278199 4.206157,2.260029 4.0444915,2.255779 3.850093,2.250679 3.7255615,2.270729 3.6070355,2.326269 3.5236175,2.365359 3.435692,2.437797 3.38587,2.508476 3.335324,2.580176 3.286376,2.699619 3.266918,2.79873 3.252993,2.86964 3.232838,2.967316 3.230408,2.975636 c -0.00205,0.007 -0.029005,0.0074 -0.489168,0.0074 H 2.2542375 v -0.01281 c 0,-0.02535 0.016965,-0.17712 0.025345,-0.226746 C 2.3154975,2.530829 2.3978,2.337067 2.522426,2.171777 2.619292,2.043304 2.767628,1.8988345 2.8855945,1.818075 3.0891615,1.6787145 3.330267,1.590839 3.623783,1.549029 3.769647,1.528249 3.7846575,1.527519 4.057205,1.527919 l 0.2584745,3.775e-4 0.07596,0.013355 c 0.331186,0.058222 0.605809,0.179274 0.829649,0.365704 C 5.39206,2.049587 5.5101805,2.198522 5.6094255,2.396751 5.7039915,2.585637 5.726045,2.693736 5.7264415,2.970337 5.7266685,3.129343 5.7224915,3.18863 5.7048565,3.275422 5.6833465,3.381381 5.6312055,3.490306 5.551095,3.596619 5.467306,3.707814 5.201527,3.96885 4.9933265,4.144434 4.867938,4.25018 4.776961,4.340985 4.698784,4.438423 4.599447,4.562233 4.541661,4.68595 4.512679,4.836862 c -0.01231,0.06409 -0.02564,0.129858 -0.02813,0.138772 -0.00195,0.007 -0.028875,0.0074 -0.4890735,0.0074 H 3.508473 Z"
     id="path836"
     inkscape:connector-curvature="0" />
  <path
     style="opacity:1;fill:#ffffff;fill-opacity:1;stroke-width:0.00423729"
     d="M 3.509691,4.935381 C 3.513041,4.871271 3.535776,4.697181 3.548496,4.638507 3.593231,4.432157 3.700061,4.21566 3.8225365,4.083156 3.9070385,3.991736 4.112367,3.819108 4.28973,3.690369 4.4147025,3.599659 4.4568345,3.564794 4.532302,3.489643 4.622791,3.399533 4.6694755,3.334575 4.69938,3.257166 4.72292,3.196236 4.72627,3.158706 4.726315,2.955509 4.7263625,2.748176 4.72584,2.744026 4.6888,2.651751 4.600654,2.432223 4.4236535,2.298304 4.176319,2.264005 c -0.072061,-0.01 -0.2896005,-0.0098 -0.3563875,2.33e-4 -0.124637,0.01882 -0.2367845,0.06383 -0.321952,0.129225 -0.014035,0.01078 -0.041085,0.03528 -0.060112,0.05445 -0.089123,0.08979 -0.154857,0.237088 -0.1811435,0.405905 -0.00704,0.04517 -0.02262,0.119874 -0.026235,0.125716 -0.0012,0.0019 -0.221343,0.0035 -0.489214,0.0035 H 2.2542375 l 6e-6,-0.02649 c 7.5e-6,-0.03014 0.01375,-0.154916 0.02369,-0.215042 C 2.3141885,2.522129 2.408811,2.30836 2.5442665,2.139809 2.6446905,2.014847 2.784193,1.8829905 2.8932695,1.8099345 3.100315,1.6712615 3.334602,1.5879985 3.6398315,1.544614 3.753168,1.528504 3.8210165,1.525539 4.077757,1.525469 c 0.2353495,-6.55e-5 0.2369855,-6e-6 0.2966105,0.010745 0.4145495,0.074747 0.709072,0.2198125 0.962563,0.474106 0.113995,0.114355 0.196748,0.230775 0.2742655,0.385846 C 5.710404,2.594627 5.733494,2.72137 5.727376,3.033877 5.723276,3.243044 5.706496,3.32726 5.644292,3.450802 5.583804,3.57093 5.538048,3.627678 5.3498355,3.815993 5.1942465,3.971667 5.151871,4.01099 5.020384,4.121716 4.7423295,4.355867 4.609553,4.521974 4.544574,4.716966 4.527119,4.769356 4.516559,4.815576 4.497844,4.92159 4.493744,4.9449 4.488764,4.96825 4.486814,4.9735 L 4.483264,4.983 H 3.995242 3.507219 Z"
     id="path838"
     inkscape:connector-curvature="0" />
  <path
     style="opacity:1;fill:#ffffff;fill-opacity:1;stroke-width:0.00423729"
     d="M 3.506717,4.945975 C 3.510167,4.895255 3.523947,4.776564 3.534202,4.709018 3.568402,4.483791 3.6735325,4.249319 3.8104615,4.092871 3.8869705,4.005451 4.090424,3.833495 4.2711875,3.703463 4.4264525,3.591772 4.513156,3.517539 4.587995,3.432221 4.65095,3.360451 4.6995775,3.274146 4.714183,3.20826 4.724713,3.16075 4.730878,2.974864 4.725933,2.853813 L 4.721583,2.747882 4.703998,2.695542 C 4.647534,2.527435 4.5434675,2.40351 4.3968665,2.3298 4.3575315,2.31003 4.2784335,2.28298 4.232809,2.27372 4.1153265,2.24987 3.8901985,2.24955 3.774016,2.27307 3.6262555,2.30299 3.509004,2.36799 3.4171845,2.470896 3.3397575,2.557666 3.2777725,2.707791 3.256553,2.859931 3.250733,2.901661 3.246488,2.924091 3.235068,2.973513 l -0.0022,0.0095 H 2.7429125 2.252935 l 0.0027,-0.05826 C 2.258685,2.859433 2.274355,2.739581 2.28813,2.676496 2.32607,2.502717 2.4077285,2.319346 2.50758,2.183708 2.601004,2.056802 2.770941,1.8894585 2.88357,1.8134575 3.090699,1.673688 3.329236,1.5875615 3.6279575,1.5446875 c 0.1229035,-0.01764 0.1814215,-0.01996 0.463141,-0.01836 l 0.262712,0.0015 0.06467,0.01372 c 0.3402365,0.072188 0.564856,0.1704495 0.780669,0.341508 0.0649,0.051441 0.1984335,0.1839225 0.245537,0.2436015 0.1107705,0.140344 0.213163,0.334869 0.250169,0.475274 0.02807,0.106502 0.03157,0.146207 0.03171,0.359906 1.315e-4,0.199735 -0.0027,0.247869 -0.01884,0.322385 -0.01217,0.05611 -0.027505,0.09815 -0.0594,0.162784 C 5.5952445,3.554591 5.5583395,3.603718 5.429726,3.738001 5.309666,3.863354 5.1567995,4.008827 5.0645645,4.0855 4.937866,4.190821 4.8868105,4.236916 4.81141,4.314055 4.7011945,4.426811 4.640025,4.508461 4.5894235,4.610363 c -0.04367,0.08795 -0.070582,0.178594 -0.087358,0.29427 -0.0037,0.02563 -0.00864,0.05376 -0.010935,0.0625 l -0.00415,0.01589 H 3.995593 3.504206 Z"
     id="path840"
     inkscape:connector-curvature="0" />
  <path
     style="opacity:1;fill:#ffffff;fill-opacity:1;stroke-width:0.00423729"
     d="m 3.5042375,4.960805 c 0,-0.03266 0.019385,-0.198717 0.031895,-0.273244 C 3.5715125,4.476835 3.671883,4.253885 3.799888,4.101695 3.874367,4.013145 4.0568635,3.857471 4.245761,3.72136 4.412959,3.600883 4.478847,3.54686 4.553249,3.46924 4.609918,3.41012 4.646348,3.361181 4.6751355,3.305501 c 0.02864,-0.05539 0.039215,-0.08923 0.044715,-0.143048 0.00706,-0.06907 0.00958,-0.218001 0.00541,-0.319397 l -0.00396,-0.0955 -0.01735,-0.0519 C 4.6202385,2.445284 4.4272015,2.292462 4.156751,2.262453 4.099219,2.256053 3.9005735,2.256053 3.843192,2.262374 3.71874,2.276154 3.594453,2.322634 3.50758,2.387873 3.462005,2.422093 3.4040225,2.482493 3.3767135,2.524191 c -0.060522,0.0924 -0.107089,0.227444 -0.122432,0.355054 -0.0025,0.02097 -0.00771,0.05291 -0.011525,0.07097 l -0.00694,0.03284 -0.4918635,3e-6 -0.491863,3e-6 0.0028,-0.06038 C 2.264825,2.709637 2.312945,2.527022 2.4081465,2.341107 2.4793625,2.20203 2.590952,2.062663 2.738084,1.9290385 2.8484295,1.8288235 2.921645,1.778227 3.0463515,1.7160075 3.217438,1.630648 3.397078,1.5766755 3.616911,1.5445845 c 0.1166925,-0.017035 0.1673115,-0.01916 0.4564525,-0.01916 h 0.275561 l 0.063867,0.013035 C 4.789952,1.6154315 5.0595885,1.744256 5.282568,1.9540135 5.3992805,2.063805 5.46265,2.137899 5.529172,2.242349 c 0.083695,0.131413 0.1392295,0.252633 0.1702615,0.371644 0.023525,0.09022 0.02577,0.114808 0.02812,0.307619 0.0038,0.311125 -0.00683,0.382053 -0.079292,0.529661 C 5.5928295,3.564193 5.5512245,3.617314 5.389794,3.781278 5.246289,3.927036 5.1750905,3.993478 5.0514395,4.097027 4.883866,4.23736 4.79253,4.325369 4.7115225,4.424564 4.5947405,4.567567 4.5300575,4.711723 4.506492,4.881508 c -0.0037,0.02672 -0.00881,0.0605 -0.01135,0.07506 l -0.0046,0.02648 H 3.997378 3.5042135 Z"
     id="path842"
     inkscape:connector-curvature="0" />
  <path
     style="opacity:1;fill:#ffffff;fill-opacity:1;stroke-width:0.00423729"
     d="m 3.5042375,4.950309 c 0,-0.03677 0.017375,-0.189522 0.030015,-0.263868 C 3.5664625,4.496997 3.652332,4.293567 3.763593,4.143134 3.814925,4.073734 3.9352995,3.959206 4.068711,3.852847 4.097341,3.830027 4.1748405,3.772317 4.240937,3.7246 4.4275625,3.589879 4.502512,3.527092 4.577324,3.442797 4.654551,3.355777 4.703611,3.26789 4.7161345,3.194117 c 0.00758,-0.04471 0.01217,-0.228053 0.0085,-0.340304 l -0.00345,-0.105931 -0.01534,-0.04661 c -0.01824,-0.05542 -0.052595,-0.126839 -0.083566,-0.173729 -0.02827,-0.0428 -0.114054,-0.12897 -0.155985,-0.156681 -0.066563,-0.04399 -0.1507285,-0.07891 -0.229681,-0.0953 -0.072239,-0.01499 -0.1271385,-0.01821 -0.271505,-0.0159 -0.126308,0.002 -0.140626,0.003 -0.1882415,0.01317 -0.1336035,0.02849 -0.234628,0.07854 -0.319176,0.158129 -0.04926,0.04637 -0.087402,0.09745 -0.1164305,0.155914 -0.04484,0.09031 -0.072429,0.18443 -0.086948,0.29661 -0.00455,0.03496 -0.00981,0.07119 -0.01175,0.08051 l -0.0035,0.01695 -0.4934865,0.0011 -0.493487,0.0011 0.00115,-0.03498 C 2.262198,2.675698 2.33652,2.433017 2.474536,2.225564 2.5759515,2.073071 2.74319,1.9037415 2.887746,1.8071345 3.101884,1.664026 3.3334765,1.5821025 3.6504585,1.537333 c 0.05898,-0.00833 0.086179,-0.0091 0.377539,-0.01075 l 0.31398,-0.0018 0.063139,0.0112 c 0.265111,0.047035 0.526048,0.150205 0.715681,0.282968 0.092939,0.065068 0.222032,0.182992 0.3027685,0.276575 0.1617865,0.187529 0.2846125,0.455075 0.3012575,0.656217 0.00523,0.06326 0.00501,0.382435 -2.995e-4,0.442555 -0.00235,0.02647 -0.00717,0.06221 -0.01072,0.07941 C 5.693509,3.371958 5.6326,3.504116 5.569482,3.586842 5.484857,3.697753 5.253634,3.929088 5.0996195,4.056928 4.830335,4.280449 4.704041,4.411327 4.620247,4.553706 4.550546,4.672138 4.521242,4.767645 4.496972,4.955483 l -0.0033,0.02543 -0.494703,0.0011 -0.4947035,0.0011 v -0.03278 z"
     id="path844"
     inkscape:connector-curvature="0" />
  <path
     style="opacity:1;fill:#ffffff;fill-opacity:1;stroke-width:0.00423729"
     d="m 3.5042375,4.94385 c 0,-0.03933 0.010805,-0.145285 0.02315,-0.226993 0.02078,-0.137506 0.058316,-0.25606 0.123006,-0.388467 C 3.7181165,4.189776 3.781253,4.104986 3.89624,3.998228 4.001839,3.900188 4.05278,3.859832 4.2589475,3.710898 4.424552,3.591267 4.5047705,3.523858 4.574474,3.445756 4.641964,3.370136 4.6925575,3.28638 4.7093625,3.222458 c 0.01254,-0.0477 0.015985,-0.119834 0.014315,-0.299687 L 4.7220275,2.747882 4.7059825,2.701272 C 4.6480765,2.533047 4.5455745,2.40832 4.406753,2.337165 4.328238,2.296925 4.2437445,2.272195 4.1531255,2.262955 c -0.056261,-0.0057 -0.2431045,-0.0058 -0.303352,-7.1e-5 -0.160574,0.01522 -0.3003125,0.07755 -0.4031125,0.1798 -0.04715,0.04689 -0.075147,0.08569 -0.1056135,0.146357 -0.050041,0.09964 -0.076139,0.194951 -0.090968,0.332226 -0.0025,0.02311 -0.00565,0.04647 -0.00702,0.05191 l -0.0025,0.0099 H 2.7452145 2.249874 l 0.00205,-0.02224 c 0.0011,-0.01224 0.0031,-0.04401 0.0044,-0.07061 C 2.261954,2.774793 2.286404,2.648394 2.326875,2.525458 2.3928,2.325162 2.4985045,2.159195 2.6695625,1.987365 2.8168575,1.839406 2.979611,1.7335385 3.1864155,1.651165 3.3054395,1.603755 3.4224465,1.572581 3.580078,1.5462795 3.6891805,1.5280745 3.7388805,1.5258845 4.059297,1.5251595 l 0.290254,-6.5e-4 0.069916,0.013365 c 0.1930865,0.036915 0.357643,0.090829 0.511462,0.167571 0.1551835,0.077423 0.254858,0.149018 0.3924515,0.2818935 0.2128445,0.205546 0.344272,0.442971 0.3975475,0.718171 0.00805,0.0416 0.00829,0.494585 3e-4,0.538136 C 5.699243,3.363204 5.62974,3.516264 5.555753,3.608052 5.457823,3.729546 5.265416,3.918975 5.0970735,4.059634 4.9198325,4.207728 4.844811,4.276003 4.7733875,4.354211 4.6860635,4.449831 4.6336575,4.523166 4.5904865,4.61016 4.5384045,4.715113 4.5152505,4.803227 4.4972355,4.965044 l -0.002,0.01801 H 3.9997585 3.504255 Z"
     id="path846"
     inkscape:connector-curvature="0" />
  <path
     style="opacity:1;fill:#ffffff;fill-opacity:1;stroke-width:0.00423729"
     d="M 3.505613,4.912094 C 3.512523,4.728233 3.549908,4.553666 3.615028,4.401183 3.680603,4.247633 3.7430275,4.152523 3.851268,4.041248 3.94336,3.946578 4.0111995,3.890324 4.184322,3.765091 4.4060615,3.604689 4.461994,3.560107 4.5386015,3.482699 4.6290005,3.391359 4.6880475,3.300377 4.710252,3.218221 4.721497,3.176611 4.725417,3.087647 4.723557,2.916428 L 4.721707,2.747882 4.707747,2.707622 C 4.633585,2.49379 4.5060095,2.362038 4.3094765,2.296328 4.2271815,2.268808 4.177404,2.262078 4.0376555,2.259578 3.861863,2.256478 3.784221,2.264978 3.6838385,2.298588 3.552259,2.342618 3.442652,2.424838 3.3736945,2.53124 3.3134995,2.62412 3.263708,2.777464 3.2524415,2.90466 c -0.00145,0.01631 -0.00375,0.04063 -0.00508,0.05403 l -0.00245,0.02436 H 2.7472935 2.249676 L 2.252126,2.94386 C 2.267936,2.691648 2.311196,2.52186 2.4076325,2.333511 2.5013475,2.150472 2.668397,1.9610535 2.8509165,1.8308645 2.9636115,1.750481 3.117111,1.67251 3.2612295,1.6224445 3.364821,1.5864595 3.514644,1.551661 3.633448,1.5359965 c 0.058288,-0.00769 0.475318,-0.016705 0.629237,-0.013605 0.08808,0.00175 0.094274,0.0025 0.1867395,0.021365 0.3129805,0.063914 0.56874,0.177753 0.762301,0.3393015 0.265436,0.221536 0.421694,0.459656 0.493479,0.752005 0.02333,0.09502 0.0245,0.11417 0.0226,0.369178 l -0.0017,0.230932 -0.011285,0.04237 c -0.02626,0.09861 -0.076922,0.213026 -0.12967,0.292858 C 5.5145735,3.677214 5.3108755,3.881486 5.095332,4.0616 4.941322,4.190294 4.8969335,4.229756 4.82406,4.302764 4.688643,4.43843 4.608012,4.554277 4.556911,4.686596 4.529846,4.756676 4.506297,4.863851 4.500618,4.942797 l -0.00275,0.03814 -0.4974685,0.0011 -0.4974685,0.0011 z"
     id="path848"
     inkscape:connector-curvature="0" />
  <path
     style="opacity:1;fill:#ffffff;fill-opacity:1;stroke-width:0.00423729"
     d="M 3.504281,4.935381 C 3.504497,4.700319 3.573035,4.444867 3.6880085,4.250604 3.7728745,4.107211 3.923055,3.954516 4.120763,3.810605 4.146398,3.791945 4.210275,3.745595 4.262712,3.707609 4.391032,3.614649 4.4691225,3.55153 4.526405,3.494476 4.619229,3.402026 4.6751645,3.321445 4.70331,3.239639 4.720315,3.190219 4.7224,3.158739 4.72243,2.951271 l 3e-5,-0.199152 -0.014285,-0.04237 C 4.687955,2.649769 4.649448,2.570738 4.618246,2.525183 4.588771,2.482143 4.528686,2.418629 4.4894065,2.388982 4.4106765,2.329562 4.304596,2.286212 4.1949155,2.268644 4.1395255,2.259744 3.9475095,2.256054 3.868644,2.262344 3.6954,2.276104 3.552249,2.337854 3.444734,2.44517 3.382309,2.50748 3.3364165,2.583783 3.3012575,2.683717 c -0.02726,0.07749 -0.051192,0.198823 -0.051238,0.259792 -1.25e-5,0.01437 -0.00115,0.02915 -0.0026,0.03284 -0.0023,0.0061 -0.050349,0.0067 -0.5003395,0.0067 H 2.249314 l 0.0027,-0.04343 C 2.266564,2.70733 2.306734,2.541573 2.3903765,2.368644 2.4492655,2.246894 2.503337,2.165464 2.595773,2.059322 2.769569,1.859757 3.0146745,1.7027705 3.2982125,1.6094195 3.3987265,1.5763245 3.540739,1.5448035 3.637684,1.5340665 c 0.10174,-0.01127 0.636097,-0.017625 0.709355,-0.00844 0.01947,0.00245 0.067664,0.010945 0.1070925,0.0189 0.396593,0.079998 0.700763,0.2440935 0.93709,0.5055475 0.166553,0.184262 0.2635395,0.369061 0.321747,0.613063 l 0.01314,0.05509 0.00155,0.24879 0.00155,0.248791 -0.011365,0.04782 c -0.01628,0.06852 -0.04093,0.135228 -0.076219,0.206263 C 5.584882,3.584102 5.531977,3.653218 5.399449,3.78627 5.29966,3.886452 5.2405815,3.940108 5.1058005,4.052968 4.877506,4.244132 4.791851,4.325746 4.701114,4.438561 4.6395725,4.515077 4.5749375,4.630667 4.546808,4.714513 4.52338,4.784475 4.5,4.906594 4.5,4.959231 v 0.02382 H 4.002119 3.5042375 Z"
     id="path850"
     inkscape:connector-curvature="0" />
  <path
     style="opacity:1;fill:#ffffff;fill-opacity:1;stroke-width:0.00423729"
     d="M 3.5043245,4.931144 C 3.504567,4.786194 3.5368995,4.602868 3.5867115,4.463983 3.6280665,4.348677 3.7027265,4.214475 3.775541,4.124555 3.815741,4.074905 3.910428,3.979473 3.9682205,3.930347 4.0330185,3.875267 4.083361,3.836787 4.2097455,3.745752 4.3983965,3.609863 4.4623545,3.558232 4.541132,3.47824 4.61252,3.40575 4.649933,3.354741 4.684348,3.282978 c 0.010375,-0.02163 0.02179,-0.05077 0.02537,-0.06476 0.0109,-0.0426 0.01602,-0.163103 0.013675,-0.322034 L 4.721243,2.747882 4.705748,2.703392 C 4.653399,2.553095 4.5699695,2.440914 4.454438,2.365488 4.3363355,2.288384 4.209229,2.258603 3.997906,2.258524 3.819074,2.258457 3.71716,2.277594 3.603838,2.332514 3.4912455,2.387084 3.395451,2.480585 3.3413485,2.58873 3.2926785,2.68601 3.2581125,2.817697 3.2508815,2.933356 l -0.003,0.04758 -0.4989405,0.0011 C 2.258971,2.983136 2.25,2.982986 2.25,2.974936 2.25,2.943886 2.260305,2.826795 2.267375,2.777548 2.334891,2.3071 2.614786,1.9287815 3.059089,1.707428 3.2522705,1.611185 3.4870655,1.543659 3.680085,1.5288335 c 0.03899,-0.003 0.180679,-0.00501 0.366525,-0.00521 l 0.302966,-3.2e-4 0.061441,0.0118 C 4.695531,1.5897515 4.922368,1.6787485 5.125,1.8152265 5.323275,1.9487705 5.4927445,2.13799 5.5960005,2.341119 5.6494615,2.446288 5.6819835,2.535336 5.71283,2.661013 l 0.013,0.05297 0.0029,0.239407 C 5.73183,3.212158 5.73148,3.218595 5.70912,3.298729 5.67551,3.41921 5.606807,3.552256 5.5253215,3.654661 5.5104865,3.673311 5.4477185,3.739191 5.3858365,3.801081 5.2943865,3.892541 5.2463555,3.936154 5.129257,4.03407 4.9590155,4.176423 4.8875895,4.239397 4.82374,4.303435 4.6266295,4.501126 4.539192,4.664348 4.506204,4.896187 c -0.0033,0.02331 -0.00606,0.05238 -0.0061,0.06462 L 4.5,4.983051 H 4.002119 3.5042375 Z"
     id="path852"
     inkscape:connector-curvature="0" />
  <path
     style="opacity:1;fill:#ffffff;fill-opacity:1;stroke-width:0.00423729"
     d="M 3.5055975,4.901483 C 3.5122875,4.695366 3.5564925,4.510689 3.639738,4.341102 3.701332,4.215621 3.7570455,4.137259 3.8577435,4.034472 3.9559965,3.934181 4.0228565,3.880078 4.2627115,3.706775 4.3128185,3.670565 4.3786015,3.621285 4.408898,3.597255 4.476449,3.543665 4.586014,3.434895 4.624234,3.383475 4.656989,3.339415 4.700089,3.255563 4.709677,3.217261 4.720337,3.174681 4.725862,3.040615 4.723202,2.88901 L 4.720752,2.750479 4.705167,2.703568 C 4.6485105,2.533024 4.5357635,2.399294 4.389803,2.329515 4.282752,2.278338 4.1738775,2.258745 3.9957355,2.2586 3.824517,2.258461 3.706056,2.280995 3.601621,2.333572 3.493387,2.388062 3.404199,2.473066 3.3500415,2.57335 3.295473,2.674444 3.25,2.848203 3.25,2.955726 v 0.02732 h -0.5 -0.5 l 1.05e-5,-0.01377 c 2e-5,-0.02725 0.00864,-0.129158 0.014965,-0.176907 0.054007,-0.407731 0.2679975,-0.749452 0.61426,-0.98091 0.1990245,-0.1330375 0.44032,-0.227323 0.694915,-0.2715365 0.08417,-0.014615 0.239352,-0.019665 0.5410345,-0.017605 l 0.2471015,0.0017 0.072601,0.0152 c 0.3001905,0.062842 0.531322,0.158675 0.728171,0.301919 C 5.446923,2.0477 5.625327,2.311434 5.7105095,2.650432 l 0.014905,0.05932 0.0045,0.228813 c 0.00495,0.252858 0.00395,0.273007 -0.018085,0.351241 -0.03609,0.128256 -0.094954,0.245155 -0.179373,0.356218 C 5.4694055,3.728974 5.310644,3.882328 5.1396815,4.025418 4.96261,4.173621 4.8898715,4.238216 4.816982,4.311991 4.720159,4.409991 4.6689975,4.474627 4.6154595,4.566597 4.5528235,4.674196 4.5108135,4.813908 4.501383,4.945981 l -0.00265,0.03707 h -0.4978905 -0.49789 z"
     id="path854"
     inkscape:connector-curvature="0" />
  <path
     style="opacity:1;fill:#ffffff;fill-opacity:1;stroke-width:0.00423729"
     d="m 3.504951,4.905725 c 0.00785,-0.214214 0.050682,-0.393908 0.1345925,-0.564623 0.039615,-0.0806 0.094623,-0.167587 0.14201,-0.224576 0.04153,-0.04995 0.137321,-0.145339 0.193185,-0.192382 0.056514,-0.04759 0.11538,-0.09239 0.237126,-0.180475 0.1989295,-0.143923 0.27312,-0.205001 0.351429,-0.289316 0.051156,-0.05508 0.088241,-0.106901 0.114403,-0.159862 0.02613,-0.05289 0.032685,-0.07289 0.03813,-0.116352 0.00659,-0.05254 0.00986,-0.267465 0.00549,-0.360342 -0.0038,-0.08078 -0.00425,-0.08357 -0.019805,-0.125 C 4.6632065,2.590796 4.6189385,2.517827 4.555239,2.451687 4.504998,2.399517 4.46319,2.368057 4.403995,2.337863 4.328495,2.299353 4.256403,2.277583 4.167373,2.266403 4.100141,2.258003 3.878231,2.259203 3.8177965,2.268403 3.657224,2.292753 3.534063,2.353543 3.43556,2.457053 3.393605,2.501143 3.367217,2.539303 3.338131,2.597941 3.2899975,2.694985 3.25,2.859113 3.25,2.959579 v 0.02347 H 2.749424 2.248848 l 0.0029,-0.04979 C 2.269743,2.626832 2.3508365,2.386781 2.51262,2.161019 2.5999475,2.039157 2.732709,1.9105425 2.8622645,1.8222975 3.032859,1.7060995 3.227987,1.620393 3.440654,1.568251 3.6199515,1.524291 3.6819355,1.519831 4.082603,1.522081 l 0.2796615,0.00155 0.065677,0.013895 C 4.6682,1.5883565 4.841903,1.64952 5.0063315,1.7411875 5.136895,1.813976 5.242925,1.8942825 5.347433,1.999537 5.532099,2.185522 5.6426985,2.383513 5.70983,2.648291 c 0.01495,0.05897 0.01572,0.06562 0.019195,0.165254 0.00602,0.172566 0.00495,0.3705 -0.0022,0.411578 C 5.702041,3.36727 5.6230615,3.533474 5.517693,3.66524 5.477208,3.71587 5.3707655,3.824783 5.2987065,3.889311 5.2684115,3.916441 5.185056,3.987801 5.1134755,4.047886 4.8929185,4.233023 4.7850615,4.335175 4.7077115,4.432189 4.5827095,4.588969 4.5159965,4.754732 4.501704,4.94406 l -0.00295,0.03897 -0.4983325,5e-6 -0.4983325,4e-6 z"
     id="path856"
     inkscape:connector-curvature="0" />
  <path
     style="opacity:1;fill:#ffffff;fill-opacity:1;stroke-width:0.00423729"
     d="m 3.5021945,4.962923 c 0.001,-0.01107 0.00275,-0.04777 0.0039,-0.08157 0.00509,-0.148024 0.04111,-0.32357 0.09259,-0.451271 C 3.6553455,4.289528 3.7314945,4.168097 3.8272,4.065675 3.9285985,3.957162 4.000748,3.896672 4.211627,3.743376 4.374045,3.625307 4.4356875,3.577163 4.4966775,3.520748 4.5827035,3.441178 4.641681,3.366683 4.6795165,3.289815 c 0.02388,-0.04851 0.03113,-0.07179 0.036145,-0.116089 0.00652,-0.05755 0.00935,-0.23962 0.00534,-0.34322 l -0.0037,-0.09534 -0.016965,-0.04449 C 4.6781165,2.632376 4.6488345,2.574253 4.6192325,2.529659 4.5891775,2.484379 4.508142,2.402038 4.4660535,2.374007 4.3979095,2.328617 4.31578,2.294737 4.2325655,2.277667 4.1228955,2.255177 3.888563,2.254047 3.7780425,2.275467 3.6142855,2.307217 3.4722305,2.394857 3.385575,2.517602 3.313993,2.618995 3.2607455,2.78574 3.25149,2.93749 L 3.24869,2.98304 H 2.749363 2.25 l 2.15e-5,-0.02013 C 2.250059,2.92717 2.2625015,2.800301 2.2713165,2.745794 2.3089465,2.513087 2.405169,2.294096 2.55061,2.110163 2.597555,2.050791 2.7234165,1.9263675 2.7839,1.8795355 3.004,1.709112 3.266961,1.595461 3.56842,1.540469 3.663761,1.523074 3.7348585,1.520429 4.063561,1.522029 l 0.302966,0.0015 0.074153,0.016215 c 0.040785,0.00892 0.099894,0.02284 0.131356,0.030935 0.5179915,0.133286 0.903102,0.449183 1.076141,0.882733 0.0441,0.110491 0.074893,0.230649 0.080626,0.314602 0.00678,0.09933 0.00544,0.414781 -0.00195,0.457146 C 5.709952,3.32206 5.661778,3.446085 5.603912,3.541659 5.511256,3.694693 5.4087855,3.800911 5.1228855,4.040276 4.9591875,4.17733 4.907198,4.223724 4.823993,4.306996 4.7379,4.393156 4.6957135,4.442716 4.6506585,4.510615 c -0.03335,0.05026 -0.073224,0.127013 -0.092905,0.178833 -0.026515,0.06981 -0.049725,0.175618 -0.055814,0.25443 l -0.00305,0.03919 H 3.9996355 3.500382 Z"
     id="path858"
     inkscape:connector-curvature="0" />
  <path
     style="opacity:1;fill:#ffffff;fill-opacity:1;stroke-width:0.00423729"
     d="m 3.5019365,4.950212 c 0.00115,-0.01807 0.0032,-0.05572 0.00455,-0.08369 C 3.5212465,4.554321 3.63691,4.267458 3.831535,4.060357 3.927272,3.958482 4.0042055,3.8941 4.2040945,3.748573 4.2750435,3.696923 4.356848,3.63621 4.3858835,3.613663 4.5315835,3.500521 4.6259765,3.396168 4.679869,3.28866 4.712834,3.2229 4.716324,3.20303 4.719819,3.061437 4.721519,2.993847 4.721669,2.892792 4.720194,2.836861 4.717544,2.735488 4.717494,2.735051 4.703884,2.699149 4.662484,2.589948 4.614089,2.511952 4.5447145,2.442611 4.4765675,2.374501 4.4032515,2.32931 4.311851,2.299087 4.238747,2.274907 4.1952235,2.267947 4.0847635,2.262727 c -0.14633,-0.0069 -0.27333,0.0021 -0.359709,0.02547 -0.142087,0.03846 -0.272216,0.128162 -0.344954,0.237785 C 3.3136215,2.62617 3.2646615,2.779078 3.253085,2.922663 l -0.00485,0.06038 H 2.748516 2.248797 l 0.003,-0.05403 C 2.270442,2.592384 2.3789935,2.310389 2.580874,2.07415 2.624084,2.023584 2.7209815,1.929571 2.7718205,1.888884 2.850047,1.8262785 2.9651945,1.7527495 3.05793,1.7061845 3.2018785,1.6339035 3.397953,1.5709355 3.5847885,1.5369865 l 0.074153,-0.013475 0.355932,-1.05e-4 0.3559325,-1.05e-4 0.089873,0.020245 c 0.2774875,0.062506 0.462066,0.136992 0.6537705,0.2638265 0.083669,0.055356 0.144283,0.1041335 0.215596,0.173495 0.187617,0.182482 0.311181,0.39678 0.37626,0.652552 0.0083,0.0326 0.01679,0.06978 0.018875,0.08263 0.00677,0.04167 0.011295,0.266053 0.00783,0.387763 -0.003,0.106041 -0.0045,0.123145 -0.01407,0.161017 C 5.6756255,3.436484 5.5936295,3.584772 5.460002,3.733103 5.388631,3.812323 5.3151635,3.879326 5.1208055,4.042434 5.0532205,4.099154 4.9750425,4.165627 4.9470765,4.190157 4.8738855,4.254357 4.753483,4.376199 4.712082,4.427966 4.587504,4.583734 4.522218,4.741368 4.5036845,4.931144 l -0.00507,0.05191 H 3.999229 3.499844 Z"
     id="path860"
     inkscape:connector-curvature="0" />
  <path
     style="opacity:1;fill:#ffffff;fill-opacity:1;stroke-width:0.00423729"
     d="m 3.5017895,4.943856 c 0.00125,-0.02156 0.0034,-0.06017 0.00475,-0.08581 0.00677,-0.128638 0.03873,-0.286784 0.080608,-0.398898 C 3.6590705,4.266608 3.7628125,4.114878 3.92097,3.970913 3.991678,3.906553 4.0502825,3.860518 4.2076225,3.745761 4.2810335,3.692221 4.3613685,3.632654 4.3861445,3.613397 4.534016,3.498467 4.6326655,3.387712 4.684354,3.278596 4.716484,3.210766 4.716919,3.207006 4.719169,2.977611 4.720519,2.841872 4.719644,2.766409 4.716519,2.748645 4.713969,2.734075 4.704154,2.702195 4.694679,2.677805 4.600447,2.43529 4.414501,2.29332 4.156755,2.267102 4.099925,2.261302 3.894212,2.261202 3.8424835,2.266912 3.7200295,2.280442 3.609429,2.320672 3.5200875,2.384184 3.4728375,2.417774 3.409782,2.481694 3.380219,2.525969 3.314154,2.624919 3.2656735,2.776513 3.253357,2.922662 l -0.00509,0.06038 H 2.7491465 2.25 V 2.958412 C 2.25,2.918512 2.262445,2.799138 2.273305,2.734888 2.310645,2.513944 2.392793,2.321656 2.5271635,2.140656 2.5816945,2.067206 2.7117535,1.9344855 2.783899,1.8786755 3.0086355,1.704824 3.2612545,1.5973555 3.5911675,1.5352495 l 0.063494,-0.011955 H 4.0148305 4.375 l 0.09628,0.02239 c 0.3210315,0.074654 0.53121,0.168905 0.744821,0.334003 0.060293,0.0466 0.186052,0.1708935 0.23319,0.2304715 C 5.5731455,2.266702 5.6615195,2.448507 5.7094,2.645261 5.729115,2.726281 5.732225,2.758878 5.73536,2.917363 5.73886,3.09396 5.73311,3.210628 5.71811,3.269058 5.673965,3.440758 5.5896065,3.59137 5.454666,3.739396 5.383202,3.817796 5.323935,3.871722 5.1313495,4.033604 4.9114305,4.218462 4.8003835,4.322301 4.7209525,4.417363 4.5942145,4.569041 4.5232195,4.737132 4.503956,4.931133 l -0.00515,0.05191 H 3.999145 3.4994895 Z"
     id="path862"
     inkscape:connector-curvature="0" />
  <path
     style="opacity:1;fill:#ffffff;fill-opacity:1;stroke-width:0.00423729"
     d="m 3.5000615,4.973517 c 1.775e-4,-0.02745 0.00911,-0.162655 0.012815,-0.193856 0.03125,-0.263546 0.1244805,-0.491202 0.27483,-0.671113 0.017715,-0.0212 0.056051,-0.0624 0.085194,-0.09155 C 3.9570065,3.932848 4.0255495,3.877918 4.256355,3.709691 4.4988465,3.532945 4.6037695,3.430008 4.673084,3.30085 4.716169,3.22057 4.721819,3.173108 4.719409,2.91175 L 4.717809,2.739409 4.703849,2.701269 C 4.6161335,2.461662 4.449695,2.317428 4.21132,2.27444 4.163425,2.26584 4.145544,2.26494 4.004238,2.26494 3.8399915,2.264857 3.8136025,2.26694 3.7351705,2.28651 3.557992,2.33064 3.40744,2.450223 3.3369345,2.602822 c -0.04542,0.0983 -0.077266,0.224466 -0.085026,0.33683 l -0.003,0.04343 H 2.749454 2.25 l 4.35e-5,-0.02437 c 6.35e-5,-0.03533 0.00761,-0.117284 0.016955,-0.184205 0.0345,-0.246937 0.130334,-0.471778 0.283147,-0.664312 0.03755,-0.04731 0.1409015,-0.1537065 0.189349,-0.194928 0.221496,-0.18846 0.493163,-0.310843 0.839056,-0.377985 l 0.071871,-0.01395 H 4.012712 4.375 l 0.069915,0.016055 c 0.3046875,0.069956 0.488066,0.144247 0.6837305,0.2769945 0.07909,0.053657 0.1294825,0.094632 0.197193,0.160337 0.194967,0.1891945 0.314687,0.3964785 0.3817815,0.6610215 0.02494,0.09834 0.02755,0.131226 0.02755,0.347459 0,0.208613 -0.0019,0.233267 -0.023955,0.310279 C 5.65896,3.477985 5.564918,3.629921 5.4047565,3.790599 5.3313655,3.864229 5.2967385,3.895065 5.131355,4.034082 4.820348,4.295507 4.708396,4.410983 4.621118,4.560376 4.554863,4.673785 4.514551,4.805591 4.50188,4.95024 L 4.49898,4.98308 H 3.9995025 3.5 l 6.15e-5,-0.0095 z"
     id="path864"
     inkscape:connector-curvature="0" />
  <path
     style="opacity:1;fill:#ffffff;fill-opacity:1;stroke-width:0.00423729"
     d="m 3.500041,4.969279 c 2.15e-5,-0.0076 0.00195,-0.04618 0.0043,-0.0858 C 3.519051,4.635827 3.576519,4.435198 3.684466,4.254601 3.782043,4.091353 3.9068495,3.965457 4.14042,3.794666 4.3907805,3.611598 4.459115,3.557338 4.533294,3.482711 4.622267,3.393201 4.6856735,3.297364 4.705476,3.222462 4.716631,3.180282 4.721191,3.074982 4.719341,2.902546 L 4.717591,2.739411 4.703691,2.701271 C 4.608663,2.440562 4.4141355,2.289262 4.145328,2.26699 4.07963,2.26159 3.9179185,2.26169 3.853796,2.267185 3.693281,2.281025 3.5544115,2.342435 3.4501415,2.445668 3.3890085,2.506198 3.3553545,2.557082 3.3216665,2.63993 3.2846515,2.73096 3.2627085,2.823019 3.2536595,2.92523 l -0.00512,0.05782 H 2.7486265 2.248695 L 2.251445,2.92902 C 2.26812,2.602332 2.376551,2.315891 2.571038,2.084747 2.610073,2.038352 2.7213085,1.9285475 2.764823,1.893451 2.9769585,1.722354 3.228324,1.609729 3.546304,1.5433065 l 0.095638,-0.019975 0.3586795,-0.00125 0.35868,-0.00125 0.069286,0.015135 c 0.313228,0.06843 0.526989,0.156087 0.7277495,0.2984295 0.1480715,0.104985 0.288122,0.25171 0.381042,0.399201 0.1005885,0.159663 0.1760885,0.367024 0.1933025,0.530905 0.00793,0.07546 0.0092,0.354849 0.0019,0.422791 -0.0166,0.155111 -0.101744,0.3406 -0.2265935,0.49364 C 5.485473,3.706083 5.437112,3.758153 5.398519,3.79665 5.329895,3.8651 5.282277,3.907205 5.089192,4.070141 4.9554265,4.183019 4.889288,4.24286 4.8126295,4.320367 4.732045,4.401844 4.70074,4.43909 4.654562,4.508433 4.56482,4.643196 4.518066,4.779182 4.5019575,4.952289 l -0.00285,0.03072 H 3.99957 3.5 l 4.25e-5,-0.01377 z"
     id="path866"
     inkscape:connector-curvature="0" />
  <path
     style="opacity:1;fill:#ffffff;fill-opacity:1;stroke-width:0.00423729"
     d="M 3.5017355,4.926907 C 3.5087655,4.787029 3.5224905,4.686644 3.5485305,4.584502 3.6113635,4.338048 3.732697,4.139162 3.9262755,3.965311 3.9938765,3.904601 4.046056,3.863794 4.211893,3.741953 4.288926,3.685353 4.376206,3.619721 4.4058495,3.596095 4.4710665,3.544115 4.5625045,3.45587 4.602011,3.40678 4.637366,3.36285 4.677236,3.296972 4.694332,3.254238 4.715517,3.201288 4.718082,3.167768 4.718152,2.942797 l 6.75e-5,-0.20339 -0.016335,-0.04237 C 4.6777,2.634296 4.634838,2.553359 4.604224,2.512621 4.589374,2.492861 4.558419,2.458474 4.535434,2.436207 4.4286,2.332709 4.301219,2.279339 4.129872,2.266283 c -0.091476,-0.007 -0.276262,-0.0021 -0.339325,0.0089 -0.091643,0.01601 -0.1809625,0.05119 -0.2559885,0.10081 -0.044655,0.02953 -0.10899,0.09063 -0.141661,0.13453 C 3.3191165,2.609663 3.26409,2.778871 3.251977,2.943858 l -0.0029,0.03919 H 2.7488725 2.2486675 l 0.0026,-0.05469 C 2.2667575,2.604506 2.381146,2.305158 2.5759265,2.078737 2.6274435,2.018857 2.7385925,1.912922 2.794893,1.8700525 3.010113,1.7061755 3.2379405,1.60794 3.561402,1.5395455 l 0.076271,-0.016125 0.362835,-0.00125 0.362835,-0.00125 0.067249,0.015235 c 0.2779135,0.062959 0.442441,0.1238275 0.619167,0.2290685 0.170293,0.1014105 0.319478,0.235465 0.434295,0.390249 0.127153,0.171413 0.2228045,0.405843 0.246902,0.605125 0.00971,0.08029 0.0095,0.379085 -3e-4,0.444914 C 5.712757,3.325659 5.657575,3.46263 5.578733,3.582631 5.531688,3.654241 5.483862,3.711274 5.402641,3.792633 5.327948,3.867453 5.2916105,3.899763 5.1122565,4.050826 4.9727955,4.168288 4.9224715,4.213174 4.8415105,4.292311 4.7533765,4.378461 4.6997805,4.440228 4.6564205,4.505622 4.565733,4.642398 4.517949,4.7806 4.5019675,4.95234 l -0.00285,0.03072 H 3.999035 3.4989215 l 0.0028,-0.05614 z"
     id="path868"
     inkscape:connector-curvature="0" />
  <path
     style="opacity:1;fill:#ffffff;fill-opacity:1;stroke-width:0.00423729"
     d="m 3.500015,4.965042 c 3e-5,-0.03684 0.0087,-0.155276 0.014965,-0.204449 0.03077,-0.241508 0.1154835,-0.451832 0.2532215,-0.628711 0.041125,-0.05281 0.14461,-0.158062 0.2042565,-0.20774 0.040995,-0.03415 0.11065,-0.08695 0.3199155,-0.242549 0.118776,-0.08831 0.1647245,-0.12604 0.226099,-0.185638 0.07923,-0.07694 0.1276975,-0.141401 0.163919,-0.218018 0.01112,-0.02352 0.02231,-0.0523 0.024865,-0.06395 0.00823,-0.03754 0.01411,-0.208105 0.01184,-0.343414 l -0.0022,-0.13155 -0.01576,-0.04218 C 4.6276355,2.50014 4.4960785,2.364864 4.3184225,2.303319 4.2339575,2.274059 4.1463195,2.262759 4.004237,2.262819 3.8194125,2.262894 3.708461,2.283339 3.601437,2.337049 3.527356,2.374219 3.443232,2.443915 3.3947155,2.5083 3.3200065,2.60745 3.265078,2.77599 3.2520755,2.94598 l -0.00285,0.03707 h -0.500277 -0.500277 l 0.0027,-0.05654 C 2.2592015,2.7633 2.2940615,2.597098 2.3501675,2.455513 2.3967125,2.338058 2.4734415,2.204922 2.549197,2.110174 2.583917,2.066744 2.692419,1.955447 2.739506,1.914955 2.827869,1.838967 2.930915,1.7711965 3.0487025,1.7116025 c 0.1540255,-0.077928 0.296134,-0.125852 0.510593,-0.17219 l 0.074152,-0.01602 0.3648955,-0.00125 0.3648945,-0.00125 0.058834,0.01304 c 0.224656,0.049785 0.3762355,0.1001585 0.522688,0.1736985 0.1529395,0.076797 0.269587,0.159655 0.3872465,0.2750715 0.09636,0.094523 0.1610295,0.1753985 0.2213015,0.2767625 0.091938,0.15462 0.157517,0.33941 0.1780965,0.501847 0.01066,0.08415 0.010685,0.371354 3.8e-5,0.44055 C 5.707173,3.359566 5.628264,3.530004 5.5139645,3.671586 5.4352175,3.769126 5.3564985,3.844273 5.149413,4.019579 5.073048,4.084229 4.987685,4.15714 4.959719,4.181611 4.891228,4.241541 4.7457295,4.387677 4.710243,4.432179 4.592798,4.579459 4.5278055,4.734448 4.5062625,4.91861 c -0.00343,0.0296 -0.00626,0.05619 -0.00626,0.05912 0,0.0042 -0.101524,0.0053 -0.5,0.0053 H 3.5 l 1.7e-5,-0.01801 z"
     id="path870"
     inkscape:connector-curvature="0" />
  <path
     style="opacity:1;fill:#5bc0de;fill-opacity:1;stroke-width:0.00423729"
     d="M 1.895682,6.799533 C 1.6629795,6.623975 1.4476905,6.414979 1.2641295,6.186441 0.9940853,5.850229 0.7805288,5.447793 0.6547705,5.038135 0.5762283,4.782285 0.5336511,4.559182 0.5075965,4.266949 0.5001555,4.183479 0.5001555,3.816514 0.5075969,3.733051 0.5278219,3.506221 0.5541059,3.344433 0.6022503,3.150424 0.7175075,2.685968 0.9287817,2.248866 1.223483,1.8651665 1.41438,1.6166195 1.6679205,1.3678105 1.918799,1.182826 L 1.954124,1.156781 h 2.045493 2.0454925 l 0.03571,0.02603 c 0.205532,0.1498195 0.433397,0.3647405 0.6080895,0.5735475 0.450238,0.5381625 0.730542,1.2073355 0.7960505,1.9004235 0.02206,0.233383 0.020455,0.50308 -0.00435,0.730933 -0.079511,0.730456 -0.391896,1.421261 -0.890037,1.96822 C 6.444345,6.516493 6.2764885,6.66976 6.1067875,6.797672 l -0.066053,0.04979 H 3.9999705 1.959205 Z M 4.5,6 V 5.5 H 4 3.5 V 6 6.5 H 4 4.5 Z m 3.8e-5,-1.005296 c 2.1e-5,-0.0029 0.0029,-0.02969 0.00642,-0.05951 C 4.526713,4.763153 4.57005,4.641728 4.658758,4.508474 4.730743,4.400339 4.847698,4.280039 5.042454,4.113805 5.087854,4.075055 5.161227,4.012457 5.2055065,3.9747 5.378633,3.827074 5.4670145,3.738568 5.543028,3.636702 5.630051,3.520082 5.6986515,3.373602 5.724418,3.249387 5.758108,3.086986 5.752298,2.815341 5.711518,2.645989 5.6321345,2.316323 5.448145,2.044371 5.1648955,1.8380365 5.0439925,1.749964 4.880753,1.666596 4.726692,1.614242 4.6629055,1.592567 4.5495455,1.5614685 4.4509775,1.538608 4.370566,1.519958 4.3518685,1.517003 4.317503,1.517513 4.295523,1.5178405 4.2565645,1.515813 4.230929,1.512963 4.113992,1.500068 3.875,1.500888 3.7527705,1.514613 c -0.032265,0.0036 -0.071963,0.00658 -0.088214,0.00658 -0.051435,0 -0.251436,0.04732 -0.376544,0.08909 C 3.083884,1.678436 2.9005315,1.777801 2.754234,1.8995565 2.701476,1.9434665 2.587918,2.058934 2.547101,2.110176 2.3922555,2.304571 2.2937875,2.542817 2.260764,2.802972 2.251994,2.872112 2.245249,2.980097 2.249539,2.982896 c 0.0019,0.0013 0.003,0.0056 0.00235,0.0097 C 2.25081,2.999612 2.2769135,3 2.7500135,3 H 3.249277 l 0.0028,-0.03284 C 3.261127,2.860478 3.275937,2.782681 3.302509,2.702198 3.340394,2.587461 3.378741,2.52217 3.4486425,2.453389 3.5609065,2.342925 3.6824055,2.287753 3.849267,2.271466 c 0.058419,-0.0057 0.2591545,-0.0058 0.3096455,-1.93e-4 0.151712,0.01693 0.2711275,0.0694 0.36932,0.162269 C 4.5922135,2.494052 4.64298,2.567615 4.682077,2.65646 4.716727,2.7352 4.716122,2.73051 4.716072,2.918878 4.716027,3.099441 4.711222,3.196465 4.700772,3.228063 4.688827,3.264183 4.652687,3.332062 4.62382,3.372624 4.589625,3.420664 4.515118,3.499066 4.451284,3.554173 4.425649,3.576303 4.3255425,3.653583 4.2288265,3.725914 4.1321105,3.798244 4.0300975,3.875467 4.0021315,3.897531 3.9325345,3.952441 3.799303,4.086802 3.7531765,4.148602 3.6036905,4.348886 3.523478,4.578355 3.504443,4.860169 c -0.00245,0.03612 -0.00528,0.07855 -0.00631,0.09428 -0.0012,0.01847 -2.75e-4,0.0286 0.0026,0.0286 0.00245,0 0.0035,0.0038 0.0023,0.0085 -0.0022,0.0084 -1.3e-4,0.0085 0.497387,0.0085 0.3968375,0 0.4996115,-0.0011 0.4996415,-0.0053 z"
     id="path872"
     inkscape:connector-curvature="0" />
  <path
     style="opacity:1;fill:#ffff00;fill-opacity:1;stroke-width:0.00211865"
     d="M 3.525424,5.999112 V 5.523477 H 4 4.474576 V 5.999112 6.474749 H 4 3.525424 Z"
     id="path874"
     inkscape:connector-curvature="0" />
  <path
     style="opacity:1;fill:#ffff00;fill-opacity:1;stroke-width:0.00211865"
     d="m 3.5,4.967568 c 0,-0.03901 0.00821,-0.152092 0.01494,-0.205744 0.017315,-0.138065 0.054563,-0.27407 0.106623,-0.3893 l 0.0055,-0.01218 h 0.573308 0.5733085 l -0.00558,0.0066 c -0.00305,0.0037 -0.01423,0.01598 -0.02479,0.0274 -0.041405,0.04476 -0.08791,0.108747 -0.121291,0.166878 C 4.5521425,4.6829 4.5145985,4.808635 4.50092,4.966769 l -0.0014,0.01642 H 3.999751 3.5 Z"
     id="path876"
     inkscape:connector-curvature="0" />
  <path
     style="opacity:1;fill:#ffff00;fill-opacity:1;stroke-width:0.00211865"
     d="m 3.5006785,4.981227 c -0.0028,-0.0073 0.0043,-0.131165 0.011065,-0.192568 C 3.5390535,4.54058 3.617986,4.331857 3.7521075,4.153066 3.7870025,4.106546 3.8463775,4.041943 3.909084,3.98226 3.980342,3.91444 4.0208045,3.882113 4.188558,3.758986 4.394329,3.607955 4.4544765,3.559597 4.5297885,3.484634 4.6013335,3.413424 4.643159,3.357883 4.6781755,3.287599 4.7158005,3.212079 4.7171605,3.199709 4.7171605,2.932198 V 2.743109 h 0.505826 c 0.278205,-1e-6 0.5058265,3e-4 0.5058265,7e-4 0,3.75e-4 0.00145,0.01156 0.0032,0.02489 0.00555,0.04209 0.00742,0.097 0.00744,0.218086 2.15e-5,0.180821 -0.00405,0.224648 -0.02867,0.310381 C 5.691593,3.363926 5.671503,3.414912 5.639832,3.477251 5.582159,3.590766 5.512926,3.683683 5.406868,3.789908 5.340731,3.856148 5.296239,3.896033 5.1694945,4.002688 4.9698035,4.17073 4.9177185,4.217145 4.827277,4.307655 4.736172,4.398825 4.704441,4.43549 4.661239,4.499497 4.565072,4.641975 4.517129,4.782165 4.5009345,4.968247 l -0.0014,0.01642 H 4.000776 c -0.4562875,0 -0.4988695,-3.01e-4 -0.5000655,-0.0034 z"
     id="path878"
     inkscape:connector-curvature="0" />
  <path
     style="opacity:1;fill:#ffff00;fill-opacity:1;stroke-width:0.00211865"
     d="m 4.5720095,3.440581 c 0.051869,-0.05779 0.091355,-0.117289 0.1177675,-0.177461 0.01856,-0.04228 0.023,-0.06869 0.02631,-0.156598 0.0026,-0.0696 0.00265,-0.337691 0,-0.357864 C 4.710232,2.703504 4.66147,2.59684 4.6170515,2.532 4.5727865,2.46738 4.5131305,2.408857 4.4480925,2.366242 c -0.08453,-0.05539 -0.180678,-0.08698 -0.29872,-0.09817 -0.050347,-0.0047 -0.2732065,-0.0033 -0.316746,0.002 -0.1594945,0.01964 -0.2825015,0.07728 -0.387471,0.181559 -0.043205,0.04292 -0.070859,0.08072 -0.097705,0.133548 -0.052053,0.102426 -0.08528,0.228832 -0.095593,0.36367 l -0.00265,0.03443 H 2.7496115 2.25 l 2.1e-5,-0.02172 c 2.45e-5,-0.02522 0.0029,-0.06934 0.00756,-0.115995 0.027365,-0.273995 0.122801,-0.517962 0.28344,-0.724576 0.036515,-0.04697 0.102794,-0.117812 0.16136,-0.1724795 0.150875,-0.140829 0.34872,-0.255681 0.57351,-0.33293 0.077176,-0.02652 0.1705535,-0.051465 0.281313,-0.075145 0.056424,-0.012065 0.076839,-0.015545 0.099576,-0.01698 0.044085,-0.0028 0.7042875,-0.0031 0.717161,-3.625e-4 0.2461055,0.052677 0.4073495,0.1041105 0.558492,0.1781455 0.243283,0.1191685 0.445099,0.292205 0.585937,0.5023805 0.10585,0.157963 0.183558,0.357368 0.2103225,0.539709 0.0094,0.06403 0.01074,0.09363 0.01078,0.237833 3.8e-5,0.140568 -0.00135,0.178434 -0.00844,0.224437 -0.01137,0.07412 -0.036575,0.155581 -0.071833,0.23213 l -0.010735,0.02331 -0.547881,5e-4 -0.547881,5.5e-4 z"
     id="path880"
     inkscape:connector-curvature="0" />
  <path
     style="opacity:1;fill:#ffff00;fill-opacity:1;stroke-width:0.00211865"
     d="M 4.5757005,3.436131 C 4.6463045,3.356291 4.697945,3.265265 4.708704,3.20169 4.714794,3.16571 4.716354,3.12153 4.717504,2.951492 4.718754,2.769349 4.717929,2.745388 4.709714,2.720559 4.686709,2.651019 4.643959,2.567617 4.6038115,2.513942 4.4918855,2.364305 4.338032,2.282864 4.1378155,2.26727 4.1016205,2.26447 3.92387,2.26437 3.8749975,2.267245 c -0.15253,0.0088 -0.279732,0.05656 -0.3870085,0.145389 -0.0281,0.02326 -0.074806,0.07136 -0.093294,0.09606 -0.0782,0.104478 -0.1317125,0.273018 -0.143785,0.45286 L 3.24946,2.983264 H 2.749727 2.25 l 2e-6,-0.02278 c 3e-6,-0.02581 0.0048,-0.09346 0.00964,-0.136122 C 2.287392,2.5799 2.370095,2.359234 2.505526,2.168292 2.555609,2.097682 2.6293005,2.015644 2.7074245,1.9435275 2.863118,1.7998155 3.068599,1.683284 3.2997885,1.607599 3.4108655,1.571234 3.5973875,1.527262 3.65678,1.523437 c 0.038085,-0.00245 0.627704,-0.0043 0.679025,-0.0021 0.03888,0.00165 0.04221,0.00215 0.097458,0.014855 0.12623,0.029015 0.210035,0.051893 0.291313,0.079533 0.364005,0.123786 0.653812,0.3495005 0.830997,0.647218 0.086117,0.144699 0.149791,0.321281 0.173038,0.479873 0.00995,0.06793 0.010925,0.08938 0.01096,0.243094 3.6e-5,0.157532 -0.00115,0.18122 -0.012035,0.241016 -0.012075,0.06628 -0.03935,0.149519 -0.071686,0.21875 L 5.64818,3.462096 H 5.100467 4.5527535 Z"
     id="path882"
     inkscape:connector-curvature="0" />
  <path
     style="opacity:1;fill:#ffff00;fill-opacity:1;stroke-width:0.00211865"
     d="m 3.7288135,1.5181995 c 0.106856,-0.011485 0.2389405,-0.01587 0.3617595,-0.01201 0.045155,0.0014 0.097828,0.00405 0.117054,0.00582 0.019225,0.0018 0.0464,0.004 0.060382,0.00495 0.0161,0.0011 -0.04105,0.00185 -0.155901,0.002 -0.099729,1.71e-4 -0.2332035,7.5e-4 -0.2966105,0.0013 -0.109378,9.5e-4 -0.1138195,8.5e-4 -0.086684,-0.0021 z"
     id="path884"
     inkscape:connector-curvature="0" />
  <path
     style="opacity:1;fill:#ffff00;fill-opacity:1;stroke-width:0.00211865"
     d="M 3.5,6.000447 V 5.501507 H 4 4.5 v 0.49894 0.49894 H 4 3.5 Z m 0.974576,-0.001 V 5.522693 H 4 3.525424 V 5.999388 6.476083 H 4 4.474576 Z"
     id="path886"
     inkscape:connector-curvature="0" />
  <path
     style="opacity:1;fill:#ffff00;fill-opacity:1;stroke-width:0.00211865"
     d="M 3.523305,4.996664 C 3.50658,4.995264 3.50424,4.994264 3.50424,4.988164 v -0.0056 l 0.0143,0.0013 c 0.00787,7.5e-4 0.231912,0.0014 0.497881,0.0014 0.473053,1.4e-5 0.483581,1.02e-4 0.483581,0.004 0,0.0022 -0.00165,0.0049 -0.0037,0.0058 -0.00345,0.0017 -0.952194,0.0031 -0.9729875,0.0015 z"
     id="path890"
     inkscape:connector-curvature="0" />
  <path
     style="opacity:1;fill:#ffff00;fill-opacity:1;stroke-width:0.00097656"
     d=""
     id="path892"
     inkscape:connector-curvature="0" />
  <path
     style="opacity:1;fill:#ffff00;fill-opacity:1;stroke-width:0.00097656"
     d="m 4.5011525,4.974125 c -2.325e-4,-0.0085 0.00697,-0.06965 0.011655,-0.09879 0.017035,-0.106168 0.04878,-0.201345 0.096578,-0.28955 0.03698,-0.06825 0.084529,-0.136203 0.130484,-0.186493 0.019815,-0.02168 0.04754,-0.05041 0.048105,-0.04985 3e-4,2.99e-4 -0.00295,0.0041 -0.0073,0.0086 -0.04064,0.04152 -0.091114,0.104069 -0.123899,0.153535 -0.064855,0.09785 -0.10442,0.188673 -0.1288895,0.295856 -0.0103,0.04511 -0.016515,0.08406 -0.0248,0.155316 -10e-4,0.0086 -0.00185,0.01372 -0.0019,0.01139 z"
     id="path894"
     inkscape:connector-curvature="0" />
  <path
     style="opacity:1;fill:#ffff00;fill-opacity:1;stroke-width:0.00097656"
     d=""
     id="path896"
     inkscape:connector-curvature="0" />
  <path
     style="opacity:1;fill:#ffff00;fill-opacity:1;stroke-width:0.00097656"
     d=""
     id="path898"
     inkscape:connector-curvature="0" />
  <path
     style="opacity:1;fill:#ffff00;fill-opacity:1;stroke-width:0.00097656"
     d=""
     id="path900"
     inkscape:connector-curvature="0" />
  <path
     style="opacity:1;fill:#ffff00;fill-opacity:1;stroke-width:0.00097656"
     d="m 4.8823845,4.254535 c 0.020765,-0.02029 0.048245,-0.04578 0.076682,-0.07113 C 5.0017215,4.145375 5.190162,3.985034 5.191097,3.98597 5.191372,3.986245 5.153022,4.01935 5.105902,4.05956 5.013086,4.13876 4.9765855,4.170419 4.939546,4.203864 c -0.02518,0.02274 -0.063969,0.05877 -0.068819,0.06393 -0.0016,0.0017 -0.00335,0.003 -0.0039,0.003 -5.5e-4,-2.4e-5 0.00644,-0.0073 0.01556,-0.01627 z"
     id="path902"
     inkscape:connector-curvature="0" />
  <path
     style="opacity:1;fill:#ffff00;fill-opacity:1;stroke-width:0.00097656"
     d="m 3.5148555,4.996354 c -0.00866,-0.0011 -0.01089,-0.0028 -0.01089,-0.0081 0,-0.0036 -3.75e-4,-0.0044 -0.00245,-0.0053 -0.0023,-0.001 -0.0024,-0.0015 -0.00195,-0.0063 2.5e-4,-0.0029 7e-4,-0.01437 10e-4,-0.02565 0.00155,-0.05984 0.00793,-0.142423 0.015215,-0.197265 0.02304,-0.173435 0.070495,-0.324054 0.144932,-0.459961 0.032695,-0.0597 0.071216,-0.117278 0.1136705,-0.169922 0.02662,-0.033 0.082051,-0.09168 0.1309245,-0.138575 0.035945,-0.03449 0.04869,-0.04607 0.074142,-0.06731 0.048885,-0.04081 0.089635,-0.07191 0.19056,-0.145407 0.013695,-0.01 0.035645,-0.02609 0.048775,-0.03581 l 0.023875,-0.01768 h 0.611624 0.611625 v 0.005 c 0,0.0059 0.00235,0.003 -0.028725,0.03584 -0.03341,0.03538 -0.088551,0.08825 -0.138755,0.133021 -0.02584,0.02304 -0.056732,0.04947 -0.1049805,0.08981 C 5.0716165,4.084602 4.974173,4.168192 4.928996,4.209599 4.878155,4.256199 4.7972955,4.336424 4.75115,4.386052 4.715225,4.424682 4.686106,4.461682 4.656358,4.506486 4.582248,4.6181 4.537715,4.729374 4.5148105,4.860173 c -0.00606,0.0346 -0.01262,0.08676 -0.014345,0.114014 l -7e-4,0.0105 -0.055765,1.83e-4 -0.055764,1.83e-4 0.053222,6.5e-4 c 0.029275,3.5e-4 0.054432,9.5e-4 0.055909,0.0014 0.00305,8.5e-4 0.0036,0.0038 0.0013,0.0069 -0.00135,0.0018 -0.0039,0.0019 -0.102295,0.0025 -0.1466305,9e-4 -0.874215,7e-4 -0.881524,-2.14e-4 z"
     id="path904"
     inkscape:connector-curvature="0" />
  <path
     style="opacity:1;fill:#ffff00;fill-opacity:1;stroke-width:0.00097656"
     d="m 3.5171505,4.996748 c -0.01107,-9.5e-4 -0.013185,-0.0023 -0.013185,-0.0082 0,-0.003 -5e-4,-0.0042 -0.00235,-0.0054 -0.0023,-0.0015 -0.00235,-0.0018 -0.00195,-0.01198 2.3e-4,-0.0057 9e-4,-0.02208 0.00145,-0.03631 0.0034,-0.08649 0.010745,-0.162943 0.022425,-0.233398 0.0306,-0.184632 0.091539,-0.345416 0.1843215,-0.486328 0.0309,-0.04692 0.062782,-0.08879 0.094458,-0.124024 0.037185,-0.04136 0.1023775,-0.10682 0.1445515,-0.145145 0.027295,-0.02481 0.071925,-0.06099 0.1215925,-0.09858 0.028695,-0.02172 0.037245,-0.02803 0.097157,-0.07172 0.01504,-0.01097 0.038495,-0.02819 0.052129,-0.03828 l 0.024785,-0.01834 h 0.611689 0.61169 v 0.0052 0.0052 L 5.452529,3.744003 C 5.406904,3.793633 5.3298055,3.86674 5.257902,3.928552 c -0.0094,0.0081 -0.04016,0.03397 -0.068359,0.05754 -0.1323465,0.110616 -0.2288005,0.193684 -0.27489,0.23674 -0.04123,0.03852 -0.114462,0.111329 -0.1542845,0.153399 -0.04218,0.04457 -0.072405,0.0826 -0.105946,0.133322 C 4.5829015,4.617718 4.5386915,4.72788 4.515775,4.85503 4.509135,4.89191 4.501485,4.95226 4.50245,4.960215 c 3.5e-4,0.0029 2.4e-4,0.0037 -3e-4,0.0024 -5.5e-4,-0.0013 -0.0011,0.0021 -0.00155,0.01001 l -7.5e-4,0.01197 h -0.0042 c -0.00711,0 -0.0085,0.0014 -0.0019,0.0019 0.00571,4.74e-4 0.00587,6e-4 0.00615,0.0035 5.5e-4,0.0058 0.00165,0.0057 -0.051469,0.0064 -0.048385,6.01e-4 -0.9238555,8.01e-4 -0.9312465,1.71e-4 z"
     id="path906"
     inkscape:connector-curvature="0" />
  <path
     style="opacity:1;fill:#ffff00;fill-opacity:1;stroke-width:0.00097656"
     d="m 3.513435,4.996377 c -0.00365,-4.25e-4 -0.00728,-0.0013 -0.00806,-0.002 -8e-4,-6.5e-4 -0.0014,-0.0029 -0.0014,-0.005 0,-0.0028 -6.5e-4,-0.0044 -0.00245,-0.0061 -0.00235,-0.0022 -0.0024,-0.0025 -0.00195,-0.01338 2.5e-4,-0.0061 9e-4,-0.02257 0.0015,-0.03654 C 3.505475,4.822993 3.51628,4.729224 3.53482,4.640388 3.575665,4.444729 3.6530725,4.27621 3.7694215,4.129646 3.8034515,4.086776 3.876205,4.010978 3.93847,3.953519 3.983885,3.911609 4.0451675,3.863239 4.1440855,3.791247 c 0.02095,-0.01525 0.051623,-0.03774 0.068168,-0.04999 l 0.030085,-0.02226 H 4.854101 5.465864 v 0.0053 0.0053 L 5.453969,3.742647 C 5.43865,3.759447 5.379816,3.818337 5.356522,3.840167 5.309192,3.884547 5.270477,3.918457 5.1973115,3.979648 5.046842,4.105481 4.956959,4.18309 4.905323,4.231766 4.866433,4.268426 4.7858295,4.349043 4.754929,4.382186 4.722539,4.416926 4.700193,4.444166 4.674832,4.479816 4.60542,4.577396 4.5588305,4.676488 4.530687,4.786409 c -0.00315,0.0123 -0.00512,0.0219 -0.0048,0.02325 3.25e-4,0.0012 2.755e-4,0.0039 -1.205e-4,0.0059 -6.5e-4,0.0033 -7.5e-4,0.0034 -0.0013,0.0011 -9.5e-4,-0.0038 -0.00706,0.02713 -0.00746,0.0376 -1.83e-4,0.0049 -8e-4,0.01033 -0.0013,0.01221 -8.5e-4,0.003 -9.5e-4,0.0027 -5.5e-4,-0.0025 l 4e-4,-0.0059 -0.0014,0.0064 c -8e-4,0.0035 -0.00115,0.008 -9e-4,0.01009 2.75e-4,0.0021 -4e-5,0.0076 -7e-4,0.0122 -0.00105,0.007 -0.0013,0.0079 -0.0018,0.005 -4.5e-4,-0.0028 -7.5e-4,-0.0018 -0.00175,0.0054 -0.0036,0.02624 -0.00612,0.05033 -0.00565,0.0542 4e-4,0.0033 3e-4,0.0039 -4.5e-4,0.0024 -7e-4,-0.0014 -8.5e-4,-2.76e-4 -4.75e-4,0.0042 2.75e-4,0.0034 1.17e-4,0.0059 -3.75e-4,0.0056 -4.75e-4,-3e-4 -0.00115,0.0043 -0.00155,0.0102 -7e-4,0.0104 -8e-4,0.01074 -0.003,0.01074 -0.0033,0 -0.0039,0.0018 -7e-4,0.0022 0.00235,2.75e-4 0.00275,8e-4 0.003,0.0038 2.23e-4,0.0026 -1.365e-4,0.0037 -0.00145,0.0042 -10e-4,4e-4 -0.01253,0.0011 -0.025685,0.0016 -0.03069,0.001 -0.95044,9e-4 -0.9592815,-1.05e-4 z M 4.512587,4.878266 c -3.6e-5,-0.0015 -3.5e-4,-0.001 -9e-4,0.0015 -4.5e-4,0.0022 -7.5e-4,0.005 -7.5e-4,0.0063 3.6e-5,0.0015 3.5e-4,0.0011 9e-4,-0.0015 4.5e-4,-0.0021 8e-4,-0.005 7.5e-4,-0.0064 z m 0.0038,-0.02415 c -2.475e-4,-9.5e-4 -4.75e-4,-4.01e-4 -4.75e-4,0.0012 -2e-5,0.0016 1.825e-4,0.0024 4.5e-4,0.0017 2.75e-4,-6.5e-4 2.75e-4,-0.0019 3.65e-5,-0.0029 z m 0.00876,-0.04347 c -2.75e-4,-7e-4 -5e-4,-1.22e-4 -5e-4,0.0012 0,0.0014 2.215e-4,0.0019 5e-4,0.0012 2.75e-4,-6.51e-4 2.75e-4,-0.0018 0,-0.0024 z"
     id="path908"
     inkscape:connector-curvature="0" />
  <path
     style="opacity:1;fill:#ffff00;fill-opacity:1;stroke-width:0.00097656"
     d=""
     id="path910"
     inkscape:connector-curvature="0" />
  <path
     style="opacity:1;fill:#ffff00;fill-opacity:1;stroke-width:0.00097656"
     d=""
     id="path912"
     inkscape:connector-curvature="0" />
  <path
     style="opacity:1;fill:#ffff00;fill-opacity:1;stroke-width:0.00097656"
     d="m 3.704533,4.21978 c 0.0019,-0.0037 0.02392,-0.03558 0.0354,-0.05132 0.021115,-0.02895 0.04167,-0.05453 0.061352,-0.07637 0.03327,-0.03691 0.097813,-0.102219 0.134321,-0.135914 0.04802,-0.04432 0.110188,-0.09348 0.2099605,-0.166033 0.1000225,-0.07273 0.200394,-0.147711 0.25,-0.186749 0.056552,-0.0445 0.103928,-0.08724 0.1534995,-0.138483 0.058064,-0.06001 0.101174,-0.120006 0.131631,-0.183179 0.025635,-0.05317 0.030425,-0.07424 0.03423,-0.15058 0.00105,-0.021 0.0028,-0.139062 0.0029,-0.191162 l 2.9e-5,-0.02905 H 5.09188 5.4659035 v 0.409306 0.409305 l -0.00355,0.004 c -0.013885,0.01571 -0.053096,0.05599 -0.076605,0.0787 C 5.3250435,3.870891 5.2843755,3.906981 5.191498,3.984663 5.07153,4.084997 4.9777475,4.165411 4.9320475,4.207128 l -0.016775,0.01531 h -0.606054 -0.606053 z"
     id="path920"
     inkscape:connector-curvature="0" />
  <path
     style="opacity:1;fill:#ffff00;fill-opacity:1;stroke-width:0.00097656"
     d="m 4.1651345,3.773857 c 7.5e-4,-7.5e-4 0.028015,-0.02125 0.060512,-0.04558 0.1199925,-0.08986 0.207363,-0.157577 0.234863,-0.18204 0.063339,-0.05634 0.13095,-0.128207 0.163207,-0.173471 0.016975,-0.02382 0.03725,-0.05827 0.053964,-0.0917 0.0102,-0.0204 0.013475,-0.02764 0.02034,-0.04492 0.0019,-0.0047 0.00305,-0.0069 0.00275,-0.0049 -0.0018,0.01088 -0.0284,0.06796 -0.04353,0.0933 -0.028925,0.04844 -0.066133,0.09624 -0.109818,0.141062 -0.062959,0.0646 -0.109971,0.105605 -0.1972655,0.172053 -0.051614,0.03929 -0.1842475,0.137568 -0.185656,0.137568 -4.5e-4,0 -1.54e-4,-6e-4 6e-4,-0.0014 z"
     id="path922"
     inkscape:connector-curvature="0" />
  <path
     style="opacity:1;fill:#ffff00;fill-opacity:1;stroke-width:0.00097656"
     d="m 4.2300405,1.519667 -0.04004,-5e-4 0.04053,-7.5e-4 c 0.051339,-10e-4 0.061895,-9e-4 0.072754,7e-4 0.00878,0.0013 0.00877,0.0013 -0.01221,0.0012 -0.011545,-5.75e-5 -0.039015,-3.325e-4 -0.061036,-6e-4 z"
     id="path924"
     inkscape:connector-curvature="0" />
  <path
     style="opacity:1;fill:#ffff00;fill-opacity:1;stroke-width:0.00097656"
     d="m 3.4512325,1.980588 c 0,-0.229346 2.745e-4,-0.4169925 6e-4,-0.4169925 3.25e-4,0 0.01077,-0.0024 0.02319,-0.0053 0.042015,-0.00985 0.1474415,-0.03228 0.158327,-0.03369 0.00638,-8e-4 0.052716,-0.0026 0.080567,-0.0031 0.0047,-8.45e-5 0.00558,-2.9e-4 0.0034,-8e-4 -0.00255,-6e-4 -0.00265,-7.5e-4 -9.5e-4,-0.0013 0.00245,-8e-4 0.04545,-0.00505 0.070801,-0.007 0.120941,-0.00929 0.2436895,-0.0104 0.3798825,-0.00345 0.019055,9.5e-4 0.080258,0.00566 0.101074,0.00774 0.00537,5.5e-4 0.01548,0.0012 0.02246,0.00145 0.00698,2.7e-4 0.014455,9.5e-4 0.0166,0.00145 0.00215,5.5e-4 0.01452,10e-4 0.02749,10e-4 0.02752,2.75e-5 0.03076,4.725e-4 0.07456,0.01028 0.096099,0.02151 0.1778995,0.04197 0.234375,0.058621 0.337396,0.099469 0.6125965,0.277245 0.8078545,0.5218625 l 0.014395,0.01804 2.5e-4,0.134088 2.5e-4,0.134089 -0.4873045,-1.5e-5 -0.487305,-1.5e-5 -0.013185,-0.0099 C 4.450303,2.366476 4.421092,2.348656 4.387482,2.332066 4.317186,2.297386 4.240464,2.276826 4.1489825,2.268166 c -0.047405,-0.0045 -0.2403225,-0.0042 -0.29541,5e-4 -0.1082745,0.0092 -0.2051615,0.03904 -0.287877,0.0887 -0.01802,0.01082 -0.036985,0.02353 -0.050737,0.03402 l -0.00805,0.0061 H 3.479069 3.451229 Z M 3.793324,1.5208765 c -0.00495,-1.77e-4 -0.01329,-1.775e-4 -0.018555,-1.5e-6 -0.00527,1.76e-4 -0.0012,3.2e-4 0.00899,3.225e-4 0.010205,10e-7 0.01451,-1.43e-4 0.00957,-3.2e-4 z m 0.19575,-10e-4 c -0.01329,-1.535e-4 -0.035045,-1.535e-4 -0.04834,0 -0.01329,1.535e-4 -0.00245,2.8e-4 0.02417,2.8e-4 0.026585,0 0.037465,-1.255e-4 0.02417,-2.8e-4 z"
     id="path926"
     inkscape:connector-curvature="0" />
  <path
     style="opacity:1;fill:#ffff00;fill-opacity:1;stroke-width:0.00097656"
     d="m 4.327941,1.5199375 c 0.0012,-2.325e-4 0.0032,-2.325e-4 0.0044,0 0.0012,2.33e-4 2.195e-4,4.225e-4 -0.0022,4.225e-4 -0.0024,0 -0.0034,-1.9e-4 -0.0022,-4.225e-4 z"
     id="path928"
     inkscape:connector-curvature="0" />
  <path
     style="opacity:1;fill:#ffff00;fill-opacity:1;stroke-width:0.00097656"
     d="m 4.3171545,1.5196145 c -0.00902,-3.87e-4 -0.01671,-0.00105 -0.01709,-0.00145 -9e-4,-10e-4 0.050937,2.33e-4 0.056441,0.00135 0.00551,0.0011 -0.015045,0.00115 -0.03935,1.03e-4 z"
     id="path930"
     inkscape:connector-curvature="0" />
  <path
     style="opacity:1;fill:#ffff00;fill-opacity:1;stroke-width:0.00097656"
     d="m 2.342277,2.998549 c -0.059572,-6.99e-4 -0.082511,-0.0018 -0.087153,-0.0041 -0.002,-10e-4 -0.00255,-0.0021 -0.00285,-0.0059 l -3.825e-4,-0.0046 h 0.499191 0.499191 l -6.5e-4,0.006 c -3.5e-4,0.0033 -6e-4,0.0068 -6e-4,0.0078 0,0.0018 -0.011765,0.0018 -0.423584,0.0017 -0.232971,-9.4e-5 -0.4503905,-5e-4 -0.483154,-9.01e-4 z"
     id="path932"
     inkscape:connector-curvature="0" />
  <path
     style="opacity:1;fill:#ffff00;fill-opacity:1;stroke-width:0.00097656"
     d="M 3.2517,2.96097 C 3.251569,2.95487 3.2549,2.91863 3.25755,2.89706 3.276645,2.742446 3.328776,2.595967 3.396034,2.507957 3.412929,2.485847 3.455526,2.441337 3.479476,2.420767 3.57278,2.340617 3.6789015,2.293247 3.805797,2.275101 c 0.052791,-0.0076 0.088318,-0.0091 0.212891,-0.0091 0.103439,-1.2e-5 0.1254465,10e-4 0.1746595,0.0081 0.1273035,0.01831 0.236282,0.06751 0.3242215,0.146357 0.04132,0.03704 0.078401,0.08042 0.108156,0.1265 0.03488,0.05402 0.072699,0.134797 0.086188,0.184082 0.0031,0.01126 0.00375,0.02057 0.00405,0.05664 l 3e-4,0.03662 -8e-4,-0.02686 C 4.713713,2.73857 4.710203,2.72173 4.689353,2.672928 4.658093,2.599758 4.622468,2.539936 4.5790425,2.487693 4.4992915,2.391753 4.3992635,2.327253 4.2779735,2.293565 c -0.03895,-0.01082 -0.092382,-0.0204 -0.130371,-0.02337 -0.029035,-0.0023 -0.089229,-0.0033 -0.1655275,-0.0027 -0.101461,7e-4 -0.125319,0.002 -0.1743165,0.009 -0.1380425,0.0199 -0.2443065,0.0699 -0.3427735,0.161289 -0.07069,0.06561 -0.110273,0.124604 -0.1460515,0.217681 -0.00832,0.02164 -0.022265,0.06364 -0.028705,0.08645 -0.017225,0.06099 -0.02816,0.12194 -0.036155,0.201536 -0.00125,0.01235 -0.0023,0.02024 -0.00235,0.01753 z"
     id="path934"
     inkscape:connector-curvature="0" />
  <path
     style="opacity:1;fill:#ffff00;fill-opacity:1;stroke-width:0.00097656"
     d="M 3.0504225,2.068616 V 1.709735 l 0.01483,-0.00743 C 3.1214065,1.67418 3.2057025,1.639156 3.27064,1.616966 3.339779,1.593341 3.4155995,1.571741 3.484991,1.555909 3.512486,1.549629 3.6190655,1.526789 3.6285455,1.525134 c 0.00615,-0.00105 0.02535,-0.0021 0.065905,-0.00355 0.01253,-4.4e-4 0.01992,-0.0011 0.02064,-0.0018 6.5e-4,-6.5e-4 0.01449,-0.0024 0.033215,-0.00425 0.084194,-0.00818 0.1478865,-0.010895 0.256215,-0.0109 0.094603,-5.5e-6 0.1534455,0.0022 0.221191,0.00828 0.014505,0.0013 0.034495,0.00285 0.044435,0.00345 0.00993,6e-4 0.02422,0.00175 0.03174,0.0026 0.00752,8.5e-4 0.025755,0.00185 0.040525,0.0023 0.03027,8.5e-4 0.024695,-7.35e-5 0.08696,0.01413 0.161941,0.03694 0.242268,0.059636 0.342239,0.096712 0.096257,0.0357 0.190903,0.080594 0.275632,0.13075 l 0.01782,0.01055 2.47e-4,0.327051 2.47e-4,0.32705 -0.269531,-3.7e-5 -0.2695315,-3.7e-5 -0.00355,-0.0031 C 4.508869,2.411853 4.491204,2.397313 4.479609,2.388643 4.383963,2.317153 4.273839,2.27819 4.1363475,2.267208 4.1143025,2.265508 3.906704,2.265408 3.8775585,2.267179 3.714562,2.276979 3.5848185,2.327599 3.474238,2.424467 l -0.0034,0.003 -0.210205,4e-5 -0.2102055,3.9e-5 z"
     id="path936"
     inkscape:connector-curvature="0" />
  <path
     style="opacity:1;fill:#ffff00;fill-opacity:1;stroke-width:0.00097656"
     d=""
     id="path938"
     inkscape:connector-curvature="0" />
  <path
     style="opacity:1;fill:#ffff00;fill-opacity:1;stroke-width:0.00097656"
     d="m 5.739218,3.119093 c 8.5e-4,-0.03601 8.5e-4,-0.229758 -4e-6,-0.264648 l -6.5e-4,-0.02685 0.0013,0.01514 c 0.0024,0.02757 0.00435,0.06637 0.00539,0.107754 0.0015,0.0587 -7.5e-4,0.135511 -0.00537,0.182773 -0.0013,0.01358 -0.0013,0.01348 -7e-4,-0.01416 z"
     id="path940"
     inkscape:connector-curvature="0" />
  <path
     style="opacity:1;fill:#ffff00;fill-opacity:1;stroke-width:0.00097656"
     d="m 4.70332,3.221163 c -4.8e-5,-6.5e-4 8e-4,-0.0061 0.0018,-0.01221 0.003,-0.01744 0.00516,-0.04129 0.00737,-0.08042 0.0019,-0.03391 0.0028,-0.08244 0.00335,-0.187989 l 7e-4,-0.119629 1.67e-4,0.09229 c 3e-4,0.170366 -0.0021,0.251551 -0.00866,0.288565 -0.0019,0.01056 -0.00455,0.0216 -0.00475,0.0194 z"
     id="path942"
     inkscape:connector-curvature="0" />
  <path
     style="opacity:1;fill:#ffff00;fill-opacity:1;stroke-width:0.00097656"
     d=""
     id="path944"
     inkscape:connector-curvature="0" />
  <path
     style="opacity:1;fill:#ffff00;fill-opacity:1;stroke-width:0.00097656"
     d="m 4.716323,2.783811 c 1.5e-6,-0.0086 1.505e-4,-0.01198 3.25e-4,-0.0075 1.815e-4,0.0044 1.805e-4,0.01149 -2e-6,0.01563 -1.83e-4,0.0041 -3.25e-4,5e-4 -3.25e-4,-0.0081 z"
     id="path946"
     inkscape:connector-curvature="0" />
  <path
     style="opacity:1;fill:#ffff00;fill-opacity:1;stroke-width:0.00097656"
     d="m 4.369785,3.623329 c 5e-4,-4.5e-4 0.00598,-0.0047 0.012155,-0.0095 0.047755,-0.03687 0.085135,-0.06903 0.128881,-0.110894 0.077325,-0.074 0.1281065,-0.139083 0.164509,-0.21084 0.02027,-0.03996 0.0298,-0.0668 0.03421,-0.09635 0.0041,-0.02756 0.00665,-0.0815 0.00611,-0.129727 -2.225e-4,-0.01987 -1.42e-4,-0.02735 1.79e-4,-0.0166 3.25e-4,0.01126 9.5e-4,-0.02974 0.0014,-0.09675 0.0011,-0.146612 1.79e-4,-0.204121 -0.00335,-0.214899 -8.5e-4,-0.0027 -9e-4,-0.0027 -4.5e-4,6.5e-4 2.495e-4,0.0018 6.5e-4,0.0091 8.5e-4,0.01611 2.315e-4,0.007 2.32e-4,0.01072 5e-7,0.0083 -0.00105,-0.01106 -0.00355,-0.02758 -0.0053,-0.03499 -0.0025,-0.01069 -0.0023,-0.01205 5.5e-4,-0.0036 0.00125,0.0038 0.00205,0.0053 0.00175,0.0034 -0.00155,-0.0094 -0.01685,-0.0495 -0.02922,-0.07685 -0.025955,-0.05738 -0.056144,-0.108668 -0.088068,-0.149616 -0.02166,-0.02778 -0.058792,-0.06656 -0.085374,-0.08916 -0.031225,-0.02655 -0.073653,-0.05564 -0.1021035,-0.07001 -0.00833,-0.0042 -0.00385,-0.0012 0.00781,0.0053 0.079556,0.04409 0.1524455,0.112174 0.2064555,0.192856 0.01218,0.01819 0.0363,0.06006 0.035225,0.06114 -2.75e-4,2.75e-4 -0.0026,-0.0034 -0.00515,-0.0081 -0.00255,-0.0047 -0.00859,-0.01517 -0.013405,-0.0232 C 4.5838065,2.480509 4.5124075,2.407829 4.428733,2.357519 4.408438,2.345309 4.372894,2.327349 4.351585,2.318529 l -0.01416,-0.0059 0.623535,2.19e-4 0.623535,2.21e-4 0.0124,0.02441 c 0.046735,0.09201 0.084453,0.192749 0.1090555,0.291278 0.0046,0.01844 0.01458,0.06218 0.016755,0.07347 0.004,0.02084 0.012645,0.08688 0.014615,0.111817 4.995e-4,0.0064 0.00155,0.01831 0.0023,0.02636 0.0028,0.02933 0.00504,0.07571 0.00603,0.125977 0.0011,0.0544 -0.00245,0.145078 -0.00685,0.175781 -8e-4,0.0054 -0.0019,0.01591 -0.00245,0.02343 -0.0022,0.02826 -0.00918,0.06846 -0.018075,0.104004 -0.02612,0.104331 -0.066811,0.198343 -0.128703,0.297363 -0.00953,0.01525 -0.0304,0.04616 -0.0361,0.05347 l -0.00285,0.0037 H 4.959693 c -0.3250135,0 -0.590516,-3.75e-4 -0.5900055,-8e-4 z M 4.7126885,2.732358 c -3e-4,-7.5e-4 -5.5e-4,-5.5e-4 -6e-4,6e-4 -4.2e-5,10e-4 1.885e-4,0.0016 5e-4,0.0013 3.25e-4,-3.25e-4 3.5e-4,-0.0012 7.7e-5,-0.0019 z M 4.4014745,2.339404 c 0,-0.0014 -0.055241,-0.02656 -0.056151,-0.02565 -1.99e-4,1.99e-4 0.00609,0.0031 0.01398,0.0065 0.00788,0.0034 0.02049,0.0091 0.02801,0.01283 0.015865,0.0078 0.01416,0.007 0.014161,0.0063 z"
     id="path948"
     inkscape:connector-curvature="0" />
  <path
     style="opacity:1;fill:#ffff00;fill-opacity:1;stroke-width:0.00097656"
     d="m 4.369785,3.623329 c 5e-4,-4.5e-4 0.00598,-0.0047 0.012155,-0.0095 0.034285,-0.02647 0.071172,-0.05731 0.098633,-0.08247 0.098153,-0.08992 0.156161,-0.161769 0.1971435,-0.244165 0.02198,-0.04419 0.03001,-0.07005 0.033785,-0.10881 0.003,-0.03102 0.0039,-0.05285 0.0039,-0.09821 3.5e-6,-0.02552 2.36e-4,-0.04287 5e-4,-0.03857 2.75e-4,0.0043 9e-4,-0.04053 0.00135,-0.09961 8.5e-4,-0.106089 -7.55e-5,-0.188614 -0.0022,-0.198241 -6.5e-4,-0.0027 -8e-4,9.1e-5 -6e-4,0.0098 1.59e-4,0.0075 9.85e-5,0.0117 -1.345e-4,0.0093 -0.0011,-0.01112 -0.00355,-0.02759 -0.0053,-0.03499 -0.00235,-0.01 -0.00235,-0.01226 4.5e-5,-0.005 9.5e-4,0.0029 0.0018,0.0046 0.00185,0.0038 1.375e-4,-0.0023 -0.00885,-0.02797 -0.01614,-0.04604 C 4.674877,2.631303 4.647687,2.579137 4.620573,2.538249 4.580388,2.477659 4.520785,2.416407 4.4654015,2.378798 c -0.00875,-0.0059 -0.00541,-0.0032 0.011715,0.0094 0.060933,0.04513 0.11811,0.108331 0.1574545,0.174041 0.011655,0.01947 0.02212,0.03852 0.02149,0.03916 -2.755e-4,2.76e-4 -0.0026,-0.0034 -0.00518,-0.0081 C 4.629451,2.553899 4.601071,2.513009 4.570028,2.47679 4.557323,2.46197 4.520228,2.42521 4.50542,2.41276 4.45746,2.37244 4.40837,2.34241 4.3516155,2.31869 l -0.01416,-0.0059 0.623535,2.23e-4 0.623535,2.23e-4 0.016655,0.0332 c 0.035905,0.07157 0.064323,0.143178 0.088183,0.222226 0.01516,0.05022 0.031985,0.120926 0.036705,0.154239 8e-4,0.0056 0.00255,0.01773 0.0039,0.02686 0.02222,0.152103 0.020785,0.36169 -0.0033,0.482877 -0.025465,0.128069 -0.082677,0.258749 -0.164943,0.376737 l -0.01038,0.01489 -0.59126,9e-6 c -0.3251925,0 -0.590842,-3.49e-4 -0.590332,-7.99e-4 z m 0.34388,-0.886088 c -3e-4,-7.5e-4 -5.5e-4,-5.5e-4 -6e-4,6e-4 -4.2e-5,10e-4 1.885e-4,0.0016 5e-4,0.0013 3.25e-4,-3.25e-4 3.5e-4,-0.0012 7.7e-5,-0.0019 z m -10e-4,-0.0049 c -3e-4,-7.5e-4 -5.5e-4,-5.5e-4 -6e-4,6e-4 -4.2e-5,0.001 1.885e-4,0.0016 5e-4,0.0013 3.25e-4,-3.25e-4 3.5e-4,-0.0012 7.7e-5,-0.0019 z M 4.457638,2.373207 c -0.0012,-0.002 -0.039445,-0.02536 -0.050329,-0.0308 -0.00706,-0.0035 -10e-4,3.88e-4 0.011715,0.0076 0.00725,0.0041 0.018895,0.01116 0.02588,0.0157 0.01399,0.0091 0.01353,0.0088 0.01273,0.0075 z M 4.401449,2.339467 c 0,-6e-4 -0.017255,-0.0093 -0.01829,-0.0092 -6e-4,3.8e-5 0.016995,0.0095 0.018045,0.0097 1.345e-4,2.7e-5 2.44e-4,-1.66e-4 2.44e-4,-4.31e-4 z m -0.02881,-0.01422 c -0.00537,-0.0026 -0.010205,-0.0048 -0.010745,-0.0048 -0.00125,2.7e-5 0.01823,0.0095 0.019535,0.0095 5e-4,-2e-6 -0.0034,-0.0022 -0.00879,-0.0048 z m -0.01416,-0.0063 c -0.00135,-7.5e-4 -0.0029,-0.0014 -0.0034,-0.0014 -5.5e-4,0 1.225e-4,6.49e-4 0.00145,0.0014 0.00135,7.5e-4 0.0029,0.0014 0.0034,0.0014 5.5e-4,0 -1.22e-4,-6.5e-4 -0.00145,-0.0014 z m -0.00683,-0.0029 c -0.00135,-7.5e-4 -0.0029,-0.0014 -0.0034,-0.0014 -5e-4,0 1.22e-4,6.5e-4 0.00145,0.0014 0.00135,7.5e-4 0.0029,0.0014 0.0034,0.0014 5e-4,0 -1.22e-4,-6.5e-4 -0.0015,-0.0014 z"
     id="path950"
     inkscape:connector-curvature="0" />
  <path
     style="opacity:1;fill:#ffff00;fill-opacity:1;stroke-width:0.00097656"
     d="m 4.8472755,4.288562 c 0.00589,-0.0059 0.011145,-0.01075 0.011685,-0.01075 5e-4,0 -0.00385,0.0048 -0.00974,0.01075 -0.00589,0.0059 -0.011145,0.01075 -0.011685,0.01075 -5e-4,0 0.00385,-0.0049 0.00974,-0.01075 z"
     id="path952"
     inkscape:connector-curvature="0" />
  <path
     style="opacity:1;fill:#ffff00;fill-opacity:1;stroke-width:0.00097656"
     d=""
     id="path954"
     inkscape:connector-curvature="0" />
  <path
     style="opacity:1;fill:#ffff00;fill-opacity:1;stroke-width:0.00097656"
     d="m 3.6094615,4.998805 c -0.030345,-3.25e-4 0.129614,-7e-4 0.355469,-8.5e-4 0.225854,-1.29e-4 0.430639,-4e-4 0.4550775,-6e-4 0.037965,-3e-4 0.04045,-2.51e-4 0.01709,3.99e-4 -0.033725,9.5e-4 -0.7514755,0.0018 -0.8276365,0.001 z"
     id="path962"
     inkscape:connector-curvature="0" />
  <path
     style="opacity:1;fill:#ffff00;fill-opacity:1;stroke-width:0.00097656"
     d="m 3.5005515,6.498967 c -3.5e-4,-3.49e-4 -6.5e-4,-0.21547 -6.5e-4,-0.478026 V 5.543564 h 0.5 0.5 v 0.478028 0.478027 h -0.499349 c -0.2746415,0 -0.4996415,-3e-4 -0.5,-6.5e-4 z"
     id="path964"
     inkscape:connector-curvature="0" />
  <path
     style="opacity:1;fill:#ffff00;fill-opacity:1;stroke-width:0.00097656"
     d="M 3.5001435,5.8643 3.500389,5.501751 4.0001445,5.501506 4.4999005,5.501261 V 5.864055 6.226848 H 3.9998995 3.499898 Z"
     id="path966"
     inkscape:connector-curvature="0" />
  <path
     style="opacity:1;fill:#5bc0de;fill-opacity:1;stroke-width:0.00097656"
     d="M 3.1649395,5.571087 V 4.915325 H 3.332804 c 0.148312,0 0.16793,1.71e-4 0.1684265,0.0015 3e-4,8e-4 2.05e-4,0.0015 -2.305e-4,0.0015 -0.0011,0 -0.00335,0.04132 -0.00295,0.05352 3.25e-4,0.0093 5.5e-4,0.0102 0.00275,0.01185 0.0018,0.0014 0.00245,0.0028 0.00255,0.006 2.75e-4,0.0062 0.0022,0.0068 0.02237,0.0078 0.037055,0.0017 0.3491235,0.003 0.5713275,0.0023 0.288509,-8e-4 0.399875,-0.0021 0.402507,-0.0047 2.39e-4,-2.39e-4 6e-4,-0.0031 7.5e-4,-0.0064 1.895e-4,-0.0032 6.5e-4,-0.0064 10e-4,-0.007 3.505e-4,-5.5e-4 5e-4,-0.0025 3.75e-4,-0.0042 -1.5e-4,-0.0017 -4.3e-5,-0.0036 2.375e-4,-0.0041 2.75e-4,-5e-4 6e-4,-0.0025 7.5e-4,-0.0044 1.38e-4,-0.0019 0.00165,-0.01463 0.00335,-0.02832 l 0.0031,-0.0249 L 4.8443,4.91553 5.179483,4.915284 5.1797285,5.571047 5.179974,6.22681 H 4.8403745 4.500775 V 5.865074 c 0,-0.198955 -2.75e-4,-0.362432 -6e-4,-0.363281 -5.5e-4,-0.0014 -0.04555,-0.0015 -0.5004885,-0.0015 H 3.499791 V 5.863574 6.226855 H 3.33242 3.1649395 Z"
     id="path970"
     inkscape:connector-curvature="0" />
  <path
     style="opacity:1;fill:#5bc0de;fill-opacity:1;stroke-width:0.02209709"
     d="M 3.709585,7.498532 C 3.2770975,7.44711 3.0252085,7.387381 2.704168,7.260126 2.484322,7.172983 2.209799,7.031044 2.041255,6.917375 L 1.941818,6.850315 3.9968475,6.850689 6.051876,6.851065 5.8971965,6.952737 c -0.319246,0.209845 -0.789862,0.40408 -1.163601,0.480248 -0.325875,0.06641 -0.774945,0.09516 -1.0240105,0.06554 z"
     id="path883"
     inkscape:connector-curvature="0" />
  <path
     style="opacity:1;fill:#5bc0de;fill-opacity:1;stroke-width:0.02209709"
     d="M 1.9853265,1.1280875 C 2.0066215,1.0936325 2.354231,0.8903531 2.515878,0.8178271 3.5018305,0.3754602 4.565817,0.3824686 5.518514,0.8376052 5.6417155,0.8964629 5.812123,0.9904089 5.8971965,1.046374 L 6.051876,1.148129 4.012116,1.1486015 C 2.7296815,1.148899 1.9771715,1.1412815 1.9853265,1.1280865 Z"
     id="path885"
     inkscape:connector-curvature="0" />
  <path
     style="opacity:1;fill:#5bc0de;fill-opacity:1;stroke-width:0.02209709"
     d="M 3.474682,7.480452 C 3.369792,7.463332 3.220637,7.433377 3.143226,7.413885 2.709475,7.304672 2.106118,7.015231 1.8920145,6.813658 1.8552295,6.779023 1.764197,6.701441 1.689725,6.641253 1.5696655,6.54422 1.4838605,6.45609 1.279933,6.220357 1.023972,5.924474 0.70683095,5.308245 0.6146587,4.927677 0.6102437,4.909447 0.5917647,4.833727 0.5735942,4.759407 0.5192186,4.537004 0.5053867,4.363221 0.5078428,3.933308 0.5101578,3.528061 0.5142098,3.495292 0.61695245,3.050842 0.65519445,2.885413 0.9252713,2.258709 0.97942595,2.209735 c 0.0161475,-0.0146 0.0638623,-0.09094 0.0828719,-0.132582 0.00832,-0.01823 0.05374,-0.082864 0.1009305,-0.1436315 0.23016,-0.2963805 0.3748565,-0.447552 0.6591131,-0.688606 0.810238,-0.6870946 2.0482855,-0.9336107 3.1438248,-0.6259887 0.3919755,0.1100647 0.909515,0.3629207 1.10458,0.5396677 0.041165,0.0373 0.10619,0.091491 0.1444951,0.120421 0.1384284,0.104549 0.4145519,0.392458 0.6092909,0.6352975 0.2939435,0.366547 0.5875371,1.071445 0.6425201,1.542645 0.00701,0.06007 0.017195,0.116422 0.022635,0.125223 0.01221,0.01976 0.01155,0.653349 -8.5e-4,0.802174 -0.025465,0.3059 -0.122199,0.66796 -0.272108,1.018446 -0.0724,0.169273 -0.226451,0.454938 -0.2859715,0.530293 -0.0096,0.01215 -0.03409,0.04805 -0.054428,0.07976 -0.020335,0.03172 -0.050588,0.07149 -0.067227,0.08839 -0.01664,0.01689 -0.070552,0.08541 -0.1198086,0.152255 -0.082746,0.112293 -0.3936169,0.414516 -0.5490414,0.533768 -0.03646,0.02797 -0.078829,0.0629 -0.094153,0.07762 -0.053301,0.05118 -0.4010566,0.252015 -0.5685561,0.328347 -0.2404165,0.109561 -0.5898449,0.222584 -0.8193469,0.265017 -0.27337,0.05054 -0.9339635,0.06293 -1.1835265,0.0222 z M 4.511019,6.00491 4.516959,5.502201 H 4.008311 3.4996635 v 0.508648 0.508648 l 0.5027085,-0.0059 0.502709,-0.0059 z M 4.433264,5.001882 c 0.067318,-0.01112 0.082864,-0.02309 0.082864,-0.06372 0,-0.11042 0.092604,-0.343169 0.1859185,-0.467288 C 4.7552935,4.400054 4.9388625,4.220288 5.109979,4.071403 5.4571705,3.769318 5.5743305,3.635048 5.6723055,3.426955 5.7292815,3.305942 5.7405135,3.252165 5.7490885,3.05937 5.7820385,2.318557 5.3433445,1.764537 4.560323,1.5580875 4.381719,1.5109975 4.301635,1.5027315 4.023537,1.502684 3.5361065,1.5026 3.236283,1.5773105 2.911391,1.779807 2.733021,1.89098 2.520016,2.106652 2.429734,2.267494 2.340828,2.425883 2.265108,2.668183 2.248427,2.847663 L 2.233782,3.005231 H 2.74292 3.2520575 l 0.02546,-0.1462 C 3.3236975,2.593835 3.4481055,2.4161 3.6483255,2.32927 3.7731455,2.27514 4.1246445,2.26186 4.2750865,2.3056 4.419348,2.34754 4.559324,2.460891 4.6433425,2.603816 c 0.056916,0.09682 0.06052,0.118597 0.059127,0.357222 -0.0021,0.363074 -0.042145,0.425803 -0.484147,0.758795 C 3.88846,3.968342 3.748372,4.111911 3.6463945,4.305975 3.511589,4.56251 3.447129,4.977 3.5383325,5.000835 c 0.059721,0.0156 0.8015975,0.01648 0.894932,10e-4 z M 2.2787985,1.132833 c -0.057729,-0.00455 -0.1521935,-0.00455 -0.209922,0 -0.057729,0.00455 -0.010495,0.00827 0.104961,0.00827 0.1154575,0 0.16269,-0.0037 0.104961,-0.00827 z"
     id="path887"
     inkscape:connector-curvature="0" />
  <path
     style="opacity:1;fill:#ffffff;fill-opacity:1;stroke-width:0.02209709"
     d="M 3.510439,4.948916 C 3.490989,4.887646 3.517079,4.706298 3.570708,4.529929 3.663412,4.225054 3.8094235,4.044857 4.2067695,3.744943 4.66027,3.402642 4.714032,3.31956 4.714032,2.961037 4.714032,2.70362 4.685412,2.609696 4.5652775,2.472871 4.443028,2.333637 4.3182435,2.288095 4.0358695,2.279658 3.7186205,2.270158 3.6009625,2.305208 3.452989,2.453179 3.371504,2.534659 3.338375,2.590433 3.302544,2.70644 3.277274,2.78826 3.256594,2.88399 3.256594,2.91917 V 2.98313 H 2.75941 2.2622255 V 2.877724 c 0,-0.139293 0.074686,-0.403384 0.1607455,-0.568398 C 2.5257835,2.112192 2.8040975,1.844562 3.024575,1.73082 3.272894,1.6027145 3.4563925,1.5522375 3.772837,1.524987 4.2451065,1.484317 4.597409,1.542267 4.9470215,1.7181185 5.2463455,1.868677 5.445915,2.06215 5.59548,2.346765 c 0.099893,0.190092 0.1412165,0.411138 0.1323965,0.70821 -0.00698,0.235146 -0.012355,0.260973 -0.084179,0.404553 -0.061938,0.123819 -0.127531,0.202339 -0.3404,0.407489 -0.700334,0.674937 -0.70283,0.678049 -0.7833915,0.976674 L 4.482346,4.98292 4.0036775,4.98892 C 3.535886,4.99472 3.524678,4.99382 3.5104395,4.94896 Z"
     id="path889"
     inkscape:connector-curvature="0" />
  <path
     style="opacity:1;fill:#ffffff;fill-opacity:1;stroke-width:0.02209709"
     d="M 3.499663,5.999385 V 5.502201 H 3.9968475 4.494032 V 5.999386 6.49657 H 3.9968475 3.499663 Z"
     id="path893"
     inkscape:connector-curvature="0" />
  <path
     style="opacity:1;fill:#ffffff;fill-opacity:1;stroke-width:0.00195313"
     d="m 4.150999,3.786889 c 0,-4.25e-4 0.01823,-0.01427 0.040515,-0.03076 0.022285,-0.01649 0.04206,-0.03151 0.043945,-0.03339 0.0019,-0.0019 0.00435,-0.0034 0.00544,-0.0034 0.0011,0 0.0025,-0.0014 0.00315,-0.003 6e-4,-0.0016 0.00235,-0.003 0.0039,-0.003 0.0015,0 0.0033,-0.0013 0.0039,-0.003 6.5e-4,-0.0016 0.00225,-0.0029 0.00365,-0.0029 0.00135,0 0.003,-0.0013 0.00365,-0.003 6.5e-4,-0.0016 0.0024,-0.003 0.00395,-0.003 0.00155,0 0.0031,-7.5e-4 0.0035,-0.0017 3.505e-4,-9.5e-4 0.01823,-0.01516 0.039715,-0.03157 0.231036,-0.176445 0.327416,-0.28099 0.3717435,-0.403231 0.022375,-0.06171 0.031835,-0.125212 0.03574,-0.239909 0.0035,-0.103251 -0.0014,-0.218331 -0.01209,-0.282077 -0.0116,-0.0693 -0.02609,-0.109343 -0.06004,-0.165917 -0.03271,-0.0545 -0.060842,-0.0906 -0.10476,-0.134424 C 4.4559365,2.361821 4.379122,2.322051 4.2600765,2.299289 4.1862915,2.285179 4.08003,2.277689 3.953217,2.277649 c -0.1420095,-4.2e-5 -0.225081,0.01057 -0.3000055,0.03833 -0.058921,0.02182 -0.1161205,0.05806 -0.172238,0.109116 -0.0275,0.02502 -0.065319,0.06478 -0.08449,0.08883 -0.03004,0.03768 -0.057674,0.08804 -0.077208,0.140682 -0.0193,0.05202 -0.0419,0.134059 -0.05191,0.188458 -0.00275,0.01504 -0.00604,0.03174 -0.00727,0.03711 -0.0012,0.0054 -0.00265,0.03064 -0.0031,0.05615 -8.5e-4,0.04393 -0.0011,0.04639 -0.0046,0.04639 -0.00305,0 -0.0037,0.0014 -0.0037,0.0079 v 0.0079 l -0.492676,-6e-4 C 2.3947205,2.99749 2.262042,2.996715 2.258461,2.995115 2.249521,2.991115 2.248161,2.980745 2.250581,2.935615 2.259051,2.778357 2.283796,2.644741 2.328886,2.512919 2.372226,2.386231 2.4354645,2.264264 2.513721,2.156448 2.554361,2.100458 2.593624,2.055677 2.661803,1.9875585 2.73594,1.9136995 2.795816,1.8646385 2.882049,1.8073075 3.064003,1.686336 3.2675825,1.603774 3.523108,1.5473245 c 0.090102,-0.019905 0.1090975,-0.023155 0.1484375,-0.0254 0.02041,-0.00115 0.048535,-0.00335 0.0625,-0.0049 0.137408,-0.01509 0.3413795,-0.01672 0.4960935,-0.00395 0.062704,0.00517 0.087542,0.00676 0.1066565,0.00685 0.023645,1.02e-4 0.039035,0.0028 0.112763,0.019835 0.153129,0.035365 0.2539875,0.065055 0.353042,0.103922 0.25288,0.099225 0.468533,0.251139 0.6284945,0.4427355 l 0.018755,0.02246 v 0.81937 0.819371 L 5.429795,3.767608 5.40974,3.787598 H 4.7803785 c -0.3461305,0 -0.629343,-3.5e-4 -0.629343,-7.5e-4 z"
     id="path895"
     inkscape:connector-curvature="0" />
  <path
     style="opacity:1;fill:#ffffff;fill-opacity:1;stroke-width:0.00195313"
     d="m 4.1916355,3.755654 c 0.023535,-0.01761 0.049385,-0.03721 0.057442,-0.04354 0.00805,-0.0063 0.033545,-0.02593 0.056641,-0.04354 0.2048785,-0.156216 0.3019175,-0.25485 0.352643,-0.358441 0.02909,-0.05941 0.04394,-0.119316 0.05205,-0.209961 0.00345,-0.03864 0.00345,-0.246432 1.95e-5,-0.283203 C 4.698546,2.690343 4.680936,2.63615 4.62317,2.548414 4.55847,2.450154 4.470526,2.372141 4.383314,2.335653 4.291189,2.297103 4.181752,2.281293 3.988336,2.278553 c -0.192694,-0.0027 -0.2857995,0.01136 -0.3779295,0.05717 -0.064709,0.03218 -0.120905,0.076 -0.181096,0.141231 -0.071916,0.07794 -0.1057235,0.145251 -0.143291,0.285322 -0.019345,0.07214 -0.02913,0.131108 -0.02913,0.175609 0,0.03236 -0.00145,0.04509 -0.00515,0.04509 -0.0018,0 -0.00265,0.0025 -0.00265,0.0078 v 0.0078 H 3.0156955 2.782297 l 4.5e-5,-0.560058 4.5e-5,-0.560059 0.027975,-0.02095 C 3.005173,1.711656 3.2348275,1.6112445 3.5169405,1.5486105 3.6033545,1.5294255 3.633113,1.5242355 3.669017,1.5220855 c 0.0188,-0.00115 0.051758,-0.00375 0.073242,-0.00587 0.1418725,-0.013905 0.325129,-0.015845 0.463867,-0.0049 0.061777,0.00485 0.1154655,0.00832 0.133789,0.00861 0.02099,3.325e-4 0.035855,0.00295 0.097657,0.01704 0.222304,0.050767 0.354645,0.094888 0.5,0.166697 0.293102,0.144799 0.518957,0.3612145 0.6573975,0.6299235 0.053297,0.103448 0.09581,0.222139 0.1217235,0.339844 0.010175,0.04622 0.0177,0.101798 0.02471,0.182617 0.00335,0.03882 0.00465,0.184681 0.002,0.2295 C 5.736833,3.196997 5.723583,3.267656 5.69282,3.355292 5.665385,3.433452 5.62256,3.51862 5.5746525,3.590294 5.5404775,3.641424 5.4732085,3.724061 5.4310595,3.766692 l -0.02076,0.02099 H 4.779582 4.148864 Z"
     id="path897"
     inkscape:connector-curvature="0" />
  <path
     style="opacity:1;fill:#ffffff;fill-opacity:1;stroke-width:0.00195313"
     d="m 3.6934135,4.997971 c -0.133929,-8.5e-4 -0.162819,-0.0015 -0.166193,-0.0038 -0.010645,-0.0071 -0.02286,-0.03365 -0.025385,-0.05522 -0.0021,-0.01765 0.0052,-0.117989 0.012995,-0.179371 0.01027,-0.08089 0.02796,-0.164479 0.050429,-0.238282 0.04751,-0.156059 0.125251,-0.29981 0.226104,-0.418088 0.02217,-0.026 0.1351945,-0.139836 0.163765,-0.164941 0.030865,-0.02712 0.089075,-0.0731 0.1484375,-0.117235 C 4.25408,3.709118 4.3629855,3.625478 4.419972,3.578035 4.54665,3.47257 4.618165,3.391953 4.658291,3.309385 4.703041,3.217305 4.715985,3.126695 4.713265,2.924619 4.712265,2.850469 4.710515,2.810888 4.707085,2.786435 l -0.00105,-0.0073 H 5.2196925 5.73335 l 9.5e-4,0.0044 c 0.0018,0.0082 0.00694,0.06866 0.00885,0.104003 0.0025,0.04601 0.00245,0.163238 0,0.204102 C 5.73703,3.191985 5.72438,3.261371 5.697555,3.341727 5.664415,3.440987 5.606716,3.55059 5.5438785,3.633633 5.4550105,3.751076 5.3753835,3.830076 5.1807155,3.993934 5.0958745,4.065344 5.0621315,4.097084 4.91595,4.243007 4.629765,4.528686 4.585537,4.593555 4.5274425,4.812832 c -0.0039,0.01477 -0.00846,0.03323 -0.01009,0.04101 -0.00295,0.01406 -0.0036,0.01762 -0.00556,0.03076 -5.5e-4,0.0038 -0.0023,0.01516 -0.00385,0.02534 -0.00155,0.01018 -0.0039,0.0301 -0.00516,0.04427 l -0.00235,0.02576 -0.00901,0.0049 c -0.022335,0.01206 -0.011115,0.01143 -0.237525,0.01312 -0.2181865,0.0017 -0.297712,0.0017 -0.5605465,-3.3e-5 z"
     id="path899"
     inkscape:connector-curvature="0" />
  <path
     style="opacity:1;fill:#ffffff;fill-opacity:1;stroke-width:0.00195313"
     d="m 3.668023,4.997979 c -0.102305,-8e-4 -0.1377635,-0.0017 -0.14087,-0.0034 C 3.517283,4.988879 3.504358,4.960499 3.501813,4.938859 3.499463,4.919109 3.506993,4.819507 3.515888,4.751839 3.543258,4.543755 3.609336,4.361734 3.714421,4.204964 3.760521,4.136184 3.791424,4.099871 3.8749265,4.016333 3.9646525,3.926573 3.979972,3.913613 4.1230995,3.806439 4.3751565,3.617698 4.4553835,3.553076 4.5303595,3.478402 4.644958,3.364263 4.691059,3.273047 4.707054,3.128792 4.715644,3.051372 4.715554,2.840996 4.7069235,2.786504 l -0.00115,-0.0073 0.5143325,5e-4 0.5143325,5e-4 0.00135,0.01269 c 0.00628,0.05889 0.00788,0.09001 0.00884,0.171895 0.00135,0.113022 -0.00225,0.175175 -0.014305,0.248026 -0.02302,0.139171 -0.093127,0.297517 -0.186356,0.420898 C 5.4569185,3.748917 5.3778385,3.827805 5.1925005,3.98433 5.1046675,4.05851 5.0859685,4.07573 4.973699,4.185877 4.8446435,4.312491 4.748259,4.412829 4.697332,4.47358 4.641315,4.5404 4.605691,4.595587 4.5779615,4.658494 c -0.021965,0.04983 -0.06043,0.18081 -0.064419,0.21936 -5.5e-4,0.0054 -0.0018,0.01241 -0.00275,0.01563 -0.00175,0.0059 -0.00648,0.04399 -0.0089,0.07187 l -0.0013,0.01522 -0.00904,0.0046 c -0.02321,0.01176 -0.01351,0.01119 -0.219977,0.0129 -0.201021,0.0017 -0.3803435,0.0017 -0.6035155,-2e-5 z"
     id="path901"
     inkscape:connector-curvature="0" />
  <path
     style="opacity:1;fill:#ffffff;fill-opacity:1;stroke-width:0.00195313"
     d="m 4.500038,6.043284 c 0,-0.251368 2.27e-4,-0.353909 5e-4,-0.227871 2.75e-4,0.126038 2.75e-4,0.331703 0,0.457031 -2.75e-4,0.125329 -5e-4,0.0222 -5e-4,-0.22916 z"
     id="path903"
     inkscape:connector-curvature="0" />
  <path
     style="opacity:1;fill:#ffffff;fill-opacity:1;stroke-width:0.00097656"
     d="M 3.789117,6.103343 V 5.707347 H 4.1445855 4.500054 V 6.103343 6.499339 H 4.1445855 3.789117 Z"
     id="path907"
     inkscape:connector-curvature="0" />
  <path
     style="opacity:1;fill:#ffffff;fill-opacity:1;stroke-width:0.00097656"
     d="M 3.789117,5.932444 V 5.502268 H 4.1445855 4.500054 V 5.932444 6.36262 H 4.1445855 3.789117 Z"
     id="path909"
     inkscape:connector-curvature="0" />
  <path
     style="opacity:1;fill:#ffffff;fill-opacity:1;stroke-width:0.00097656"
     d="M 3.5000545,6.021311 V 5.543284 h 0.4999995 0.5 v 0.478027 0.478028 h -0.5 -0.4999995 z"
     id="path911"
     inkscape:connector-curvature="0" />
  <path
     style="opacity:1;fill:#ffffff;fill-opacity:1;stroke-width:0.00097656"
     d="m 3.6079645,4.997943 -0.078125,-0.001 -0.00325,-0.0023 c -0.01032,-0.0074 -0.020535,-0.02861 -0.02475,-0.05148 -0.0026,-0.01402 0.00395,-0.110143 0.01193,-0.17521 0.015605,-0.127437 0.04566,-0.247083 0.088063,-0.350586 0.0032,-0.0078 0.00652,-0.01602 0.00739,-0.01831 l 0.0016,-0.0041 H 4.189437 4.7680475 l -0.00445,0.0046 c -0.00823,0.0086 -0.02761,0.02995 -0.041435,0.04567 -0.090668,0.103098 -0.134565,0.175501 -0.1672495,0.275861 -0.01199,0.03681 -0.03136,0.105779 -0.035745,0.12727 -0.00265,0.01286 -0.00934,0.05539 -0.00937,0.0593 -1.1e-5,0.0018 -2.45e-4,0.002 -8.5e-4,0.001 -5.5e-4,-8.5e-4 -7e-4,4.76e-4 -4e-4,0.0034 3.25e-4,0.0035 1.865e-4,0.0044 -5.5e-4,0.0033 -7.5e-4,-0.001 -9e-4,-1.6e-5 -5.5e-4,0.0039 3.5e-4,0.0039 2.18e-4,0.0049 -4.75e-4,0.0034 -6.5e-4,-0.0014 -8e-4,-2.5e-4 -4.25e-4,0.0039 3.75e-4,0.0042 2.375e-4,0.0055 -5e-4,0.0044 -7.5e-4,-0.0011 -8.5e-4,-2.2e-5 -4.25e-4,0.0038 4.75e-4,0.0041 3.5e-4,0.0051 -6.5e-4,0.0045 -9e-4,-5.5e-4 -0.0011,-7.3e-5 -6e-4,0.002 3.25e-4,0.0016 -8.9e-5,0.0081 -9.5e-4,0.01453 -8.5e-4,0.0064 -0.0019,0.01442 -0.00225,0.01772 -4e-4,0.0033 -0.00125,0.0067 -0.00195,0.0075 -0.0038,0.0046 -0.02748,0.01337 -0.04141,0.01535 -0.01845,0.0026 -0.6792295,0.0038 -0.8498505,0.0015 z"
     id="path919"
     inkscape:connector-curvature="0" />
  <path
     style="opacity:1;fill:#ffffff;fill-opacity:1;stroke-width:0.00097656"
     d=""
     id="path921"
     inkscape:connector-curvature="0" />
</svg>
