<?xml version="1.0" encoding="UTF-8" standalone="no"?>
<svg
   xmlns:dc="http://purl.org/dc/elements/1.1/"
   xmlns:cc="http://creativecommons.org/ns#"
   xmlns:rdf="http://www.w3.org/1999/02/22-rdf-syntax-ns#"
   xmlns:svg="http://www.w3.org/2000/svg"
   xmlns="http://www.w3.org/2000/svg"
   xmlns:sodipodi="http://sodipodi.sourceforge.net/DTD/sodipodi-0.dtd"
   xmlns:inkscape="http://www.inkscape.org/namespaces/inkscape"
   width="16"
   height="16"
   viewBox="0 0 16 16"
   version="1.1"
   id="svg5"
   sodipodi:docname="partialPointsNMS.svg"
   inkscape:version="0.92.3 (2405546, 2018-03-11)">
  <metadata
     id="metadata11">
    <rdf:RDF>
      <cc:Work
         rdf:about="">
        <dc:format>image/svg+xml</dc:format>
        <dc:type
           rdf:resource="http://purl.org/dc/dcmitype/StillImage" />
      </cc:Work>
    </rdf:RDF>
  </metadata>
  <defs
     id="defs9" />
  <sodipodi:namedview
     pagecolor="#ffffff"
     bordercolor="#666666"
     borderopacity="1"
     objecttolerance="10"
     gridtolerance="10"
     guidetolerance="10"
     inkscape:pageopacity="0"
     inkscape:pageshadow="2"
     inkscape:window-width="1853"
     inkscape:window-height="1018"
     id="namedview7"
     showgrid="false"
     inkscape:zoom="45.254834"
     inkscape:cx="6.0756031"
     inkscape:cy="8.2819436"
     inkscape:window-x="67"
     inkscape:window-y="34"
     inkscape:window-maximized="1"
     inkscape:current-layer="svg5" />
  <rect
     id="frame"
     width="16"
     height="16"
     fill="none" />
  <path
     fill="#E05555"
     fill-opacity=".7"
     fill-rule="evenodd"
     d="M9.204 8l2.581-2.58-1.202-1.203-2.58 2.58-2.582-2.58L4.22 5.419 6.8 8l-2.58 2.58 1.201 1.203 2.581-2.58 2.581 2.58 1.202-1.202L9.205 8zm-1.202 6.5a6.5 6.5 0 1 1 0-13 6.5 6.5 0 0 1 0 13z"
     id="path3" />
  <path
     style="opacity:1;fill:#ffffff;fill-opacity:1;stroke-width:0.06779661"
     d="M 4.8469981,11.118182 4.3073467,10.575347 5.5936821,9.2876733 6.8800176,8 5.5931426,6.7117866 4.3062676,5.4235732 4.8649204,4.8649204 5.4235732,4.3062676 6.7117866,5.5931426 8,6.8800176 9.2882134,5.5931426 10.576427,4.3062676 11.135079,4.8649204 11.693732,5.4235732 10.406857,6.7117866 9.1199824,8 10.406857,9.2882134 11.693732,10.576427 11.135079,11.135079 10.576427,11.693732 9.2882134,10.406857 8,9.1199824 6.7281614,10.3905 C 6.02865,11.089284 5.4406462,11.661017 5.421486,11.661017 c -0.01916,0 -0.2776797,-0.244276 -0.5744879,-0.542835 z"
     id="path818"
     inkscape:connector-curvature="0" />
  <path
     style="opacity:1;fill:#f0ad4e;fill-opacity:1;stroke-width:0.06779661"
     d="M 6.7118644,14.403198 C 4.6439398,13.959762 2.985263,12.647592 2.0972346,10.752588 1.6180464,9.7300278 1.5254526,9.2746488 1.5306483,7.9661017 1.5348327,6.9122425 1.5510308,6.7617734 1.7198292,6.2087402 2.3947245,3.9975839 3.9909448,2.4005481 6.2075686,1.7187083 6.7704862,1.5455532 6.89789,1.5323038 8,1.5323038 c 1.1003512,0 1.2307153,0.013503 1.7966102,0.1860859 C 12.002913,2.3912547 13.608745,3.9970873 14.28161,6.2033898 14.454193,6.7692845 14.467696,6.8996492 14.467696,8 c 0,1.1035431 -0.0131,1.2290739 -0.187457,1.7966102 C 13.723886,11.607526 12.572927,12.995079 10.940955,13.822327 10.416883,14.087978 9.6326169,14.347283 9.0847458,14.43605 8.47836,14.5343 7.2435136,14.5172 6.7118644,14.4032 Z M 6.7281614,10.458296 8,9.187779 9.2882278,10.474668 10.576456,11.761559 11.169007,11.169007 11.761559,10.576456 10.474668,9.2882278 9.187779,8 10.474668,6.7117719 11.761559,5.4235438 11.169007,4.8309927 10.576456,4.2384416 9.2882278,5.5253313 8,6.812221 6.7117719,5.5253313 5.4235438,4.2384416 4.8309927,4.8309927 4.2384416,5.4235438 5.5253313,6.7117719 6.812221,8 5.5258384,9.2877207 4.2394558,10.575441 4.8131464,11.152127 c 0.3155297,0.317177 0.5893248,0.576687 0.6084334,0.576687 0.019108,0 0.6070702,-0.571733 1.3065816,-1.270518 z"
     id="path814"
     inkscape:connector-curvature="0" />
  <path
     style="opacity:1;fill:#f0ad4e;fill-opacity:1;stroke-width:0.00423729"
     d="m 14.461687,8.6948895 c 0.0045,-0.035892 0.0046,-1.321973 1.36e-4,-1.3854682 -0.0019,-0.026746 -0.0025,-0.047721 -0.0014,-0.04661 0.0011,0.00111 0.0059,0.041108 0.01076,0.088884 0.03975,0.3936484 0.04272,0.8037152 0.0087,1.2012712 -0.01042,0.1217509 -0.01504,0.1628776 -0.01872,0.1665566 -0.0016,0.00159 -0.0013,-0.0095 5.47e-4,-0.024633 z"
     id="path816"
     inkscape:connector-curvature="0" />
  <path
     style="opacity:1;fill:#f0ad4e;fill-opacity:1;stroke-width:0.00423729"
     d="m 1.5417237,8.739647 c -3.492e-4,-0.00584 -0.00447,-0.047524 -0.00916,-0.092634 -0.035994,-0.3463105 -0.041488,-0.7619779 -0.01482,-1.1213268 0.0094,-0.1267031 0.016102,-0.1970336 0.018769,-0.1970376 0.00135,-2e-6 9.502e-4,0.072932 -8.914e-4,0.1620763 -0.00458,0.2219155 -8.698e-4,1.0201347 0.0053,1.1397897 0.00273,0.052995 0.00418,0.1016175 0.0032,0.1080509 -0.00169,0.011201 -0.0018,0.011247 -0.0024,0.00108 z"
     id="path819"
     inkscape:connector-curvature="0" />
  <path
     style="opacity:1;fill:#f0ad4e;fill-opacity:1;stroke-width:0.00423729"
     d="m 5.1675495,11.437762 c -0.056715,-0.05418 -0.2740833,-0.270066 -0.48304,-0.479737 L 4.3045882,10.576804 4.7912157,10.087262 C 5.0588608,9.8180138 5.637238,9.2384472 6.0764983,8.799336 L 6.8751535,8.0009519 5.8010871,6.924336 4.7270206,5.84772 5.8464046,5.8466527 6.9657885,5.8455855 7.4833116,6.3601734 8.0008346,6.8747613 8.1925719,6.683292 8.3843092,6.4918227 V 8.0002624 9.508702 L 8.191606,9.3160338 7.9989029,9.1233655 7.0930891,10.028073 c -0.8569096,0.855863 -1.1504425,1.146343 -1.4137984,1.399096 l -0.1136874,0.10911 H 5.4181358 5.2706682 Z"
     id="path821"
     inkscape:connector-curvature="0" />
  <path
     style="opacity:1;fill:#f0ad4e;fill-opacity:1;stroke-width:0.00423729"
     d="M 9.3996135,10.522913 8.3849512,9.509547 V 8.0006777 6.4918084 L 8.708034,6.1687049 9.0311169,5.8456013 h 1.1228881 1.122889 l -1.077327,1.0773334 -1.0773272,1.0773335 1.2605932,1.2605876 1.260593,1.2605872 v 0.05509 0.0551 l -0.452338,0.452323 -0.452338,0.452323 h -0.162237 -0.162237 z"
     id="path823"
     inkscape:connector-curvature="0" />
  <path
     style="opacity:1;fill:#f0ad4e;fill-opacity:1;stroke-width:0.01198486"
     d="M 4.5111813,5.6384758 4.298601,5.4225495 4.8617566,4.8594896 5.4249121,4.2964296 6.20078,5.0722974 l 0.7758677,0.7758678 -1.1264431,0.00312 -1.1264431,0.00312 z"
     id="path825"
     inkscape:connector-curvature="0" />
  <path
     style="opacity:1;fill:#f0bd4e;fill-opacity:1;stroke-width:0.01198486"
     d="M 10.149871,5.8484097 9.0322455,5.8424173 9.8053153,5.0694191 10.578385,4.2964209 11.141717,4.8597527 11.705049,5.4230845 11.486272,5.6387433 11.267495,5.8544021 Z"
     id="path827"
     inkscape:connector-curvature="0" />
  <path
     style="opacity:1;fill:#f0bd4e;fill-opacity:1;stroke-width:0.01198486"
     d="M 4.7809779,11.058828 4.2989865,10.576437 5.5798466,9.2873193 6.8607067,7.9982014 5.5795029,6.7135532 C 4.8748407,6.0069966 4.298299,5.4248463 4.298299,5.4198858 c 0,-0.00496 0.2539259,-0.2624774 0.5642798,-0.5722598 L 5.4268587,4.2843854 6.6812814,5.5434959 c 0.6899325,0.6925109 1.2694597,1.2720635 1.2878381,1.2878948 l 0.033415,0.028784 1.2879021,-1.2878603 1.2879024,-1.2878604 0.563302,0.5632063 c 0.309816,0.3097634 0.563302,0.5667338 0.563302,0.5710452 0,0.00431 -0.579955,0.5866004 -1.288789,1.2939757 L 9.1273659,7.998818 10.386192,9.2576866 11.645019,10.516555 v 0.05996 0.05996 l -0.452487,0.452369 -0.452487,0.45237 H 10.572293 10.404541 L 9.2007392,10.337372 7.9969376,9.1335259 6.7889109,10.337372 5.5808841,11.541219 H 5.4219267 5.2629693 Z"
     id="path829"
     inkscape:connector-curvature="0" />
  <path
     style="opacity:1;fill:#f0bd4e;fill-opacity:1;stroke-width:0.01198486"
     d="m 5.3388216,11.6016 -0.063757,-0.05947 0.1433678,-4.57e-4 0.1433678,-4.56e-4 -0.059023,0.05992 c -0.032463,0.03296 -0.068288,0.05992 -0.079611,0.05992 -0.011323,0 -0.049278,-0.02676 -0.084345,-0.05947 z"
     id="path831"
     inkscape:connector-curvature="0" />
  <path
     style="opacity:1;fill:#f0bd4e;fill-opacity:1;stroke-width:0.01198486"
     d="m 10.494472,11.61912 -0.07721,-0.0779 h 0.161103 0.161103 l -0.07721,0.0779 c -0.04246,0.04285 -0.08022,0.0779 -0.08389,0.0779 -0.0037,0 -0.04143,-0.03506 -0.08389,-0.0779 z"
     id="path833"
     inkscape:connector-curvature="0" />
  <path
     style="opacity:1;fill:#f0bd4e;fill-opacity:1;stroke-width:0.01198486"
     d="m 11.645019,10.574348 v -0.05602 l 0.03003,0.02821 0.03003,0.02821 -0.02613,0.02781 c -0.01437,0.0153 -0.02788,0.02781 -0.03003,0.02781 -0.0021,0 -0.0039,-0.02521 -0.0039,-0.05602 z"
     id="path835"
     inkscape:connector-curvature="0" />
  <path
     style="opacity:1;fill:#ff00ff;fill-opacity:1;stroke-width:0.00390625"
     d="m 10.495716,11.62222 c -0.04366,-0.04307 -0.08185,-0.0783 -0.08489,-0.0783 -0.003,0 -0.5472699,-0.541754 -1.2094164,-1.203898 L 7.9975081,9.1361223 7.5938683,9.538263 c -0.2220018,0.2211775 -0.765277,0.762492 -1.2072781,1.202922 -0.6249991,0.622777 -0.8060159,0.801055 -0.8143342,0.802013 -0.00752,8.65e-4 -0.024021,0.01435 -0.055618,0.04547 -0.053633,0.05282 -0.07886,0.07244 -0.093142,0.07244 -0.017007,0 -0.054579,-0.028 -0.1165324,-0.08685 -0.017567,-0.01669 -0.034269,-0.03034 -0.037115,-0.03034 -0.00285,0 -0.2231372,-0.217967 -0.4895357,-0.484372 L 4.2959516,10.575174 4.5638437,10.306617 C 4.7111843,10.158911 5.2410196,9.6258531 5.7412554,9.1220445 6.2414913,8.6182359 6.6974433,8.1590505 6.7544822,8.1016325 L 6.8581892,7.9972362 6.1493277,7.2871794 5.4404663,6.5771226 l 1.136381,-9.832e-4 1.136381,-9.832e-4 0.1416698,0.1406316 c 0.077918,0.077347 0.1431186,0.1406317 0.1448893,0.1406317 0.00177,0 0.066483,-0.063281 0.1438039,-0.140625 l 0.1405844,-0.140625 1.136739,5.47e-5 1.1367393,5.47e-5 -0.7141861,0.7115379 -0.714186,0.7115379 1.0862561,1.0862616 1.086256,1.0862617 v 0.406396 0.406396 l -0.354492,0.353826 c -0.19497,0.194603 -0.358479,0.355895 -0.363352,0.358425 -0.0083,0.0043 -0.01401,-4.83e-4 -0.08823,-0.0737 z"
     id="path855"
     inkscape:connector-curvature="0" />
  <path
     style="opacity:1;fill:#ffff00;fill-opacity:1;stroke-width:0.00390625"
     d="M 9.288528,10.471229 7.9998711,9.1842694 7.1635281,10.019419 C 6.1104345,11.07101 5.6102432,11.562588 5.454649,11.698869 l -0.032692,0.02863 -0.016136,-0.01185 C 5.384564,11.700029 5.307495,11.630349 5.2146559,11.542804 5.1734219,11.503924 4.9376218,11.270444 4.6906554,11.023967 L 4.2416256,10.575829 5.5284178,9.2882719 6.8152101,8.0007149 6.5360431,7.7205594 C 6.3825013,7.5664739 6.0626372,7.2456579 5.8252338,7.0076351 l -0.4316425,-0.4327687 0.021484,0.00113 0.021484,0.00113 0.70876,0.7101062 0.7087601,0.7101061 -0.1269539,0.1277845 C 6.6573017,8.1954008 6.2100605,8.6457749 5.7332572,9.1259507 5.2564538,9.6061265 4.7371872,10.128699 4.5793316,10.287224 l -0.2870103,0.288226 0.4803225,0.480627 c 0.2641774,0.264345 0.4891116,0.48662 0.4998538,0.493944 0.010742,0.0073 0.036954,0.02931 0.058249,0.04885 0.074179,0.06808 0.091628,0.07444 0.1271845,0.04633 0.011066,-0.0087 0.038683,-0.03354 0.061372,-0.05509 0.022689,-0.02155 0.046752,-0.04149 0.053473,-0.04431 0.012675,-0.0053 0.5341055,-0.521762 1.7429297,-1.7262497 l 0.681888,-0.6794362 1.0300299,1.0290779 c 1.2528643,1.251707 1.5160563,1.511978 1.5448883,1.527746 0.005,0.0027 0.0095,0.0022 0.01563,-0.0018 0.0047,-0.0031 0.167222,-0.163382 0.361118,-0.356176 l 0.352539,-0.350533 v 0.02286 0.02286 l -0.362304,0.362009 -0.362305,0.36201 z"
     id="path857"
     inkscape:connector-curvature="0" />
  <path
     style="opacity:1;fill:#ffff00;fill-opacity:1;stroke-width:0.00390625"
     d="M 7.8208443,6.6788181 C 7.7233551,6.5831856 7.1457345,6.0053481 6.5372429,5.3947347 5.9287513,4.7841213 5.4294122,4.2840344 5.4276006,4.2834305 c -0.00504,-0.00168 -1.1244593,1.1214954 -1.127598,1.1313845 -0.00237,0.00746 0.011352,0.023204 0.098153,0.1126879 0.055497,0.057212 0.302243,0.3063041 0.548324,0.5535382 0.2460809,0.2472341 0.4570184,0.4598841 0.46875,0.4725557 l 0.02133,0.023039 -0.023233,-0.00233 -0.023233,-0.00233 L 4.8156721,5.997557 4.2412508,5.4231357 4.8320687,4.8323178 5.4228866,4.2414999 6.3242546,5.1418903 C 6.820007,5.637105 7.4000866,6.2163009 7.6133204,6.4289924 L 8.0010183,6.8157043 9.2881222,5.5286047 10.575226,4.2415052 10.93851,4.6047735 11.301794,4.9680419 V 4.98562 5.0031981 L 10.940631,4.6420502 10.579467,4.2809023 9.3048886,5.554209 C 8.6038702,6.2545276 8.0230622,6.8331811 8.0142036,6.8401055 l -0.016106,0.01259 z"
     id="path859"
     inkscape:connector-curvature="0" />
  <path
     style="opacity:1;fill:#ffff00;fill-opacity:1;stroke-width:0.00390625"
     d="M 6.4258253,8.3869955 C 6.6369052,8.1759076 6.8096069,8.001497 6.8096069,7.9994167 c 0,-0.00208 -0.5778808,-0.5817371 -1.2841797,-1.2881262 C 4.8191284,6.0049013 4.2408076,5.4256481 4.2402698,5.424061 4.2390318,5.4204075 5.4219233,4.2372897 5.424397,4.2397072 c 0.00101,9.833e-4 0.5802358,0.5798292 1.2871767,1.2863242 0.7069409,0.7064949 1.287124,1.2839363 1.2892958,1.2832031 0.00217,-7.332e-4 0.5823706,-0.5795712 1.2893304,-1.2863066 L 10.575582,4.2379543 10.938688,4.601045 11.301794,4.9641356 V 4.98562 5.0071043 L 10.9406,4.6459259 10.579406,4.2847475 10.107592,4.7554911 C 9.8480948,5.0144002 9.3316772,5.5297659 8.9599976,5.9007482 L 8.2842163,6.5752617 9.4219116,6.574394 c 0.6257324,-4.772e-4 1.1376954,-8.04e-5 1.1376954,8.815e-4 0,9.62e-4 -0.320943,0.3216174 -0.7132067,0.7125674 L 9.133194,7.9986612 9.5192448,8.3847268 9.9052952,8.770792 H 7.9736695 6.0420437 Z M 7.0631327,5.9241123 C 6.7053361,5.5658604 6.1908629,5.0503818 5.9198591,4.7786045 L 5.4271249,4.2844639 4.9930911,4.7180576 C 4.5237838,5.1868892 4.3017944,5.4119968 4.3017944,5.419065 c 0,0.00892 0.087976,0.098723 0.7224632,0.7374692 L 5.4404098,6.5754795 H 6.577041 7.7136722 Z"
     id="path861"
     inkscape:connector-curvature="0" />
  <path
     style="opacity:1;fill:#ffff00;fill-opacity:1;stroke-width:0.00390625"
     d="M 9.0244507,5.8365465 C 9.4315796,5.4302692 9.947941,4.9148538 10.17192,4.6911789 l 0.407236,-0.4066816 0.361319,0.3613035 0.361319,0.3613035 v 0.412125 0.4121249 L 10.929716,6.2034168 10.557639,6.5754795 9.4209274,6.575356 8.2842163,6.5752325 Z"
     id="path863"
     inkscape:connector-curvature="0" />
  <path
     style="opacity:1;fill:#ffff00;fill-opacity:1;stroke-width:0.00390625"
     d="M 5.0297862,6.1623936 C 4.5318522,5.660859 4.31483,5.4404957 4.306871,5.4283486 4.301181,5.4196686 4.301651,5.4182476 4.315881,5.4006606 4.324131,5.3904636 4.5774395,5.1351477 4.8787853,4.8332922 L 5.4266856,4.2844639 5.9294617,4.7883701 c 0.2765269,0.2771485 0.791149,0.792627 1.1436047,1.1455078 L 7.7138949,6.5754795 H 6.5769008 5.4399066 Z"
     id="path865"
     inkscape:connector-curvature="0" />
  <path
     style="opacity:1;fill:#ffff00;fill-opacity:1;stroke-width:0.00390625"
     d="M 6.0702374,8.7424717 C 6.085404,8.7268955 6.2571483,8.5542744 6.4518913,8.3588697 6.6466343,8.1634647 6.8054695,8.0015023 6.8048585,7.9989532 6.8042475,7.9964041 6.2271851,7.4165602 5.5224976,6.7104113 4.8178101,6.0042624 4.2408076,5.4253052 4.2402698,5.4238398 c -0.00128,-0.0035 1.181728,-1.1864613 1.1841813,-1.1841326 0.00104,9.833e-4 0.5491062,0.5476086 1.2179338,1.2147228 0.6688276,0.6671141 1.2481955,1.2444772 1.2874842,1.2830291 L 8.0013031,6.8075531 8.3595565,6.450314 C 8.556596,6.2538327 9.134837,5.6764696 9.6445366,5.1672851 10.154236,4.6581006 10.573475,4.2410251 10.576177,4.2404505 c 0.0027,-5.745e-4 0.167073,0.1611864 0.365266,0.3594687 l 0.360351,0.3605133 v 0.4374617 0.4374617 l -1.082016,1.0819759 -1.0820164,1.0819758 0.3857199,0.3857422 0.38572,0.3857422 h -1.9332699 -1.93327 z"
     id="path867"
     inkscape:connector-curvature="0" />
  <path
     style="opacity:1;fill:#ffff00;fill-opacity:1;stroke-width:0.00390625"
     d="M 10.60648,9.4692662 C 10.225132,9.0873618 9.7390988,8.6004306 9.5264072,8.3871969 L 9.1396951,7.9994992 10.219768,6.919386 l 1.080073,-1.0801131 0.0012,0.020272 0.0012,0.020272 -1.059753,1.0598866 -1.0597533,1.0598866 1.0597423,1.0597477 1.059742,1.0597482 -0.0012,0.02228 -0.0012,0.02228 z"
     id="path869"
     inkscape:connector-curvature="0" />
  <path
     style="opacity:1;fill:#ffff00;fill-opacity:1;stroke-width:0.00390625"
     d="M 4.4434951,10.779886 4.239502,10.575893 5.195576,9.618753 c 0.96338,-0.9644538 1.6062184,-1.6125311 1.6062184,-1.6193085 0,-0.00373 -0.6962621,-0.7037197 -1.6978699,-1.7069718 L 4.5520961,5.7397383 5.7404077,5.7387554 6.9287193,5.7377725 7.2939678,6.1020412 C 7.4948545,6.302389 7.7360148,6.5426594 7.8298796,6.6359753 L 8.0005429,6.8056407 8.5360851,6.271713 9.0716272,5.7377852 h 1.1150838 1.115083 v 0.073239 0.073239 L 10.24418,6.9418841 9.1865655,7.999504 10.24418,9.0571239 11.301794,10.114744 v 0.434567 0.434568 L 10.550818,10.983688 9.7998413,10.983496 8.8996393,10.085226 7.9994377,9.1869583 7.3019833,9.883654 c -0.3836,0.383183 -0.7888607,0.787421 -0.9005795,0.898309 l -0.203125,0.201612 -0.7753953,1.52e-4 -0.7753953,1.52e-4 z"
     id="path871"
     inkscape:connector-curvature="0" />
  <path
     style="opacity:1;fill:#ffff00;fill-opacity:1;stroke-width:0.01104854"
     d="M 9.2931576,10.483172 C 8.5858784,9.7796785 8.0033526,9.2040925 7.9986559,9.2040925 c -0.0047,0 -0.4351938,0.4252742 -0.9566603,0.9450535 -0.9160891,0.913125 -1.5987812,1.579539 -1.6181225,1.579539 -0.021184,0 -0.2180858,-0.186826 -0.6917757,-0.656374 L 4.231551,10.576141 5.5154818,9.290063 6.7994124,8.0039854 6.6013704,7.8030196 C 6.4924472,7.6924884 5.9148193,7.1123137 5.3177528,6.5137426 L 4.2321774,5.4254315 4.8280925,4.8295931 5.4240075,4.2337547 6.7070562,5.5118702 c 0.7056767,0.7029636 1.2889392,1.2781156 1.296139,1.2781156 0.0072,0 0.5885887,-0.5754823 1.2919756,-1.2788496 l 1.2788852,-1.2788496 0.364839,0.3648385 0.364838,0.3648386 3.3e-5,0.4635086 3.3e-5,0.4635088 -1.055396,1.0553957 -1.0553953,1.0553958 1.0554033,1.0554468 1.055404,1.0554466 -4.4e-5,0.463495 -4.4e-5,0.463494 -0.362298,0.362299 -0.362299,0.362298 -1.2859623,-1.27908 z"
     id="path873"
     inkscape:connector-curvature="0" />
  <path
     style="opacity:1;fill:#ffff00;fill-opacity:1;stroke-width:0.01104854"
     d="M 11.303263,10.571462 V 10.16554 l 0.204399,0.204175 0.2044,0.204176 -0.201526,0.201746 c -0.110839,0.110961 -0.202818,0.201747 -0.204399,0.201747 -0.0016,0 -0.0029,-0.182665 -0.0029,-0.405922 z"
     id="path875"
     inkscape:connector-curvature="0" />
  <path
     style="opacity:1;fill:#ffff00;fill-opacity:1;stroke-width:0.01104854"
     d="M 11.303263,5.4199664 V 5.0057197 l 0.207123,0.2071233 0.207124,0.2071234 -0.207124,0.2071234 -0.207123,0.2071233 z"
     id="path877"
     inkscape:connector-curvature="0" />
  <path
     style="opacity:1;fill:#ffff00;fill-opacity:1;stroke-width:0.00390625"
     d="M 10.424478,11.60995 C 10.339615,11.525914 9.9660796,11.154728 9.5943999,10.785091 8.7002666,9.8958726 8.455267,9.6529184 8.0940469,9.2972643 c -0.049608,-0.048844 -0.092366,-0.088807 -0.095017,-0.088807 -0.00661,0 -0.2399616,0.2295313 -0.8655671,0.8514077 L 6.6022128,10.587948 6.6012299,9.3955081 6.600247,8.2030686 6.698342,8.1042826 6.796437,8.0054966 6.780641,7.9868606 C 6.771951,7.9766106 6.727813,7.9313256 6.682552,7.8862278 L 6.6002593,7.8042302 V 7.4887657 7.1733011 H 8.3102179 10.020177 L 9.6070931,7.5863845 9.1940097,7.999468 l 1.0555843,1.0555894 1.055584,1.0555896 0.0015,0.02911 0.0015,0.02911 0.202711,0.201765 c 0.111492,0.110971 0.202712,0.20317 0.202712,0.204886 0,0.0017 -0.09141,0.09374 -0.203125,0.204485 l -0.203125,0.201365 v 0.02658 0.02658 l -0.364258,0.3641 -0.364258,0.3641 z"
     id="path879"
     inkscape:connector-curvature="0" />
  <path
     style="opacity:1;fill:#ffff00;fill-opacity:1;stroke-width:0.00390625"
     d="m 11.311197,11.002013 v -0.02089 l 0.199027,-0.197105 c 0.109464,-0.108408 0.200186,-0.200758 0.201603,-0.205224 0.0022,-0.0068 -0.02974,-0.04047 -0.198847,-0.209736 l -0.201424,-0.201617 -0.0026,-0.02149 -0.0026,-0.02148 0.226002,0.225586 0.226003,0.225586 -0.223629,0.223628 -0.223628,0.223629 z"
     id="path881"
     inkscape:connector-curvature="0" />
  <path
     style="opacity:1;fill:#ffff00;fill-opacity:1;stroke-width:0.00390625"
     d="M 6.6002593,6.2803546 V 5.4048725 l 0.3478503,0.3452086 c 0.456406,0.45294 0.8550306,0.846484 0.9657047,0.9533965 l 0.088946,0.085923 0.058206,-0.055219 C 8.1673539,6.633251 8.697394,6.1062834 9.6412906,5.1630166 L 10.5749,4.2300301 10.941095,4.5963026 c 0.201408,0.2014499 0.366358,0.3688872 0.366558,0.3720829 1.99e-4,0.0032 1.29e-4,0.012842 -1.61e-4,0.021435 -5.23e-4,0.01561 -3.32e-4,0.015817 0.204716,0.2206892 0.112881,0.1127853 0.205239,0.2068345 0.205239,0.2089983 0,0.00216 -0.09211,0.096027 -0.20468,0.208586 l -0.20468,0.2046518 -0.0015,0.028808 -0.0015,0.028808 -0.632728,0.6327373 -0.632729,0.6327373 H 8.3199904 6.6002593 Z"
     id="path883"
     inkscape:connector-curvature="0" />
  <path
     style="opacity:1;fill:#ffff00;fill-opacity:1;stroke-width:0.00390625"
     d="M 6.6002593,6.280509 V 5.4051814 L 6.7033375,5.506095 c 0.056693,0.055502 0.2988318,0.295011 0.538086,0.5322412 0.4840438,0.4799491 0.7559373,0.7464067 0.7616338,0.7464067 0.00827,0 0.2420307,-0.2309265 1.0931681,-1.0799202 C 9.5850651,5.2172141 10.11774,4.6859255 10.279947,4.5241812 l 0.294922,-0.2940805 0.358789,0.3583758 c 0.197334,0.1971067 0.363785,0.3650902 0.36989,0.3732967 0.0061,0.00821 0.01013,0.017439 0.009,0.020517 -0.0012,0.00308 -9.79e-4,0.010247 4.47e-4,0.015932 0.0016,0.00656 0.07598,0.08426 0.203547,0.2127503 0.110523,0.1113278 0.200952,0.2052351 0.200952,0.2086827 0,0.00345 -0.0916,0.098332 -0.203558,0.2108533 l -0.203557,0.204585 -0.0019,0.026583 -0.0019,0.026583 -0.633376,0.6337891 -0.633375,0.633789 H 8.3199903 6.6002593 Z"
     id="path885"
     inkscape:connector-curvature="0" />
  <path
     style="opacity:1;fill:#ffff00;fill-opacity:1;stroke-width:0.00390625"
     d="m 11.311197,5.8542227 c 0,-0.015278 0.0033,-0.018905 0.198456,-0.2161472 0.109152,-0.1103343 0.200821,-0.2050251 0.203711,-0.2104241 0.0049,-0.00908 0.0042,-0.011071 -0.0087,-0.026558 -0.0077,-0.00921 -0.09251,-0.096722 -0.188542,-0.1944758 -0.185744,-0.1890758 -0.202415,-0.2071023 -0.200378,-0.2166737 8.27e-4,-0.00388 0.08105,0.07372 0.220899,0.2136853 l 0.219601,0.2197853 -0.222531,0.2231736 -0.22253,0.2231735 z"
     id="path887"
     inkscape:connector-curvature="0" />
  <path
     style="opacity:1;fill:#ffffff;fill-opacity:0;stroke-width:0.00390625"
     d="M 6.6002593,6.2801765 V 5.4045163 l 0.030273,0.028947 c 0.01665,0.015921 0.259668,0.2557761 0.5400391,0.5330117 0.6070987,0.6003093 0.8129474,0.8022216 0.8258312,0.810039 0.00935,0.00567 0.010648,0.00478 0.0594,-0.040837 0.06814,-0.063763 0.7748579,-0.766855 1.7241476,-1.7153036 0.4350608,-0.4346751 0.7930618,-0.7903183 0.7955588,-0.7903183 0.0064,0 0.723228,0.7217028 0.733261,0.7382812 0.0046,0.00752 0.0083,0.01499 0.0083,0.016602 3e-6,0.00161 0.0013,0.00249 0.0029,0.00195 0.0038,-0.00128 0.436536,0.4314077 0.436536,0.436523 0,0.00216 -0.101074,0.104995 -0.224609,0.2285161 -0.147474,0.1474572 -0.224609,0.2272728 -0.224609,0.2324137 0,0.0052 -0.212287,0.2201128 -0.631841,0.6396611 L 10.04361,7.1558366 H 8.3219345 6.6002593 Z"
     id="path889"
     inkscape:connector-curvature="0" />
  <path
     style="opacity:1;fill:#ffffff;fill-opacity:1;stroke-width:0.02209709"
     d="M 9.2957758,10.504187 C 8.6002565,9.8124864 8.0233486,9.2386783 8.0137585,9.2290572 8.0041685,9.2194372 7.6362516,9.5694211 7.1961663,10.006801 5.6907816,11.502932 5.4390305,11.744311 5.4044068,11.72474 5.3867378,11.71474 5.1122878,11.453896 4.7945179,11.145058 L 4.2167545,10.583536 5.5046318,9.2938733 6.7925091,8.0042106 5.5059382,6.7174988 4.2193674,5.430787 4.8215532,4.8299407 5.4237391,4.2290943 6.71238,5.5023156 8.0010209,6.7755368 8.4359527,6.3463949 C 8.6751652,6.1103668 9.2570056,5.5343964 9.7289313,5.0664606 l 0.8580467,-0.8507924 0.583527,0.5966213 c 0.32094,0.3281418 0.583645,0.6035657 0.583788,0.6120532 1.55e-4,0.00849 -0.573325,0.5933092 -1.274374,1.299604 l -1.2746352,1.284172 1.2775242,1.2776668 c 0.702638,0.7027166 1.272131,1.2862785 1.265539,1.2968035 -0.03031,0.04839 -1.150417,1.179234 -1.168044,1.179234 -0.01097,0 -0.5890079,-0.565936 -1.2845272,-1.257636 z"
     id="path891"
     inkscape:connector-curvature="0" />
  <path
     style="opacity:1;fill:#000000;fill-opacity:1;stroke-width:0.02209709"
     d="M 9.4238129,10.640216 C 8.8037141,10.023332 8.2298479,9.4549453 8.1485547,9.3771342 L 8.0007493,9.2356591 7.7618557,9.465458 c -0.1313913,0.1263894 -0.668984,0.654357 -1.1946503,1.173262 -0.5256663,0.518904 -1.00069,0.980282 -1.0556083,1.025283 l -0.099851,0.08182 -0.1486829,-0.140497 C 5.1812871,11.528054 4.9123596,11.267644 4.6654459,11.026638 L 4.216512,10.588445 5.4885624,9.3065101 C 6.1881901,8.6014458 6.7606128,8.0128165 6.7606128,7.9984448 c 0,-0.014371 -0.5717801,-0.5979741 -1.2706224,-1.2968944 L 4.2193679,5.4307864 4.823503,4.826951 5.427638,4.2231155 6.7158996,5.4956505 8.004161,6.7681855 9.2934573,5.4863631 10.582753,4.2045409 10.997826,4.6299491 c 0.619657,0.6350874 0.756728,0.780202 0.756728,0.8011341 0,0.01045 -0.444869,0.4671452 -0.988599,1.0148795 -0.543729,0.547734 -1.1121702,1.1219685 -1.2632013,1.2760765 L 9.2281516,8.0022358 10.491353,9.2774114 c 0.694761,0.7013467 1.263201,1.2863026 1.263201,1.2999016 0,0.0302 -1.151715,1.18451 -1.181846,1.18451 -0.01179,0 -0.528796,-0.504723 -1.1488951,-1.121607 z"
     id="path844"
     inkscape:connector-curvature="0" />
</svg>
