<?xml version="1.0" encoding="UTF-8" standalone="no"?>
<svg
        xmlns:dc="http://purl.org/dc/elements/1.1/"
        xmlns:cc="http://creativecommons.org/ns#"
        xmlns:rdf="http://www.w3.org/1999/02/22-rdf-syntax-ns#"
        xmlns="http://www.w3.org/2000/svg"
        xmlns:sodipodi="http://sodipodi.sourceforge.net/DTD/sodipodi-0.dtd"
        xmlns:inkscape="http://www.inkscape.org/namespaces/inkscape"
        width="16"
        height="16"
        viewBox="0 0 16 16"
        version="1.1"
        id="svg4"
        sodipodi:docname="refresh_dark.svg"
        inkscape:version="0.92.3 (2405546, 2018-03-11)">
    <metadata
            id="metadata10">
        <rdf:RDF>
            <cc:Work
                    rdf:about="">
                <dc:format>image/svg+xml</dc:format>
                <dc:type
                        rdf:resource="http://purl.org/dc/dcmitype/StillImage"/>
            </cc:Work>
        </rdf:RDF>
    </metadata>
    <defs
            id="defs8"/>
    <sodipodi:namedview
            pagecolor="#ffffff"
            bordercolor="#666666"
            borderopacity="1"
            objecttolerance="10"
            gridtolerance="10"
            guidetolerance="10"
            inkscape:pageopacity="0"
            inkscape:pageshadow="2"
            inkscape:window-width="1853"
            inkscape:window-height="1018"
            id="namedview6"
            showgrid="false"
            inkscape:zoom="14.75"
            inkscape:cx="0.10169492"
            inkscape:cy="8"
            inkscape:window-x="67"
            inkscape:window-y="34"
            inkscape:window-maximized="1"
            inkscape:current-layer="svg4"/>
    <path
            fill="#AFB1B3"
            fill-rule="evenodd"
            d="M12.5747152,11.8852806 C11.4741474,13.1817355 9.83247882,14.0044386 7.99865879,14.0044386 C5.03907292,14.0044386 2.57997332,11.8615894 2.08820756,9.0427473 L3.94774327,9.10768372 C4.43372186,10.8898575 6.06393114,12.2000519 8.00015362,12.2000519 C9.30149237,12.2000519 10.4645985,11.6082097 11.2349873,10.6790094 L9.05000019,8.71167959 L14.0431479,8.44999981 L14.3048222,13.4430431 L12.5747152,11.8852806 Z M3.42785637,4.11741586 C4.52839138,2.82452748 6.16775464,2.00443857 7.99865879,2.00443857 C10.918604,2.00443857 13.3513802,4.09026967 13.8882946,6.8532307 L12.0226389,6.78808057 C11.5024872,5.05935553 9.89838095,3.8000774 8.00015362,3.8000774 C6.69867367,3.8000774 5.53545628,4.39204806 4.76506921,5.32142241 L6.95482203,7.29304326 L1.96167436,7.55472304 L1.70000005,2.56167973 L3.42785637,4.11741586 Z"
            transform="rotate(3 8.002 8.004)"
            id="path2"
            style="fill:#ff0090;fill-opacity:1"/>
</svg>
