<svg xmlns="http://www.w3.org/2000/svg" viewBox="0 0 16 16">
<path fill-rule="evenodd" fill="#6C707E" d="M1,4c0-1.105,0.895-2,2-2h10c1.105,0,2,0.895,2,2v5.063l-1,0.167V6H2v6
	c0,0.552,0.448,1,1,1h5v1H3c-1.105,0-2-0.895-2-2V4z M3,3h10c0.552,0,1,0.448,1,1v1H2V4C2,3.448,2.448,3,3,3z"/>
<path fill-rule="evenodd" fill="#FF0090" d="M15.993,10.418c0.045,0.272-0.139,0.53-0.411,0.575l-6,1
	c-0.272,0.045-0.53-0.139-0.575-0.411c-0.045-0.272,0.139-0.53,0.411-0.575l6-1C15.69,9.961,15.948,10.145,15.993,10.418z
	 M15.993,12.418c0.045,0.272-0.139,0.53-0.411,0.575l-6,1c-0.272,0.045-0.53-0.139-0.575-0.411c-0.045-0.272,0.139-0.53,0.411-0.575
	l6-1C15.69,11.961,15.948,12.145,15.993,12.418z M15.993,14.418c0.045,0.272-0.139,0.53-0.411,0.575l-6,1
	c-0.272,0.045-0.53-0.139-0.575-0.411c-0.045-0.272,0.139-0.53,0.411-0.575l6-1C15.69,13.961,15.948,14.145,15.993,14.418z"/>
</svg>
