<?xml version="1.0" encoding="UTF-8" standalone="no"?>
<svg
  xmlns:dc="http://purl.org/dc/elements/1.1/"
  xmlns:cc="http://creativecommons.org/ns#"
  xmlns:rdf="http://www.w3.org/1999/02/22-rdf-syntax-ns#"
  xmlns="http://www.w3.org/2000/svg"
  xmlns:sodipodi="http://sodipodi.sourceforge.net/DTD/sodipodi-0.dtd"
  xmlns:inkscape="http://www.inkscape.org/namespaces/inkscape"
  width="16"
  height="16"
  viewBox="0 0 16 16"
  version="1.1"
  id="svg9"
  sodipodi:docname="repl.svg"
  inkscape:version="0.92.3 (2405546, 2018-03-11)">
  <metadata
     id="metadata15">
    <rdf:RDF>
      <cc:Work
         rdf:about="">
        <dc:format>image/svg+xml</dc:format>
        <dc:type
           rdf:resource="http://purl.org/dc/dcmitype/StillImage" />
        <dc:title></dc:title>
      </cc:Work>
    </rdf:RDF>
  </metadata>
  <defs
     id="defs13" />
  <sodipodi:namedview
     pagecolor="#ffffff"
     bordercolor="#666666"
     borderopacity="1"
     objecttolerance="10"
     gridtolerance="10"
     guidetolerance="10"
     inkscape:pageopacity="0"
     inkscape:pageshadow="2"
     inkscape:window-width="1853"
     inkscape:window-height="1018"
     id="namedview11"
     showgrid="false"
     inkscape:zoom="14.75"
     inkscape:cx="8"
     inkscape:cy="8"
     inkscape:window-x="67"
     inkscape:window-y="34"
     inkscape:window-maximized="1"
     inkscape:current-layer="svg9" />
  <rect
     id="frame"
     width="16"
     height="16"
     fill="none" />
  <g
     fill="none"
     fill-rule="evenodd"
     id="g7">
    <path
       fill="#DF2621"
       fill-rule="nonzero"
       d="M9 11.622v-1.426c0-.153 7-.435 7-1.196v1.426c0 .74-7 1.044-7 1.196zm0 4v-1.426c0-.153 7-.435 7-1.196v1.426c0 .74-7 1.044-7 1.196zm0-2v-1.426c0-.153 7-.435 7-1.196v1.426c0 .74-7 1.044-7 1.196z"
       id="path3" />
    <path
       fill="#9AA7B0"
       fill-opacity=".8"
       d="M8 12H2V5h12v3h1V2H1v11h7z"
       id="path5" />
  </g>
  <path
     style="opacity:1;fill:#ff0090;fill-opacity:1;stroke-width:0.06779661"
     d="m 8.9491525,12.895416 v -0.747099 l 0.3220339,-0.04153 c 0.1771187,-0.02285 0.9779666,-0.102709 1.7796606,-0.177475 3.235746,-0.301769 4.698465,-0.560693 4.878369,-0.863546 0.04925,-0.0829 0.06459,0.118558 0.05308,0.696951 l -0.01619,0.813559 -0.247615,0.121064 c -0.486515,0.237867 -1.984977,0.467715 -4.735436,0.726366 -0.801695,0.07539 -1.5872883,0.155466 -1.7457629,0.177944 l -0.2881356,0.04087 z"
     id="path825"
     inkscape:connector-curvature="0" />
  <path
     style="opacity:1;fill:#ff0090;fill-opacity:1;stroke-width:0.06779661"
     d="m 8.9491525,10.921115 c 0,-0.720949 0.00572,-0.750386 0.1525424,-0.784937 0.083898,-0.01974 0.9610171,-0.111999 1.9491521,-0.205012 C 14.243166,9.6306721 15.525446,9.409883 15.881356,9.0994261 15.993481,9.0016198 16,9.0392502 16,9.7843615 v 0.7884275 l -0.186441,0.094 c -0.549218,0.276901 -1.85681,0.472755 -5.508474,0.825068 -0.6152545,0.05936 -1.1720342,0.123761 -1.2372884,0.143113 -0.1079584,0.03202 -0.1186441,-0.03228 -0.1186441,-0.713853 z"
     id="path827"
     inkscape:connector-curvature="0" />
  <path
     style="opacity:1;fill:#ff0090;fill-opacity:1;stroke-width:0.06779661"
     d="m 8.9491525,14.921115 c 0,-0.720949 0.00572,-0.750386 0.1525424,-0.784937 0.083898,-0.01974 0.9610171,-0.111999 1.9491521,-0.205012 3.192319,-0.300494 4.474599,-0.521283 4.830509,-0.83174 C 15.993481,13.00162 16,13.03925 16,13.784361 v 0.788428 l -0.186441,0.094 c -0.549218,0.276901 -1.85681,0.472755 -5.508474,0.825068 -0.6152545,0.05936 -1.1720342,0.123761 -1.2372884,0.143113 -0.1079584,0.03202 -0.1186441,-0.03228 -0.1186441,-0.713853 z"
     id="path829"
     inkscape:connector-curvature="0" />
  <path
     style="opacity:1;fill:#6e6e6e;fill-opacity:1;stroke-width:0.06779661"
     d="M 0.94915254,7.4915254 V 1.9661017 H 8 15.050847 V 4.9830508 8 H 14.508475 13.966102 V 6.5084746 5.0169492 H 8 2.0338983 V 8.5084746 12 H 5.0169492 8 v 0.508475 0.508474 H 4.4745763 0.94915254 Z"
     id="path850"
     inkscape:connector-curvature="0" />
</svg>
