<?xml version="1.0" encoding="UTF-8" standalone="no"?>
<svg
  xmlns:dc="http://purl.org/dc/elements/1.1/"
  xmlns:cc="http://creativecommons.org/ns#"
  xmlns:rdf="http://www.w3.org/1999/02/22-rdf-syntax-ns#"
  xmlns="http://www.w3.org/2000/svg"
  xmlns:sodipodi="http://sodipodi.sourceforge.net/DTD/sodipodi-0.dtd"
  xmlns:inkscape="http://www.inkscape.org/namespaces/inkscape"
  width="16"
  height="16"
  viewBox="0 0 16 16"
  version="1.1"
  id="svg10"
  sodipodi:docname="resultsTable_dark.svg"
  inkscape:version="0.92.3 (2405546, 2018-03-11)">
  <metadata
     id="metadata16">
    <rdf:RDF>
      <cc:Work
         rdf:about="">
        <dc:format>image/svg+xml</dc:format>
        <dc:type
           rdf:resource="http://purl.org/dc/dcmitype/StillImage" />
        <dc:title></dc:title>
      </cc:Work>
    </rdf:RDF>
  </metadata>
  <defs
     id="defs14" />
  <sodipodi:namedview
     pagecolor="#ffffff"
     bordercolor="#666666"
     borderopacity="1"
     objecttolerance="10"
     gridtolerance="10"
     guidetolerance="10"
     inkscape:pageopacity="0"
     inkscape:pageshadow="2"
     inkscape:window-width="1853"
     inkscape:window-height="1018"
     id="namedview12"
     showgrid="false"
     inkscape:zoom="14.75"
     inkscape:cx="8"
     inkscape:cy="8"
     inkscape:window-x="67"
     inkscape:window-y="34"
     inkscape:window-maximized="1"
     inkscape:current-layer="svg10" />
  <g
     fill="none"
     fill-rule="evenodd"
     id="g8">
    <polygon
       fill="#9AA7B0"
       points="2 8 15 8 15 7 2 7"
       id="polygon2" />
    <polygon
       fill="#9AA7B0"
       points="2 11 15 11 15 10 2 10"
       id="polygon4" />
    <path
       fill="#9AA7B0"
       d="M11,13 L14,13 L14,5 L11,5 L11,13 Z M6,13 L10,13 L10,5 L6,5 L6,13 Z M2,13 L5,13 L5,5 L2,5 L2,13 Z M1,14 L15,14 L15,2 L1,2 L1,14 Z"
       id="path6" />
  </g>
  <path
     style="opacity:1;fill:#ff0090;fill-opacity:1;stroke-width:0.06779661"
     d="M 2.0338983,6 V 5.0169492 H 3.4915254 4.9491525 V 6 6.9830508 H 3.4915254 2.0338983 Z"
     id="path825"
     inkscape:connector-curvature="0" />
  <path
     style="opacity:1;fill:#ff0090;fill-opacity:1;stroke-width:0.06779661"
     d="M 2.0338983,8.9830508 V 8 H 3.4915254 4.9491525 V 8.9830508 9.9661017 H 3.4915254 2.0338983 Z"
     id="path827"
     inkscape:connector-curvature="0" />
  <path
     style="opacity:1;fill:#ff0090;fill-opacity:1;stroke-width:0.06779661"
     d="M 2.0338983,12 V 11.050847 H 3.4915254 4.9491525 V 12 12.949153 H 3.4915254 2.0338983 Z"
     id="path829"
     inkscape:connector-curvature="0" />
  <path
     style="opacity:1;fill:#afb1b3;fill-opacity:1;stroke-width:0.06779661"
     d="M 0.96681403,13.949153 C 0.94903789,13.902542 0.94236828,11.194915 0.95199266,7.9322034 L 0.96949153,2 8.0033898,1.9827356 15.037288,1.9654712 V 7.9996847 14.033898 H 8.0182115 c -5.5528266,0 -7.02582877,-0.0177 -7.05139747,-0.08474 z M 5.0033898,12 V 11.050847 H 3.5118644 2.020339 V 12 12.949153 h 1.4915254 1.4915254 z m 4.9491526,0 V 11.050847 H 7.9864407 6.020339 V 12 12.949153 h 1.9661017 1.9661017 z m 3.9999996,0 V 11.050847 H 12.494915 11.037288 V 12 12.949153 h 1.457627 1.457627 z M 5.0033898,8.9830508 V 8 H 3.5118644 2.020339 v 0.9830508 0.9830509 h 1.4915254 1.4915254 z m 4.9491526,0 V 8 H 7.9864407 6.020339 v 0.9830508 0.9830509 h 1.9661017 1.9661017 z m 3.9999996,0 V 8 h -1.457627 -1.457627 v 0.9830508 0.9830509 h 1.457627 1.457627 z M 5.0033898,6 V 5.0169492 H 3.5118644 2.020339 V 6 6.9830508 H 3.5118644 5.0033898 Z M 9.9525424,6 V 5.0169492 H 7.9864407 6.020339 V 6 6.9830508 H 7.9864407 9.9525424 Z M 13.952542,6 V 5.0169492 H 12.494915 11.037288 V 6 6.9830508 h 1.457627 1.457627 z"
     id="path869"
     inkscape:connector-curvature="0" />
  <path
     style="opacity:1;fill:#6e6e6e;fill-opacity:1;stroke-width:0.06779661"
     d="M 0.93559322,7.9969595 V 1.9661017 H 7.9864407 15.037288 v 6.0353738 6.0353735 l -7.0508473,-0.0045 -7.05084748,-0.0045 z M 5.0033898,12 V 11.050847 H 3.5118644 2.020339 V 12 12.949153 h 1.4915254 1.4915254 z m 4.9491526,0 V 11.050847 H 7.9864407 6.020339 V 12 12.949153 h 1.9661017 1.9661017 z m 3.9999996,0 V 11.050847 H 12.494915 11.037288 V 12 12.949153 h 1.457627 1.457627 z M 5.0033898,8.9830508 V 8 H 3.5118644 2.020339 v 0.9830508 0.9830509 h 1.4915254 1.4915254 z m 4.9491526,0 V 8 H 7.9864407 6.020339 v 0.9830508 0.9830509 h 1.9661017 1.9661017 z m 3.9999996,0 V 8 h -1.457627 -1.457627 v 0.9830508 0.9830509 h 1.457627 1.457627 z M 5.0033898,6 V 5.0169492 H 3.5118644 2.020339 V 6 6.9830508 H 3.5118644 5.0033898 Z M 9.9525424,6 V 5.0169492 H 7.9864407 6.020339 V 6 6.9830508 H 7.9864407 9.9525424 Z M 13.952542,6 V 5.0169492 H 12.494915 11.037288 V 6 6.9830508 h 1.457627 1.457627 z"
     id="path871"
     inkscape:connector-curvature="0" />
</svg>
