<?xml version="1.0" encoding="UTF-8" standalone="no"?>
<svg
  xmlns:osb="http://www.openswatchbook.org/uri/2009/osb"
  xmlns:dc="http://purl.org/dc/elements/1.1/"
  xmlns:cc="http://creativecommons.org/ns#"
  xmlns:rdf="http://www.w3.org/1999/02/22-rdf-syntax-ns#"
  xmlns="http://www.w3.org/2000/svg"
  xmlns:sodipodi="http://sodipodi.sourceforge.net/DTD/sodipodi-0.dtd"
  xmlns:inkscape="http://www.inkscape.org/namespaces/inkscape"
  sodipodi:docname="scaling-toolbar-logo_dark.svg"
  inkscape:version="0.92.3 (2405546, 2018-03-11)"
  id="svg1054"
  version="1.1"
  viewBox="0 0 3.1749999 3.1750002"
  height="12"
  width="12"
  inkscape:export-filename="/Users/oseppala/Downloads/logo3d-smaller.png"
  inkscape:export-xdpi="96"
  inkscape:export-ydpi="96">
  <defs
     id="defs1048">
    <linearGradient
       osb:paint="gradient"
       id="linearGradient1741">
      <stop
         id="stop1737"
         offset="0"
         style="stop-color:#00ff00;stop-opacity:1;" />
      <stop
         id="stop1739"
         offset="1"
         style="stop-color:#00ff00;stop-opacity:0;" />
    </linearGradient>
  </defs>
  <sodipodi:namedview
     inkscape:snap-object-midpoints="true"
     inkscape:bbox-nodes="true"
     inkscape:snap-bbox="true"
     inkscape:snap-global="true"
     inkscape:window-maximized="1"
     inkscape:window-y="34"
     inkscape:window-x="67"
     inkscape:window-height="1018"
     inkscape:window-width="1853"
     showgrid="true"
     inkscape:document-rotation="0"
     inkscape:current-layer="layer1"
     inkscape:document-units="px"
     inkscape:cy="20.863325"
     inkscape:cx="-38.304081"
     inkscape:zoom="11.155865"
     inkscape:pageshadow="2"
     inkscape:pageopacity="0.0"
     borderopacity="1.0"
     bordercolor="#666666"
     pagecolor="#ffffff"
     id="base"
     units="px"
     inkscape:object-nodes="false">
    <inkscape:grid
       type="xygrid"
       id="grid2030"
       empspacing="4" />
  </sodipodi:namedview>
  <metadata
     id="metadata1051">
    <rdf:RDF>
      <cc:Work
         rdf:about="">
        <dc:format>image/svg+xml</dc:format>
        <dc:type
           rdf:resource="http://purl.org/dc/dcmitype/StillImage" />
        <dc:title></dc:title>
      </cc:Work>
    </rdf:RDF>
  </metadata>
  <g
     id="layer1"
     inkscape:groupmode="layer"
     inkscape:label="Layer 1"
     transform="translate(0,-7.4083334)">
    <g
       id="g2036"
       transform="matrix(0.02894822,0.00110426,-0.00103046,0.02797384,-1.22562,5.8408466)">
      <path
         style="fill:#ffffff;fill-opacity:1;stroke:#000000;stroke-width:3.07195997;stroke-linecap:butt;stroke-linejoin:miter;stroke-miterlimit:4;stroke-dasharray:none;stroke-opacity:1"
         d="m 64.281024,60.644785 c 16.340419,-8.219008 46.886796,-9.224859 63.962516,-2.556831 l 3.77121,22.573319 c 6.88867,0.573217 11.13529,1.641508 18.7375,5.710198 3.93123,15.626869 5.20304,23.372239 0.83448,40.781429 l -11.15382,6.13333 9.1447,28.70891 -85.117377,3.45279 2.030449,-28.71807 C 62.202246,135.5264 52.361384,132.76031 50.758316,130.89055 48.238349,117.96761 46.197773,108.3248 49.365336,92.964348 55.62599,88.050876 69.074179,86.711709 69.074179,86.711709 l 1.701395,-4.300202 -5.984843,-4.843671 z"
         id="path1124"
         sodipodi:nodetypes="ccccccccccccccc"
         inkscape:connector-curvature="0" />
      <path
         sodipodi:nodetypes="cccccccccccccccccccccccc"
         d="m 73.414046,66.888317 0.295561,7.132376 6.142952,5.694385 -3.031133,13.45729 c -7.580257,0.90339 -11.580806,1.424906 -19.305126,5.740044 -1.296916,11.937988 -1.047118,14.513878 1.016149,25.535158 6.789269,3.23132 9.513754,5.03398 16.869242,6.00042 l -1.743412,24.98644 24.854113,-0.97565 2.101918,-22.15458 5.79938,-0.22893 3.83265,21.9414 27.78499,-0.93292 -7.24623,-25.39733 c 7.44581,-1.11504 13.7442,-7.21015 13.7442,-7.21015 0,0 1.11736,-10.32563 -0.70417,-24.850928 -8.0001,-4.014295 -9.41394,-4.727682 -17.89961,-5.08915 L 119.32624,65.23429 C 106.32123,60.874939 89.924423,61.832824 73.414046,66.888317 Z m 31.855264,30.160845 c 0,0 0.47547,13.068878 0.63619,16.359858 l -6.447015,0.2545 -0.626259,-16.324574 c 2.662664,-1.120185 6.437084,-0.289784 6.437084,-0.289784 z"
         style="fill:#ff0090;fill-opacity:1;fill-rule:evenodd;stroke:#000000;stroke-width:3.10163999;stroke-linecap:butt;stroke-linejoin:miter;stroke-miterlimit:4;stroke-dasharray:none;stroke-opacity:1"
         id="path1716-2"
         inkscape:connector-curvature="0" />
    </g>
    <path
       style="fill:#ff0090;fill-opacity:1;stroke-width:0.00791734"
       d="m 2.1621828,10.225743 c -0.287121,-0.002 -0.3108228,-0.0032 -0.314383,-0.01591 -0.00212,-0.0076 -0.022566,-0.146347 -0.04544,-0.3084058 l -0.041591,-0.294657 h -0.12529 c -0.1234861,0 -0.1253471,2.56e-4 -0.1292121,0.017798 -0.00216,0.00979 -0.020168,0.1406033 -0.040024,0.290699 -0.019856,0.1500958 -0.037841,0.2809098 -0.039965,0.2906998 l -0.00386,0.0178 H 1.113509 0.80460351 l 1.67e-5,-0.02175 c 8.7e-6,-0.01196 0.015938,-0.16578 0.035398,-0.3418108 0.025732,-0.2327604 0.032934,-0.3215669 0.026409,-0.3255928 -0.00494,-0.00304 -0.025322,-0.00784 -0.045304,-0.010648 C 0.72970061,9.511096 0.62926443,9.4773962 0.51009414,9.4195987 0.39470233,9.3636339 0.3856488,9.3576607 0.3815148,9.3347662 0.3656886,9.247121 0.35290578,9.1094767 0.35290578,9.0267077 c 0,-0.083243 0.0155384,-0.2581488 0.0275997,-0.3106669 0.00291,-0.012651 0.0233786,-0.024371 0.0851882,-0.048767 0.0447491,-0.017661 0.10039362,-0.037654 0.12365331,-0.044426 0.0514723,-0.014988 0.17754202,-0.033674 0.27674922,-0.04102 l 0.07338,-0.00543 0.011558,-0.040502 c 0.00636,-0.022276 0.032979,-0.1188128 0.05916,-0.2145261 L 1.0577962,8.147346 0.97115221,8.060334 0.88450921,7.973323 0.87917921,7.901462 0.87384921,7.8296 0.95559321,7.812225 C 1.1977781,7.760749 1.3656231,7.744509 1.5991951,7.749955 c 0.1900628,0.00443 0.3003517,0.019131 0.4404146,0.058697 0.055697,0.015734 0.075801,0.025014 0.081072,0.037425 0.00385,0.00907 0.042474,0.1707836 0.085821,0.3593492 0.043347,0.1885657 0.080742,0.3447732 0.083101,0.347128 0.00236,0.00236 0.037393,0.00728 0.077852,0.010939 0.1477067,0.013369 0.2526768,0.044949 0.3746946,0.112727 0.04558,0.025319 0.047808,0.028015 0.053846,0.065175 0.00893,0.054949 0.00825,0.4695777 -8.867e-4,0.5430406 -0.0087,0.069954 -0.00922,0.070582 -0.1049108,0.1276641 -0.084624,0.05048 -0.1727637,0.083686 -0.2500547,0.094207 -0.046349,0.00631 -0.066485,0.01231 -0.066485,0.019814 0,0.00592 0.039231,0.1644225 0.087181,0.3522276 0.047949,0.1878055 0.087176,0.3441335 0.08717,0.3473955 -6.1e-6,0.0033 -0.016949,0.0051 -0.037653,0.0041 -0.020703,-9.98e-4 -0.1773812,-0.0029 -0.348174,-0.004 z M 1.7713952,8.9075077 V 8.6353956 l -0.041604,-0.00999 c -0.055356,-0.013294 -0.1683104,-0.011965 -0.2080188,0.00244 l -0.031698,0.011505 -0.00209,0.2701299 -0.00209,0.2701297 h 0.1427454 0.1427454 z"
       id="path4545"
       inkscape:connector-curvature="0" />
    <path
       style="fill:#6e6e6e;fill-opacity:1;stroke-width:0.00791734"
       d="m 2.1185937,10.225744 c -0.24561,-0.002 -0.2672593,-0.0033 -0.2707981,-0.01593 -0.00212,-0.0076 -0.022561,-0.146333 -0.045436,-0.3083928 l -0.04159,-0.294651 h -0.125291 c -0.1235066,0 -0.1253456,2.56e-4 -0.1291431,0.017798 -0.00212,0.00979 -0.020081,0.1406033 -0.039917,0.290699 -0.019835,0.1500958 -0.037851,0.2809098 -0.040034,0.2906998 l -0.00397,0.0178 H 1.113509 0.80460351 v -0.02162 c 0,-0.01189 0.014434,-0.153213 0.032076,-0.3140517 0.017641,-0.1608381 0.031014,-0.3065814 0.029717,-0.3238742 l -0.00236,-0.031441 -0.071321,-0.01389 C 0.68229177,9.4973832 0.6436647,9.4837697 0.50993563,9.4192275 L 0.385645,9.3592405 0.377255,9.3070035 C 0.34945109,9.1338037 0.345782,8.991253 0.36491548,8.8275693 c 0.00661,-0.056531 0.0138793,-0.1086951 0.0161584,-0.1159202 0.00444,-0.014087 0.1152467,-0.061753 0.20136017,-0.086622 0.0597245,-0.017248 0.17943206,-0.035483 0.28354876,-0.043191 l 0.073271,-0.00543 0.00784,-0.028645 c 0.00431,-0.015755 0.030856,-0.1122953 0.058989,-0.2145344 l 0.05115,-0.1858887 -0.087636,-0.08808 -0.087636,-0.088079 -0.00404,-0.070796 -0.00404,-0.070796 0.081731,-0.017372 C 1.197851,7.760727 1.3656538,7.744497 1.5992002,7.749966 c 0.1314576,0.00307 0.2012506,0.00855 0.2750207,0.021564 0.1021615,0.018022 0.2287322,0.051261 0.2409268,0.063272 0.00383,0.00376 0.043941,0.1661 0.089147,0.36074 0.045206,0.1946401 0.08357,0.3552656 0.085254,0.3569458 0.00168,0.00168 0.038237,0.00646 0.081229,0.010625 0.146194,0.014158 0.2503666,0.045883 0.3713763,0.1131009 0.04558,0.025319 0.047808,0.028015 0.053846,0.065175 0.00896,0.055127 0.00824,0.4696778 -9.433e-4,0.5435466 -0.00863,0.069433 -0.00468,0.064539 -0.1003811,0.1243626 -0.080585,0.050375 -0.1706362,0.085042 -0.2514419,0.096798 -0.034916,0.00508 -0.065008,0.013198 -0.066869,0.018041 -0.00186,0.00484 0.035996,0.1627709 0.084127,0.3509521 0.048131,0.188182 0.087511,0.345395 0.087511,0.349365 0,0.004 -0.036197,0.0064 -0.081226,0.0054 -0.044674,-9.98e-4 -0.2013547,-0.0029 -0.3481782,-0.0041 z M 1.7713952,8.9072797 V 8.6349394 l -0.044342,-0.00919 c -0.052048,-0.010786 -0.1878182,-0.00683 -0.2191486,0.00639 l -0.021793,0.00919 V 8.910471 9.1796128 H 1.628753 1.7713944 Z"
       id="path4547"
       inkscape:connector-curvature="0" />
    <path
       style="fill:#afb1b3;fill-opacity:1;stroke-width:0.00791734"
       d="m 0.80518991,10.205523 c 0.00398,-0.01438 0.00815,-0.05884 0.00927,-0.09879 0.00112,-0.03996 0.00507,-0.07268 0.00877,-0.07273 0.00371,-4.8e-5 0.00547,-0.0161 0.0039,-0.03568 -0.00156,-0.019578 1.326e-4,-0.035595 0.00376,-0.035595 0.00363,0 0.00566,-0.015274 0.00451,-0.03394 -0.00115,-0.018668 1.503e-4,-0.037561 0.00289,-0.041986 0.00274,-0.00442 0.00746,-0.041656 0.010497,-0.082734 0.00303,-0.04108 0.00699,-0.088928 0.0088,-0.1063303 0.0018,-0.017402 0.00511,-0.063261 0.00734,-0.1019076 0.00393,-0.06801 0.00354,-0.07013 -0.012285,-0.065999 -0.00899,0.00235 -0.016348,0.00166 -0.016348,-0.00154 0,-0.00774 -0.1015926,-0.02617 -0.11128117,-0.020194 -0.00417,0.00258 -0.00759,0.00156 -0.00759,-0.00226 0,-0.00381 -0.0205045,-0.013359 -0.0455661,-0.021213 -0.0250596,-0.00786 -0.0999465,-0.040279 -0.16641369,-0.072055 -0.11708215,-0.055973 -0.12084894,-0.058531 -0.12084894,-0.082086 0,-0.013372 -0.00285,-0.024313 -0.00633,-0.024313 -0.00348,0 -0.00488,-0.012459 -0.0031,-0.027686 0.00178,-0.015227 1.732e-4,-0.027685 -0.00357,-0.027685 -0.00816,0 -0.00928,-0.028184 -0.00912,-0.2293951 1.6531e-4,-0.20193 0.00115,-0.229395 0.00825,-0.229395 0.00327,0 0.00594,-0.00845 0.00594,-0.018786 0,-0.054819 0.00746,-0.065668 0.0625606,-0.091021 0.0291337,-0.013404 0.0742259,-0.031672 0.10020492,-0.040595 0.0522213,-0.017937 0.20548868,-0.047351 0.24673348,-0.047351 0.014492,0 0.02635,-0.0027 0.02635,-0.00599 0,-0.00329 0.016095,-0.00471 0.035768,-0.00315 0.019672,0.00156 0.04196,1.501e-4 0.049528,-0.00313 0.00757,-0.00328 0.020004,-0.0052 0.027635,-0.00426 0.015118,0.00187 0.033259,-0.034014 0.026321,-0.052063 -0.00222,-0.00578 -0.00132,-0.010501 0.002,-0.010501 0.00815,0 0.026587,-0.070412 0.020859,-0.079664 -0.0025,-0.00404 -0.0012,-0.00735 0.0029,-0.00735 0.00917,0 0.0274,-0.069121 0.020969,-0.079508 -0.00256,-0.00412 -0.00129,-0.00751 0.00281,-0.00751 0.00917,0 0.0274,-0.069121 0.020969,-0.079508 -0.00256,-0.00412 -0.00129,-0.00751 0.00281,-0.00751 0.00917,0 0.0274,-0.06912 0.020969,-0.079508 -0.00256,-0.00412 -8.665e-4,-0.00751 0.00375,-0.00751 0.011305,0 0.010596,-0.013665 -0.00151,-0.02918 -0.00545,-0.00698 -0.044212,-0.048655 -0.086141,-0.09261 l -0.076235,-0.079918 -0.0046,-0.063442 c -0.00253,-0.034893 -0.0021,-0.066929 9.521e-4,-0.071192 0.00306,-0.00426 0.019817,-0.00863 0.03725,-0.00972 0.017432,-0.00109 0.032893,-0.00555 0.034356,-0.00993 0.00146,-0.00438 0.00567,-0.00611 0.00934,-0.00384 0.0084,0.00518 0.15838109,-0.020955 0.15838109,-0.027599 0,-0.00269 0.012481,-0.00343 0.027736,-0.00166 0.015254,0.00178 0.027736,1.73e-4 0.027736,-0.00356 0,-0.00947 0.028726,-0.010583 0.3585846,-0.013862 0.1886462,-0.00188 0.2912262,-1.393e-4 0.2912262,0.00493 0,0.0043 0.012481,0.00637 0.027736,0.00459 0.015254,-0.00178 0.027736,-7.836e-4 0.027736,0.00221 0,0.00299 0.013372,0.00783 0.029717,0.010745 0.07964,0.014213 0.1892326,0.045807 0.1976977,0.056996 0.00522,0.0069 0.022662,0.068181 0.038759,0.1361835 0.016097,0.068002 0.031954,0.124701 0.035234,0.1259972 0.00328,0.0013 0.00415,0.0093 0.00192,0.017798 -0.00232,0.00884 -6.76e-5,0.015441 0.00527,0.015441 0.00512,0 0.00708,0.00361 0.00434,0.00803 -0.00664,0.010719 0.012533,0.094802 0.021613,0.094802 0.00392,0 0.00518,0.00315 0.00279,0.00702 -0.00636,0.010265 0.012234,0.095816 0.020819,0.095816 0.00401,0 0.00539,0.00307 0.00306,0.00684 -0.00601,0.0097 0.013097,0.09599 0.021253,0.09599 0.00372,0 0.00462,0.00344 0.00201,0.00766 -0.00687,0.011093 0.016931,0.096435 0.029136,0.1044767 0.00568,0.00374 0.022813,0.00627 0.038067,0.0056 0.015254,-6.619e-4 0.03402,0.00145 0.041701,0.00469 0.00768,0.00324 0.02462,0.00433 0.037641,0.00243 0.013022,-0.00191 0.023677,-5.296e-4 0.023677,0.00307 0,0.00359 0.00852,0.00654 0.018924,0.00654 0.074525,0 0.3151726,0.102239 0.3316727,0.140911 0.010289,0.024116 0.014146,0.5789125 0.00403,0.578914 -0.00327,5e-7 -0.00594,0.00853 -0.00594,0.018957 0,0.049263 -0.18323,0.153241 -0.3169808,0.1798792 -0.02833,0.00564 -0.053292,0.012156 -0.055471,0.014476 -0.00218,0.00232 -0.010739,0.00422 -0.019022,0.00422 -0.016079,0 -0.026288,0.031154 -0.012912,0.039406 0.00411,0.00254 0.0056,0.00947 0.00331,0.015418 -0.00229,0.00595 -5.039e-4,0.013066 0.00396,0.015821 0.00447,0.00276 0.00625,0.00987 0.00396,0.015821 -0.00229,0.00595 -6.807e-4,0.012955 0.00356,0.015575 0.00425,0.00262 0.00586,0.011879 0.00358,0.020575 -0.00228,0.00869 -4.951e-4,0.015813 0.00396,0.015813 0.00446,0 0.00624,0.00712 0.00396,0.015821 -0.00228,0.0087 -4.95e-4,0.015821 0.00396,0.015821 0.00446,0 0.00624,0.00712 0.00396,0.015821 -0.00228,0.0087 -4.951e-4,0.015821 0.00396,0.015821 0.00446,0 0.00624,0.00712 0.00396,0.015821 -0.00228,0.0087 -4.951e-4,0.015821 0.00396,0.015821 0.00446,0 0.00624,0.00712 0.00396,0.015821 -0.00241,0.00919 -2.475e-4,0.015821 0.00517,0.015821 0.00512,0 0.00723,0.00336 0.00469,0.00748 -0.0058,0.00936 0.057843,0.2645677 0.06678,0.2677817 0.0036,0.0013 0.00473,0.0093 0.00251,0.0178 -0.00223,0.0085 -3.978e-4,0.01544 0.00406,0.01544 0.00446,0 0.00624,0.0071 0.00396,0.01582 -0.00228,0.0087 -0.00105,0.01582 0.00272,0.01582 0.00378,0 0.00709,0.0098 0.00737,0.02175 2.74e-4,0.01196 0.00335,0.0351 0.00683,0.05142 l 0.00632,0.02967 -0.2802214,-4.7e-5 c -0.1540981,-1.2e-5 -0.3096174,-0.0023 -0.3455751,-0.0051 -0.056517,-0.0044 -0.065378,-0.0071 -0.065378,-0.01972 0,-0.0081 -0.00285,-0.01464 -0.00633,-0.01464 -0.00348,0 -0.00488,-0.01246 -0.00309,-0.02768 0.00178,-0.01522 -2.2e-6,-0.02768 -0.00396,-0.02768 -0.00396,0 -0.00574,-0.01246 -0.00396,-0.02768 0.00178,-0.01522 -2.1e-6,-0.02769 -0.00396,-0.02769 -0.00396,0 -0.00574,-0.01246 -0.00396,-0.02768 0.00178,-0.01522 -2.1e-6,-0.02768 -0.00396,-0.02768 -0.00396,0 -0.00574,-0.01246 -0.00396,-0.027686 0.00182,-0.015592 -2.74e-4,-0.027685 -0.00481,-0.027685 -0.00443,0 -0.0062,-0.00707 -0.00394,-0.015702 0.00226,-0.00863 0.00143,-0.021985 -0.00184,-0.029663 -0.00327,-0.00768 -0.00519,-0.025529 -0.00425,-0.039669 9.37e-4,-0.01414 -0.00142,-0.025708 -0.00524,-0.025708 -0.00382,0 -0.00548,-0.012459 -0.0037,-0.027685 0.00178,-0.015227 -2.1e-6,-0.027685 -0.00396,-0.027685 -0.00396,0 -0.00574,-0.012459 -0.00396,-0.027686 0.00178,-0.015227 -2.2e-6,-0.027686 -0.00396,-0.027686 -0.00396,0 -0.00574,-0.012459 -0.00396,-0.027686 0.00178,-0.015227 -2.1e-6,-0.027685 -0.00396,-0.027685 -0.00396,0 -0.00574,-0.012459 -0.00396,-0.027685 0.00193,-0.016519 -2.033e-4,-0.027685 -0.0053,-0.027685 -0.0047,0 -0.00641,-0.00554 -0.00381,-0.012308 0.00418,-0.010927 -0.010313,-0.012167 -0.123817,-0.010652 -0.096416,0.00129 -0.1295296,0.00427 -0.1324734,0.011926 -0.00216,0.00562 -0.0045,0.02993 -0.00521,0.054033 -7.073e-4,0.024103 -0.00434,0.043852 -0.00809,0.043888 -0.00375,3.16e-5 -0.00536,0.012467 -0.00359,0.027625 0.00177,0.015159 4.685e-4,0.028507 -0.00289,0.029663 -0.00336,0.00116 -0.0071,0.027877 -0.0083,0.059379 -0.0012,0.031503 -0.00525,0.05731 -0.00899,0.057348 -0.00375,3.96e-5 -0.00536,0.012475 -0.00359,0.027633 0.00177,0.015159 6.453e-4,0.028507 -0.0025,0.029663 -0.00315,0.00116 -0.00688,0.02702 -0.0083,0.057473 -0.00142,0.03045 -0.00516,0.05731 -0.00832,0.05967 -0.00316,0.0024 -0.00672,0.02992 -0.00792,0.06123 -0.0012,0.03131 -0.00486,0.05697 -0.00813,0.05701 -0.00327,4e-5 -0.00594,0.01075 -0.00594,0.02381 V 10.2317 H 1.1103364 0.79795661 Z M 1.7674329,8.9047398 V 8.6298626 l -0.021793,3.089e-4 c -0.011985,1.677e-4 -0.021793,-0.0023 -0.021793,-0.00549 0,-0.00856 -0.1813882,-0.0066 -0.1867267,0.00203 -0.00251,0.00405 -0.00791,0.00529 -0.012005,0.00276 -0.0041,-0.00253 -0.014548,-0.00235 -0.023226,4.059e-4 -0.015352,0.00486 -0.015778,0.012354 -0.015778,0.2773667 v 0.272368 l 0.1406603,-1.5e-6 0.1406602,-1.5e-6 z"
       id="path840"
       inkscape:connector-curvature="0" />
  </g>
</svg>
