<?xml version="1.0" encoding="UTF-8" standalone="no"?>
<svg
  xmlns:dc="http://purl.org/dc/elements/1.1/"
  xmlns:cc="http://creativecommons.org/ns#"
  xmlns:rdf="http://www.w3.org/1999/02/22-rdf-syntax-ns#"
  xmlns="http://www.w3.org/2000/svg"
  xmlns:sodipodi="http://sodipodi.sourceforge.net/DTD/sodipodi-0.dtd"
  xmlns:inkscape="http://www.inkscape.org/namespaces/inkscape"
  width="16"
  height="16"
  viewBox="0 0 16 16"
  version="1.1"
  id="svg5"
  sodipodi:docname="web_pink.svg"
  inkscape:version="0.92.3 (2405546, 2018-03-11)">
  <metadata
     id="metadata11">
    <rdf:RDF>
      <cc:Work
         rdf:about="">
        <dc:format>image/svg+xml</dc:format>
        <dc:type
           rdf:resource="http://purl.org/dc/dcmitype/StillImage" />
        <dc:title></dc:title>
      </cc:Work>
    </rdf:RDF>
  </metadata>
  <defs
     id="defs9" />
  <sodipodi:namedview
     pagecolor="#ffffff"
     bordercolor="#666666"
     borderopacity="1"
     objecttolerance="10"
     gridtolerance="10"
     guidetolerance="10"
     inkscape:pageopacity="0"
     inkscape:pageshadow="2"
     inkscape:window-width="1853"
     inkscape:window-height="1018"
     id="namedview7"
     showgrid="false"
     inkscape:zoom="14.75"
     inkscape:cx="8"
     inkscape:cy="8"
     inkscape:window-x="67"
     inkscape:window-y="34"
     inkscape:window-maximized="1"
     inkscape:current-layer="svg5" />
  <rect
     id="frame"
     width="16"
     height="16"
     fill="none" />
  <path
     fill="#6E6E6E"
     fill-rule="evenodd"
     d="M8 1C4.136 1 1 4.136 1 8s3.136 7 7 7 7-3.136 7-7-3.136-7-7-7zm-.7 12.551A5.592 5.592 0 0 1 2.4 8c0-.434.056-.847.147-1.253L5.9 10.1v.7c0 .77.63 1.4 1.4 1.4v1.351zm4.83-1.778a1.389 1.389 0 0 0-1.33-.973h-.7V8.7c0-.385-.315-.7-.7-.7H5.2V6.6h1.4c.385 0 .7-.315.7-.7V4.5h1.4c.77 0 1.4-.63 1.4-1.4v-.287A5.603 5.603 0 0 1 13.6 8a5.57 5.57 0 0 1-1.47 3.773z"
     id="path3" />
  <path
     style="opacity:1;fill:#ff0090;fill-opacity:1;stroke-width:0.06779661"
     d="M 7.0847458,14.973085 C 4.7737559,14.677941 2.7310546,13.203858 1.6965018,11.084746 0.39537054,8.4195905 0.86415667,5.3347542 2.8979171,3.178861 4.2656129,1.7290313 5.9734833,0.99860805 8,0.99679836 c 1.9026054,-0.001699 3.462773,0.61938114 4.846733,1.92941464 2.494873,2.3616055 2.893497,6.1260778 0.956405,9.031988 -1.442829,2.164448 -4.0868736,3.350965 -6.7183922,3.014884 z m 0.1694915,-2.125627 c 0,-0.602263 -0.00894,-0.644068 -0.1377708,-0.644068 -0.1997662,0 -0.6147812,-0.186301 -0.8001052,-0.359168 C 6.0148016,11.562932 5.8983051,11.233825 5.8983051,10.663199 V 10.134555 L 4.2460388,8.4833214 C 3.1477009,7.3856698 2.576626,6.8598315 2.5426273,6.9148425 2.431945,7.0939302 2.4231953,8.4346827 2.5290681,8.9925573 2.9217957,11.061953 4.4175698,12.720923 6.440678,13.330942 7.2832391,13.584996 7.2542373,13.602231 7.2542373,12.847458 Z M 12.46518,11.300855 C 12.833209,10.802673 13.190666,10.070463 13.371926,9.4434908 13.588735,8.6935553 13.587709,7.3199309 13.36977,6.5559877 12.933948,5.0282974 11.872805,3.7395823 10.465568,3.0289508 L 10.117576,2.8532205 10.088819,3.2507816 C 10.056435,3.6984864 9.8764624,4.0211303 9.5246454,4.2621995 9.1945797,4.4883637 8.9170956,4.5423729 8.0851932,4.5423729 H 7.3220339 v 0.8124897 c 0,0.8017102 -0.00262,0.8154272 -0.1976631,1.0338983 L 6.9267077,6.6101695 6.0735233,6.6326479 5.220339,6.6551263 V 7.3275632 8 H 7.4628422 9.7053458 L 9.90352,8.1981749 10.101695,8.3963492 v 1.1846989 1.1846989 l 0.559322,0.02597 c 0.687049,0.0319 1.012699,0.177002 1.294518,0.576822 0.113388,0.160865 0.214579,0.292481 0.224869,0.292481 0.01029,0 0.138439,-0.162073 0.284776,-0.360162 z"
     id="path822"
     inkscape:connector-curvature="0" />
</svg>
