<?xml version="1.0" encoding="UTF-8"?>
<svg xmlns="http://www.w3.org/2000/svg" width="40" height="40" version="1.1" viewBox="0 0 40 40">
  <defs>
    <radialGradient id="g" cx="20" cy="19.9" fx="20" fy="19.9" r="20" gradientTransform="translate(0 39.9) scale(1 -1)" gradientUnits="userSpaceOnUse">
      <stop offset="0" stop-color="#2f292e"/>
      <stop offset="1" stop-color="#000"/>
    </radialGradient>
    <linearGradient id="g1" x1="23.8" y1="21.8" x2="8.2" y2="12.8" gradientUnits="userSpaceOnUse">
      <stop offset=".3" stop-color="#ffebf6"/>
      <stop offset=".6" stop-color="#ff6ec0"/>
      <stop offset=".8" stop-color="#fff0f8"/>
    </linearGradient>
    <linearGradient id="g2" x1="1.14" y1="27.9" x2="18.6" y2="-1.7" gradientUnits="userSpaceOnUse">
      <stop offset="0" stop-color="#990084"/>
      <stop offset=".2" stop-color="#b50079"/>
      <stop offset=".5" stop-color="#ff0392"/>
      <stop offset=".8" stop-color="#ff0091"/>
      <stop offset="1" stop-color="#ff62e5"/>
    </linearGradient>
  </defs>
  <path fill="url(#g)"  d="M33.8,40H6.2c-3.4,0-6.2-2.8-6.2-6.2V6.2C0,2.8,2.8,0,6.2,0h27.7C37.2,0,40,2.8,40,6.2v27.7c0,3.3-2.8,6.1-6.2,6.1Z"/>
  <path fill="url(#g1)" d="M17,35h7v-11h11s0-7,0-7h-11V5h-7v12H6v7h11s0,11,0,11Z"/>
  <path fill="url(#g2)" d="M9,35L24,5h-7L2,35h7Z"/>
</svg>