<svg version="1.1"
	 xmlns="http://www.w3.org/2000/svg" xmlns:xlink="http://www.w3.org/1999/xlink" x="0px" y="0px" width="40px" height="40px"
	 viewBox="0 0 40 40">
<radialGradient id="SVGID_1_" cx="20" cy="20" r="20" gradientUnits="userSpaceOnUse">
	<stop  offset="7.103588e-02" style="stop-color:#2F292E"/>
	<stop  offset="1" style="stop-color:#000000"/>
</radialGradient>
<path fill="url(#SVGID_1_)" d="M33.8,40H6.2C2.8,40,0,37.2,0,33.8V6.2C0,2.8,2.8,0,6.2,0h27.7C37.2,0,40,2.8,40,6.2v27.7
	C40,37.2,37.2,40,33.8,40z"/>
<path fill="#FFFFFF" d="M20,35l6,0V23l12,0v-6l-12,0V5l-6,0v12L7,17v6l13,0L20,35z"/>
<defs>
	<filter id="Adobe_OpacityMaskFilter" filterUnits="userSpaceOnUse" x="-3.6" y="3" width="35.6" height="34">
			<feColorMatrix  type="matrix" values="-1 0 0 0 1  0 -1 0 0 1  0 0 -1 0 1  0 0 0 1 0" color-interpolation-filters="sRGB" result="source"/>
	</filter>
</defs>
<mask maskUnits="userSpaceOnUse" x="-3.6" y="3" width="35.6" height="34" id="SVGID_00000162349003219330535330000018112293282550787760_">
	<g filter="url(#Adobe_OpacityMaskFilter)">
		
			<linearGradient id="SVGID_00000026137039105502903890000014180108750982394246_" gradientUnits="userSpaceOnUse" x1="-204.8676" y1="325.1532" x2="-204.5586" y2="333.9386" gradientTransform="matrix(3.7796 0 0 -3.7796 788.5005 1265.6385)">
			<stop  offset="0" style="stop-color:#FFFFFF"/>
			<stop  offset="9.098136e-02" style="stop-color:#000000"/>
			<stop  offset="0.8929" style="stop-color:#181818"/>
			<stop  offset="0.9974" style="stop-color:#FFFFFF"/>
		</linearGradient>
		<path fill="url(#SVGID_00000026137039105502903890000014180108750982394246_)" d="M10.1,37L32.6,3H18.9L-3,37H10.1z"/>
	</g>
</mask>
<linearGradient id="SVGID_00000124152550558412294070000002184188190773961621_" gradientUnits="userSpaceOnUse" x1="-206.1827" y1="330.3358" x2="-203.6244" y2="328.8414" gradientTransform="matrix(3.7796 0 0 -3.7796 788.5005 1265.6385)">
	<stop  offset="0.1067" style="stop-color:#FF0091;stop-opacity:0"/>
	<stop  offset="0.3482" style="stop-color:#FF0292;stop-opacity:0.6"/>
	<stop  offset="0.6298" style="stop-color:#FF0392;stop-opacity:0.6"/>
	<stop  offset="0.8349" style="stop-color:#FF01C3;stop-opacity:7.718254e-02"/>
	<stop  offset="0.9594" style="stop-color:#FF00D5;stop-opacity:0"/>
</linearGradient>
<path mask="url(#SVGID_00000162349003219330535330000018112293282550787760_)" fill="url(#SVGID_00000124152550558412294070000002184188190773961621_)" d="
	M9.5,37L32,3H18.3L-3.6,37H9.5z"/>
<path d="M21,34l4,0V22l12,0v-4l-12,0V6l-4,0v12L8,18v4l13,0L21,34z"/>
<linearGradient id="SVGID_00000177463805773162679610000010030135729166417061_" gradientUnits="userSpaceOnUse" x1="-207.2517" y1="325.6054" x2="-202.5144" y2="333.5845" gradientTransform="matrix(3.7796 0 0 -3.7796 788.5005 1265.6385)">
	<stop  offset="0" style="stop-color:#58004C"/>
	<stop  offset="0.25" style="stop-color:#B50079"/>
	<stop  offset="0.5" style="stop-color:#FF0392"/>
	<stop  offset="0.75" style="stop-color:#FF0091"/>
	<stop  offset="1" style="stop-color:#FF62E5"/>
</linearGradient>
<path fill="url(#SVGID_00000177463805773162679610000010030135729166417061_)" d="M8,35L26,5h-6.1L2.2,35H8z"/>
</svg>
